<?xml version="1.0" encoding="utf-8"?>
<!-- Generator: Adobe Illustrator 15.1.0, SVG Export Plug-In . SVG Version: 6.00 Build 0)  -->
<!DOCTYPE svg PUBLIC "-//W3C//DTD SVG 1.1//EN" "http://www.w3.org/Graphics/SVG/1.1/DTD/svg11.dtd">
<svg version="1.1" id="Layer_1" xmlns="http://www.w3.org/2000/svg" xmlns:xlink="http://www.w3.org/1999/xlink" x="0px" y="0px"
	 width="807px" height="180px" viewBox="0 0 807 180" enable-background="new 0 0 807 180" xml:space="preserve">
<rect y="75.506" fill="#95519E" width="121.334" height="103.987"/>
<g>
	<path fill="#FFFFFF" d="M58.318,155.982l-8.442,7.33H26.372l-8.264-7.287v-25.103l-2.71-2.487l2.71-2.533V93.514h12.885v32.389
		l2.71,2.533l-2.71,2.487v19.505h14.44v-19.505l-2.71-2.487l2.71-2.533V93.514h12.885v32.389l2.666,2.533l-2.666,2.487V155.982z"/>
	<path fill="#FFFFFF" d="M101.707,156.025l-8.219,7.287h-22.26l-8.308-7.287v-11.239h12.885v5.644h13.018v-15.552H71.228
		l-8.308-7.331v-26.702l8.308-7.331h22.26l8.219,7.286v10.841H88.823v-5.242H75.805v15.551h17.683l8.219,7.331V156.025z"/>
</g>
<g>
	<path d="M35.031,63.506h-10.1L23.202,51.95H10.92L9.19,63.506H0.001l10.19-63.692H24.84L35.031,63.506z M12.193,43.307h9.645
		l-4.822-32.21L12.193,43.307z"/>
	<path d="M68.716,14.464v2.274c0,6.551-2.001,10.737-6.46,12.83c5.368,2.093,7.461,6.915,7.461,13.648v5.187
		c0,9.827-5.186,15.104-15.194,15.104H38.781V-0.186h15.104C64.258-0.186,68.716,4.637,68.716,14.464z M48.79,8.914v16.833h3.912
		c3.73,0,6.006-1.638,6.006-6.733v-3.549c0-4.549-1.547-6.551-5.096-6.551H48.79z M48.79,34.845v19.562h5.732
		c3.366,0,5.186-1.547,5.186-6.278v-5.55c0-5.914-1.91-7.734-6.46-7.734H48.79z"/>
	<path d="M73.712,15.101c0-10.19,5.368-16.014,15.195-16.014c9.827,0,15.195,5.823,15.195,16.014v33.12
		c0,10.191-5.368,16.014-15.195,16.014c-9.827,0-15.195-5.824-15.195-16.015V15.101z M83.721,48.857
		c0,4.549,2.002,6.278,5.187,6.278c3.185,0,5.187-1.729,5.187-6.278V14.464c0-4.549-2.002-6.278-5.187-6.278
		c-3.185,0-5.187,1.729-5.187,6.278V48.857z"/>
	<path d="M118.553-0.186v49.134c0,4.549,2.002,6.187,5.187,6.187c3.185,0,5.187-1.638,5.187-6.187V-0.186h9.462v48.497
		c0,10.19-5.095,16.014-14.922,16.014c-9.826,0-14.922-5.823-14.922-16.014V-0.186H118.553z"/>
	<path d="M141.81-0.186h30.937v9.099h-10.464v54.593h-10.009V8.914H141.81V-0.186z"/>
</g>
</svg>
