<?xml version="1.0" encoding="utf-8"?>
<!-- Generator: Adobe Illustrator 15.1.0, SVG Export Plug-In . SVG Version: 6.00 Build 0)  -->
<!DOCTYPE svg PUBLIC "-//W3C//DTD SVG 1.1//EN" "http://www.w3.org/Graphics/SVG/1.1/DTD/svg11.dtd">
<svg version="1.1" id="Layer_1" xmlns="http://www.w3.org/2000/svg" xmlns:xlink="http://www.w3.org/1999/xlink" x="0px" y="0px"
	 width="521px" height="24px" viewBox="0 0 521 24" enable-background="new 0 0 521 24" xml:space="preserve">
<g>
	<path d="M29.507,23.814c-6.514,0-11.813-5.301-11.813-11.814c0-6.514,5.3-11.814,11.813-11.814c6.515,0,11.815,5.3,11.815,11.814
		C41.322,18.514,36.022,23.814,29.507,23.814z M29.507,1.472C23.703,1.472,18.98,6.194,18.98,12c0,5.805,4.723,10.527,10.527,10.527
		c5.806,0,10.529-4.723,10.529-10.527C40.037,6.194,35.313,1.472,29.507,1.472z"/>
	<path d="M-0.02,4.854h8.21c3.206,0,5.342,0.9,5.342,3.486c0,1.725-0.843,2.362-1.575,2.83c0.956,0.413,2.1,1.575,2.1,3.355
		c0,2.568-2.043,3.955-5.361,3.955H-0.02V4.854z M8.359,10.234c1.744,0,2.512-0.431,2.512-1.574c0-1.162-0.768-1.594-2.512-1.594
		H2.642v3.168H8.359z M8.435,16.271c1.686,0,2.961-0.338,2.961-1.949c0-1.426-1.163-1.875-2.961-1.875H2.642v3.825H8.435z"/>
	<path d="M24.649,7.1h6.06c2.385,0,4.104,0.541,4.104,3.009c0,1.858-1.331,2.884-2.814,2.968l3.092,4.104h-2.427l-2.925-3.968
		h-3.121v3.968h-1.969V7.1z M30.418,11.578c1.608,0,2.427-0.235,2.427-1.428c0-1.18-0.818-1.415-2.427-1.415h-3.8v2.843H30.418z"/>
	<path d="M51.203,4.854h3.036l6.617,13.628h-2.812l-1.424-3.131h-7.854l-1.443,3.131h-2.83L51.203,4.854z M55.57,13.064
		l-2.849-6.073l-2.85,6.073H55.57z"/>
	<path d="M68.431,4.854h2.812l9.109,9.841V4.854h2.549v13.628h-2.436L70.981,8.284v10.198h-2.55V4.854z"/>
	<path d="M91.939,4.854H98.5c4.311,0,7.76,1.818,7.76,6.729c0,4.647-3.149,6.897-7.647,6.897H91.94L91.939,4.854L91.939,4.854z
		 M97.3,16.195c4.537,0,6.299-1.387,6.299-4.574c0-3.337-1.837-4.479-6.299-4.479h-2.699v9.053H97.3L97.3,16.195z"/>
	<path d="M123.321,4.854h2.662v13.628h-2.662V4.854z"/>
	<path d="M135.188,4.854H138l9.111,9.841V4.854h2.547v13.628h-2.438l-9.483-10.198v10.198h-2.55V4.854L135.188,4.854z"/>
	<path d="M171.893,4.854h3.035l6.618,13.628h-2.812l-1.424-3.131h-7.854l-1.442,3.131h-2.83L171.893,4.854z M176.26,13.064
		l-2.849-6.073l-2.849,6.073H176.26z"/>
	<path d="M203.441,13.627c-0.262,1.52-1.35,5.191-7.611,5.191c-4.309,0-7.702-2.397-7.702-7.366c0-3.974,2.494-6.935,7.911-6.935
		c6.091,0,6.99,3.955,7.195,4.686h-2.66c-0.15-0.469-1.2-2.398-4.387-2.398c-3.769,0-5.342,2.117-5.342,4.948
		c0,3.131,2.268,4.78,5.192,4.78c3.11,0,4.479-1.856,4.739-2.906H203.441z"/>
	<path d="M216.451,7.142h-6.092V4.854h14.846v2.287h-6.09v11.341h-2.664V7.142z"/>
	<path d="M233.174,4.854h2.663v13.628h-2.663V4.854z"/>
	<path d="M252.275,4.518c6,0,8.115,3.523,8.115,7.254c0,2.83-1.668,7.048-8.115,7.048s-8.116-4.219-8.116-7.048
		C244.159,8.041,246.277,4.518,252.275,4.518z M257.732,11.621c0-3.28-2.346-4.816-5.457-4.816c-3.11,0-5.453,1.536-5.453,4.816
		c0,3.861,2.904,4.912,5.453,4.912C254.825,16.533,257.732,15.482,257.732,11.621z"/>
	<path d="M268.549,4.854h2.812l9.107,9.841V4.854h2.551v13.628h-2.438l-9.483-10.198v10.198h-2.55L268.549,4.854L268.549,4.854z"/>
</g>
</svg>
