<?xml version="1.0" encoding="utf-8"?>
<!-- Generator: Adobe Illustrator 15.1.0, SVG Export Plug-In . SVG Version: 6.00 Build 0)  -->
<!DOCTYPE svg PUBLIC "-//W3C//DTD SVG 1.1//EN" "http://www.w3.org/Graphics/SVG/1.1/DTD/svg11.dtd">
<svg version="1.1" id="Layer_1" xmlns="http://www.w3.org/2000/svg" xmlns:xlink="http://www.w3.org/1999/xlink" x="0px" y="0px"
	 width="179.074px" height="19.09px" viewBox="0 0 179.074 19.09" enable-background="new 0 0 179.074 19.09" xml:space="preserve">
<g>
	<path fill="#FFFFFF" d="M0,3.893h3.449c2.774,0,4.016,1.148,4.016,2.848c0,1.164-0.674,1.99-1.885,2.419
		c1.486,0.428,2.177,1.301,2.177,2.448c0,1.915-1.855,3.05-4.308,3.05H0V3.893z M1.902,5.637v2.925h1.363
		C4.814,8.578,5.488,7.781,5.488,6.97c0-0.735-0.552-1.332-1.946-1.332L1.902,5.637L1.902,5.637z M1.902,9.924v2.986h1.64
		c1.609,0,2.162-0.705,2.162-1.5c0-0.736-0.613-1.486-2.622-1.486H1.902z"/>
	<path fill="#FFFFFF" d="M14.072,3.893h3.449c2.868,0,4.308,1.577,4.308,3.828c0,1.117-0.567,2.694-2.008,3.399
		c0.812,0.706,1.042,1.82,2.33,1.82h0.429v1.686c0,0-0.399,0.093-1.028,0.093c-2.683,0-2.529-2.467-3.832-3.201
		c-0.184,0.016-0.369,0.016-0.568,0.016h-1.18v3.123h-1.901L14.072,3.893L14.072,3.893z M15.973,5.637v4.21h1.411
		c1.778,0,2.392-0.949,2.392-2.127c0-1.18-0.599-2.083-2.392-2.083H15.973z"/>
	<path fill="#FFFFFF" d="M36.177,12.083h-5.151v2.574H29.11V8.515c0-3.307,1.656-4.808,4.46-4.808c2.805,0,4.521,1.5,4.521,4.808
		v6.141h-1.916L36.177,12.083L36.177,12.083z M31.025,10.582c0.95-0.015,4.645-0.015,5.151-0.015V8.53
		c0-2.296-1.074-3.076-2.575-3.076c-1.502,0-2.576,0.887-2.576,3.061V10.582z"/>
	<path fill="#FFFFFF" d="M42.047,3.831h0.599l6.668,6.936V3.893h1.9v10.84h-0.505L43.948,7.98v6.677h-1.901V3.831L42.047,3.831z"/>
	<path fill="#FFFFFF" d="M55.383,3.893h4.062c3.343,0,5.764,2.25,5.764,5.373c0,3.078-2.468,5.392-5.764,5.392h-4.062V3.893z
		 M57.299,5.637v7.273h2.162c2.086,0,3.71-1.517,3.71-3.613c0-2.113-1.548-3.66-3.71-3.66H57.299z"/>
	<path fill="#FFFFFF" d="M73.287,3.893h1.901v10.765h-1.901V3.893z"/>
	<path fill="#FFFFFF" d="M79.051,3.831h0.599l6.668,6.936V3.893h1.9v10.84h-0.505l-6.76-6.752v6.677h-1.901V3.831z"/>
	<path fill="#FFFFFF" d="M103.7,12.083h-5.151v2.574h-1.916V8.515c0-3.307,1.656-4.808,4.46-4.808c2.805,0,4.522,1.5,4.522,4.808
		v6.141h-1.916L103.7,12.083L103.7,12.083z M98.549,10.582c0.95-0.015,4.645-0.015,5.151-0.015V8.53
		c0-2.296-1.074-3.076-2.576-3.076s-2.575,0.887-2.575,3.061V10.582L98.549,10.582z"/>
	<path fill="#FFFFFF" d="M118.293,13.937c0,0-1.396,0.902-3.588,0.902c-3.648,0-6.069-2.388-6.069-5.571
		c0-3.109,2.621-5.559,5.811-5.559c2.36,0,3.801,0.874,3.801,0.874l-0.66,1.623c0,0-1.425-0.704-2.82-0.704
		c-2.53,0-4.078,1.592-4.078,3.797c0,2.159,1.656,3.752,3.895,3.752c1.825,0,3.128-0.736,3.128-0.736L118.293,13.937z"/>
	<path fill="#FFFFFF" d="M120.838,3.893h9.058v1.745h-3.541v9.02h-1.916v-9.02h-3.601V3.893z"/>
	<path fill="#FFFFFF" d="M133.161,3.893h1.901v10.765h-1.901V3.893z"/>
	<path fill="#FFFFFF" d="M144.275,3.708c3.342,0,5.763,2.342,5.763,5.557c0,3.169-2.469,5.559-5.763,5.559
		c-3.298,0-5.751-2.374-5.751-5.559C138.524,6.158,141.04,3.708,144.275,3.708z M144.288,13.156c2.087,0,3.711-1.67,3.711-3.859
		c0-2.205-1.547-3.874-3.711-3.874c-2.13,0-3.709,1.669-3.709,3.874C140.58,11.455,142.206,13.156,144.288,13.156z"/>
	<path fill="#FFFFFF" d="M153.118,3.831h0.599l6.669,6.936V3.893h1.901v10.84h-0.506l-6.76-6.752v6.677h-1.904L153.118,3.831
		L153.118,3.831z"/>
</g>
<path fill="#FFFFFF" d="M18.144,18.195c-4.776,0-8.66-3.882-8.66-8.65c0-4.77,3.884-8.65,8.66-8.65s8.661,3.881,8.661,8.65
	C26.806,14.313,22.92,18.195,18.144,18.195z M18.144,1.66c-4.353,0-7.894,3.537-7.894,7.885c0,4.348,3.541,7.886,7.894,7.886
	c4.354,0,7.895-3.538,7.895-7.886C26.039,5.197,22.498,1.66,18.144,1.66z"/>
</svg>
