<?xml version="1.0" encoding="utf-8"?>
<!-- Generator: Adobe Illustrator 15.1.0, SVG Export Plug-In . SVG Version: 6.00 Build 0)  -->
<!DOCTYPE svg PUBLIC "-//W3C//DTD SVG 1.1//EN" "http://www.w3.org/Graphics/SVG/1.1/DTD/svg11.dtd">
<svg version="1.1" id="Layer_1" xmlns="http://www.w3.org/2000/svg" xmlns:xlink="http://www.w3.org/1999/xlink" x="0px" y="0px"
	 width="807px" height="329.411px" viewBox="0 0 807 329.411" enable-background="new 0 0 807 329.411" xml:space="preserve">
<g>
	<path fill="#FFFFFF" d="M27.062,30.202l-3.693,34.451H9.422L2.217,0H12.1l5.449,50.983L22.445,0h9.79l5.08,51.353L42.58,0h8.866
		l-7.204,64.653H30.757L27.062,30.202z"/>
	<path fill="#FFFFFF" d="M65.631,64.653h-10.16V0h10.16v27.708h11.545V0H87.52v64.653H77.176V36.944H65.631V64.653z"/>
	<path fill="#FFFFFF" d="M126.884,64.653h-10.252l-1.755-11.73h-12.469l-1.756,11.73h-9.327L101.669,0h14.87L126.884,64.653z
		 M103.701,44.148h9.79l-4.896-32.696L103.701,44.148z"/>
	<path fill="#FFFFFF" d="M124.583,0h31.402v9.236h-10.622v55.417h-10.159V9.236h-10.622L124.583,0L124.583,0z"/>
	<path fill="#FFFFFF" d="M197.27,30.202l-3.693,34.451H179.63L172.424,0h9.883l5.449,50.983L192.652,0h9.79l5.08,51.353L212.787,0
		h8.866l-7.204,64.653h-13.484L197.27,30.202z"/>
	<path fill="#FFFFFF" d="M235.838,27.247h13.947v9.236h-13.947v18.934h17.549v9.236h-27.708V0h27.708v9.236h-17.549V27.247z"/>
	<path fill="#FFFFFF" d="M284.142,64.653h-10.16V0h10.16v27.708h11.545V0h10.344v64.653h-10.344V36.944h-11.545V64.653z"/>
	<path fill="#FFFFFF" d="M345.395,64.653h-10.252l-1.755-11.73h-12.469l-1.755,11.73h-9.328L320.18,0h14.87L345.395,64.653z
		 M322.212,44.148h9.79l-4.896-32.696L322.212,44.148z"/>
	<path fill="#FFFFFF" d="M361.123,52.738L368.882,0h9.329l-9.976,64.653h-15.146L343.113,0h10.252L361.123,52.738z"/>
	<path fill="#FFFFFF" d="M392.174,27.247h13.946v9.236h-13.946v18.934h17.548v9.236h-27.708V0h27.708v9.236h-17.548V27.247z"/>
</g>
<g>
	<polygon fill="#FFFFFF" points="74.72,130.388 77.523,133.007 74.72,135.579 74.72,155.749 89.928,155.749 89.928,135.579 
		87.125,133.007 89.928,130.388 89.928,110.218 74.72,110.218 	"/>
	<polygon fill="#FFFFFF" points="193.974,139.669 202.611,139.669 198.292,118.074 	"/>
	<path fill="#FFFFFF" d="M0,80.877v104.214h282.976V80.877H0z M45.816,135.579v33.494h-13.37v-33.494l-2.803-2.572l2.803-2.619
		v-20.17H19.214V96.895h39.833v13.323H45.816v20.17l2.758,2.619L45.816,135.579z M103.297,135.579v25.959l-8.591,7.535H69.896
		l-8.5-7.535v-25.959l-2.803-2.572l2.803-2.619v-25.912l8.5-7.581h24.811l8.591,7.581v25.912l2.757,2.619L103.297,135.579z
		 M172.766,115.64h-13.324v-5.422H145.98v16.081h18.286l8.5,7.581v27.658l-8.5,7.535h-23.018l-8.592-7.535v-11.624h13.324v5.835
		h13.461v-16.08h-18.193l-8.592-7.581v-27.612l8.592-7.581h23.018l8.5,7.535V115.64L172.766,115.64z M208.492,169.073l-3.217-16.081
		h-13.967l-3.216,16.081h-13.599l14.426-72.179h18.746l14.426,72.179H208.492z M247.359,142.471v26.603h-13.508V142.38
		l-15.988-45.484h13.691l9.097,26.877l8.959-26.877h14.151L247.359,142.471z"/>
</g>
</svg>
