<?xml version="1.0" encoding="utf-8"?>
<!-- Generator: Adobe Illustrator 15.1.0, SVG Export Plug-In . SVG Version: 6.00 Build 0)  -->
<!DOCTYPE svg PUBLIC "-//W3C//DTD SVG 1.1//EN" "http://www.w3.org/Graphics/SVG/1.1/DTD/svg11.dtd">
<svg version="1.1" id="Layer_1" xmlns="http://www.w3.org/2000/svg" xmlns:xlink="http://www.w3.org/1999/xlink" x="0px" y="0px"
	 width="807px" height="599.822px" viewBox="0 0 807 599.822" enable-background="new 0 0 807 599.822" xml:space="preserve">
<g id="PNGS" display="none">
</g>
<g>
	<rect x="198.091" y="144.471" fill="#FFFFFF" width="13.673" height="16.058"/>
	<polygon fill="#FFFFFF" points="246.627,308.394 255.251,308.394 250.939,286.83 	"/>
	<rect x="198.091" y="115.061" fill="#FFFFFF" width="13.673" height="16.059"/>
	<rect x="96.879" y="197.021" fill="#FFFFFF" width="13.535" height="21.014"/>
	<polygon fill="#FFFFFF" points="51.849,308.394 60.473,308.394 56.161,286.83 	"/>
	<polygon fill="#FFFFFF" points="296.16,222.348 293.361,219.779 296.16,217.164 296.16,197.022 280.973,197.022 280.973,217.164 
		283.772,219.779 280.973,222.348 280.973,242.49 296.16,242.49 	"/>
	<polygon fill="#FFFFFF" points="703.028,122.908 698.716,144.472 707.34,144.472 	"/>
	<rect x="328.714" y="196.976" fill="#FFFFFF" width="13.812" height="16.104"/>
	<polygon fill="#FFFFFF" points="663.808,140.388 661.009,137.819 663.808,135.204 663.808,115.062 649.08,115.062 649.08,135.204 
		651.833,137.819 649.08,140.388 649.08,160.53 663.808,160.53 	"/>
	<rect x="486.487" y="197.021" fill="#FFFFFF" width="13.535" height="21.014"/>
	<polygon fill="#FFFFFF" points="457.239,122.908 452.927,144.472 461.551,144.472 	"/>
	<polygon fill="#FFFFFF" points="156.388,222.348 153.589,219.779 156.388,217.164 156.388,197.022 141.201,197.022 
		141.201,217.164 144,219.779 141.201,222.348 141.201,242.49 156.388,242.49 	"/>
	<polygon fill="#FFFFFF" points="358.157,301.741 360.956,299.126 360.956,278.984 345.77,278.984 345.77,299.126 348.57,301.741 
		345.77,304.31 345.77,324.452 360.958,324.452 360.956,304.31 	"/>
	<path fill="#FFFFFF" d="M788.374,192.145V81.513H0v81.855v22.777v66.035V268v88.812h657.062V245.18H532.568v-53.035H788.374z
		 M736.526,101.757l9.084,26.84l8.945-26.84h14.131l-16.379,45.514v26.564H738.82v-26.656l-15.967-45.422H736.526z M712.387,101.757
		l14.406,72.078h-13.58l-3.212-16.059h-13.947l-3.212,16.059h-13.58l14.406-72.078H712.387z M635.729,135.203v-33.446h32.759
		l8.626,7.616v25.83l2.799,2.615l-2.799,2.569v25.877l-8.626,7.57h-32.759v-33.447l-2.754-2.569L635.729,135.203z M610.447,133.152
		h18.792v9.396h-18.792V133.152z M564.58,135.204v-33.446h13.305v29.363h15.097v-29.363h13.306v33.446l2.799,2.615l-2.799,2.569
		v33.447h-0.001H592.98v-29.363h-15.097v29.363H564.58v-33.447l-2.799-2.569L564.58,135.204z M477.344,101.757h39.777l0.002,13.305
		H503.91v20.142l2.753,2.615l-2.753,2.569v33.447h-13.354v-33.447l-2.799-2.569l2.799-2.615v-20.142h-13.213V101.757z
		 M470.384,219.779l2.797-2.613v-33.449h31.521l8.625,7.616v32.346l-8.625,7.662h-18.215v24.454h-13.307v-33.449L470.384,219.779z
		 M466.598,101.757l14.406,72.078h-13.58l-3.212-16.059h-13.947l-3.212,16.059h-13.58l14.406-72.078H466.598z M451.123,219.779
		l2.799-2.615v-33.446h13.353v33.446l2.753,2.615l-2.753,2.569v33.447h-13.353v-33.447L451.123,219.779z M381.038,135.203v-33.446
		h13.305l11.562,24.775l11.605-24.775h13.353v33.446l2.753,2.615l-2.753,2.569v33.448h-13.353V133.23l-11.605,24.775l-11.562-24.775
		v40.604h-13.305v-33.447l-2.799-2.569L381.038,135.203z M361.143,236.664h13.307v5.826h13.441v-16.058h-18.169l-8.579-7.57v-27.574
		l8.579-7.57h22.986l8.487,7.524v11.194H387.89v-5.414h-13.441v16.059h18.261l8.487,7.57v27.62h-0.001l-8.487,7.524h-22.986
		l-8.579-7.524V236.664z M358.261,255.795h-14.269l-11.332-29.363h-3.946v29.363h-13.351v-33.447l-2.753-2.569l2.753-2.615v-33.447
		h31.979l8.487,7.57v26.473l-9.084,8.488L358.261,255.795z M311.331,101.757h39.777l0.002,13.305h-13.214v20.142l2.754,2.615
		l-2.754,2.569v33.447h-13.353v-33.447l-2.799-2.569l2.799-2.615v-20.142h-13.213V101.757z M268.652,109.328l8.579-7.57h22.986
		l8.487,7.524v11.194H295.4v-5.414h-13.443v16.059h18.261l8.487,7.57v27.62l-8.487,7.524h-22.986l-8.579-7.524v-11.607h13.305v5.826
		H295.4v-16.058h-18.169l-8.579-7.57V109.328z M267.671,191.288l8.487-7.57h24.773l8.58,7.57v25.876l2.752,2.615l-2.752,2.569
		v25.923l-8.58,7.524h-24.773l-8.487-7.524v-25.923l-2.799-2.569l2.799-2.615V191.288z M230.402,135.204v-33.446h34.456v13.305
		h-21.151v16.059h18.215v13.352h-18.215v16.058h21.427l-0.001,13.303h-34.731v-33.447l-2.799-2.569L230.402,135.204z
		 M235.831,197.022v16.059h18.261l8.487,7.57v27.62l-8.487,7.524h-22.986l-8.579-7.524v-11.607h13.305v5.826h13.443v-16.058h-18.169
		l-8.579-7.57v-27.574l8.579-7.57h22.986l8.487,7.524v11.194h-13.305v-5.414H235.831z M184.786,135.204v-33.446h31.795l8.533,7.57
		v22.16l-5.139,6.239l5.139,6.378v22.206l-8.533,7.524h-31.795v-33.447l-2.799-2.569L184.786,135.204z M175.393,217.164v-33.446
		h14.269l14.59,37.806v-37.806h13.214v33.446l2.798,2.615l-2.798,2.569v33.355l0.046,0.092h-14.316l-14.544-37.76v37.76h-13.259
		v-33.447l-2.799-2.569L175.393,217.164z M120.128,135.204v-33.446h34.456v13.305h-21.151v16.059h18.215v13.352h-18.215v16.058
		h21.427l-0.001,13.303h-34.731v-33.447l-2.799-2.569L120.128,135.204z M72.488,101.758h13.306v29.363h15.094v-29.363h13.306v33.446
		l2.799,2.615l-2.799,2.569l-0.001,33.447h-13.306v-29.363H85.793v29.363H72.488v-33.447l-2.798-2.569l2.798-2.615V101.758z
		 M51.737,197.022v16.059h18.26l8.488,7.57v27.62l-8.488,7.524H47.011l-8.58-7.524v-11.607h13.306v5.826H65.18v-16.058H47.011
		l-8.58-7.57v-27.574l8.58-7.57h22.986l8.488,7.524v11.194H65.18v-5.414H51.737z M25.717,121.221h-9.96v-8.927l4.51-10.43h4.229
		l-2.725,9.396l3.946,0.001V121.221z M30.083,101.757h39.778v13.305H56.647v20.142l2.752,2.615l-2.752,2.569v33.447H43.296v-33.447
		l-2.799-2.569l2.799-2.615v-20.142H30.083V101.757z M66.346,337.756l-3.212-16.059H49.187l-3.212,16.059H32.394l14.407-72.078
		H65.52l14.407,72.078H66.346z M123.055,284.397H109.75v-5.414H95.436v20.142l2.798,2.615l-2.798,2.569v20.142h14.314v-5.826h13.305
		v11.606l-8.717,7.522h-23.72l-8.488-7.522v-25.924l-2.798-2.568l2.798-2.615v-25.876l8.488-7.57h23.72l8.717,7.616V284.397z
		 M123.719,223.679l-8.625,7.662H96.879v24.454H83.574v-33.447l-2.798-2.569l2.798-2.615v-33.447h31.52l8.625,7.616V223.679z
		 M127.897,217.164v-25.876l8.487-7.57h24.775l8.58,7.57v25.876l2.752,2.615l-2.752,2.569v25.923l-8.58,7.524h-24.775l-8.487-7.524
		v-25.923l-2.799-2.569L127.897,217.164z M152.228,304.308v33.446h-13.352v-33.446l-2.799-2.568l2.799-2.615v-20.142h-13.213
		v-13.305h39.777l0.001,13.305h-13.213v20.142l2.753,2.615L152.228,304.308z M181.42,304.31v33.446h-13.351V304.31l-2.799-2.568
		l2.799-2.615V265.68h13.351v33.446l2.753,2.615L181.42,304.31z M200.142,337.756l-16.104-72.078h13.672
		c1.865,8.441,3.372,15.255,4.52,20.439c1.147,5.185,2.73,12.228,4.749,21.128c1.988-8.9,3.556-15.95,4.703-21.15
		c1.146-5.2,2.668-12.006,4.565-20.417h13.626l-16.058,72.078H200.142z M261.124,337.756l-3.212-16.059h-13.947l-3.212,16.059
		h-13.58l14.406-72.078h18.719l14.406,72.078H261.124z M297.61,304.308v33.446h-13.354v-33.446l-2.799-2.568l2.799-2.615v-20.142
		h-13.213v-13.305h39.777l0.002,13.305H297.61v20.142l2.753,2.615L297.61,304.308z M326.802,304.31v33.446h-13.351V304.31
		l-2.799-2.568l2.799-2.615V265.68h13.351v33.446l2.753,2.615L326.802,304.31z M374.308,304.308v25.924l-8.579,7.522h-24.774
		l-8.487-7.522v-25.924l-2.799-2.568l2.799-2.615v-25.876l8.487-7.57h24.774l8.579,7.57v25.876l2.752,2.615L374.308,304.308z
		 M422.082,337.756h-14.317l-14.544-37.76v37.76h-13.259V304.31l-2.799-2.568l2.799-2.615V265.68h14.271l14.59,37.805V265.68h13.214
		v33.446l2.798,2.615l-2.798,2.568v33.354L422.082,337.756z M447.989,255.795h-13.308v-29.363h-15.095v29.363h-13.305v-33.447
		l-2.799-2.569l2.799-2.615v-33.446h13.305v29.363h15.095v-29.363h13.308v33.446l2.799,2.615l-2.799,2.569V255.795z
		 M486.692,337.756h-34.731V304.31l-2.799-2.568l2.799-2.615V265.68h34.456v13.305h-21.151v16.059h18.217v13.354h-18.217v16.058
		h21.429L486.692,337.756z M621.72,265.785h9.96v8.927l-4.511,10.43h-4.228l2.725-9.396l-3.946-0.001V265.785z M576.172,299.128
		v-33.45h31.979l8.485,7.57v26.473l-9.084,8.488l11.519,29.547h-14.271l-11.332-29.362h-3.944v29.362h-13.353v-33.448l-2.751-2.566
		L576.172,299.128z M537.583,265.68h34.456v13.305h-21.151v16.059h18.216v13.354h-18.216v16.058h21.429l-0.002,13.301h-34.731
		V304.31l-2.799-2.568l2.799-2.615V265.68z M534.984,265.678l-16.06,72.078h-13.673l-16.104-72.078h13.672
		c1.863,8.441,3.372,15.255,4.52,20.439c1.148,5.185,2.731,12.228,4.75,21.128c1.988-8.9,3.558-15.95,4.703-21.15
		c1.146-5.2,2.668-12.006,4.565-20.417H534.984z M528.238,173.835l-8.487-7.524v-25.923l-2.799-2.569l2.799-2.615v-25.876
		l8.487-7.57h23.721l8.717,7.616v11.103H547.37v-5.414h-14.314v20.142l2.8,2.615l-2.8,2.569v20.142h14.314v-5.826h13.306v11.606
		l-8.717,7.524H528.238z"/>
	<rect x="589.524" y="278.937" fill="#FFFFFF" width="13.811" height="16.104"/>
</g>
<g>
	<path fill="#FFFFFF" d="M9.648,63.52H-0.36V-0.172H9.648v27.296h11.373V-0.172h10.191V63.52H21.021V36.223H9.648V63.52z"/>
	<path fill="#FFFFFF" d="M35.517,15.113C35.517,4.924,40.885-0.9,50.712-0.9s15.195,5.824,15.195,16.014v33.12
		c0,10.19-5.368,16.015-15.195,16.015s-15.195-5.824-15.195-16.015V15.113z M45.525,48.871c0,4.549,2.002,6.277,5.187,6.277
		s5.187-1.729,5.187-6.277V14.477c0-4.549-2.002-6.277-5.187-6.277s-5.187,1.729-5.187,6.277V48.871z"/>
	<path fill="#FFFFFF" d="M92.776,29.581l-3.64,33.938H75.397L68.301-0.172h9.735l5.368,50.225l4.822-50.225h9.645l5.005,50.589
		l5.187-50.589h8.734L109.7,63.52H96.416L92.776,29.581z"/>
	<path fill="#FFFFFF" d="M157.197,29.581l-3.64,33.938h-13.739l-7.097-63.691h9.735l5.368,50.225l4.822-50.225h9.645l5.005,50.589
		l5.187-50.589h8.734l-7.097,63.691h-13.284L157.197,29.581z"/>
	<path fill="#FFFFFF" d="M194.74,26.67h13.739v9.098H194.74v18.653h17.287v9.099h-27.296V-0.172h27.296v9.099H194.74V26.67z"/>
	<path fill="#FFFFFF" d="M231.41-0.172h15.832c10.009,0,14.922,5.55,14.922,15.74v32.211c0,10.189-4.913,15.74-14.922,15.74H231.41
		V-0.172z M241.419,8.927v45.494h5.641c3.185,0,5.096-1.638,5.096-6.188v-33.12c0-4.549-1.911-6.187-5.096-6.187L241.419,8.927
		L241.419,8.927z"/>
	<path fill="#FFFFFF" d="M276.386,26.67h13.739v9.098h-13.739v18.653h17.287v9.099h-27.296V-0.172h27.296v9.099h-17.287V26.67z"/>
	<path fill="#FFFFFF" d="M297.669-0.172h10.009v54.593h16.471v9.099h-26.479V-0.172z"/>
	<path fill="#FFFFFF" d="M327.312-0.172h10.01V63.52h-10.01V-0.172z"/>
	<path fill="#FFFFFF" d="M358.303,51.782l7.646-51.954h9.188L365.31,63.52h-14.923l-9.826-63.691h10.102L358.303,51.782z"/>
	<path fill="#FFFFFF" d="M388.439,26.67h13.737v9.098h-13.737v18.653h17.285v9.099H378.43V-0.172h27.296v9.099H388.44L388.439,26.67
		L388.439,26.67z"/>
	<path fill="#FFFFFF" d="M430.648,63.52c-0.548-1.638-0.909-2.639-0.909-7.825V45.686c0-5.914-2.002-8.098-6.552-8.098h-3.457V63.52
		H409.72V-0.172h15.104c10.373,0,14.831,4.822,14.831,14.648v5.005c0,6.551-2.093,10.827-6.552,12.92
		c5.005,2.093,6.644,6.915,6.644,13.558v9.826c0,3.094,0.091,5.369,1.092,7.734L430.648,63.52L430.648,63.52z M419.73,8.927v19.562
		h3.91c3.73,0,6.008-1.638,6.008-6.733v-6.278c0-4.55-1.549-6.551-5.098-6.551H419.73z"/>
	<path fill="#FFFFFF" d="M454.517,26.67h13.739v9.098h-13.739v18.653h17.287v9.099h-27.296V-0.172h27.296v9.099h-17.287V26.67z"/>
	<path fill="#FFFFFF" d="M475.799-0.172h15.832c10.009,0,14.922,5.55,14.922,15.74v32.211c0,10.189-4.913,15.74-14.922,15.74
		h-15.832V-0.172z M485.808,8.927v45.494h5.643c3.185,0,5.096-1.638,5.096-6.188v-33.12c0-4.549-1.911-6.187-5.096-6.187
		L485.808,8.927L485.808,8.927z"/>
</g>
<g>
	<path fill="#FFFFFF" d="M25.841,410.581l-3.64,33.938H8.462l-7.097-63.689H11.1l5.368,50.225l4.822-50.225h9.645l5.005,50.589
		l5.187-50.589h8.734l-7.097,63.689H29.48L25.841,410.581z"/>
	<path fill="#FFFFFF" d="M53.366,380.828h10.009v63.689H53.366V380.828z"/>
	<path fill="#FFFFFF" d="M66.494,380.828h30.937v9.099H86.967v54.593H76.958v-54.593H66.494V380.828z"/>
	<path fill="#FFFFFF" d="M110.614,444.52h-10.009V380.83h10.009v27.296h11.373V380.83h10.191v63.689h-10.191v-27.296h-11.373V444.52
		z"/>
	<path fill="#FFFFFF" d="M185.044,444.52h-10.1l-1.729-11.556h-12.283l-1.729,11.556h-9.189l10.19-63.689h14.649L185.044,444.52z
		 M162.206,424.32h9.645l-4.822-32.21L162.206,424.32z"/>
	<path fill="#FFFFFF" d="M202.879,380.828h10.009v54.593h16.469v9.099h-26.478V380.828z"/>
	<path fill="#FFFFFF" d="M232.523,380.828h10.009v63.689h-10.009V380.828z"/>
	<path fill="#FFFFFF" d="M245.652,380.828h30.937v9.099h-10.464v54.593h-10.009v-54.593h-10.464V380.828z"/>
	<path fill="#FFFFFF" d="M278.453,380.828h30.937v9.099h-10.464v54.593h-10.009v-54.593h-10.464V380.828L278.453,380.828z"/>
	<path fill="#FFFFFF" d="M312.564,380.828h10.009v54.593h16.469v9.099h-26.478V380.828z"/>
	<path fill="#FFFFFF" d="M352.228,407.67h13.739v9.099h-13.739v18.652h17.287v9.099h-27.296V380.83h27.296v9.101h-17.287V407.67z"/>
	<path fill="#FFFFFF" d="M398.905,444.52h-10.009V380.83h10.009v27.296h11.373V380.83h10.189v63.689h-10.189v-27.296h-11.373V444.52
		z"/>
	<path fill="#FFFFFF" d="M435.282,407.67h13.739v9.099h-13.739v18.652h17.287v9.099h-27.296V380.83h27.296v9.101h-17.287V407.67z"/>
	<path fill="#FFFFFF" d="M456.565,380.828h10.009v54.593h16.469v9.099h-26.478V380.828z"/>
	<path fill="#FFFFFF" d="M515.881,396.567v8.281c0,10.188-4.913,15.739-14.922,15.739h-4.731v23.93h-10.009v-63.689h14.74
		C510.968,380.828,515.881,386.378,515.881,396.567z M496.228,389.927v21.563h4.731c3.185,0,4.913-1.455,4.913-6.005v-9.555
		c0-4.55-1.729-6.006-4.913-6.006L496.228,389.927L496.228,389.927z"/>
	<path fill="#FFFFFF" d="M13.648,487.125h12.92v9.1h-12.92v26.295H3.64V458.83h26.478v9.099h-16.47V487.125z"/>
	<path fill="#FFFFFF" d="M54.421,522.52c-0.546-1.638-0.909-2.639-0.909-7.823v-10.011c0-5.912-2.002-8.098-6.552-8.098h-3.457
		v25.932H33.494V458.83h15.104c10.373,0,14.831,4.822,14.831,14.646v5.007c0,6.551-2.093,10.825-6.551,12.92
		c5.005,2.093,6.643,6.915,6.643,13.558v9.826c0,3.094,0.091,5.369,1.092,7.734L54.421,522.52L54.421,522.52z M43.503,467.927
		v19.562h3.912c3.73,0,6.006-1.64,6.006-6.733v-6.277c0-4.551-1.547-6.552-5.096-6.552H43.503L43.503,467.927z"/>
	<path fill="#FFFFFF" d="M67.306,474.113c0-10.189,5.368-16.016,15.195-16.016s15.195,5.824,15.195,16.016v33.12
		c0,10.188-5.368,16.015-15.195,16.015s-15.195-5.824-15.195-16.015V474.113z M77.314,507.871c0,4.549,2.002,6.277,5.187,6.277
		s5.187-1.729,5.187-6.277v-34.396c0-4.549-2.002-6.275-5.187-6.275s-5.187,1.729-5.187,6.275V507.871z"/>
	<path fill="#FFFFFF" d="M123.255,504.049l6.824-45.221H144v63.689h-9.463v-45.676l-6.915,45.676h-9.463l-7.461-45.037v45.037
		h-8.734v-63.689h13.921L123.255,504.049z"/>
	<path fill="#FFFFFF" d="M161.562,458.828h30.937v9.099h-10.464v54.593h-10.009v-54.593h-10.464V458.828L161.562,458.828z"/>
	<path fill="#FFFFFF" d="M205.683,522.52h-10.009V458.83h10.009v27.296h11.373V458.83h10.191v63.689h-10.191v-27.297h-11.373V522.52
		z"/>
	<path fill="#FFFFFF" d="M242.06,485.67h13.739v9.098H242.06v18.653h17.287v9.099h-27.296V458.83h27.296v9.099H242.06V485.67z"/>
	<path fill="#FFFFFF" d="M278.729,458.828h15.832c10.009,0,14.922,5.55,14.922,15.74v32.211c0,10.188-4.913,15.738-14.922,15.738
		h-15.832V458.828z M288.738,467.927v45.494h5.641c3.187,0,5.096-1.638,5.096-6.188v-33.12c0-4.549-1.909-6.188-5.096-6.188
		L288.738,467.927L288.738,467.927z"/>
	<path fill="#FFFFFF" d="M323.705,485.67h13.739v9.098h-13.739v18.653h17.287v9.099h-27.296V458.83h27.296v9.099h-17.287V485.67z"/>
	<path fill="#FFFFFF" d="M361.538,510.782l7.644-51.954h9.189l-9.826,63.689h-14.923l-9.826-63.689h10.102L361.538,510.782z"/>
	<path fill="#FFFFFF" d="M381.666,458.828h10.009v63.689h-10.009V458.828z"/>
	<path fill="#FFFFFF" d="M396.396,458.828h10.009v54.593h16.469v9.099h-26.478V458.828z"/>
	<path fill="#FFFFFF" d="M435.686,512.875v9.645h-9.645v-9.645H435.686z"/>
</g>
</svg>
