<?xml version="1.0" encoding="utf-8"?>
<!-- Generator: Adobe Illustrator 15.1.0, SVG Export Plug-In . SVG Version: 6.00 Build 0)  -->
<!DOCTYPE svg PUBLIC "-//W3C//DTD SVG 1.1//EN" "http://www.w3.org/Graphics/SVG/1.1/DTD/svg11.dtd">
<svg version="1.1" id="_x2014_ÎÓÈ_x5F_1" xmlns="http://www.w3.org/2000/svg" xmlns:xlink="http://www.w3.org/1999/xlink"
	 x="0px" y="0px" width="60px" height="60px" viewBox="0 0 60 60" enable-background="new 0 0 60 60" xml:space="preserve">
<g>
	<path fill="#FFFFFF" d="M29.767,0C13.354,0,0,13.354,0,29.767C0,46.18,13.354,59.534,29.767,59.534
		c16.414,0,29.767-13.354,29.767-29.767C59.534,13.354,46.18,0,29.767,0z M29.767,57.549c-15.319,0-27.782-12.463-27.782-27.782
		c0-15.32,12.463-27.783,27.782-27.783c15.32,0,27.783,12.463,27.783,27.783C57.549,45.086,45.086,57.549,29.767,57.549z"/>
	<path fill="#FFFFFF" d="M30.759,31.751h15.876c0.549,0,0.992-0.443,0.992-0.992c0-0.548-0.443-0.992-0.992-0.992H30.759h-1.984
		H12.899c-0.548,0-0.992,0.443-0.992,0.992c0,0.549,0.443,0.992,0.992,0.992h15.875H30.759z"/>
</g>
</svg>
