<?xml version="1.0" encoding="utf-8"?>
<!-- Generator: Adobe Illustrator 15.1.0, SVG Export Plug-In . SVG Version: 6.00 Build 0)  -->
<!DOCTYPE svg PUBLIC "-//W3C//DTD SVG 1.1//EN" "http://www.w3.org/Graphics/SVG/1.1/DTD/svg11.dtd">
<svg version="1.1" id="Layer_1" xmlns="http://www.w3.org/2000/svg" xmlns:xlink="http://www.w3.org/1999/xlink" x="0px" y="0px"
	 width="807px" height="180px" viewBox="0 0 807 180" enable-background="new 0 0 807 180" xml:space="preserve">
<rect x="1" y="76.013" fill="#2EB135" width="121.334" height="103.987"/>
<g>
	<path fill="#FFFFFF" d="M59.318,156.488l-8.442,7.33H27.372l-8.264-7.286V131.43l-2.71-2.488l2.71-2.531V94.02h12.885v32.391
		l2.71,2.531l-2.71,2.488v19.506h14.44V131.43l-2.71-2.488l2.71-2.531V94.02h12.885v32.391l2.666,2.531l-2.666,2.488V156.488z"/>
	<path fill="#FFFFFF" d="M102.707,156.532l-8.219,7.286h-22.26l-8.308-7.286v-11.24h12.885v5.644h13.018v-15.552H72.228
		l-8.308-7.331v-26.701l8.308-7.332h22.26l8.219,7.287v10.84H89.823v-5.242H76.805v15.551h17.683l8.219,7.331V156.532z"/>
</g>
<g>
	<path d="M32.665,40.265v8.462c0,10.191-5.096,16.014-14.922,16.014c-9.827,0-14.923-5.822-14.923-16.014v-33.12
		c0-10.191,5.096-16.014,14.923-16.014c9.826,0,14.922,5.822,14.922,16.014v6.187h-9.463v-6.823c0-4.55-2.002-6.279-5.187-6.279
		s-5.187,1.729-5.187,6.279v34.393c0,4.55,2.002,6.188,5.187,6.188s5.187-1.638,5.187-6.188v-9.099H32.665z"/>
	<path d="M36.704,15.607c0-10.191,5.368-16.014,15.195-16.014s15.195,5.822,15.195,16.014v33.119
		c0,10.191-5.368,16.014-15.195,16.014s-15.195-5.822-15.195-16.014V15.607z M46.713,49.363c0,4.55,2.002,6.278,5.187,6.278
		s5.187-1.729,5.187-6.278V14.971c0-4.55-2.002-6.279-5.187-6.279s-5.187,1.729-5.187,6.279V49.363z"/>
	<path d="M80.826,17.882v46.131h-9.008V0.32h12.556l10.282,38.125V0.32h8.917v63.692H93.291L80.826,17.882z"/>
	<path d="M107.158,0.32h30.937v9.1h-10.464v54.593h-10.009V9.42h-10.464V0.32z"/>
	<path d="M170.859,64.013h-10.1l-1.729-11.556h-12.283l-1.729,11.556h-9.189L146.02,0.32h14.649L170.859,64.013z M148.021,43.813
		h9.645l-4.822-32.21L148.021,43.813z"/>
	<path d="M203.144,40.265v8.462c0,10.191-5.096,16.014-14.922,16.014c-9.827,0-14.923-5.822-14.923-16.014v-33.12
		c0-10.191,5.096-16.014,14.923-16.014c9.826,0,14.922,5.822,14.922,16.014v6.187h-9.463v-6.823c0-4.55-2.002-6.279-5.187-6.279
		s-5.187,1.729-5.187,6.279v34.393c0,4.55,2.002,6.188,5.187,6.188s5.187-1.638,5.187-6.188v-9.099H203.144z"/>
	<path d="M205.991,0.32h30.937v9.1h-10.464v54.593h-10.009V9.42h-10.464V0.32L205.991,0.32z"/>
</g>
</svg>
