<?xml version="1.0" encoding="utf-8"?>
<!-- Generator: Adobe Illustrator 15.1.0, SVG Export Plug-In . SVG Version: 6.00 Build 0)  -->
<!DOCTYPE svg PUBLIC "-//W3C//DTD SVG 1.1//EN" "http://www.w3.org/Graphics/SVG/1.1/DTD/svg11.dtd">
<svg version="1.1" id="Layer_1" xmlns="http://www.w3.org/2000/svg" xmlns:xlink="http://www.w3.org/1999/xlink" x="0px" y="0px"
	 width="807px" height="180px" viewBox="0 0 807 180" enable-background="new 0 0 807 180" xml:space="preserve">
<rect y="76.013" fill="#AAB300" width="121.334" height="103.987"/>
<g>
	<path fill="#FFFFFF" d="M58.318,156.488l-8.442,7.33H26.372l-8.264-7.286V131.43l-2.71-2.488l2.71-2.53V94.02h12.885v32.392
		l2.71,2.53l-2.71,2.488v19.506h14.44V131.43l-2.71-2.488l2.71-2.53V94.02h12.885v32.392l2.666,2.53l-2.666,2.488V156.488z"/>
	<path fill="#FFFFFF" d="M101.707,156.532l-8.219,7.286h-22.26l-8.308-7.286v-11.24h12.885v5.644h13.018v-15.552H71.228
		l-8.308-7.331v-26.701l8.308-7.332h22.26l8.219,7.287v10.84H88.823v-5.242H75.805v15.552h17.683l8.219,7.331V156.532z"/>
</g>
<g>
	<path fill="#FFFFFF" d="M31.665,40.265v8.462c0,10.191-5.096,16.014-14.922,16.014c-9.827,0-14.923-5.822-14.923-16.014v-33.12
		c0-10.191,5.096-16.014,14.923-16.014c9.826,0,14.922,5.822,14.922,16.014v6.187h-9.463v-6.823c0-4.55-2.002-6.279-5.187-6.279
		s-5.187,1.729-5.187,6.279v34.393c0,4.55,2.002,6.188,5.187,6.188s5.187-1.638,5.187-6.188v-9.099H31.665z"/>
	<path fill="#FFFFFF" d="M35.704,15.607c0-10.191,5.368-16.014,15.195-16.014s15.195,5.822,15.195,16.014v33.119
		c0,10.191-5.368,16.014-15.195,16.014s-15.195-5.822-15.195-16.014V15.607L35.704,15.607z M45.713,49.363
		c0,4.55,2.002,6.278,5.187,6.278s5.187-1.729,5.187-6.278V14.971c0-4.55-2.002-6.279-5.187-6.279s-5.187,1.729-5.187,6.279V49.363z
		"/>
	<path fill="#FFFFFF" d="M79.826,17.882v46.131h-9.008V0.32h12.556l10.282,38.125V0.32h8.917v63.692H92.291L79.826,17.882z"/>
	<path fill="#FFFFFF" d="M106.158,0.32h30.937v9.1h-10.464v54.593h-10.009V9.42h-10.464V0.32L106.158,0.32z"/>
	<path fill="#FFFFFF" d="M169.859,64.013h-10.1l-1.729-11.556h-12.283l-1.729,11.556h-9.189L145.02,0.32h14.649L169.859,64.013z
		 M147.021,43.813h9.645l-4.822-32.21L147.021,43.813z"/>
	<path fill="#FFFFFF" d="M202.144,40.265v8.462c0,10.191-5.096,16.014-14.922,16.014c-9.827,0-14.923-5.822-14.923-16.014v-33.12
		c0-10.191,5.096-16.014,14.923-16.014c9.826,0,14.922,5.822,14.922,16.014v6.187h-9.463v-6.823c0-4.55-2.002-6.279-5.187-6.279
		s-5.187,1.729-5.187,6.279v34.393c0,4.55,2.002,6.188,5.187,6.188s5.187-1.638,5.187-6.188v-9.099H202.144z"/>
	<path fill="#FFFFFF" d="M204.991,0.32h30.937v9.1h-10.464v54.593h-10.009V9.42h-10.464V0.32L204.991,0.32z"/>
</g>
</svg>
