<?xml version="1.0" encoding="utf-8"?>
<!-- Generator: Adobe Illustrator 15.1.0, SVG Export Plug-In . SVG Version: 6.00 Build 0)  -->
<!DOCTYPE svg PUBLIC "-//W3C//DTD SVG 1.1//EN" "http://www.w3.org/Graphics/SVG/1.1/DTD/svg11.dtd">
<svg version="1.1" id="Layer_1" xmlns="http://www.w3.org/2000/svg" xmlns:xlink="http://www.w3.org/1999/xlink" x="0px" y="0px"
	 width="807px" height="180px" viewBox="0 0 807 180" enable-background="new 0 0 807 180" xml:space="preserve">
<path fill="#FFFFFF" d="M1,76.013V180h121.334V76.013H1z M59.318,131.43v25.059l-8.441,7.33H27.372l-8.265-7.286V131.43l-2.71-2.488
	l2.71-2.528V94.02h12.886v32.394l2.71,2.528l-2.71,2.488v19.506h14.439V131.43l-2.71-2.488l2.71-2.528V94.02h12.885v32.394
	l2.666,2.528L59.318,131.43z M102.707,112.146H89.823v-5.242H76.805v15.554h17.683l8.22,7.331v26.743l-8.22,7.286h-22.26
	l-8.308-7.286v-11.24h12.885v5.644h13.018v-15.552H72.228l-8.308-7.331v-26.701l8.308-7.332h22.26l8.22,7.287V112.146z"/>
<g>
	<path fill="#FFFFFF" d="M32.665,40.265v8.462c0,10.191-5.097,16.014-14.922,16.014c-9.827,0-14.924-5.822-14.924-16.014v-33.12
		c0-10.191,5.097-16.014,14.924-16.014c9.825,0,14.922,5.822,14.922,16.014v6.187h-9.463v-6.823c0-4.55-2.002-6.279-5.188-6.279
		c-3.185,0-5.187,1.729-5.187,6.279v34.393c0,4.55,2.002,6.188,5.187,6.188c3.186,0,5.188-1.638,5.188-6.188v-9.099H32.665z"/>
	<path fill="#FFFFFF" d="M36.704,15.607c0-10.191,5.367-16.014,15.194-16.014s15.195,5.822,15.195,16.014v33.119
		c0,10.191-5.368,16.014-15.195,16.014s-15.194-5.822-15.194-16.014V15.607z M46.713,49.363c0,4.55,2.002,6.278,5.187,6.278
		c3.186,0,5.188-1.729,5.188-6.278V14.971c0-4.55-2.002-6.279-5.188-6.279c-3.185,0-5.187,1.729-5.187,6.279V49.363z"/>
	<path fill="#FFFFFF" d="M80.826,17.882v46.131h-9.009V0.32h12.557l10.281,38.125V0.32h8.917v63.692H93.291L80.826,17.882z"/>
	<path fill="#FFFFFF" d="M107.158,0.32h30.937v9.1h-10.464v54.593h-10.009V9.42h-10.464V0.32z"/>
	<path fill="#FFFFFF" d="M170.859,64.013h-10.1l-1.729-11.556h-12.282l-1.729,11.556h-9.188L146.02,0.32h14.649L170.859,64.013z
		 M148.021,43.813h9.646l-4.822-32.21L148.021,43.813z"/>
	<path fill="#FFFFFF" d="M203.144,40.265v8.462c0,10.191-5.096,16.014-14.922,16.014c-9.827,0-14.923-5.822-14.923-16.014v-33.12
		c0-10.191,5.096-16.014,14.923-16.014c9.826,0,14.922,5.822,14.922,16.014v6.187h-9.463v-6.823c0-4.55-2.002-6.279-5.187-6.279
		c-3.186,0-5.188,1.729-5.188,6.279v34.393c0,4.55,2.002,6.188,5.188,6.188c3.185,0,5.187-1.638,5.187-6.188v-9.099H203.144z"/>
	<path fill="#FFFFFF" d="M205.991,0.32h30.937v9.1h-10.464v54.593h-10.009V9.42h-10.464V0.32L205.991,0.32z"/>
</g>
</svg>
