<?xml version="1.0" encoding="utf-8"?>
<!-- Generator: Adobe Illustrator 15.1.0, SVG Export Plug-In . SVG Version: 6.00 Build 0)  -->
<!DOCTYPE svg PUBLIC "-//W3C//DTD SVG 1.1//EN" "http://www.w3.org/Graphics/SVG/1.1/DTD/svg11.dtd">
<svg version="1.1" id="Layer_1" xmlns="http://www.w3.org/2000/svg" xmlns:xlink="http://www.w3.org/1999/xlink" x="0px" y="0px"
	 width="807px" height="599.822px" viewBox="0 0 807 599.822" enable-background="new 0 0 807 599.822" xml:space="preserve">
<g>
	<rect x="35.707" y="110.777" fill="#FFFFFF" width="13.672" height="16.059"/>
	<rect x="35.707" y="140.188" fill="#FFFFFF" width="13.672" height="16.058"/>
	<rect x="81.52" y="110.733" fill="#FFFFFF" width="13.809" height="16.104"/>
	<polygon fill="#FFFFFF" points="342.636,212.824 345.435,215.439 342.636,218.008 342.636,238.15 357.824,238.15 357.824,218.008 
		355.025,215.439 357.824,212.824 357.824,192.682 342.636,192.682 	"/>
	<rect x="232.434" y="192.637" fill="#FFFFFF" width="13.811" height="16.104"/>
	<polygon fill="#FFFFFF" points="35.707,212.825 38.459,215.44 35.707,218.009 35.707,238.151 50.434,238.151 50.434,218.009 
		47.635,215.44 50.434,212.825 50.434,192.683 35.707,192.683 	"/>
	<polygon fill="#FFFFFF" points="188.349,222.092 196.973,222.092 192.661,200.528 	"/>
	<polygon fill="#FFFFFF" points="437.364,136.104 434.565,133.535 437.364,130.92 437.364,110.778 422.176,110.778 422.176,130.92 
		424.975,133.535 422.176,136.104 422.176,156.246 437.364,156.246 	"/>
	<path fill="#FFFFFF" d="M0.5,81.197v81.904v22.728v81.904h554.71v-81.904h77.996V81.197H0.5z M456.369,130.921V97.475h13.305
		l11.562,24.775l11.604-24.775h13.354v33.446l2.753,2.615l-2.753,2.569v33.447H492.84v-40.604l-11.604,24.775l-11.562-24.775v40.604
		h-13.305v-33.447l-2.799-2.569L456.369,130.921z M408.873,105.044l8.487-7.57h24.771l8.58,7.57v25.876l2.752,2.615l-2.752,2.569
		l0.005,25.923l-8.58,7.524H417.36l-8.487-7.524v-25.923l-2.799-2.569l2.799-2.615V105.044z M295.477,130.92v-25.876l8.625-7.57
		h23.812l8.626,7.57v11.286h-13.306v-5.552h-14.406v20.142l2.799,2.615l-2.799,2.569v20.142h14.406v-16.058h-9.084v-13.352h22.39
		v4.083l2.799,2.615l-2.799,2.569l-0.001,25.924l-8.626,7.524h-23.949l-8.487-7.524v-25.923l-2.753-2.569L295.477,130.92z
		 M228.492,130.92V97.474h13.351v33.446l2.753,2.615l-2.753,2.569v33.447h-13.351v-33.447l-2.799-2.569L228.492,130.92z
		 M181.711,130.92v-25.876l8.625-7.57h23.812l8.626,7.57v11.286h-13.306v-5.552h-14.406v20.142l2.799,2.615l-2.799,2.569v20.142
		h14.406v-16.058h-9.084v-13.352h22.39v4.083l2.799,2.615l-2.799,2.569l-0.001,25.924l-8.626,7.524h-23.949l-8.487-7.524v-25.923
		l-2.753-2.569L181.711,130.92z M133.985,130.92V97.474h14.269l14.59,37.806V97.474h13.214v33.446l2.798,2.615l-2.798,2.569v33.355
		l0.046,0.092h-14.316l-14.544-37.76v37.76h-13.259v-33.447l-2.799-2.569L133.985,130.92z M114.726,130.92V97.474h13.351v33.446
		l2.753,2.615l-2.753,2.569v33.447h-13.351v-33.447l-2.799-2.569L114.726,130.92z M68.168,130.921V97.474h31.979l8.487,7.57v26.473
		l-9.084,8.488l11.515,29.547H96.797l-11.332-29.363H81.52v29.363H68.168v-33.447l-2.753-2.569L68.168,130.921z M22.4,130.92V97.474
		h31.795l8.534,7.57v22.16l-5.138,6.239l5.138,6.378v22.206l-8.534,7.524H22.4v-33.447l-2.798-2.569L22.4,130.92z M63.739,218.008
		v25.877l-8.626,7.57H22.355v-33.447l-2.753-2.569l2.753-2.615v-33.446h32.758l8.626,7.616v25.83l2.798,2.615L63.739,218.008z
		 M104.16,251.455H69.43v-33.447l-2.799-2.569l2.799-2.615v-33.446h34.455v13.305h-21.15v16.059h18.215v13.352H82.734v16.058h21.426
		V251.455z M144.746,251.455l-6.239-31.153l-6.286,31.153h-13.58l-12.021-72.078h13.626l5.46,36.842L133,179.377h11.011
		l7.249,36.888l5.46-36.888h13.673l-12.066,72.078H144.746z M202.846,251.456l-3.212-16.059h-13.947l-3.212,16.059h-13.58
		l14.406-72.078h18.719l14.406,72.078H202.846z M247.711,251.456l-11.332-29.363h-3.946v29.363h-13.351v-33.449l-2.752-2.568
		l2.752-2.614v-33.447h31.979l8.487,7.57v26.473l-9.084,8.488l11.516,29.547H247.711z M261.01,131.791v37.76h-13.259v-33.447
		l-2.799-2.569l2.799-2.615V97.474h14.269l14.59,37.806V97.474h13.214v33.446l2.798,2.615l-2.798,2.569v33.355l0.046,0.092h-14.316
		L261.01,131.791z M313.493,218.009v33.447H300.14v-33.447l-2.799-2.569l2.799-2.615v-20.142h-13.213v-13.305h39.777l0.002,13.305
		h-13.213v20.142l2.753,2.615L313.493,218.009z M371.176,243.931l-8.58,7.524H337.82l-8.487-7.524v-25.923l-2.799-2.569l2.799-2.615
		v-25.876l8.487-7.57h24.771l8.58,7.57v25.876l2.752,2.615l-2.752,2.569L371.176,243.931z M393.032,136.105v33.447H379.68v-33.447
		l-2.799-2.569l2.799-2.615v-20.142h-13.213V97.474h39.777l0.001,13.305h-13.213v20.142l2.753,2.615L393.032,136.105z
		 M433.999,251.455h-32.987v-33.447l-2.753-2.569l2.753-2.615v-33.446h13.354v33.446l2.799,2.615l-2.799,2.569v20.142H434
		L433.999,251.455z M449.958,218.008v33.447h-13.351v-33.447l-2.804-2.569l2.804-2.615v-33.446h13.351v33.446l2.753,2.615
		L449.958,218.008z M487.34,222.092h-18.169v29.363H455.82v-33.447l-2.753-2.569l2.753-2.615v-33.446h34.456v13.303h-21.105v16.059
		h18.169V222.092z M527.635,251.455h-34.729v-33.447l-2.799-2.569l2.799-2.615v-33.446h34.456v13.305H506.21v16.059h18.215v13.352
		H506.21v16.058h21.427L527.635,251.455z M561.919,136.105v33.447h-0.001h-13.351v-40.604l-11.607,24.775l-11.562-24.775v40.604
		H512.09v-33.447l-2.799-2.569l2.799-2.615V97.475h13.31l11.562,24.775l11.607-24.775h13.351v33.446l2.753,2.615L561.919,136.105z
		 M593.983,142.988v26.562h-13.489v-26.656l-15.966-45.422H578.2l9.084,26.84l8.947-26.84h14.131L593.983,142.988z"/>
</g>
<g>
	<path fill="#FFFFFF" d="M29.845,40.672v8.462c0,10.19-5.096,16.015-14.922,16.015C5.096,65.149,0,59.325,0,49.134v-33.12
		C0,5.825,5.096,0.001,14.923,0.001c9.826,0,14.922,5.824,14.922,16.014v6.188h-9.463v-6.824c0-4.549-2.002-6.277-5.187-6.277
		s-5.187,1.729-5.187,6.277v34.395c0,4.549,2.002,6.187,5.187,6.187s5.187-1.638,5.187-6.187v-9.1h9.463V40.672z"/>
	<path fill="#FFFFFF" d="M33.43,16.014c0-10.189,5.368-16.013,15.195-16.013S63.82,5.825,63.82,16.015v33.12
		c0,10.19-5.368,16.015-15.195,16.015S33.43,59.325,33.43,49.134V16.014z M43.439,49.772c0,4.549,2.002,6.277,5.187,6.277
		s5.187-1.729,5.187-6.277V15.378c0-4.549-2.002-6.277-5.187-6.277s-5.187,1.729-5.187,6.277V49.772z"/>
	<path fill="#FFFFFF" d="M89.379,45.95l6.824-45.221h13.921v63.692h-9.463V18.745l-6.915,45.676h-9.463l-7.46-45.04v45.04h-8.734
		V0.729H82.01L89.379,45.95z"/>
	<path fill="#FFFFFF" d="M114.949,0.729h10.009v63.692h-10.009V0.729z"/>
	<path fill="#FFFFFF" d="M138.641,18.29v46.131h-9.008V0.729h12.556l10.282,38.123V0.729h8.917v63.692h-10.282L138.641,18.29z"/>
	<path fill="#FFFFFF" d="M181.488,28.935h14.013v20.199c0,10.19-5.096,16.015-14.922,16.015c-9.827,0-14.923-5.824-14.923-16.015
		v-33.12C165.656,5.825,170.752,0,180.579,0c9.826,0,14.922,5.824,14.922,16.014v6.188h-9.463v-6.824
		c0-4.549-2.002-6.277-5.187-6.277s-5.187,1.729-5.187,6.277v34.395c0,4.549,2.002,6.187,5.187,6.187s5.187-1.638,5.187-6.187
		V38.034h-4.55V28.935L181.488,28.935z"/>
	<path fill="#FFFFFF" d="M212.243,0.729h30.937v9.099h-10.464v54.593h-10.009V9.828h-10.464V0.729L212.243,0.729z"/>
	<path fill="#FFFFFF" d="M245.736,16.014C245.736,5.825,251.104,0,260.931,0c9.827,0,15.195,5.824,15.195,16.014v33.12
		c0,10.19-5.368,16.015-15.195,16.015c-9.827,0-15.195-5.824-15.195-16.015V16.014z M255.744,49.772
		c0,4.549,2.002,6.277,5.187,6.277s5.187-1.729,5.187-6.277V15.378c0-4.549-2.002-6.277-5.187-6.277s-5.187,1.729-5.187,6.277
		V49.772z"/>
	<path fill="#FFFFFF" d="M328.173,64.421H318.07l-1.729-11.556H304.06l-1.729,11.556h-9.189l10.19-63.691h14.646L328.173,64.421z
		 M305.335,44.221h9.646l-4.822-32.21L305.335,44.221z"/>
	<path fill="#FFFFFF" d="M352.723,45.95l6.824-45.221h13.921v63.692h-9.463V18.745l-6.915,45.676h-9.463l-7.461-45.039v45.039
		h-8.734V0.729h13.921L352.723,45.95z"/>
	<path fill="#FFFFFF" d="M388.328,27.571h13.736v9.098h-13.736v18.653h17.284v9.099h-27.295V0.729h27.295v9.099h-17.284V27.571z"/>
	<path fill="#FFFFFF" d="M430.537,64.421c-0.549-1.638-0.908-2.639-0.908-7.825V46.587c0-5.914-2.002-8.098-6.553-8.098h-3.457
		v25.932h-10.012V0.729h15.104c10.373,0,14.83,4.822,14.83,14.648v5.005c0,6.551-2.094,10.827-6.553,12.92
		c5.006,2.093,6.645,6.915,6.645,13.558v9.826c0,3.094,0.092,5.369,1.092,7.734L430.537,64.421L430.537,64.421z M419.619,9.828
		V29.39h3.91c3.729,0,6.008-1.638,6.008-6.733v-6.278c0-4.55-1.549-6.551-5.098-6.551H419.619z"/>
	<path fill="#FFFFFF" d="M444.387,0.729h10.012v63.692h-10.012V0.729z"/>
	<path fill="#FFFFFF" d="M488.525,40.672v8.462c0,10.19-5.098,16.015-14.924,16.015c-9.824,0-14.922-5.824-14.922-16.015v-33.12
		C458.682,5.825,463.777,0,473.604,0c9.827,0,14.924,5.824,14.924,16.014v6.188h-9.464v-6.824c0-4.549-2.003-6.277-5.187-6.277
		c-3.188,0-5.188,1.729-5.188,6.277v34.395c0,4.549,2.003,6.187,5.188,6.187c3.184,0,5.187-1.638,5.187-6.187v-9.1L488.525,40.672
		L488.525,40.672z"/>
	<path fill="#FFFFFF" d="M525.375,64.421h-10.102l-1.729-11.556h-12.283l-1.729,11.556h-9.188l10.19-63.691h14.646L525.375,64.421z
		 M502.537,44.221h9.645l-4.82-32.21L502.537,44.221z"/>
	<path fill="#FFFFFF" d="M542.756,28.025h18.197v9.099h-18.197V28.025z"/>
</g>
<g>
	<path fill="#FFFFFF" d="M0,300.594c0-10.188,5.368-16.014,15.195-16.014c9.827,0,15.195,5.824,15.195,16.014v33.12
		c0,10.189-5.368,16.016-15.195,16.016C5.368,349.729,0,343.903,0,333.714V300.594z M10.009,334.353
		c0,4.549,2.002,6.276,5.187,6.276c3.185,0,5.187-1.729,5.187-6.276v-34.396c0-4.549-2.002-6.277-5.187-6.277
		c-3.185,0-5.187,1.729-5.187,6.277V334.353z"/>
	<path fill="#FFFFFF" d="M43.667,302.869V349h-9.008v-63.691h12.556l10.282,38.124v-38.124h8.917V349H56.132L43.667,302.869z"/>
	<path fill="#FFFFFF" d="M119.188,349h-10.1l-1.729-11.556H95.076L93.347,349h-9.189l10.19-63.691h14.649L119.188,349z
		 M96.35,328.801h9.645l-4.822-32.21L96.35,328.801z"/>
	<path fill="#FFFFFF" d="M145.941,302.869V349h-9.008v-63.691h12.556l10.282,38.124v-38.124h8.917V349h-10.282L145.941,302.869z"/>
	<path fill="#FFFFFF" d="M206.976,349h-10.1l-1.729-11.556h-12.283L181.135,349h-9.189l10.19-63.691h14.649L206.976,349z
		 M184.138,328.801h9.645l-4.822-32.21L184.138,328.801z"/>
	<path fill="#FFFFFF" d="M204.256,285.309h30.937v9.099h-10.464V349H214.72v-54.593h-10.464V285.309L204.256,285.309z"/>
	<path fill="#FFFFFF" d="M238.359,285.309h10.009V349h-10.009V285.309z"/>
	<path fill="#FFFFFF" d="M252.653,300.594c0-10.188,5.368-16.014,15.195-16.014c9.827,0,15.195,5.824,15.195,16.014v33.12
		c0,10.189-5.368,16.016-15.195,16.016c-9.827,0-15.195-5.824-15.195-16.016V300.594L252.653,300.594z M262.661,334.353
		c0,4.549,2.002,6.276,5.187,6.276s5.187-1.729,5.187-6.276v-34.396c0-4.549-2.002-6.277-5.187-6.277s-5.187,1.729-5.187,6.277
		V334.353z"/>
	<path fill="#FFFFFF" d="M296.32,302.869V349h-9.008v-63.691h12.559l10.279,38.124v-38.124h8.917V349h-10.279L296.32,302.869z"/>
	<path fill="#FFFFFF" d="M357.354,349h-10.1l-1.729-11.556h-12.282L331.513,349h-9.188l10.188-63.691h14.649L357.354,349z
		 M334.516,328.801h9.646l-4.822-32.21L334.516,328.801z"/>
	<path fill="#FFFFFF" d="M360.65,285.309h10.009v54.592h16.472V349h-26.479L360.65,285.309L360.65,285.309z"/>
	<path fill="#FFFFFF" d="M426.891,315.062L423.25,349h-13.738l-7.097-63.691h9.73l5.369,50.225l4.822-50.225h9.646l5.004,50.588
		l5.188-50.588h8.732L443.814,349h-13.285L426.891,315.062z"/>
	<path fill="#FFFFFF" d="M464.434,349h-10.01v-63.691h10.01v27.295h11.373v-27.295h10.191V349h-10.191v-27.297h-11.373V349z"/>
	<path fill="#FFFFFF" d="M490.766,285.309h10.01V349h-10.01V285.309z"/>
	<path fill="#FFFFFF" d="M519.516,284.58c9.736,0,14.74,5.824,14.74,16.014v2.003h-9.463v-2.64c0-4.549-1.818-6.277-5.004-6.277
		c-3.188,0-5.008,1.729-5.008,6.277c0,13.103,19.562,15.56,19.562,33.757c0,10.189-5.094,16.016-14.922,16.016
		c-9.826,0-14.922-5.824-14.922-16.016v-3.913h9.463v4.552c0,4.549,2.002,6.188,5.188,6.188c3.188,0,5.188-1.64,5.188-6.188
		c0-13.104-19.562-15.561-19.562-33.759C504.775,290.404,509.781,284.58,519.516,284.58z"/>
	<path fill="#FFFFFF" d="M551.236,323.614l-3.096,5.822V349h-10.01v-63.691h10.01v27.75l13.104-27.75h10.008l-13.92,28.389
		L571.252,349h-10.281L551.236,323.614z"/>
	<path fill="#FFFFFF" d="M585.686,327.892l-12.646-42.583h10.463l7.646,29.025l7.645-29.025h9.555L595.7,327.892V349h-10.008
		v-21.108H585.686z"/>
	<path fill="#FFFFFF" d="M622.627,285.309h30.936v9.099H643.1V349h-10.01v-54.593h-10.463V285.309L622.627,285.309z"/>
	<path fill="#FFFFFF" d="M656.119,300.594c0-10.188,5.365-16.014,15.193-16.014c9.824,0,15.193,5.824,15.193,16.014v33.12
		c0,10.189-5.369,16.016-15.193,16.016c-9.828,0-15.193-5.824-15.193-16.016V300.594L656.119,300.594z M666.129,334.353
		c0,4.549,2.002,6.276,5.188,6.276c3.188,0,5.188-1.729,5.188-6.276v-34.396c0-4.549-2.002-6.277-5.188-6.277
		s-5.188,1.729-5.188,6.277V334.353z"/>
	<path fill="#FFFFFF" d="M700.506,285.309v49.133c0,4.55,2.002,6.188,5.188,6.188c3.188,0,5.188-1.638,5.188-6.188v-49.133h9.461
		v48.497c0,10.19-5.094,16.014-14.922,16.014c-9.826,0-14.922-5.818-14.922-16.014v-48.497H700.506z"/>
	<path fill="#FFFFFF" d="M745.818,349c-0.547-1.638-0.91-2.64-0.91-7.825v-10.009c0-5.914-2.002-8.099-6.551-8.099H734.9V349H724.89
		v-63.691h15.105c10.373,0,14.83,4.822,14.83,14.648v5.005c0,6.551-2.097,10.827-6.553,12.92c5.004,2.094,6.645,6.915,6.645,13.559
		v9.826c0,3.094,0.092,5.368,1.092,7.733H745.818L745.818,349z M734.9,294.407v19.562h3.912c3.729,0,6.006-1.643,6.006-6.734v-6.277
		c0-4.55-1.547-6.551-5.098-6.551H734.9z"/>
	<path fill="#FFFFFF" d="M769.312,339.354V349h-9.646v-9.646H769.312z"/>
</g>
</svg>
