<?xml version="1.0" encoding="utf-8"?>
<!-- Generator: Adobe Illustrator 15.1.0, SVG Export Plug-In . SVG Version: 6.00 Build 0)  -->
<!DOCTYPE svg PUBLIC "-//W3C//DTD SVG 1.1//EN" "http://www.w3.org/Graphics/SVG/1.1/DTD/svg11.dtd">
<svg version="1.1" id="Layer_1" xmlns="http://www.w3.org/2000/svg" xmlns:xlink="http://www.w3.org/1999/xlink" x="0px" y="0px"
	 width="200px" height="75px" viewBox="0 0 200 75" enable-background="new 0 0 200 75" xml:space="preserve">
<g>
	<path fill="#231F20" d="M162.605,68.755c0-0.698,0.537-1.213,1.189-1.213c0.678,0,1.189,0.515,1.189,1.213
		c0,0.724-0.512,1.237-1.189,1.237C163.143,69.992,162.605,69.479,162.605,68.755L162.605,68.755z M163.795,70.25
		c0.818,0,1.494-0.632,1.494-1.495c0-0.839-0.676-1.47-1.494-1.47c-0.816,0-1.47,0.631-1.47,1.47
		C162.326,69.618,162.979,70.25,163.795,70.25L163.795,70.25z M163.516,68.896h0.279l0.443,0.722h0.279l-0.466-0.745
		c0.234-0.023,0.421-0.164,0.421-0.49s-0.188-0.467-0.584-0.467h-0.654v1.702h0.281V68.896L163.516,68.896z M163.516,68.662v-0.537
		h0.327c0.187,0,0.373,0.047,0.373,0.258c0,0.256-0.187,0.279-0.42,0.279H163.516L163.516,68.662z"/>
	<path fill="#231F20" d="M34.758,43.415c0,0,5.204,0,11.13,0c8.704,0,13.463,5.949,13.463,12.319c0,7.375-5.179,13.068-12.88,13.021
		c-6.86-0.022-11.737,0-11.737,0l-0.023-1.329c0,0,2.427,0,2.825,0c0.699,0,1.189-0.326,1.189-1.189c0-0.654,0-19.67,0-20.303
		c0-0.814-0.467-1.259-1.237-1.259c-0.654,0-2.708,0-2.708,0L34.758,43.415L34.758,43.415z M43.416,44.675
		c-0.42,0-0.84,0.373-0.84,0.724c0,0.328,0,20.886,0,21.232c0,0.374,0.14,0.795,0.7,0.795c0.513,0,2.263,0,2.8,0
		c6.954,0,8.773-5.482,8.773-11.574c0-4.199-1.026-11.177-8.82-11.177C45.445,44.675,43.416,44.675,43.416,44.675L43.416,44.675z"/>
	<path fill="#231F20" d="M79.209,52.842c-0.186,0.141-11.807,8.167-12.133,8.354c-0.257,0.162-0.304,0.352-0.188,0.514
		c1.634,2.357,4.106,4.248,7.654,4.248c3.756,0,5.997-3.643,6.231-4.105c0.233-0.492,0.489-0.281,0.63,0.045
		c0.186,0.442-0.046,0.91-0.046,0.91s-2.731,6.348-8.867,6.348c-6.161,0-10.268-4.993-10.36-10.502
		c-0.046-5.506,3.687-10.5,9.077-10.5s8.003,4.084,8.12,4.225C79.466,52.538,79.419,52.68,79.209,52.842L79.209,52.842z
		 M75.079,53.378c-0.163-0.233-2.192-3.453-5.413-3.453c-3.197,0-4.923,3.175-4.923,5.345s0.84,4.199,0.979,4.455
		c0.164,0.233,0.374,0.305,0.631,0.143c0.256-0.189,8.469-5.788,8.657-5.928C75.196,53.798,75.243,53.611,75.079,53.378
		L75.079,53.378z"/>
	<path fill="#231F20" d="M103.5,48.898c-1.354-1.284-3.103-1.026-4.248-0.211c-0.629,0.467-0.909,1.189-0.933,1.354
		c-0.093,0.258,0.07,0.396,0.28,0.279c0.163-0.115,0.536-0.396,1.236-0.396c1.167,0,2.356,1.099,2.356,2.613
		c0,0.956-0.258,2.007-0.42,2.614c-0.98,3.22-2.31,7.699-2.356,7.793c-0.07,0.188-0.232,0.188-0.303,0.022
		c-0.07-0.187-3.966-12.25-4.083-12.554c-0.094-0.352-0.117-0.605,0.186-0.605c0.234,0,1.563,0,1.658,0
		c0.093,0,0.279-0.048,0.279-0.233c0-0.188,0-0.607,0-0.747c0-0.21-0.093-0.281-0.279-0.281c-0.164,0-7.887,0-7.887,0
		c-0.141,0-0.234,0.096-0.234,0.211c0,0,0,0.678,0,0.771c0,0.207,0.046,0.279,0.257,0.279c0.116,0,0.934,0,1.33,0
		c0.606,0,0.817,0.209,0.98,0.652c0.07,0.162,0.443,1.352,0.98,3.057c-0.956,3.338-2.637,8.938-2.66,9.029
		c-0.069,0.188-0.257,0.188-0.303,0c-0.07-0.186-3.85-11.829-3.944-12.133c-0.093-0.352-0.093-0.605,0.188-0.605
		c0.233,0,1.54,0,1.657,0c0.092,0,0.28-0.048,0.28-0.233c0-0.188-0.024-0.607-0.024-0.747c0-0.21-0.093-0.281-0.233-0.281
		c-0.21,0-7.864,0-7.864,0c-0.14,0-0.257,0.096-0.257,0.211c0,0,0,0.678,0,0.771c0,0.207,0.07,0.279,0.28,0.279
		c0.117,0,0.771,0,1.167,0c0.63,0,0.84,0.209,0.979,0.652c0.187,0.561,5.764,18.061,5.834,18.247
		c0.07,0.188,0.164,0.278,0.303,0.278c0.187,0,1.4,0,1.541,0c0.116,0,0.232-0.092,0.303-0.325l3.616-12.509
		c1.75,5.322,4.061,12.438,4.106,12.556c0.071,0.188,0.164,0.278,0.303,0.278c0.164,0,1.074,0,1.213,0
		c0.118,0,0.234-0.092,0.304-0.325l4.762-14.864C104.316,52.327,104.994,50.32,103.5,48.898L103.5,48.898z"/>
	<path fill="#231F20" d="M135.096,66.586c0,0.605,0.326,0.816,0.793,0.816c0.209,0,2.262,0,2.379,0c0.094,0,0.256,0.046,0.256,0.234
		c0,0.186,0,0.674,0,0.861c0,0.21-0.092,0.256-0.231,0.256c-0.209,0-9.776,0-9.776,0c-0.117,0-0.258-0.093-0.258-0.209
		c0,0,0-0.771,0-0.888c0-0.21,0.069-0.257,0.279-0.257c0.141,0,1.773,0,2.148,0c0.582,0,0.885-0.187,0.885-0.862V50.695
		c0-0.678-0.303-0.863-0.885-0.863c-0.375,0-2.17,0-2.287,0c-0.211,0-0.258-0.047-0.258-0.257c0-0.117,0-0.817,0-0.817
		c0-0.115,0.094-0.211,0.258-0.211c0,0,3.242,0,6.019,0c0.397,0,0.515,0.211,0.515,0.516c0,0.279,0.022,2.332,0.022,2.543
		c0,0.232,0.211,0.304,0.467,0.023c1.167-1.424,2.986-3.033,5.367-3.479c0.396-0.069,0.817-0.069,1.259-0.069
		c0.445,0,0.375,0.187,0.375,0.397c0,0.187,0.046,6.627,0.046,6.789c0,0.164-0.069,0.209-0.187,0.209c-0.141,0-0.723,0-0.817,0
		c-0.114,0-0.278-0.093-0.278-0.278c0-0.21,0-3.312,0-3.478c0-0.257-0.095-0.373-0.352-0.373c-0.723,0-2.426,0.163-3.873,0.91
		c-1.609,0.793-1.938,1.633-1.938,2.286L135.096,66.586L135.096,66.586z"/>
	<path fill="#231F20" d="M158.615,63.973c0,2.355-2.055,3.522-4.295,3.5c-1.725,0-3.428-1.025-4.105-1.773
		c-0.652-0.725-1.656-2.286-1.656-4.781c0-0.189-0.164-0.281-0.279-0.281c-0.117,0-0.747,0-0.909,0c-0.118,0-0.187,0.07-0.187,0.209
		c0,0.164,0.045,7.327,0.045,7.538c0,0.326,0.069,0.396,0.35,0.396c0.257-0.022,0.607-0.022,0.816-0.022
		c0.188,0,0.28-0.116,0.28-0.278c0-0.164,0.022-1.61,0.022-1.773s0.117-0.281,0.328-0.071c1.399,1.448,3.359,2.403,5.461,2.403
		c4.082,0,6.695-2.985,6.695-6.207c0-4.479-4.34-5.622-6.486-6.438c-2.428-0.889-4.762-1.261-4.762-3.805
		c0-2.007,1.68-3.268,3.733-3.242c1.728,0,2.871,0.862,3.522,1.586c0.679,0.77,1.19,1.772,1.168,4.271
		c0,0.187,0.187,0.278,0.279,0.278c0.141,0,0.793,0,0.909,0c0.142,0,0.211-0.045,0.211-0.209c0-0.162-0.046-6.137-0.046-6.348
		c0-0.303-0.046-0.374-0.327-0.374c-0.257,0-0.583,0-0.794,0c-0.188,0-0.279,0.095-0.279,0.281c0,0.164,0,0.653,0,0.793
		c0,0.164-0.047,0.257-0.304,0.069c-1.448-1.213-2.497-1.727-4.295-1.727c-3.919,0-6.229,2.684-6.229,5.856
		c0,4.083,3.569,5.157,6.302,6.09C156.771,60.917,158.615,61.918,158.615,63.973L158.615,63.973z"/>
	<path fill="#231F20" d="M110.268,48.665c0.209,0,0.279,0.047,0.279,0.209c0,0.118-0.023,0.233-0.047,0.515
		c0,0.325,0.211,0.443,0.654,0.232c0.257-0.115,2.449-1.377,5.81-1.377c5.739,0,6.487,3.594,6.511,6.512
		c0.022,2.191,0.139,10.709,0.139,11.549s0.352,1.121,0.771,1.121c0.396,0,1.424,0,1.516,0c0.143,0,0.281,0.094,0.281,0.211
		c0,0.094,0,0.698,0,0.887c0,0.162-0.047,0.231-0.258,0.231c-0.162,0.022-5.365,0-5.484,0c-0.114,0.022-0.162-0.14-0.162-0.256
		c0-0.164-0.045-1.237-0.045-1.519c0-0.258-0.188-0.303-0.375-0.14c-0.187,0.14-2.17,2.007-5.273,2.007
		c-3.383,0-7.303-1.748-7.303-6.673c0-4.504,4.714-7.397,8.492-7.397c1.938,0,3.08,0.328,3.897,0.795
		c0.304,0.14,0.257-0.141,0.281-0.258c0.046-1.004,0.56-5.602-4.248-5.602c-4.83,0-7.024,5.508-7.024,5.508s-0.162,0.022-0.35,0
		s-0.35-0.279-0.305-0.443c0.07-0.116,1.354-5.879,1.354-5.879S109.801,48.665,110.268,48.665L110.268,48.665z M120.23,63.575
		c0-0.397-0.092-5.11-0.092-5.413c0-0.352-0.072-0.514-0.375-0.795c-0.279-0.278-1.4-1.329-3.546-1.329
		c-2.17,0-5.108,1.539-5.108,5.692c0,4.201,2.613,5.461,4.386,5.461c3.244,0,4.409-2.217,4.571-2.705
		C120.208,64.184,120.23,63.994,120.23,63.575L120.23,63.575z"/>
	<path fill="#231F20" d="M148.745,44.464c0-0.069-0.022-0.278-0.07-0.419c-0.233-0.934-1.026-1.797-2.192-1.797
		c-1.308,0-2.193,1.004-2.193,2.1c0,1.168,0.957,2.055,2.123,2.055c0.048,0,0.094-0.022,0.164-0.022l0,0
		c0.14,0,0.162,0.068,0.14,0.187c-0.373,0.631-0.979,1.213-1.75,1.541c-0.14,0.068-0.161,0.232-0.092,0.35
		c0.069,0.092,0.257,0.396,0.303,0.466c0.07,0.117,0.142,0.142,0.373,0.048c0.142-0.07,1.284-0.514,2.007-1.308
		c0.748-0.863,1.144-1.608,1.189-2.638C148.77,44.908,148.745,44.675,148.745,44.464L148.745,44.464z"/>
</g>
</svg>
