<?xml version="1.0" encoding="utf-8"?>
<!-- Generator: Adobe Illustrator 15.1.0, SVG Export Plug-In . SVG Version: 6.00 Build 0)  -->
<!DOCTYPE svg PUBLIC "-//W3C//DTD SVG 1.1//EN" "http://www.w3.org/Graphics/SVG/1.1/DTD/svg11.dtd">
<svg version="1.1" id="Layer_1" xmlns="http://www.w3.org/2000/svg" xmlns:xlink="http://www.w3.org/1999/xlink" x="0px" y="0px"
	 width="807px" height="599.822px" viewBox="0 0 807 599.822" enable-background="new 0 0 807 599.822" xml:space="preserve">
<g>
	<path fill="#FFFFFF" d="M21.291,45.95l6.824-45.221h13.921v63.692h-9.463V18.745l-6.915,45.676h-9.463l-7.461-45.04v45.04H0V0.729
		h13.921L21.291,45.95z"/>
	<path fill="#FFFFFF" d="M80.416,64.421h-10.1l-1.729-11.556H56.305l-1.73,11.556h-9.189L55.576,0.73h14.649L80.416,64.421z
		 M57.578,44.221h9.645l-4.822-32.21L57.578,44.221z"/>
	<path fill="#FFFFFF" d="M104.638,64.421c-0.546-1.638-0.909-2.639-0.909-7.825V46.587c0-5.914-2.002-8.098-6.552-8.098H93.72
		v25.932H83.711V0.729h15.104c10.373,0,14.831,4.822,14.831,14.648v5.005c0,6.551-2.093,10.827-6.551,12.92
		c5.005,2.093,6.643,6.915,6.643,13.558v9.826c0,3.094,0.091,5.369,1.092,7.734L104.638,64.421L104.638,64.421z M93.72,9.828V29.39
		h3.912c3.73,0,6.006-1.638,6.006-6.733v-6.278c0-4.55-1.547-6.551-5.096-6.551H93.72z"/>
	<path fill="#FFFFFF" d="M131.599,39.035l-3.094,5.823v19.563h-10.009V0.729h10.009V28.48l13.103-27.751h10.008l-13.921,28.389
		l13.921,35.303h-10.281L131.599,39.035z"/>
	<path fill="#FFFFFF" d="M154.865,0.729h10.009v63.692h-10.009V0.729z"/>
	<path fill="#FFFFFF" d="M178.557,18.29v46.131h-9.008V0.729h12.556l10.282,38.123V0.729h8.917v63.692h-10.282L178.557,18.29z"/>
	<path fill="#FFFFFF" d="M221.404,28.935h14.013v20.199c0,10.19-5.096,16.015-14.922,16.015c-9.827,0-14.923-5.824-14.923-16.015
		v-33.12C205.572,5.825,210.668,0,220.495,0c9.826,0,14.922,5.824,14.922,16.014v6.188h-9.463v-6.824
		c0-4.549-2.002-6.277-5.187-6.277s-5.187,1.729-5.187,6.277v34.395c0,4.549,2.002,6.187,5.187,6.187s5.187-1.638,5.187-6.187
		V38.034h-4.55V28.935L221.404,28.935z"/>
	<path fill="#FFFFFF" d="M287.464,64.421h-10.1l-1.729-11.556h-12.283l-1.729,11.556h-9.189l10.19-63.691h14.649L287.464,64.421z
		 M264.626,44.221h9.645l-4.822-32.21L264.626,44.221z"/>
</g>
<g>
	<path fill="#FFFFFF" d="M13.648,317.604h12.92v9.101h-12.92V353H3.64v-63.691h26.478v9.099h-16.47V317.604z"/>
	<path fill="#FFFFFF" d="M32.884,304.594c0-10.188,5.368-16.014,15.195-16.014c9.827,0,15.195,5.824,15.195,16.014v33.12
		c0,10.189-5.368,16.016-15.195,16.016c-9.827,0-15.195-5.824-15.195-16.016V304.594z M42.893,338.353
		c0,4.549,2.002,6.276,5.187,6.276s5.187-1.729,5.187-6.276v-34.396c0-4.549-2.002-6.277-5.187-6.277s-5.187,1.729-5.187,6.277
		V338.353z"/>
	<path fill="#FFFFFF" d="M88.506,353c-0.546-1.638-0.909-2.64-0.909-7.825v-10.009c0-5.914-2.002-8.099-6.552-8.099h-3.457V353
		H67.579v-63.691h15.104c10.373,0,14.831,4.822,14.831,14.648v5.005c0,6.551-2.093,10.827-6.551,12.92
		c5.004,2.094,6.643,6.915,6.643,13.559v9.826c0,3.094,0.091,5.368,1.092,7.733H88.506L88.506,353z M77.588,298.407v19.562H81.5
		c3.73,0,6.006-1.643,6.006-6.734v-6.277c0-4.55-1.547-6.551-5.096-6.551H77.588z"/>
	<path fill="#FFFFFF" d="M117.351,289.309h10.009V353h-10.009V289.309z"/>
	<path fill="#FFFFFF" d="M141.044,306.869V353h-9.008v-63.691h12.556l10.282,38.124v-38.124h8.917V353h-10.282L141.044,306.869z"/>
	<path fill="#FFFFFF" d="M166.921,289.309h30.937v9.099h-10.464V353h-10.009v-54.593h-10.464V289.309L166.921,289.309z"/>
	<path fill="#FFFFFF" d="M211.042,316.149h13.739v9.099h-13.739v18.653h17.287V353h-27.296v-63.691h27.296v9.099h-17.287V316.149z"
		/>
	<path fill="#FFFFFF" d="M253.251,353c-0.546-1.638-0.909-2.64-0.909-7.825v-10.009c0-5.914-2.002-8.099-6.552-8.099h-3.457V353
		h-10.009v-63.691h15.104c10.373,0,14.831,4.822,14.831,14.648v5.005c0,6.551-2.093,10.827-6.551,12.92
		c5.005,2.094,6.643,6.915,6.643,13.559v9.826c0,3.094,0.091,5.368,1.092,7.733H253.251L253.251,353z M242.333,298.407v19.562h3.912
		c3.73,0,6.006-1.643,6.006-6.734v-6.277c0-4.55-1.547-6.551-5.096-6.551H242.333z"/>
	<path fill="#FFFFFF" d="M276.072,306.869V353h-9.008v-63.691h12.556l10.282,38.124v-38.124h8.917V353h-10.282L276.072,306.869z"/>
	<path fill="#FFFFFF" d="M337.107,353h-10.104l-1.729-11.556h-12.283L311.267,353h-9.188l10.188-63.691h14.649L337.107,353z
		 M314.27,332.801h9.646l-4.822-32.21L314.27,332.801z"/>
	<path fill="#FFFFFF" d="M334.388,289.309h30.938v9.099H354.86V353H344.85v-54.593h-10.464L334.388,289.309L334.388,289.309z"/>
	<path fill="#FFFFFF" d="M368.491,289.309H378.5V353h-10.009V289.309z"/>
	<path fill="#FFFFFF" d="M382.784,304.594c0-10.188,5.368-16.014,15.19-16.014c9.827,0,15.195,5.824,15.195,16.014v33.12
		c0,10.189-5.368,16.016-15.195,16.016c-9.822,0-15.19-5.824-15.19-16.016V304.594z M392.793,338.353
		c0,4.549,2.002,6.276,5.188,6.276c3.185,0,5.187-1.729,5.187-6.276v-34.396c0-4.549-2.002-6.277-5.187-6.277
		c-3.188,0-5.188,1.729-5.188,6.277V338.353z"/>
	<path fill="#FFFFFF" d="M426.451,306.869V353h-9.008v-63.691h12.556l10.282,38.124v-38.124h8.917V353h-10.282L426.451,306.869z"/>
	<path fill="#FFFFFF" d="M487.486,353h-10.104l-1.729-11.556H463.37L461.646,353h-9.189l10.19-63.691h14.646L487.486,353z
		 M464.648,332.801h9.645l-4.822-32.21L464.648,332.801z"/>
	<path fill="#FFFFFF" d="M490.781,289.309h10.009v54.592h16.469V353h-26.478V289.309L490.781,289.309z"/>
	<path fill="#FFFFFF" d="M18.743,419.263l7.644-51.953h9.189L25.75,431H10.827l-9.826-63.69h10.1L18.743,419.263z"/>
	<path fill="#FFFFFF" d="M38.871,367.31H48.88V431H38.871V367.31z"/>
	<path fill="#FFFFFF" d="M83.264,383.049v8.28c0,10.189-4.913,15.74-14.922,15.74H63.61V431H53.602v-63.69h14.74
		C78.351,367.31,83.264,372.858,83.264,383.049z M63.61,376.407v21.562h4.731c3.185,0,4.913-1.455,4.913-6.008v-9.555
		c0-4.553-1.729-6.008-4.913-6.008L63.61,376.407L63.61,376.407z"/>
	<path fill="#FFFFFF" d="M100.734,366.58c9.736,0,14.74,5.823,14.74,16.014v2.003h-9.463v-2.64c0-4.549-1.819-6.276-5.004-6.276
		s-5.005,1.729-5.005,6.276c0,13.103,19.562,15.56,19.562,33.757c0,10.19-5.095,16.015-14.922,16.015
		c-9.826,0-14.922-5.819-14.922-16.015v-3.913h9.463v4.552c0,4.549,2.002,6.188,5.187,6.188s5.186-1.64,5.186-6.188
		c0-13.104-19.562-15.561-19.562-33.759C85.994,372.403,90.999,366.58,100.734,366.58z"/>
	<path fill="#FFFFFF" d="M128.806,421.355V431h-9.645v-9.645H128.806z"/>
</g>
<g>
	<polygon fill="#FFFFFF" points="279.123,144.076 287.747,144.076 283.435,122.512 	"/>
	<rect x="323.152" y="144.074" fill="#FFFFFF" width="13.673" height="16.058"/>
	<rect x="323.152" y="114.664" fill="#FFFFFF" width="13.673" height="16.059"/>
	<rect x="227.485" y="114.62" fill="#FFFFFF" width="13.811" height="16.104"/>
	<polygon fill="#FFFFFF" points="194.932,139.991 192.133,137.422 194.932,134.807 194.932,114.665 179.745,114.665 
		179.745,134.807 182.544,137.422 179.745,139.991 179.745,160.133 194.932,160.133 	"/>
	<path fill="#FFFFFF" d="M0.5,85.083v81.678v22.954v81.678h242.879v-81.678h202.49V85.083H0.5z M166.441,134.807v-25.876l8.487-7.57
		h24.775l8.58,7.57v25.876l2.752,2.615l-2.752,2.569v25.923l-8.58,7.524h-24.775l-8.487-7.524v-25.923l-2.799-2.569L166.441,134.807
		z M110.961,134.806V101.36h13.305l11.562,24.775l11.607-24.775h13.351v33.446l2.753,2.615l-2.753,2.569v33.448h-13.351v-40.605
		l-11.607,24.775l-11.562-24.775v40.604h-13.305V139.99l-2.799-2.569L110.961,134.806z M72.324,134.807v-33.446h34.457v13.305H85.63
		v16.059h18.214v13.352H85.63v16.058h21.427v13.303H72.324v-33.447l-2.799-2.569L72.324,134.807z M51.332,255.116H16.6v-33.447
		l-2.798-2.569l2.798-2.615v-33.446h34.457v13.305h-21.15v16.059H48.12v13.352H29.906v16.058h21.426V255.116z M41.467,157.608
		l-11.561-24.775v40.604H16.6V139.99l-2.798-2.569l2.798-2.615V101.36h13.307l11.561,24.775l11.608-24.775h13.351v33.446
		l2.753,2.615l-2.753,2.569l-0.001,33.448H53.075v-40.605L41.467,157.608z M69.893,255.116l-16.104-72.078h13.672
		c1.865,8.441,3.373,15.255,4.52,20.439c1.147,5.185,2.73,12.228,4.748,21.128c1.987-8.9,3.556-15.95,4.702-21.15
		c1.147-5.2,2.668-12.006,4.565-20.417h13.626l-16.058,72.078H69.893z M136.955,255.116h-34.732v-33.447l-2.799-2.569l2.799-2.615
		v-33.446h34.457v13.305h-21.152v16.059h18.215v13.352h-18.215v16.058h21.428L136.955,255.116z M182.978,255.116h-14.316
		l-14.544-37.76v37.76h-13.259v-33.447l-2.799-2.569l2.799-2.615v-33.446h14.269l14.59,37.806v-37.806h13.214v33.446l2.798,2.615
		l-2.798,2.569v33.355L182.978,255.116z M214.848,219.1l-2.753,2.569v33.447h-13.352v-33.447l-2.799-2.569l2.799-2.615v-20.142
		H185.53v-13.305h39.777l0.001,13.305h-13.213v20.142L214.848,219.1z M242.763,173.438l-11.332-29.363h-3.946v29.363h-13.351
		v-33.447l-2.752-2.568l2.752-2.614V101.36h31.979l8.487,7.57v26.473l-9.084,8.488l11.516,29.547H242.763z M293.62,173.438
		l-3.212-16.059h-13.947l-3.212,16.059h-13.58l14.406-72.078h18.719l14.406,72.078H293.62z M350.176,131.091l-5.139,6.239
		l5.139,6.378v22.206l-8.533,7.524h-31.795v-33.447l-2.799-2.569l2.799-2.615v-33.446h31.795l8.533,7.57V131.091z M388.601,173.438
		h-32.982v-33.447l-2.753-2.569l2.753-2.615v-33.446h13.351v33.446l2.799,2.615l-2.799,2.569v20.142h19.641L388.601,173.438z
		 M425.941,173.438H391.21v-33.447l-2.799-2.569l2.799-2.615v-33.446h34.456v13.305h-21.151v16.059h18.22v13.352h-18.22v16.058
		h21.432L425.941,173.438z"/>
</g>
</svg>
