<?xml version="1.0" encoding="utf-8"?>
<!-- Generator: Adobe Illustrator 15.1.0, SVG Export Plug-In . SVG Version: 6.00 Build 0)  -->
<!DOCTYPE svg PUBLIC "-//W3C//DTD SVG 1.1//EN" "http://www.w3.org/Graphics/SVG/1.1/DTD/svg11.dtd">
<svg version="1.1" id="Layer_1" xmlns="http://www.w3.org/2000/svg" xmlns:xlink="http://www.w3.org/1999/xlink" x="0px" y="0px"
	 width="200px" height="75px" viewBox="0 0 200 75" enable-background="new 0 0 200 75" xml:space="preserve">
<g>
	<g>
		<g>
			<g>
				<g>
					<polygon fill="#231F20" points="19.035,64.357 40.934,64.357 39.738,65.986 19.035,65.986 					"/>
					<polygon fill="#231F20" points="19.035,61.339 43.159,61.339 41.961,62.964 19.035,62.964 					"/>
					<polygon fill="#231F20" points="19.035,67.382 38.71,67.382 37.52,68.997 19.035,68.997 					"/>
				</g>
				<g>
					<polygon fill="#231F20" points="180.965,65.986 159.15,65.986 160.348,64.359 180.965,64.359 					"/>
					<polygon fill="#231F20" points="180.965,68.997 156.934,69 158.124,67.382 180.965,67.382 					"/>
					<polygon fill="#231F20" points="162.57,61.339 180.965,61.339 180.965,62.965 161.375,62.967 					"/>
				</g>
			</g>
			<g>
				<path fill="#231F20" d="M40.245,68.997l10.393-14.118c0,0,11.519,0,12.895,0c1.426,0,1.406,0.542,0.711,1.485
					c-0.708,0.958-1.911,2.606-2.633,3.579c-0.365,0.494-1.027,1.396,1.163,1.396c2.318,0,17.276,0,17.276,0
					c-1.437,1.968-6.097,7.658-14.465,7.658C58.803,68.997,40.245,68.997,40.245,68.997L40.245,68.997z"/>
				<polygon fill="#231F20" points="99.758,61.337 94.123,68.997 79.258,68.997 84.895,61.339 				"/>
				<path fill="#231F20" d="M121.253,61.339l-5.638,7.658h-14.859c0,0,5.633-7.658,5.639-7.658H121.253L121.253,61.339z"/>
				<path fill="#231F20" d="M126.087,61.339c0,0-1.086,1.484-1.614,2.197c-1.867,2.522-0.216,5.461,5.875,5.461
					c7.035,0,23.865,0,23.865,0l5.637-7.658H126.087L126.087,61.339z"/>
			</g>
			<g>
				<path fill="#231F20" d="M47.512,46.1l-5.173,7.029c0,0,26.821,0,28.196,0c1.425,0,1.406,0.541,0.71,1.485
					c-0.708,0.956-1.892,2.624-2.612,3.597c-0.365,0.493-1.026,1.393,1.164,1.393c2.317,0,11.53,0,11.53,0s1.859-2.527,3.417-4.643
					c2.12-2.876,0.184-8.861-7.393-8.861C70.569,46.1,47.512,46.1,47.512,46.1L47.512,46.1z"/>
				<polygon fill="#231F20" points="122.529,59.604 86.172,59.604 96.113,46.1 110.975,46.1 105.275,53.843 111.908,53.843 
					117.609,46.1 132.468,46.1 				"/>
				<polygon fill="#231F20" points="153.048,46.1 143.107,59.604 127.361,59.604 137.309,46.1 				"/>
			</g>
		</g>
	</g>
</g>
</svg>
