<?xml version="1.0" encoding="utf-8"?>
<!-- Generator: Adobe Illustrator 15.1.0, SVG Export Plug-In . SVG Version: 6.00 Build 0)  -->
<!DOCTYPE svg PUBLIC "-//W3C//DTD SVG 1.1//EN" "http://www.w3.org/Graphics/SVG/1.1/DTD/svg11.dtd">
<svg version="1.1" id="Layer_1" xmlns="http://www.w3.org/2000/svg" xmlns:xlink="http://www.w3.org/1999/xlink" x="0px" y="0px"
	 width="50px" height="50px" viewBox="0 0 50 50" enable-background="new 0 0 50 50" xml:space="preserve">
<g>
	<path fill="#FFFFFF" d="M49.6,24.802C49.6,11.105,38.494,0,24.8,0C11.105,0,0,11.105,0,24.802C0,38.493,11.105,49.6,24.8,49.6
		C38.494,49.6,49.6,38.493,49.6,24.802L49.6,24.802z M18.142,24.802v-4.746h2.905v-2.872c0-3.875,1.156-6.663,5.395-6.663h5.041
		v4.734h-3.543c-1.785,0-2.19,1.178-2.19,2.42v2.379h5.47L30.471,24.8h-4.722v14.308h-4.701V24.802H18.142z"/>
</g>
</svg>
