<?xml version="1.0" encoding="utf-8"?>
<!-- Generator: Adobe Illustrator 15.1.0, SVG Export Plug-In . SVG Version: 6.00 Build 0)  -->
<!DOCTYPE svg PUBLIC "-//W3C//DTD SVG 1.1//EN" "http://www.w3.org/Graphics/SVG/1.1/DTD/svg11.dtd">
<svg version="1.1" id="Layer_1" xmlns="http://www.w3.org/2000/svg" xmlns:xlink="http://www.w3.org/1999/xlink" x="0px" y="0px"
width="50px" height="50px" viewBox="0 0 50 50" enable-background="new 0 0 50 50" xml:space="preserve">
<g>
<path fill="#FFFFFF" d="M24.727,0C11.08,0,0,11.078,0,24.726c0,13.663,11.08,24.741,24.727,24.741
c13.662,0,24.741-11.078,24.741-24.741C49.468,11.063,38.389,0,24.727,0L24.727,0z M17.827,41.376
c-5.464,0-10.083-2.233-10.083-5.796c0-3.612,4.211-7.096,9.676-7.096l1.721-0.016c-0.755-0.725-1.343-1.634-1.343-2.732
c0-0.648,0.211-1.282,0.498-1.84l-0.906,0.03c-4.498,0-7.518-3.202-7.518-7.155c0-3.879,4.167-7.231,8.574-7.231h9.873L26.1,11.125
h-3.125c2.068,0.8,3.186,3.215,3.186,5.705c0,2.085-1.162,3.864-2.793,5.147c-1.585,1.24-1.887,1.768-1.887,2.825
c0,0.905,1.706,2.431,2.597,3.064c2.611,1.838,3.441,3.547,3.441,6.399C27.52,37.829,24.077,41.376,17.827,41.376L17.827,41.376z
M37.104,21.69v6.176H34.01V21.69H27.82v-3.138h6.188v-6.191h3.095v6.191h6.174v3.138H37.104z"/>
<path fill="#FFFFFF" d="M20.922,29.798c-0.739-0.245-1.569-0.396-2.445-0.396c-3.789-0.043-7.17,2.312-7.17,5.132
c0,2.872,2.732,5.272,6.506,5.272c5.328,0,7.17-2.25,7.17-5.134c0-0.332-0.03-0.68-0.12-1.012
C24.454,32.032,22.975,31.217,20.922,29.798L20.922,29.798z"/>
<path fill="#FFFFFF" d="M22.612,17.011c-0.438-3.319-2.853-6.006-5.389-6.083c-2.536-0.074-4.241,2.479-3.804,5.813
c0.438,3.334,2.853,6.112,5.389,6.189C21.345,23.003,23.051,20.364,22.612,17.011L22.612,17.011z"/>
</g>
</svg>
