<?xml version="1.0" encoding="utf-8"?>
<!-- Generator: Adobe Illustrator 15.1.0, SVG Export Plug-In . SVG Version: 6.00 Build 0)  -->
<!DOCTYPE svg PUBLIC "-//W3C//DTD SVG 1.1//EN" "http://www.w3.org/Graphics/SVG/1.1/DTD/svg11.dtd">
<svg version="1.1" id="Layer_1" xmlns="http://www.w3.org/2000/svg" xmlns:xlink="http://www.w3.org/1999/xlink" x="0px" y="0px"
	 width="200px" height="75px" viewBox="0 0 200 75" enable-background="new 0 0 200 75" xml:space="preserve">
<g>
	<g>
		<g>
			<path d="M53.045,30.845c-8.86-0.591-17.179,2.779-17.237,9.284c-0.067,7.396,8.016,9.128,11.205,9.157
				c9.268,0.083,25.968-8.313,26.022-14.31c0.014-1.657-0.354-3.19-4.052-3.225C60.308,31.675,46.85,42.65,46.778,50.814
				c-0.032,3.443,2.331,6.398,5.775,6.43c3.446,0.031,11.396-4.873,13.453-6.512c-4.514,5.57-12.407,17.875-20.059,17.806
				c-2.296-0.021-6.368-1.205-6.331-5.414c0.038-4.21,3.878-5.578,5.785-4.923c-0.291,0.523-0.528,0.808-0.533,1.479
				c-0.006,0.709,0.564,1.291,1.273,1.297s1.291-0.563,1.297-1.272c0.012-1.388-0.596-2.399-2.795-2.418
				c-2.2-0.021-5.657,1.433-5.697,5.832c-0.038,4.401,3.775,5.774,6.932,5.803c5.039,0.046,14.58-4.206,18.858-11.95
				c2.14-3.869,4.737-9.14,5.959-10.15c1.222-1.01,2.694-1.633,2.694-1.633s0.066-0.256-0.253-0.194
				c-0.319,0.062-1.216,0.437-6.865,4.596c-5.65,4.159-10.204,7.052-13.776,7.021c-3.572-0.032-3.93-2.715-3.92-3.862
				c0.05-5.613,13.259-20.547,20.339-20.481c0.957,0.007,2.485,0.148,2.467,2.189c-0.034,3.763-11.993,14.436-24.429,14.322
				c-5.102-0.045-9.348-3.08-9.307-7.672c0.028-3.125,3.216-10.113,15.27-10.005C53.107,31.099,53.432,30.87,53.045,30.845z"/>
			<path d="M156.395,45.77c0.701,0.006,0.981,0.838,0.979,1.188c-0.008,0.86-0.596,1.774-3.475,3.541
				c-0.258,0.158-0.572-0.197-0.188-0.448s1.314-0.689,1.994-1.863c-0.578,0.379-1.629,0.24-1.623-0.431
				C154.086,47.088,154.833,45.755,156.395,45.77z"/>
			<path d="M153.004,61.219c0.698,0.006,1.258,0.576,1.251,1.273c-0.006,0.697-0.577,1.259-1.274,1.252
				c-0.631-0.006-1.148-0.483-1.235-1.09c-0.769,0.471-2.452,1.547-2.47,3.51c-0.017,1.961,1.797,2.357,3.328,2.372
				c2.248,0.021,9.471-5.226,9.559-15.03c-5.028,6.077-10.875,10.682-13.251,12.51c-2.375,1.83-5.255,2.952-6.786,2.938
				c-1.404-0.013-2.796-1.108-2.787-2.259c0.033-3.633,6.646-8.485,8.975-12.229c0.459-0.736,0.016-1.529-0.623-1.537
				c-3.955-0.035-11.7,10.42-16.293,15.864l-3.047-0.026c0,0,9.14-10.795,10.832-13.025c1.693-2.234,0.264-2.867-0.214-2.873
				c-1.387-0.012-6.403,4.773-8.657,5.186c-5.369,6.664-8.297,11.357-13.453,11.312c-2.916-0.027-3.155-4.907-2.858-5.958
				c-5.494,4.544-7.035,5.771-9.044,5.756c-2.01-0.02-1.596-3.411-1.438-5.035c-1.4,1.564-6.458,5.251-8.608,5.232
				c-2.153-0.021-2.659-2.32-2.649-3.422c0.037-4.018,2.787-6.721,3.946-7.904c-1.475-1.066-1.697-2.838-1.789-3.27
				C89.45,59.074,84.078,65.962,81.58,69.24l-3.079-0.027c0,0,10.786-13.346,11.369-14.248c0.582-0.904-0.319-1.918-0.75-1.921
				c-1.482-0.015-5.481,3.203-7.911,5.047c0.194-0.333,0.365-0.952,0.561-1.62c1.475-0.705,5.844-4.254,7.405-4.238
				c1.531,0.014,3.289,1.367,2.748,3.037c1.106-0.756,4.234-2.783,6.482-2.764c0.335,0.001,0.285,0.241-0.1,0.43
				c-0.383,0.188-2.265,1.894-2.274,3.039c-0.007,0.768,0.561,1.488,0.561,1.488c5.342-3.73,8.418-5.281,10.857-5.26
				c2.438,0.023,2.472,1.602,2.658,2.367c7.545-9.355,13.154-16.193,13.154-16.193l2.967,0.027c0,0-21.293,27.219-21.584,27.646
				c-0.291,0.429-0.506,2.539,0.41,2.444c2.536-0.266,5.913-3.393,9.147-6.663c3.973-5.562,8.504-9.587,13.67-9.54
				c1.292,0.012,3.726,0.753,2.636,4.855c2.202-0.125,6.215-4.981,8.463-4.963c1.004,0.01,2.625,0.709,2.358,3.813
				c2.214-1.653,4.577-3.642,6.394-3.626c1.817,0.018,2.336,0.835,2.322,2.414c-0.04,4.352-8.846,10.349-8.865,12.5
				c-0.007,0.51,0.117,1.021,1.394,1.033c1.274,0.012,3.854-1.352,5.604-2.715c6.454-5.022,11.035-8.34,15.539-15.209
				c0.146-0.223,0.621,0.021,0.428,0.306c-0.193,0.286-1.164,1.713-1.08,3.149c0.082,1.435,0.451,3.063,0.427,5.694
				s-3.339,9.633-10.753,9.565c-1.244-0.01-4.242-0.229-4.215-3.291c0.015-1.578,1.563-3.201,3.039-4.086
				C152.164,61.375,152.494,61.215,153.004,61.219z M115.641,67.01c-0.008,0.812,0.608,1.536,1.612,1.545
				c4.401,0.039,12.308-12.088,12.32-13.617c0.013-1.53-0.892-2.063-1.608-2.07C123.708,52.826,115.668,63.758,115.641,67.01z
				 M93.682,67.243c-0.01,1.196,0.896,1.348,1.327,1.353c4.161,0.036,13.925-11.117,13.946-13.557
				c0.016-1.676-1.083-1.971-1.561-1.975C102.754,53.023,93.704,64.708,93.682,67.243z"/>
			<path d="M56.689,69.018c2.193-1.763,6.972-4.119,7.9-6.146c2.048-4.479,8.61-10.639,14.253-10.588
				c3.801,0.033,5.105,3.931-1.341,10.895c-1.932,2.088-6.08,5.973-9.715,5.94c-1.434-0.015-3.575-1.42-3.354-4.767
				c-1.252,0.988-6.141,4.344-7.268,4.957C56.732,69.544,56.159,69.441,56.689,69.018z M66.419,66.855
				c-0.014,1.529,0.799,1.527,1.66,1.535c4.401,0.039,12.908-9.775,12.939-13.22c0.016-1.817-1.49-2.213-2.159-2.22
				C73.384,52.9,66.44,64.465,66.419,66.855z"/>
		</g>
	</g>
</g>
</svg>
