<?xml version="1.0" encoding="utf-8"?>
<!-- Generator: Adobe Illustrator 15.1.0, SVG Export Plug-In . SVG Version: 6.00 Build 0)  -->
<!DOCTYPE svg PUBLIC "-//W3C//DTD SVG 1.1//EN" "http://www.w3.org/Graphics/SVG/1.1/DTD/svg11.dtd">
<svg version="1.1" id="Layer_1" xmlns="http://www.w3.org/2000/svg" xmlns:xlink="http://www.w3.org/1999/xlink" x="0px" y="0px"
	 width="807px" height="599.822px" viewBox="0 0 807 599.822" enable-background="new 0 0 807 599.822" xml:space="preserve">
<g>
	<path fill="#FFFFFF" d="M18.562,204.309v8.188h-2.456c-3.185,0-4.641,1.183-4.641,5.732v35.849c0,4.551,1.456,5.732,4.641,5.732
		h2.456V268h-3.093c-10.009,0-14.013-3.73-14.013-13.922v-35.849c0-10.19,4.004-13.921,14.013-13.921L18.562,204.309L18.562,204.309
		z"/>
	<path fill="#FFFFFF" d="M32.02,232.605h12.92v9.1H32.02V268H22.011v-63.691h26.478v9.099H32.02V232.605z"/>
	<path fill="#FFFFFF" d="M51.255,219.594c0-10.188,5.368-16.014,15.195-16.014c9.827,0,15.195,5.824,15.195,16.014v33.12
		c0,10.19-5.368,16.015-15.195,16.015c-9.827,0-15.195-5.824-15.195-16.015V219.594z M61.264,253.352
		c0,4.549,2.002,6.277,5.187,6.277s5.187-1.729,5.187-6.277v-34.395c0-4.549-2.002-6.277-5.187-6.277s-5.187,1.729-5.187,6.277
		V253.352z"/>
	<path fill="#FFFFFF" d="M106.877,268c-0.546-1.638-0.909-2.639-0.909-7.825v-10.009c0-5.914-2.002-8.098-6.552-8.098h-3.457V268
		H85.951v-63.691h15.104c10.373,0,14.831,4.822,14.831,14.648v5.005c0,6.551-2.093,10.827-6.551,12.92
		c5.004,2.093,6.643,6.915,6.643,13.558v9.826c0,3.094,0.091,5.369,1.092,7.734H106.877z M95.959,213.407v19.562h3.912
		c3.73,0,6.006-1.638,6.006-6.733v-6.278c0-4.55-1.547-6.551-5.096-6.551H95.959z"/>
	<path fill="#FFFFFF" d="M168.114,268h-10.1l-1.729-11.556h-12.283L142.273,268h-9.189l10.19-63.691h14.649L168.114,268z
		 M145.276,247.801h9.645l-4.822-32.21L145.276,247.801z"/>
	<path fill="#FFFFFF" d="M215.612,220.049v8.28c0,10.19-4.913,15.741-14.922,15.741h-4.731V268H185.95v-63.691h14.74
		C210.699,204.309,215.612,209.858,215.612,220.049z M195.958,213.407v21.562h4.731c3.185,0,4.913-1.455,4.913-6.004v-9.555
		c0-4.549-1.729-6.005-4.913-6.005L195.958,213.407L195.958,213.407z"/>
	<path fill="#FFFFFF" d="M228.915,231.15h13.739v9.098h-13.739v18.653h17.287V268h-27.296v-63.691h27.296v9.099h-17.287V231.15z"/>
	<path fill="#FFFFFF" d="M271.125,268c-0.546-1.638-0.909-2.639-0.909-7.825v-10.009c0-5.914-2.002-8.098-6.552-8.098h-3.457V268
		h-10.009v-63.691h15.104c10.373,0,14.831,4.822,14.831,14.648v5.005c0,6.551-2.093,10.827-6.551,12.92
		c5.004,2.093,6.643,6.915,6.643,13.558v9.826c0,3.094,0.091,5.369,1.092,7.734H271.125z M260.207,213.407v19.562h3.912
		c3.73,0,6.006-1.638,6.006-6.733v-6.278c0-4.55-1.547-6.551-5.096-6.551H260.207z"/>
	<path fill="#FFFFFF" d="M294.993,232.605h12.92v9.1h-12.92V268h-10.009v-63.691h26.478v9.099h-16.469V232.605z"/>
	<path fill="#FFFFFF" d="M324.847,231.15h13.739v9.098h-13.739v18.653h17.287V268h-27.296v-63.691h27.296v9.099h-17.287V231.15z"/>
	<path fill="#FFFFFF" d="M375.401,244.252v8.462c0,10.19-5.097,16.015-14.923,16.015s-14.923-5.824-14.923-16.015v-33.12
		c0-10.188,5.097-16.014,14.923-16.014s14.923,5.824,14.923,16.014v6.188h-9.464v-6.824c0-4.549-2.002-6.277-5.187-6.277
		c-3.188,0-5.188,1.729-5.188,6.277v34.395c0,4.549,2.003,6.187,5.188,6.187c3.185,0,5.187-1.638,5.187-6.187v-9.1L375.401,244.252
		L375.401,244.252z"/>
	<path fill="#FFFFFF" d="M377.793,204.309h30.938v9.099h-10.465V268h-10.009v-54.593h-10.464V204.309L377.793,204.309z"/>
	<path fill="#FFFFFF" d="M15.832,310.515h14.013v20.199c0,10.189-5.096,16.016-14.922,16.016C5.096,346.729,0,340.907,0,330.714
		v-33.12c0-10.188,5.096-16.014,14.923-16.014c9.826,0,14.922,5.824,14.922,16.014v6.188h-9.463v-6.824
		c0-4.549-2.002-6.277-5.187-6.277s-5.187,1.729-5.187,6.277v34.395c0,4.549,2.002,6.188,5.187,6.188s5.187-1.64,5.187-6.188
		v-11.735h-4.55V310.515z"/>
	<path fill="#FFFFFF" d="M34.105,282.309h10.009V346H34.105V282.309z"/>
	<path fill="#FFFFFF" d="M57.797,299.869V346h-9.008v-63.691h12.556l10.282,38.124v-38.124h8.917V346H70.262L57.797,299.869z"/>
	<path fill="#FFFFFF" d="M133.319,346h-10.1l-1.729-11.556h-12.283L107.478,346h-9.189l10.19-63.691h14.649L133.319,346z
		 M110.481,325.801h9.645l-4.822-32.21L110.481,325.801z"/>
	<path fill="#FFFFFF" d="M145.585,299.869V346h-9.008v-63.691h12.556l10.282,38.124v-38.124h8.917V346H158.05L145.585,299.869z"/>
	<path fill="#FFFFFF" d="M173.091,282.309h15.832c10.009,0,14.922,5.55,14.922,15.74v32.211c0,10.189-4.913,15.74-14.922,15.74
		h-15.832V282.309z M183.1,291.407v45.494h5.641c3.185,0,5.096-1.639,5.096-6.188v-33.12c0-4.549-1.911-6.187-5.096-6.187
		L183.1,291.407L183.1,291.407z"/>
	<path fill="#FFFFFF" d="M220.496,282.309h30.937v9.099h-10.464V346H230.96v-54.593h-10.464V282.309z"/>
	<path fill="#FFFFFF" d="M253.99,297.594c0-10.188,5.368-16.014,15.195-16.014s15.195,5.824,15.195,16.014v33.12
		c0,10.189-5.368,16.016-15.195,16.016s-15.195-5.824-15.195-16.016V297.594z M263.998,331.353c0,4.549,2.002,6.276,5.187,6.276
		s5.187-1.729,5.187-6.276v-34.396c0-4.549-2.002-6.277-5.187-6.277s-5.187,1.729-5.187,6.277V331.353z"/>
	<path fill="#FFFFFF" d="M297.657,299.869V346h-9.008v-63.691h12.559l10.279,38.124v-38.124h8.917V346h-10.279L297.657,299.869z"/>
	<path fill="#FFFFFF" d="M325.135,282.309h10.009V346h-10.009V282.309z"/>
	<path fill="#FFFFFF" d="M369.273,322.252v8.462c0,10.189-5.097,16.016-14.923,16.016s-14.923-5.821-14.923-16.016v-33.12
		c0-10.188,5.097-16.014,14.923-16.014s14.923,5.824,14.923,16.014v6.188h-9.464v-6.824c0-4.549-2.002-6.277-5.187-6.277
		c-3.188,0-5.188,1.729-5.188,6.277v34.395c0,4.549,2.003,6.188,5.188,6.188c3.185,0,5.187-1.64,5.187-6.188v-9.1L369.273,322.252
		L369.273,322.252z"/>
	<path fill="#FFFFFF" d="M375.033,282.309c10.012,0,14.015,3.73,14.015,13.921v35.849c0,10.191-4.003,13.922-14.015,13.922h-3.094
		v-8.189h2.455c3.188,0,4.645-1.182,4.645-5.729v-35.849c0-4.55-1.456-5.732-4.645-5.732h-2.455v-8.188h3.094V282.309z"/>
</g>
<g>
	<polygon fill="#FFFFFF" points="79.928,37.428 75.616,58.992 84.24,58.992 	"/>
	<rect x="30.106" y="29.582" fill="#FFFFFF" width="13.534" height="21.014"/>
	<polygon fill="#FFFFFF" points="230.319,140.929 238.943,140.929 234.631,119.365 	"/>
	<rect x="184.809" y="111.518" fill="#FFFFFF" width="13.535" height="21.014"/>
	<polygon fill="#FFFFFF" points="382.667,131.661 385.466,134.276 382.667,136.845 382.667,156.987 397.855,156.987 
		397.855,136.845 395.053,134.276 397.855,131.661 397.855,111.519 382.667,111.519 	"/>
	<path fill="#FFFFFF" d="M445,79.937V0H0v79.937v24.695v81.937h479V79.937H445z M381.118,49.724V16.277h14.269l14.59,37.806V16.277
		h13.218v33.446l2.798,2.615l-2.798,2.569v33.355l0.046,0.092l-14.319,0.001l-14.544-37.76v37.76h-13.259V54.908l-2.799-2.569
		L381.118,49.724z M333.623,49.724V23.847l8.487-7.57h24.771l8.58,7.57v25.876l2.752,2.615l-2.752,2.569l0.003,25.924l-8.58,7.524
		H342.11l-8.487-7.524V54.908l-2.799-2.569L333.623,49.724z M195.647,49.724V16.277h13.351v33.446l2.753,2.615l-2.753,2.569v33.448
		h-13.351V54.908l-2.799-2.569L195.647,49.724z M89.287,16.277l14.406,72.078h-13.58l-3.212-16.059H72.954l-3.212,16.059H56.161
		l14.407-72.078H89.287z M16.8,49.724V16.277h31.52l8.626,7.616v32.346l-8.626,7.662H30.106v24.454H16.8V54.908l-2.798-2.569
		L16.8,49.724z M43.365,136.845v33.447h-13.35v-33.447l-2.799-2.569l2.799-2.615v-20.142H16.8V98.214h39.779v13.305H43.365v20.142
		l2.753,2.615L43.365,136.845z M100.912,136.844l-0.001,33.448H87.605v-29.363H72.511v29.363H59.206v-33.447l-2.799-2.569
		l2.799-2.615V98.214h13.305v29.363h15.095V98.214h13.306v33.446l2.799,2.615L100.912,136.844z M141.576,170.292h-34.731v-33.447
		l-2.799-2.569l2.799-2.615V98.214h34.456v13.305H120.15v16.059h18.215v13.352H120.15v16.058h21.427L141.576,170.292z
		 M145.772,34.995h-13.305v-5.414h-13.443V45.64h18.261l8.487,7.57v27.621l-8.487,7.524h-22.986l-8.579-7.524V69.223h13.305v5.826
		h13.443V58.992h-18.169l-8.579-7.57V23.847l8.579-7.57h22.986l8.487,7.524V34.995z M150.506,80.831V69.223h13.305v5.826h13.443
		V58.992h-18.169l-8.579-7.57V23.847l8.579-7.57h22.986l8.487,7.524v11.194h-13.305v-5.414H163.81V45.64h18.261l8.487,7.57v27.621
		l-8.487,7.524h-22.986L150.506,80.831z M184.808,145.838v24.454h-13.305v-33.448l-2.798-2.568l2.798-2.614V98.214h31.52
		l8.625,7.616v32.346l-8.625,7.662H184.808z M244.816,170.292l-3.212-16.059h-13.947l-3.212,16.059h-13.58l14.406-72.078h18.719
		l14.406,72.078H244.816z M256.979,54.907v33.355l0.046,0.092l-14.316,0.001l-14.544-37.76v37.76h-13.259V54.908l-2.799-2.569
		l2.799-2.615V16.277h14.269l14.59,37.806V16.277h13.214v33.446l2.798,2.615L256.979,54.907z M300.477,116.933h-13.305v-5.414
		h-13.443v16.059h18.261l8.485,7.57v27.62h0.001l-8.483,7.524h-22.986l-8.579-7.524v-11.607h13.305v5.826h13.443v-16.058h-18.169
		l-8.579-7.57v-27.574l8.579-7.57h22.986l8.484,7.524V116.933z M303.694,80.831l-8.626,7.524h-23.949l-8.487-7.524V54.908
		l-2.753-2.569l2.753-2.615V23.847l8.625-7.57h23.812l8.626,7.57v11.286h-13.306v-5.552h-14.406v20.142l2.799,2.615l-2.799,2.569
		v20.142h14.406V58.992h-9.084V45.64h22.39v4.083l2.799,2.615l-2.799,2.569L303.694,80.831z M336.777,170.292H313.79l-8.579-7.524
		v-11.607h13.305v5.826h13.443v-16.058H313.79l-8.579-7.57v-27.574l8.579-7.57h22.986l8.483,7.524v11.194h-13.305v-5.414h-13.443
		v16.059h18.265l8.483,7.57v27.62h0.001L336.777,170.292z M363.704,136.844l-0.003,33.448H350.35v-33.447l-2.799-2.569l2.799-2.615
		V98.214h13.354v33.446l2.753,2.615L363.704,136.844z M411.207,136.845v25.923l-8.58,7.524h-24.775l-8.483-7.524v-25.923
		l-2.799-2.569l2.799-2.615v-25.876l8.483-7.57h24.775l8.58,7.57v25.876l2.752,2.615L411.207,136.845z M458.983,170.291
		l-14.319,0.001l-14.544-37.76v37.76h-13.259v-33.447l-2.803-2.569l2.803-2.615V98.214h14.269l14.59,37.806V98.214h13.214v33.446
		l2.802,2.615l-2.802,2.569v33.355L458.983,170.291z"/>
	<polygon fill="#FFFFFF" points="362.113,54.908 359.314,52.339 362.113,49.724 362.113,29.582 346.925,29.582 346.925,49.724 
		349.724,52.339 346.925,54.908 346.925,75.05 362.113,75.05 	"/>
</g>
</svg>
