<?xml version="1.0" encoding="utf-8"?>
<!-- Generator: Adobe Illustrator 15.1.0, SVG Export Plug-In . SVG Version: 6.00 Build 0)  -->
<!DOCTYPE svg PUBLIC "-//W3C//DTD SVG 1.1//EN" "http://www.w3.org/Graphics/SVG/1.1/DTD/svg11.dtd">
<svg version="1.1" id="Layer_1" xmlns="http://www.w3.org/2000/svg" xmlns:xlink="http://www.w3.org/1999/xlink" x="0px" y="0px"
	 width="593px" height="593px" viewBox="0 0 593 593" enable-background="new 0 0 593 593" xml:space="preserve">
<g>
	<path fill="#FFFFFF" d="M312.57,306.268c0-8.105,13.921-17.621,13.921-34.183c0-12.837-11.604-22.935-26.253-23.245v-0.014
		c-0.117,0-0.23,0.006-0.347,0.007c-0.115,0-0.229-0.007-0.347-0.007v0.014c-14.651,0.31-26.253,10.407-26.253,23.245
		c0,16.562,13.92,26.076,13.92,34.183c-0.011,0.008,0,3.699,0,3.699h0.01v8.252c0,0,2.751,2.818,5.542,5.109
		c2.79,2.291,5.118,3.009,7.05,3.009h0.161c1.934,0,4.262-0.718,7.052-3.009s5.543-5.109,5.543-5.109V309.1h-0.003
		C312.561,308.007,312.555,306.268,312.57,306.268z M277.683,271.908c0-16.036,16.866-19.078,22.377-19.201
		c0.061,0,0.117-0.001,0.178-0.002c0.057,0.001,0.114,0.001,0.177,0.002c5.512,0.124,22.377,3.165,22.377,19.201
		c0,16.209-13.568,22.906-13.568,34.184h-5.394l3.989-20.477c2.711-0.042,5.54-1.355,5.54-4.175c0-1.191-0.771-2.963-2.893-2.963
		c-2.728,0-3.846,2.908-4.127,4.917c-1.346-0.367-3.225-1.219-5.074-2.646c0.47-0.452,1.129-0.939,1.607-1.464
		c1.712-2.11,1.228-4.643,0.787-5.449c-0.695-1.268-2.345-2.154-3.713-2.154c-1.367,0-3.02,0.886-3.714,2.154
		c-0.44,0.806-0.926,3.339,0.822,5.489c0.465,0.509,1.109,0.982,1.565,1.423c-1.854,1.43-3.727,2.28-5.067,2.647
		c-0.299-2.055-1.421-4.917-4.126-4.917c-2.122,0-2.892,1.772-2.892,2.963c0,2.819,2.828,4.133,5.538,4.175l3.991,20.477h-5.167
		C290.898,296.223,277.683,288.999,277.683,271.908z M296.973,306.092l-3.179-20.693c1.706-0.421,3.973-1.739,6.149-3.487
		c2.172,1.746,4.443,3.063,6.154,3.487l-3.178,20.693H296.973z M298.655,278.248c-0.763-1.025-0.956-1.981-0.562-2.767
		c0.393-0.778,1.248-1.198,1.855-1.198c0.606,0,1.464,0.42,1.854,1.198c0.395,0.785,0.198,1.741-0.533,2.727
		c-0.426,0.508-0.87,0.977-1.324,1.408C299.501,279.196,299.07,278.74,298.655,278.248z M308.078,283.6
		c0.182-1.06,0.766-3.388,2.39-3.388c1.023,0,1.149,0.865,1.156,1.228C311.624,283.206,309.283,283.542,308.078,283.6z
		 M291.816,283.6c-1.206-0.058-3.544-0.395-3.544-2.16c0-0.206,0.056-1.228,1.157-1.228
		C291.037,280.212,291.625,282.5,291.816,283.6z M301.029,322.848l-0.002,0.02c-0.08,0-2.202,0-2.283,0l-0.001-0.02
		c-1.673-0.209-4.487-2.793-4.487-2.793h11.262C305.517,320.055,302.702,322.639,301.029,322.848z M308.442,317.336h-17.025v-2.494
		h17.025V317.336z M308.442,312.238h-17.025v-2.494h17.025V312.238z"/>
</g>
<path fill="#FFFFFF" d="M262.322,266.485c-0.168,0-0.339-0.023-0.51-0.071l-10.296-2.899c-0.998-0.281-1.578-1.317-1.297-2.315
	c0.28-0.998,1.314-1.579,2.315-1.297l10.296,2.899c0.998,0.281,1.578,1.317,1.297,2.315
	C263.894,265.944,263.141,266.485,262.322,266.485z"/>
<path fill="#FFFFFF" d="M339.42,261.971c-0.929,0-1.734-0.688-1.857-1.632c-0.136-1.028,0.589-1.97,1.615-2.104l11.814-1.549
	c1.029-0.145,1.969,0.588,2.104,1.616c0.136,1.028-0.589,1.97-1.615,2.104l-11.814,1.549
	C339.583,261.966,339.501,261.971,339.42,261.971z"/>
<path fill="#FFFFFF" d="M344.596,292.178c-0.225,0-0.452-0.041-0.674-0.125l-9.207-3.542c-0.967-0.372-1.449-1.458-1.077-2.425
	c0.372-0.968,1.459-1.448,2.425-1.078l9.207,3.542c0.968,0.372,1.449,1.458,1.077,2.425
	C346.061,291.72,345.35,292.178,344.596,292.178z"/>
<path fill="#FFFFFF" d="M255.864,294.601c-0.785,0-1.516-0.496-1.779-1.28c-0.329-0.982,0.2-2.046,1.183-2.376l9.537-3.199
	c0.98-0.329,2.046,0.2,2.376,1.183c0.329,0.982-0.2,2.046-1.183,2.376l-9.537,3.199
	C256.263,294.569,256.062,294.601,255.864,294.601z"/>
<path fill="#FFFFFF" d="M299.274,237.038c-0.031,0-0.062,0-0.095-0.002c-1.035-0.05-1.832-0.931-1.781-1.965l0.577-11.836
	c0.052-1.036,0.946-1.851,1.967-1.783c1.034,0.05,1.833,0.931,1.781,1.965l-0.577,11.836
	C301.097,236.257,300.268,237.038,299.274,237.038z"/>
<path fill="#FFFFFF" d="M326.033,244.813c-0.428,0-0.857-0.145-1.209-0.442c-0.792-0.668-0.894-1.852-0.226-2.644l7.185-8.514
	c0.668-0.792,1.854-0.894,2.645-0.224c0.792,0.668,0.894,1.852,0.226,2.644l-7.185,8.514
	C327.097,244.587,326.567,244.813,326.033,244.813z"/>
<path fill="#FFFFFF" d="M275.313,244.256c-0.541,0-1.077-0.232-1.448-0.682l-6.89-8.348c-0.66-0.799-0.546-1.982,0.253-2.642
	s1.981-0.547,2.642,0.253l6.89,8.348c0.66,0.799,0.546,1.982-0.253,2.642C276.157,244.115,275.733,244.256,275.313,244.256z"/>
<g>
	<path fill="#231F20" d="M236.296,90.01h-2.484c-2,0-2.762,2.766-3.245,5.472c-0.508,2.855-0.789,6.634-0.789,10.641
		s0.28,7.786,0.789,10.642c0.482,2.706,1.245,5.472,3.245,5.472h2.484c0.409,0.863,1.128,1.884,2.328,1.884h41.992
		c1.201,0,1.92-1.021,2.329-1.884h1.303c2,0,2.762-2.766,3.244-5.472c0.509-2.855,0.789-6.635,0.789-10.642
		s-0.28-7.786-0.789-10.641c-0.482-2.706-1.245-5.472-3.244-5.472h-1.303c-0.409-0.863-1.128-1.883-2.329-1.883h-41.992
		C237.424,88.126,236.705,89.146,236.296,90.01z M279.909,90.956c0.027,0.078,0.06,0.155,0.108,0.227
		c0.105,0.157,0.273,0.477,0.474,1.11c0.845,2.673,1.369,7.971,1.369,13.826s-0.525,11.153-1.369,13.827
		c-0.278,0.879-0.492,1.148-0.551,1.209c-0.041,0.042-0.075,0.088-0.106,0.135h-3.138l-16.628-30.333L279.909,90.956L279.909,90.956
		z M237.334,92.838c0.094,0.157,0.224,0.417,0.371,0.84c0.826,2.364,1.359,7.249,1.359,12.443c0,5.195-0.533,10.08-1.359,12.444
		c-0.147,0.423-0.276,0.683-0.371,0.84h-1.052c0.911-2.655,1.477-7.733,1.477-13.284c0-5.552-0.566-10.629-1.478-13.284
		L237.334,92.838L237.334,92.838z M238.995,121.29c-0.067-0.112-0.162-0.296-0.272-0.58c0.418-0.532,0.654-1.208,0.764-1.522
		c0.903-2.587,1.464-7.593,1.464-13.066c0-5.472-0.561-10.478-1.464-13.065c-0.11-0.314-0.346-0.99-0.764-1.521
		c0.111-0.283,0.206-0.467,0.272-0.579h4.378l16.628,30.333H238.995z M257.917,90.956l16.628,30.333h-12.392l-16.629-30.333H257.917
		z M232.608,106.122c0-7.628,0.987-12.168,1.614-13.284h0.034c0.069,0.148,0.145,0.332,0.227,0.567
		c0.844,2.416,1.389,7.408,1.389,12.716c0,5.309-0.545,10.301-1.389,12.718c-0.082,0.235-0.158,0.418-0.227,0.566h-0.035
		C233.596,118.291,232.608,113.75,232.608,106.122z M285.452,106.122c0,7.628-0.987,12.169-1.614,13.284h-1.249
		c0.72-3.038,1.156-7.959,1.156-13.288c0-5.325-0.436-10.242-1.154-13.28h1.247C284.464,93.954,285.452,98.494,285.452,106.122z"/>
	<path fill="#231F20" d="M289.704,105.654c-0.821,0-1.425-0.071-1.596-0.094l0.343-2.615c0.001,0,0.001,0,0.002,0l0,0
		c1.065,0.135,4.099,0.196,5.352-1.146c0.569-0.61,0.727-1.507,0.479-2.741c-0.286-1.43-2.636-14.086,2.835-18.181
		c2.409-1.803,5.755-1.598,9.948,0.603l-1.228,2.335c-3.213-1.688-5.617-1.967-7.142-0.827c-3.153,2.359-2.822,10.593-1.83,15.552
		c0.524,2.617-0.332,4.198-1.142,5.064C294.104,105.341,291.427,105.654,289.704,105.654z"/>
	<path fill="#50C8E8" d="M357.92,99.122h2.483c2,0,2.763-2.766,3.245-5.471c0.508-2.855,0.787-6.634,0.787-10.641
		c0-4.007-0.279-7.785-0.787-10.641c-0.482-2.706-1.245-5.472-3.245-5.472h-2.483c-0.409-0.863-1.129-1.884-2.329-1.884H313.6
		c-1.2,0-1.921,1.021-2.328,1.884h-1.305c-1.999,0-2.762,2.766-3.244,5.472c-0.509,2.855-0.789,6.634-0.789,10.641
		c0,4.007,0.28,7.786,0.789,10.641c0.482,2.706,1.245,5.471,3.244,5.471h1.305c0.407,0.863,1.128,1.883,2.328,1.883h41.991
		C356.792,101.005,357.51,99.985,357.92,99.122z M314.307,98.176c-0.025-0.078-0.06-0.155-0.107-0.227
		c-0.105-0.157-0.273-0.477-0.475-1.11c-0.845-2.673-1.367-7.971-1.367-13.825s0.522-11.152,1.367-13.826
		c0.277-0.879,0.492-1.148,0.552-1.21c0.041-0.042,0.074-0.088,0.105-0.135h3.138l16.629,30.333H314.307z M356.881,96.293
		c-0.095-0.157-0.224-0.417-0.371-0.84c-0.826-2.365-1.358-7.249-1.358-12.443c0-5.195,0.532-10.079,1.358-12.443
		c0.147-0.423,0.276-0.683,0.371-0.84h1.052c-0.91,2.655-1.477,7.733-1.477,13.283c0,5.551,0.565,10.63,1.478,13.283H356.881z
		 M355.22,67.843c0.066,0.112,0.162,0.296,0.273,0.58c-0.419,0.532-0.654,1.208-0.766,1.522c-0.901,2.587-1.464,7.593-1.464,13.065
		c0,5.472,0.562,10.479,1.464,13.065c0.11,0.314,0.347,0.989,0.766,1.521c-0.111,0.284-0.206,0.468-0.272,0.58h-4.378
		l-16.629-30.333H355.22z M348.692,98.176h-12.394L319.67,67.843h12.394 M332.062,67.843l16.63,30.333 M361.608,83.01
		c0,7.628-0.987,12.168-1.614,13.283h-0.034c-0.069-0.147-0.145-0.331-0.228-0.567c-0.845-2.416-1.39-7.408-1.39-12.716
		c0-5.308,0.545-10.3,1.39-12.717c0.083-0.235,0.157-0.418,0.227-0.566h0.035C360.621,70.841,361.608,75.382,361.608,83.01z
		 M308.764,83.01c0-7.627,0.986-12.168,1.613-13.283h1.248c-0.72,3.038-1.154,7.958-1.154,13.287c0,5.324,0.436,10.241,1.153,13.279
		h-1.247C309.75,95.178,308.764,90.637,308.764,83.01z"/>
</g>
<g>
	<path fill="#231F20" d="M492.217,171.583h-13.881v-0.175v-1.749c0-1.826-1.494-3.318-3.318-3.318h-1.173
		c0.039-0.272,0.066-0.547,0.066-0.831c0-3.206-2.603-5.806-5.81-5.806s-5.807,2.601-5.807,5.806c0,0.284,0.026,0.559,0.065,0.831
		h-1.172c-1.826,0-3.319,1.493-3.319,3.318v1.749v0.175H443.99c-3.194,0-5.809,2.613-5.809,5.808v59.107
		c0,3.193,2.613,5.808,5.809,5.808h48.228c3.194,0,5.809-2.615,5.809-5.808v-59.107
		C498.025,174.197,495.412,171.583,492.217,171.583z M468.103,161.625c2.146,0,3.89,1.741,3.89,3.886
		c0,0.287-0.036,0.563-0.094,0.831h-7.59c-0.058-0.267-0.093-0.544-0.093-0.831C464.216,163.366,465.957,161.625,468.103,161.625z
		 M495.329,233.835c0,2.907-2.377,5.285-5.283,5.285h-43.882c-2.907,0-5.285-2.378-5.285-5.285v-53.782
		c0-2.905,2.378-5.284,5.285-5.284h11.961c0.5,1.204,1.688,2.057,3.065,2.057h13.827c1.38,0,2.564-0.853,3.064-2.057h11.963
		c2.906,0,5.283,2.379,5.283,5.284L495.329,233.835L495.329,233.835z"/>
	<path fill="#231F20" d="M492.217,171.583h-13.881v-0.175v-1.749c0-1.826-1.494-3.318-3.318-3.318h-1.173
		c0.039-0.272,0.066-0.547,0.066-0.831c0-3.206-2.603-5.806-5.81-5.806s-5.807,2.601-5.807,5.806c0,0.284,0.026,0.559,0.065,0.831
		h-1.172c-1.826,0-3.319,1.493-3.319,3.318v1.749v0.175H443.99c-3.194,0-5.809,2.613-5.809,5.808v59.107
		c0,3.193,2.613,5.808,5.809,5.808h48.228c3.194,0,5.809-2.615,5.809-5.808v-59.107
		C498.025,174.197,495.412,171.583,492.217,171.583z M468.103,161.625c2.146,0,3.89,1.741,3.89,3.886
		c0,0.287-0.036,0.563-0.094,0.831h-7.59c-0.058-0.267-0.093-0.544-0.093-0.831C464.216,163.366,465.957,161.625,468.103,161.625z
		 M495.329,233.835c0,2.907-2.377,5.285-5.283,5.285h-43.882c-2.907,0-5.285-2.378-5.285-5.285v-53.782
		c0-2.905,2.378-5.284,5.285-5.284h11.961c0.5,1.204,1.688,2.057,3.065,2.057h13.827c1.38,0,2.564-0.853,3.064-2.057h11.963
		c2.906,0,5.283,2.379,5.283,5.284L495.329,233.835L495.329,233.835z"/>
	<g>
		<rect x="445.565" y="187.31" fill="#50C8E8" width="7.467" height="7.467"/>
		<rect x="456.489" y="189.383" fill="#50C8E8" width="33.186" height="3.318"/>
		<rect x="445.565" y="187.31" fill="#50C8E8" width="7.467" height="7.467"/>
		<rect x="456.489" y="189.383" fill="#50C8E8" width="33.186" height="3.318"/>
	</g>
	<g>
		<rect x="445.565" y="198.51" fill="#50C8E8" width="7.467" height="7.466"/>
		<rect x="456.489" y="200.583" fill="#50C8E8" width="33.186" height="3.318"/>
		<rect x="445.565" y="198.51" fill="#50C8E8" width="7.467" height="7.466"/>
		<rect x="456.489" y="200.583" fill="#50C8E8" width="33.186" height="3.318"/>
	</g>
	<g>
		<rect x="445.565" y="209.711" fill="#50C8E8" width="7.467" height="7.465"/>
		<rect x="456.489" y="211.785" fill="#50C8E8" width="33.186" height="3.319"/>
		<rect x="445.565" y="209.711" fill="#50C8E8" width="7.467" height="7.465"/>
		<rect x="456.489" y="211.785" fill="#50C8E8" width="33.186" height="3.319"/>
	</g>
	<g>
		<rect x="445.565" y="220.912" fill="#50C8E8" width="7.467" height="7.465"/>
		<rect x="456.489" y="222.984" fill="#50C8E8" width="33.186" height="3.319"/>
		<rect x="445.565" y="220.912" fill="#50C8E8" width="7.467" height="7.465"/>
		<rect x="456.489" y="222.984" fill="#50C8E8" width="33.186" height="3.319"/>
	</g>
</g>
<g>
	<path fill="#231F20" d="M463.893,343.718c3.516-6.086,21.7,4.414,18.187,10.499l-4.695,8.135l-18.186-10.5L463.893,343.718z"/>
	<path fill="#231F20" d="M433.911,396.032h-0.002l0.678,12.34c0.021,0.394,0.241,0.749,0.581,0.944l4.387,2.533
		c0.34,0.195,0.755,0.209,1.104,0.032l11.131-5.587l-0.001-0.001c0.2-0.101,0.372-0.256,0.487-0.457l23.32-40.394l0.461-0.799
		l0.583-1.01l-1.01-0.583l-4.696-2.712l-6.851-3.955l-4.619-2.667l-1.011-0.582l-0.582,1.009l-0.461,0.799l-23.35,40.44
		C433.948,395.585,433.899,395.811,433.911,396.032z M436.463,395.889l22.845-39.568l2.604,1.503l-21.689,37.565
		c-0.659,1.143-2.124,1.534-3.266,0.875C436.773,396.158,436.61,396.033,436.463,395.889z M439.83,409.318l-2.951-1.705
		l-0.497-9.051c1.079,0.438,2.249,0.448,3.301,0.088c0.253,1.295,1.386,2.678,2.613,3.387c1.229,0.709,2.991,0.998,4.237,0.57
		c0.218,1.103,0.822,2.121,1.757,2.838L439.83,409.318z M442.239,396.553l21.688-37.564l4.833,2.789l-21.688,37.565
		c-0.659,1.144-2.472,1.337-3.612,0.677C442.32,399.361,441.58,397.695,442.239,396.553z M450.626,404.033
		c-0.229-0.053-0.454-0.139-0.661-0.258c-1.142-0.659-1.534-2.125-0.875-3.268l21.689-37.566l2.679,1.547L450.626,404.033z"/>
	<polygon fill="#231F20" points="438.972,412.748 434.757,410.314 435.214,414.391 	"/>
</g>
<g>
	<rect x="438.452" y="415.708" fill="#50C8E8" width="65.848" height="3.292"/>
</g>
<path fill="#231F20" d="M294.122,486.005c-4.383,0-8.637-0.858-12.641-2.553c-1.925-0.814-3.78-1.821-5.517-2.995
	c-1.719-1.161-3.335-2.495-4.805-3.964c-1.468-1.47-2.803-3.086-3.965-4.808c-1.173-1.734-2.181-3.592-2.994-5.517
	c-1.694-4.004-2.553-8.257-2.553-12.64c0-4.386,0.858-8.638,2.553-12.643c0.813-1.925,1.821-3.78,2.994-5.517
	c1.162-1.72,2.497-3.337,3.965-4.808c1.47-1.469,3.086-2.803,4.805-3.964c1.737-1.174,3.592-2.181,5.517-2.995
	c4.004-1.692,8.258-2.552,12.641-2.552s8.636,0.858,12.641,2.552c1.925,0.814,3.78,1.821,5.518,2.995
	c1.72,1.161,3.336,2.495,4.806,3.964c1.469,1.471,2.804,3.088,3.965,4.808c1.174,1.735,2.181,3.592,2.994,5.517
	c1.694,4.005,2.553,8.257,2.553,12.643c0,4.383-0.857,8.636-2.553,12.64c-0.813,1.925-1.82,3.781-2.994,5.517
	c-1.161,1.722-2.496,3.338-3.965,4.808c-1.47,1.469-3.086,2.803-4.806,3.964c-1.736,1.174-3.593,2.181-5.518,2.995
	C302.758,485.146,298.505,486.005,294.122,486.005z M294.122,423.403c-16.611,0-30.126,13.515-30.126,30.127
	c0,16.609,13.515,30.125,30.126,30.125c16.611,0,30.125-13.516,30.125-30.125C324.248,436.918,310.733,423.403,294.122,423.403z"/>
<path fill="#50C8E8" d="M310.655,452.321l-24.107-14.959c-0.51-0.317-1.178-0.356-1.731-0.103c-0.554,0.253-0.901,0.759-0.901,1.311
	v29.918c0,0.551,0.347,1.057,0.901,1.31c0.242,0.111,0.507,0.167,0.771,0.167c0.338,0,0.674-0.091,0.96-0.269l24.107-14.959
	c0.444-0.276,0.711-0.729,0.711-1.207C311.366,453.049,311.1,452.598,310.655,452.321z"/>
<path fill="#231F20" d="M167.624,349.062h-25.498v-1.698c0-0.956-0.775-1.732-1.732-1.732h-13.669c-0.958,0-1.733,0.776-1.733,1.732
	v1.698H99.493c-0.957,0-1.732,0.774-1.732,1.73v53.046c0,0.956,0.775,1.731,1.732,1.731h18.263l-6.055,8.72
	c-0.545,0.787-0.351,1.864,0.435,2.411c0.302,0.21,0.646,0.31,0.986,0.31c0.549,0,1.089-0.259,1.425-0.745l7.428-10.693h23.17
	l7.425,10.693c0.336,0.486,0.875,0.745,1.425,0.745c0.34,0,0.684-0.1,0.985-0.31c0.787-0.547,0.981-1.624,0.436-2.411l-6.054-8.72
	h18.262c0.958,0,1.732-0.775,1.732-1.731v-53.046C169.356,349.838,168.582,349.062,167.624,349.062z M128.458,349.098h10.204v3.396
	h-10.204V349.098z M165.892,402.105h-64.665v-49.58h23.766v1.699c0,0.955,0.775,1.731,1.733,1.731h13.669
	c0.958,0,1.732-0.776,1.732-1.731v-1.699h23.765V402.105z"/>
<path fill="#50C8E8" d="M154.306,372.443l-3.118-8.055c-0.162-0.423-0.476-0.74-0.854-0.928c-0.352-0.227-0.788-0.33-1.232-0.253
	l-8.509,1.489c-0.945,0.164-1.573,1.062-1.409,2.006c0.093,0.531,0.42,0.964,0.856,1.209c0.336,0.191,0.738,0.271,1.148,0.197
	l5.003-0.875l-11.125,19.789l-15.1-9.892c-0.724-0.474-1.688-0.342-2.255,0.312l-4.59,5.27c-0.628,0.723-0.553,1.816,0.168,2.444
	c0.722,0.629,1.816,0.553,2.444-0.168l3.599-4.13l15.383,10.076c0.284,0.188,0.615,0.283,0.949,0.283
	c0.136,0,0.274-0.017,0.409-0.049c0.465-0.113,0.864-0.414,1.1-0.832l12.051-21.429l1.853,4.782c0.148,0.39,0.425,0.693,0.761,0.885
	c0.437,0.246,0.976,0.303,1.479,0.107C154.209,374.341,154.651,373.337,154.306,372.443z"/>
<g>
	<path d="M255.263,148.173c2.549,0,3.118-1.229,3.628-2.638h2.219v20.988h-3.298v-16.011h-2.549V148.173z"/>
	<path d="M267.108,163.345v3.178h-3.178v-3.178H267.108z"/>
	<path d="M274.152,145.535h3.299v17.99h5.427v2.999h-8.726V145.535z"/>
	<path d="M284.38,145.535h3.299v20.988h-3.299V145.535z"/>
	<path d="M294.331,145.294c3.208,0,4.856,1.919,4.856,5.277v0.66h-3.118v-0.87c0-1.499-0.6-2.069-1.648-2.069
		c-1.05,0-1.649,0.57-1.649,2.069c0,4.318,6.446,5.127,6.446,11.124c0,3.358-1.68,5.277-4.917,5.277
		c-3.238,0-4.918-1.919-4.918-5.277v-1.29h3.119v1.5c0,1.499,0.659,2.039,1.709,2.039c1.049,0,1.709-0.54,1.709-2.039
		c0-4.318-6.446-5.127-6.446-11.124C289.474,147.213,291.123,145.294,294.331,145.294z"/>
	<path d="M300.38,145.535h10.194v2.998h-3.448v17.99h-3.299v-17.99h-3.447V145.535z"/>
	<path d="M315.375,154.379h4.528v2.999h-4.528v6.146h5.697v2.999h-8.995v-20.988h8.995v2.998h-5.697V154.379z"/>
	<path d="M325.82,151.321v15.202h-2.97v-20.988h4.139l3.389,12.563v-12.563h2.938v20.988h-3.39L325.82,151.321z"/>
</g>
<g>
	<path d="M439.936,263.793c-1.05,0-1.71,0.57-1.71,2.069v2.249h-3.117v-2.039c0-3.358,1.68-5.277,4.918-5.277
		c3.237,0,4.917,1.919,4.917,5.277c0,6.896-7.166,9.265-6.536,12.953h6.235v2.999h-9.534v-2.579c0-6.177,6.536-7.196,6.536-13.253
		C441.645,264.303,440.985,263.793,439.936,263.793z"/>
	<path d="M449.762,278.845v3.178h-3.179v-3.178H449.762z"/>
	<path d="M466.582,266.222v2.729c0,3.358-1.619,5.187-4.918,5.187h-1.559v7.886h-3.3v-20.988h4.857
		C464.962,261.035,466.582,262.863,466.582,266.222z M460.105,264.033v7.106h1.559c1.05,0,1.619-0.48,1.619-1.979v-3.148
		c0-1.499-0.569-1.979-1.619-1.979H460.105z"/>
	<path d="M468.126,261.035h3.298v17.99h5.427v2.999h-8.725V261.035z"/>
	<path d="M489.475,282.023h-3.327l-0.569-3.808h-4.048l-0.569,3.808h-3.028l3.357-20.988h4.828L489.475,282.023z M481.95,275.367
		h3.178l-1.589-10.614L481.95,275.367z"/>
	<path d="M493.977,266.821v15.202h-2.969v-20.988h4.139l3.389,12.563v-12.563h2.938v20.988h-3.389L493.977,266.821z"/>
</g>
<g>
	<path d="M429.464,441.691c0-1.89-0.659-2.398-1.709-2.398c-1.049,0-1.709,0.57-1.709,2.068v1.35h-3.118v-1.139
		c0-3.359,1.681-5.277,4.917-5.277c3.238,0,4.918,1.918,4.918,5.277v0.539c0,2.249-0.72,3.657-2.309,4.317
		c1.647,0.72,2.309,2.278,2.309,4.406v1.65c0,3.356-1.68,5.275-4.918,5.275c-3.236,0-4.917-1.919-4.917-5.275v-1.74h3.118v1.949
		c0,1.5,0.66,2.068,1.709,2.068c1.05,0,1.709-0.51,1.709-2.368v-1.649c0-1.948-0.659-2.668-2.158-2.668h-1.108v-2.998h1.289
		c1.229,0,1.979-0.54,1.979-2.219L429.464,441.691L429.464,441.691z"/>
	<path d="M437.762,454.345v3.18h-3.179v-3.18H437.762z"/>
	<path d="M454.372,449.697v2.789c0,3.356-1.68,5.275-4.918,5.275s-4.917-1.919-4.917-5.275v-10.914c0-3.359,1.679-5.277,4.917-5.277
		s4.918,1.918,4.918,5.277v2.038h-3.118v-2.249c0-1.498-0.66-2.068-1.71-2.068c-1.049,0-1.709,0.57-1.709,2.068v11.334
		c0,1.5,0.66,2.039,1.709,2.039c1.05,0,1.71-0.539,1.71-2.039v-2.998H454.372L454.372,449.697z"/>
	<path d="M463.046,457.523c-0.18-0.54-0.3-0.87-0.3-2.579v-3.298c0-1.949-0.659-2.67-2.159-2.67h-1.139v8.547h-3.299v-20.988h4.978
		c3.418,0,4.888,1.588,4.888,4.826v1.648c0,2.159-0.688,3.568-2.158,4.258c1.648,0.689,2.188,2.278,2.188,4.469v3.237
		c0,1.021,0.03,1.77,0.36,2.55H463.046L463.046,457.523z M459.449,439.533v6.445h1.289c1.229,0,1.979-0.539,1.979-2.219v-2.068
		c0-1.499-0.51-2.158-1.679-2.158H459.449L459.449,439.533z"/>
	<path d="M471.379,445.379h4.528v2.999h-4.528v6.146h5.697v2.999h-8.995v-20.988h8.995v2.998h-5.697V445.379L471.379,445.379z"/>
	<path d="M489.991,457.523h-3.328l-0.569-3.81h-4.048l-0.569,3.81h-3.027l3.356-20.988h4.828L489.991,457.523z M482.465,450.867
		h3.178l-1.589-10.615L482.465,450.867z"/>
	<path d="M489.622,436.535h10.194v2.998h-3.448v17.99h-3.299v-17.99h-3.447V436.535z"/>
	<path d="M504.617,445.379h4.527v2.999h-4.527v6.146h5.697v2.999h-8.995v-20.988h8.995v2.998h-5.697V445.379z"/>
</g>
<g>
	<path d="M242.829,518.217l5.997-14.182h3.598v14.182h1.56v2.998h-1.56v3.81h-3.298v-3.81h-6.297V518.217z M249.125,518.217v-7.766
		l-3.269,7.766H249.125z"/>
	<path d="M258.658,521.845v3.18h-3.178v-3.18H258.658z"/>
	<path d="M276.376,525.023h-3.328l-0.569-3.81h-4.048l-0.57,3.81h-3.028l3.358-20.988h4.827L276.376,525.023z M268.851,518.367
		h3.178l-1.589-10.615L268.851,518.367z"/>
	<path d="M287.333,517.197v2.789c0,3.356-1.679,5.275-4.917,5.275s-4.917-1.919-4.917-5.275v-10.914
		c0-3.359,1.679-5.277,4.917-5.277s4.917,1.918,4.917,5.277v2.038h-3.118v-2.249c0-1.498-0.659-2.068-1.709-2.068
		c-1.05,0-1.709,0.57-1.709,2.068v11.334c0,1.5,0.659,2.039,1.709,2.039c1.05,0,1.709-0.539,1.709-2.039v-2.998H287.333z"/>
	<path d="M288.57,504.035h10.194v2.998h-3.448v17.99h-3.299v-17.99h-3.447V504.035z"/>
	<path d="M300.267,504.035h3.299v20.988h-3.299V504.035z"/>
	<path d="M310.94,521.155l2.519-17.12h3.028l-3.238,20.988h-4.917l-3.238-20.988h3.328L310.94,521.155z"/>
	<path d="M327.671,525.023h-3.328l-0.568-3.81h-4.049l-0.568,3.81h-3.028l3.357-20.988h4.828L327.671,525.023z M320.146,518.367
		h3.178l-1.589-10.615L320.146,518.367z"/>
	<path d="M327.301,504.035h10.194v2.998h-3.448v17.99h-3.299v-17.99h-3.447V504.035z"/>
	<path d="M342.296,512.879h4.528v2.999h-4.528v6.146h5.697v2.999h-8.995v-20.988h8.995v2.998h-5.697V512.879L342.296,512.879z"/>
</g>
<g>
	<path d="M82.077,449.746v1.949c0,1.5,0.659,2.039,1.709,2.039c1.05,0,1.709-0.539,1.709-2.039v-4.617
		c0-1.499-0.659-2.068-1.709-2.068c-1.05,0-1.709,0.569-1.709,2.068v0.63h-3.118l0.6-12.173h8.695v2.998h-5.727l-0.271,5.007
		c0.6-0.989,1.56-1.529,2.879-1.529c2.429,0,3.657,1.71,3.657,4.798v4.679c0,3.356-1.679,5.275-4.917,5.275
		s-4.917-1.919-4.917-5.275v-1.74L82.077,449.746L82.077,449.746z"/>
	<path d="M93.777,453.345v3.18h-3.178v-3.18H93.777z"/>
	<path d="M107.808,450.438l2.248-14.901h4.588v20.988h-3.118v-15.054l-2.279,15.054h-3.118l-2.458-14.843v14.843h-2.879v-20.988
		h4.588L107.808,450.438z"/>
	<path d="M120.023,444.379h4.527v2.999h-4.527v6.146h5.697v2.999h-8.995v-20.988h8.995v2.998h-5.697V444.379z"/>
	<path d="M138.634,456.523h-3.328l-0.569-3.81h-4.048l-0.569,3.81h-3.028l3.357-20.988h4.828L138.634,456.523z M131.109,449.867
		h3.178l-1.589-10.615L131.109,449.867z"/>
	<path d="M144.587,435.295c3.208,0,4.857,1.918,4.857,5.277v0.659h-3.118v-0.87c0-1.498-0.6-2.068-1.649-2.068
		c-1.049,0-1.648,0.57-1.648,2.068c0,4.317,6.446,5.128,6.446,11.125c0,3.356-1.68,5.275-4.918,5.275
		c-3.237,0-4.917-1.919-4.917-5.275v-1.29h3.118v1.499c0,1.5,0.66,2.039,1.709,2.039c1.05,0,1.709-0.539,1.709-2.039
		c0-4.317-6.446-5.127-6.446-11.123C139.73,437.213,141.379,435.295,144.587,435.295z"/>
	<path d="M154.42,435.535v16.189c0,1.499,0.659,2.039,1.709,2.039c1.05,0,1.709-0.54,1.709-2.039v-16.189h3.118v15.979
		c0,3.358-1.679,5.277-4.917,5.277c-3.238,0-4.917-1.919-4.917-5.277v-15.979H154.42z"/>
	<path d="M169.833,456.523c-0.18-0.54-0.3-0.87-0.3-2.579v-3.298c0-1.949-0.66-2.67-2.159-2.67h-1.14v8.547h-3.298v-20.988h4.978
		c3.418,0,4.887,1.588,4.887,4.826v1.648c0,2.159-0.689,3.568-2.158,4.258c1.649,0.689,2.188,2.278,2.188,4.469v3.237
		c0,1.021,0.03,1.77,0.36,2.55H169.833L169.833,456.523z M166.235,438.533v6.445h1.29c1.229,0,1.979-0.539,1.979-2.219v-2.068
		c0-1.499-0.51-2.158-1.679-2.158H166.235L166.235,438.533z"/>
	<path d="M178.166,444.379h4.528v2.999h-4.528v6.146h5.697v2.999h-8.995v-20.988h8.995v2.998h-5.697V444.379z"/>
</g>
<g>
	<g>
		<path fill="#231F20" d="M165.749,181.469l-4.331,2.701c-5.175-7.715-13.63-12.811-23.034-13.636
			c-14.364-1.255-27.926,7.795-32.248,21.532c-0.32,1.018,0.246,2.104,1.265,2.425c0.192,0.061,0.388,0.089,0.581,0.089
			c0.821,0,1.584-0.528,1.843-1.353c3.781-12.02,15.645-19.946,28.22-18.841c8.189,0.718,15.557,5.136,20.092,11.832l-4.475,2.791
			c-0.827,0.518-0.788,1.294,0.09,1.724l11.894,5.81c0.878,0.429,1.601-0.021,1.601-1l0.01-13.234
			C167.257,181.328,166.578,180.95,165.749,181.469z"/>
		<path fill="#231F20" d="M165.089,216.527c-1.02-0.322-2.105,0.246-2.426,1.264c-3.778,12.019-15.654,19.937-28.219,18.841
			c-8.243-0.723-15.654-5.197-20.182-11.968l4.565-2.847c0.83-0.517,0.79-1.29-0.09-1.723l-11.893-5.809
			c-0.879-0.429-1.6,0.021-1.602,0.999l-0.009,13.235c-0.001,0.978,0.677,1.355,1.508,0.837l4.24-2.646
			c5.167,7.792,13.665,12.944,23.125,13.772c0.892,0.079,1.781,0.118,2.663,0.118c13.349,0,25.53-8.767,29.583-21.649
			C166.672,217.933,166.106,216.847,165.089,216.527z"/>
	</g>
	<g>
		<g>
			<g>
				<defs>
					<circle id="SVGID_1_" cx="136.359" cy="196.924" r="29.184"/>
				</defs>
				<clipPath id="SVGID_2_">
					<use xlink:href="#SVGID_1_"  overflow="visible"/>
				</clipPath>
				<path clip-path="url(#SVGID_2_)" fill="#50C8E8" d="M147.87,269.812c-0.054,7.98-23.898,7.821-23.845-0.158l0.07-10.665
					l23.846,0.157L147.87,269.812z"/>
			</g>
			<g>
				<defs>
					<circle id="SVGID_3_" cx="136.359" cy="196.924" r="29.184"/>
				</defs>
				<clipPath id="SVGID_4_">
					<use xlink:href="#SVGID_3_"  overflow="visible"/>
				</clipPath>
				<path clip-path="url(#SVGID_4_)" fill="#50C8E8" d="M148.108,201.343L148.108,201.343l-7.594-11.802
					c-0.241-0.376-0.657-0.605-1.104-0.607l-5.752-0.038c-0.444-0.004-0.861,0.217-1.108,0.587l-7.853,11.76l0.002,0.002
					c-0.142,0.211-0.223,0.461-0.226,0.724l-0.352,52.963l-0.007,1.047l-0.008,1.323l1.322,0.009l6.159,0.041l8.983,0.061
					l6.057,0.04l1.323,0.008l0.009-1.322l0.007-1.048l0.352-53.024C148.322,201.805,148.244,201.556,148.108,201.343z
					 M145.668,202.918l-0.345,51.88l-3.411-0.023l0.328-49.255c0.009-1.498,1.236-2.708,2.733-2.697
					C145.21,202.824,145.443,202.856,145.668,202.918z M134.808,191.549l3.87,0.025l5.57,8.655c-1.31,0.174-2.472,0.821-3.307,1.767
					c-0.976-1.136-2.868-1.866-4.48-1.876c-1.611-0.011-3.513,0.694-4.503,1.816c-0.833-0.968-2.002-1.634-3.328-1.817
					L134.808,191.549z M139.593,205.502l-0.327,49.255l-6.337-0.042l0.327-49.255c0.01-1.498,1.689-2.704,3.187-2.694
					C137.939,202.776,139.604,204.004,139.593,205.502z M127.115,202.825c0.259-0.078,0.527-0.118,0.798-0.116
					c1.498,0.01,2.708,1.236,2.698,2.734l-0.327,49.255l-3.513-0.023L127.115,202.825z"/>
			</g>
			<g>
				<defs>
					<circle id="SVGID_5_" cx="136.359" cy="196.924" r="29.184"/>
				</defs>
				<clipPath id="SVGID_6_">
					<use xlink:href="#SVGID_5_"  overflow="visible"/>
				</clipPath>
				<polygon clip-path="url(#SVGID_6_)" fill="#50C8E8" points="133.73,187.681 139.255,187.718 136.517,183.951 				"/>
			</g>
		</g>
	</g>
</g>
<g>
	<path d="M95.898,266.251c0-3.538,1.619-5.457,5.038-5.457c3.238,0,4.917,1.919,4.917,5.277v0.54h-3.118v-0.75
		c0-1.499-0.66-2.069-1.709-2.069c-1.17,0-1.829,0.57-1.829,2.579v3.838c0.569-1.199,1.589-1.859,3.059-1.859
		c2.428,0,3.657,1.709,3.657,4.797v3.838c0,3.358-1.769,5.277-5.007,5.277c-3.238,0-5.008-1.919-5.008-5.277V266.251L95.898,266.251
		z M99.197,273.417v3.778c0,1.499,0.659,2.039,1.709,2.039c1.049,0,1.709-0.54,1.709-2.039v-3.778c0-1.499-0.66-2.069-1.709-2.069
		C99.856,271.348,99.197,271.918,99.197,273.417z"/>
	<path d="M110.84,278.844v3.178h-3.179v-3.178H110.84z"/>
	<path d="M124.781,282.022c-0.18-0.54-0.3-0.87-0.3-2.579v-3.298c0-1.949-0.659-2.668-2.159-2.668h-1.139v8.545h-3.299v-20.988
		h4.978c3.418,0,4.888,1.589,4.888,4.827v1.649c0,2.159-0.689,3.568-2.159,4.258c1.649,0.689,2.188,2.279,2.188,4.468v3.238
		c0,1.02,0.03,1.769,0.36,2.549L124.781,282.022L124.781,282.022z M121.183,264.032v6.447h1.289c1.229,0,1.979-0.54,1.979-2.219
		v-2.069c0-1.499-0.51-2.159-1.679-2.159H121.183z"/>
	<path d="M133.114,269.879h4.527v2.999h-4.527v6.146h5.697v2.999h-8.995v-20.988h8.995v2.998h-5.697V269.879z"/>
	<path d="M143.903,270.359h4.258v2.999h-4.258v8.665h-3.298v-20.988h8.726v2.998h-5.428V270.359z"/>
	<path d="M150.906,261.034h3.298v20.988h-3.298V261.034z"/>
	<path d="M159.201,266.821v15.202h-2.969v-20.988h4.138l3.389,12.563v-12.563h2.938v20.988h-3.389L159.201,266.821z"/>
	<path d="M172.046,269.879h4.528v2.999h-4.528v6.146h5.697v2.999h-8.995v-20.988h8.995v2.998h-5.697V269.879z"/>
</g>
<path fill="#FFFFFF" d="M264,334.163h4.616v29.373H264V334.163z"/>
<path fill="#FFFFFF" d="M271.339,334.163h7.301c4.616,0,6.881,2.56,6.881,7.259v14.854c0,4.701-2.266,7.261-6.881,7.261h-7.301
	V334.163z M275.955,338.359v20.979h2.602c1.469,0,2.35-0.755,2.35-2.854v-15.272c0-2.099-0.881-2.854-2.35-2.854h-2.602V338.359z"/>
<path fill="#FFFFFF" d="M292.618,346.542h6.336v4.196h-6.336v8.602h7.973v4.196h-12.589v-29.373h12.589v4.196h-7.973V346.542z"/>
<path fill="#FFFFFF" d="M318.545,363.536h-4.658l-0.797-5.329h-5.665l-0.798,5.329h-4.237l4.699-29.373h6.756L318.545,363.536z
	 M308.012,354.221h4.448l-2.224-14.854L308.012,354.221z"/>
<path fill="#FFFFFF" d="M326.749,333.827c4.49,0,6.798,2.687,6.798,7.386v0.923h-4.364v-1.217c0-2.099-0.839-2.896-2.308-2.896
	s-2.308,0.797-2.308,2.896c0,6.042,9.021,7.175,9.021,15.567c0,4.699-2.35,7.386-6.882,7.386c-4.531,0-6.882-2.687-6.882-7.386
	v-1.805h4.363v2.098c0,2.099,0.924,2.854,2.393,2.854s2.392-0.756,2.392-2.854c0-6.041-9.021-7.176-9.021-15.566
	C319.951,336.514,322.258,333.827,326.749,333.827z"/>
</svg>
