<?xml version="1.0" encoding="utf-8"?>
<!-- Generator: Adobe Illustrator 15.1.0, SVG Export Plug-In . SVG Version: 6.00 Build 0)  -->
<!DOCTYPE svg PUBLIC "-//W3C//DTD SVG 1.1//EN" "http://www.w3.org/Graphics/SVG/1.1/DTD/svg11.dtd">
<svg version="1.1" id="Layer_1" xmlns="http://www.w3.org/2000/svg" xmlns:xlink="http://www.w3.org/1999/xlink" x="0px" y="0px"
	 width="807px" height="180px" viewBox="0 0 807 180" enable-background="new 0 0 807 180" xml:space="preserve">
<rect y="76.013" fill="#55C5E9" width="331.58" height="103.987"/>
<g>
	<path fill="#FFFFFF" d="M79.867,94.02L68.182,163.82H55.03l-6.043-30.168L42.9,163.82H29.749L18.108,94.02h13.196l5.287,35.678
		l7.064-35.678h10.664l7.02,35.723l5.287-35.723H79.867z"/>
	<path fill="#FFFFFF" d="M115.754,163.82H82.12V131.43l-2.71-2.488l2.71-2.531V94.02h33.367v12.885H95.005v15.551h17.639v12.93
		H95.005v15.551h20.749V163.82z"/>
	<path fill="#FFFFFF" d="M175.868,94.02l8.354,7.375v25.016l2.71,2.531l-2.71,2.488v25.06l-8.354,7.331h-31.724V131.43l-2.666-2.488
		l2.666-2.531V94.02H175.868z M171.336,131.43l-2.71-2.488l2.71-2.531v-19.506h-14.262v19.506l2.666,2.531l-2.666,2.488v19.506
		h14.262V131.43z"/>
	<path fill="#FFFFFF" d="M229.979,156.533l-8.309,7.287h-23.992l-8.22-7.287V131.43l-2.711-2.488l2.711-2.531v-25.059l8.22-7.332
		h23.992l8.309,7.332v25.059l2.666,2.531l-2.666,2.488V156.533z M217.05,131.43l-2.71-2.488l2.71-2.531v-19.506h-14.706v19.506
		l2.71,2.531l-2.71,2.488v19.506h14.706V131.43z"/>
	<path fill="#FFFFFF" d="M271.3,163.82h-12.929V131.43l-2.711-2.488l2.711-2.531V94.02H271.3v32.391l2.666,2.531l-2.666,2.488
		V163.82z"/>
	<path fill="#FFFFFF" d="M312.085,106.904h-12.796v19.506l2.665,2.531l-2.665,2.488v32.391h-12.93V131.43l-2.71-2.488l2.71-2.531
		v-19.506h-12.796V94.02h38.521L312.085,106.904L312.085,106.904z"/>
</g>
<g>
	<path d="M12.648,64.013H2.64V0.321h10.009v27.296h11.373V0.321h10.191v63.692H24.021V36.717H12.648V64.013z"/>
	<path d="M38.971,15.607c0-10.19,5.368-16.014,15.195-16.014s15.195,5.823,15.195,16.014v33.12c0,10.191-5.368,16.014-15.195,16.014
		s-15.195-5.823-15.195-16.014V15.607z M48.979,49.364c0,4.549,2.002,6.278,5.187,6.278s5.187-1.729,5.187-6.278V14.971
		c0-4.549-2.002-6.278-5.187-6.278s-5.187,1.729-5.187,6.278V49.364z"/>
	<path d="M96.687,30.075l-3.64,33.938H79.308L72.211,0.321h9.735l5.368,50.226l4.822-50.226h9.645l5.005,50.589l5.187-50.589h8.734
		l-7.097,63.692h-13.284L96.687,30.075z"/>
</g>
</svg>
