<?xml version="1.0" encoding="utf-8"?>
<!-- Generator: Adobe Illustrator 15.1.0, SVG Export Plug-In . SVG Version: 6.00 Build 0)  -->
<!DOCTYPE svg PUBLIC "-//W3C//DTD SVG 1.1//EN" "http://www.w3.org/Graphics/SVG/1.1/DTD/svg11.dtd">
<svg version="1.1" id="Layer_1" xmlns="http://www.w3.org/2000/svg" xmlns:xlink="http://www.w3.org/1999/xlink" x="0px" y="0px"
	 width="807px" height="599.822px" viewBox="0 0 807 599.822" enable-background="new 0 0 807 599.822" xml:space="preserve">
<g>
	<path fill="#FFFFFF" d="M29.934,14.477v2.275c0,6.551-2.001,10.736-6.46,12.829c5.368,2.093,7.461,6.915,7.461,13.647v5.188
		c0,9.826-5.186,15.104-15.194,15.104H0V-0.172h15.104C25.476-0.172,29.934,4.65,29.934,14.477z M10.008,8.927V25.76h3.912
		c3.73,0,6.006-1.639,6.006-6.733v-3.549c0-4.55-1.547-6.551-5.096-6.551H10.008z M10.008,34.858V54.42h5.732
		c3.366,0,5.186-1.547,5.186-6.278v-5.551c0-5.914-1.91-7.733-6.46-7.733H10.008z"/>
	<path fill="#FFFFFF" d="M55.776,63.52c-0.546-1.638-0.909-2.639-0.909-7.825V45.686c0-5.914-2.002-8.098-6.552-8.098h-3.457V63.52
		H34.849V-0.172h15.104c10.373,0,14.831,4.822,14.831,14.648v5.005c0,6.551-2.093,10.827-6.551,12.92
		c5.004,2.093,6.643,6.915,6.643,13.558v9.826c0,3.094,0.091,5.369,1.092,7.734L55.776,63.52L55.776,63.52z M44.858,8.927v19.562
		h3.912c3.73,0,6.006-1.638,6.006-6.733v-6.278c0-4.55-1.547-6.551-5.096-6.551H44.858z"/>
	<path fill="#FFFFFF" d="M103.472,63.52h-10.1l-1.729-11.556H79.361l-1.73,11.556h-9.189l10.19-63.691h14.649L103.472,63.52z
		 M80.634,43.32h9.645l-4.822-32.21L80.634,43.32z"/>
	<path fill="#FFFFFF" d="M115.74,17.389V63.52h-9.008V-0.172h12.556l10.282,38.123V-0.172h8.917V63.52h-10.282L115.74,17.389z"/>
	<path fill="#FFFFFF" d="M143.246-0.172h15.832c10.009,0,14.922,5.55,14.922,15.74v32.211c0,10.189-4.913,15.74-14.922,15.74
		h-15.832V-0.172z M153.255,8.927v45.494h5.641c3.185,0,5.096-1.638,5.096-6.188v-33.12c0-4.549-1.911-6.187-5.096-6.187
		L153.255,8.927L153.255,8.927z"/>
	<path fill="#FFFFFF" d="M193.563-0.172h10.009V63.52h-10.009V-0.172z"/>
	<path fill="#FFFFFF" d="M217.256,17.389V63.52h-9.008V-0.172h12.556l10.282,38.123V-0.172h8.917V63.52h-10.282L217.256,17.389z"/>
	<path fill="#FFFFFF" d="M292.777,63.52h-10.1l-1.729-11.556h-12.283l-1.729,11.556h-9.189l10.19-63.691h14.649L292.777,63.52z
		 M269.939,43.32h9.645l-4.822-32.21L269.939,43.32z"/>
	<path fill="#FFFFFF" d="M324.606,39.771v8.462c0,10.19-5.097,16.015-14.923,16.015s-14.923-5.824-14.923-16.015v-33.12
		c0-10.189,5.097-16.014,14.923-16.014s14.923,5.824,14.923,16.014v6.188h-9.464v-6.824c0-4.549-2.002-6.277-5.188-6.277
		s-5.188,1.729-5.188,6.277v34.395c0,4.549,2.002,6.187,5.188,6.187c3.188,0,5.188-1.638,5.188-6.187v-9.1L324.606,39.771
		L324.606,39.771z"/>
	<path fill="#FFFFFF" d="M326.999-0.172h30.938v9.099h-10.464V63.52h-10.011V8.927h-10.465L326.999-0.172L326.999-0.172z"/>
	<path fill="#FFFFFF" d="M361.102-0.172h10.01V63.52h-10.01V-0.172z"/>
	<path fill="#FFFFFF" d="M375.395,15.113c0-10.189,5.368-16.014,15.195-16.014c9.824,0,15.193,5.824,15.193,16.014v33.12
		c0,10.19-5.369,16.015-15.193,16.015c-9.827,0-15.195-5.824-15.195-16.015V15.113z M385.404,48.871
		c0,4.549,2.002,6.277,5.188,6.277s5.188-1.729,5.188-6.277V14.477c0-4.549-2.002-6.277-5.188-6.277
		c-3.188,0-5.188,1.729-5.188,6.277V48.871z"/>
	<path fill="#FFFFFF" d="M419.062,17.389V63.52h-9.009V-0.172h12.556l10.282,38.123V-0.172h8.916V63.52h-10.28L419.062,17.389z"/>
	<path fill="#FFFFFF" d="M446.322,9.473v-9.645h9.646v8.644l-4.367,10.1h-4.098l2.641-9.099H446.322z"/>
	<path fill="#FFFFFF" d="M474.318-0.9c9.735,0,14.739,5.824,14.739,16.014v2.002h-9.463v-2.639c0-4.549-1.817-6.277-5.004-6.277
		c-3.188,0-5.008,1.729-5.008,6.277c0,13.103,19.562,15.56,19.562,33.757c0,10.19-5.094,16.015-14.922,16.015
		c-9.825,0-14.922-5.824-14.922-16.015V44.32h9.463v4.551c0,4.549,2.002,6.187,5.188,6.187c3.188,0,5.188-1.638,5.188-6.187
		c0-13.104-19.562-15.56-19.562-33.758C459.578,4.924,464.584-0.9,474.318-0.9z"/>
</g>
<g>
	<rect x="123.889" y="307.022" fill="#FFFFFF" width="13.673" height="16.059"/>
	<rect x="123.889" y="277.612" fill="#FFFFFF" width="13.673" height="16.059"/>
	<rect x="76.603" y="113.528" fill="#FFFFFF" width="13.534" height="21.014"/>
	<polygon fill="#FFFFFF" points="205.251,297.758 208.05,300.373 205.251,302.94 205.251,323.084 220.438,323.084 220.438,302.94 
		217.639,300.373 220.438,297.758 220.438,277.616 205.251,277.616 	"/>
	<polygon fill="#FFFFFF" points="487.051,138.855 484.252,136.286 487.051,133.671 487.051,113.529 472.323,113.529 
		472.323,133.671 475.076,136.286 472.323,138.855 472.323,158.997 487.051,158.997 	"/>
	<polygon fill="#FFFFFF" points="336.885,220.739 334.086,218.17 336.885,215.555 336.885,195.413 321.698,195.413 321.698,215.555 
		324.497,218.17 321.698,220.739 321.698,240.881 336.885,240.881 	"/>
	<polygon fill="#FFFFFF" points="389.931,138.854 387.132,136.285 389.931,133.67 389.931,113.528 374.744,113.528 374.744,133.67 
		377.543,136.285 374.744,138.854 374.744,158.996 389.931,158.996 	"/>
	<rect x="369.438" y="195.368" fill="#FFFFFF" width="13.812" height="16.104"/>
	<path fill="#FFFFFF" d="M417.669,248.033v-59.454h102.669V83.947H0.5v81.885v22.747v59.454v22.431v82.2H659V248.033H417.669z
		 M458.97,133.67v-33.446h32.761l8.626,7.616v25.83l2.799,2.615l-2.799,2.569v25.877l-8.626,7.57H458.97v-33.447l-2.753-2.569
		L458.97,133.67z M409.965,133.67v-33.446h14.271l14.59,37.806v-37.806h13.214v33.446l2.798,2.615l-2.798,2.569v33.355l0.046,0.092
		h-14.314l-14.548-37.76v37.76h-13.259v-33.447l-2.799-2.569L409.965,133.67z M361.443,133.67v-25.876l8.483-7.57h24.775l8.58,7.57
		v25.876l2.752,2.615l-2.752,2.569v25.923l-8.58,7.524h-24.775l-8.483-7.524v-25.923l-2.803-2.569L361.443,133.67z M353.335,218.171
		l2.75-2.612v-33.45h31.979l8.483,7.57v26.473l-9.084,8.488l11.521,29.547h-14.271l-11.332-29.363h-3.946v29.363h-13.351v-33.45
		L353.335,218.171z M315.844,133.67v-25.876l8.487-7.57h23.721l8.721,7.616v11.103h-13.31v-5.414h-14.312v20.142l2.799,2.615
		l-2.799,2.569v20.142h14.312v-5.826h13.31v11.606l-8.721,7.524h-23.721l-8.487-7.524v-25.923l-2.799-2.569L315.844,133.67z
		 M276.45,133.67v-33.446h34.456v13.305h-21.151v16.059h18.215v13.352h-18.215v16.058h21.427v13.303H276.45v-33.447l-2.799-2.569
		L276.45,133.67z M230.275,153.17h13.305v5.826h13.443v-16.058h-18.169l-8.579-7.57v-27.574l8.579-7.57h22.986l8.487,7.524v11.194
		h-13.305v-5.414h-13.443v16.059h18.261l8.487,7.57v27.62l-8.487,7.524h-22.986l-8.579-7.524V153.17z M197.614,218.17l2.753-2.615
		v-25.876l8.625-7.57h23.812l8.626,7.57v11.286h-13.306v-5.552h-14.406v20.142l2.799,2.615l-2.799,2.569v20.142h14.406v-16.058
		h-9.084V211.47h22.39v4.083l2.799,2.615l-2.799,2.569l-0.001,25.925l-8.626,7.524h-23.949l-8.487-7.524v-25.923L197.614,218.17z
		 M223.211,140.961h-18.792v-9.396h18.792V140.961z M165.623,100.224H205.4l0.001,13.305h-13.213v20.142l2.753,2.615l-2.753,2.569
		v33.447h-13.352v-33.447l-2.799-2.569l2.799-2.615v-20.142h-13.213V100.224z M147.493,133.67v-33.446h13.351v33.446l2.753,2.615
		l-2.753,2.569v33.447h-13.351v-33.447l-2.799-2.569L147.493,133.67z M130.582,218.17l2.799-2.615v-33.446h13.351v33.446
		l2.753,2.615l-2.753,2.569v33.447h-13.351v-33.447L130.582,218.17z M109.736,133.67v-33.446h13.351v33.446l2.799,2.615
		l-2.799,2.569v20.142h19.637l-0.001,13.305h-32.987v-33.447l-2.753-2.569L109.736,133.67z M102.524,238.357l-11.562-24.775v40.604
		H77.657v-33.447l-2.799-2.569l2.799-2.615v-33.446h13.306l11.562,24.775l11.607-24.775h13.352v33.446l2.752,2.615l-2.752,2.569
		l-0.001,33.447h-13.352v-40.604L102.524,238.357z M63.297,133.67v-33.446h31.521l8.625,7.616l-0.001,32.346l-8.625,7.662H76.603
		v24.454H63.297v-33.448l-2.798-2.569L63.297,133.67z M58.399,182.109H71.75v33.446l2.753,2.615l-2.753,2.569v33.447H58.399v-33.447
		L55.6,218.17l2.799-2.615V182.109z M15.993,153.17H29.3v5.826h13.442v-16.058H24.573l-8.58-7.57v-27.574l8.58-7.57H47.56
		l8.488,7.524v11.194H42.742v-5.414H29.3v16.059h18.26l8.488,7.57v27.62l-8.488,7.524H24.573l-8.58-7.524V153.17z M15.993,182.109
		h39.779v13.305H42.559v20.142l2.753,2.615l-2.753,2.569v33.447H29.208V220.74l-2.799-2.569l2.799-2.615v-20.142H15.993V182.109z
		 M57.699,302.942l-0.001,33.445H44.394v-29.363H29.3v29.363H15.993V302.94l-2.798-2.568l2.798-2.615v-33.446H29.3v29.363h15.094
		v-29.363h13.305v33.446l2.799,2.615L57.699,302.942z M104.912,302.938l-0.001,25.877l-8.717,7.569H71.923l-8.533-7.522v-25.924
		l-2.799-2.567l2.799-2.615V264.31h13.305v33.446l2.799,2.615l-2.799,2.567v20.145h14.911v-20.145l-2.798-2.567l2.798-2.615V264.31
		h13.306v33.446l2.753,2.615L104.912,302.938z M150.912,294.04l-5.139,6.239l5.139,6.377v22.207l-8.533,7.522h-31.795v-33.447
		l-2.799-2.567l2.799-2.615V264.31h31.795l8.533,7.57V294.04z M149.841,218.17l2.799-2.615v-33.446h14.269l14.59,37.806v-37.806
		h13.214v33.446l2.798,2.615l-2.798,2.569v33.354l0.046,0.092h-14.316v0.001l-14.544-37.76v37.76H152.64v-33.447L149.841,218.17z
		 M189.338,336.388h-32.987V302.94l-2.753-2.568l2.753-2.615v-33.446h13.351v33.446l2.799,2.615l-2.799,2.57v20.143h19.637
		L189.338,336.388z M233.789,302.94v25.922l-8.58,7.522h-24.775l-8.487-7.522V302.94l-2.799-2.569l2.799-2.615V271.88l8.487-7.57
		h24.775l8.58,7.57v25.876l2.752,2.615L233.789,302.94z M265.716,300.372l-2.753,2.57v33.445h-13.352v-33.445l-2.799-2.57
		l2.799-2.615v-20.142h-13.213V264.31h39.777l0.001,13.305h-13.213v20.142L265.716,300.372z M302.832,224.823h-18.169v29.363
		h-13.351v-33.447l-2.753-2.569l2.753-2.615v-33.446h34.456l-0.001,13.303h-21.104v16.059h18.169V224.823z M308.394,215.555v-25.876
		l8.487-7.57h24.775l8.58,7.57v25.876l2.752,2.615l-2.752,2.569v25.923l-8.58,7.524h-24.775l-8.487-7.524v-25.923l-2.799-2.569
		L308.394,215.555z M344.233,336.388l-6.239-31.152l-6.286,31.152h-13.58l-12.021-72.078h13.627l5.46,36.841l7.295-36.841H343.5
		l7.249,36.889l5.46-36.889h13.668l-12.066,72.078H344.233z M402.33,336.388l-3.212-16.059h-13.947l-3.212,16.059h-13.58
		l14.406-72.078h18.719l14.406,72.078H402.33z M438.816,302.942v33.445h-13.354v-33.445l-2.799-2.57l2.799-2.615v-20.142H412.25
		V264.31h39.777l0.002,13.305h-13.213v20.142l2.753,2.615L438.816,302.942z M495.582,283.029h-13.306v-5.414h-14.314v20.142
		l2.799,2.615l-2.799,2.568v20.144h14.314v-5.826h13.306v11.604l-8.717,7.522h-23.725l-8.483-7.522V302.94l-2.799-2.569l2.799-2.615
		V271.88l8.483-7.57h23.725l8.717,7.616V283.029z M541.194,302.942l-0.002,33.445h-13.31v-29.363H512.79v29.363h-13.305V302.94
		l-2.802-2.568l2.802-2.615v-33.446h13.305v29.363h15.095v-29.363h13.31v33.446l2.799,2.615L541.194,302.942z M581.858,336.388
		h-34.731V302.94l-2.799-2.568l2.799-2.615v-33.446h34.456v13.305h-21.151v16.059h18.215v13.354h-18.215v16.06h21.431
		L581.858,336.388z M616.947,336.385H593.96l-8.579-7.522v-11.605h13.305v5.826h13.443v-16.059H593.96l-8.579-7.57V271.88
		l8.579-7.57h22.986l8.483,7.524v11.194h-13.305v-5.414h-13.443v16.059h18.265l8.483,7.57v27.619h0.001L616.947,336.385z
		 M644.035,336.421h-13.309v-13.306h13.309V336.421z"/>
	<polygon fill="#FFFFFF" points="387.833,307.024 396.457,307.024 392.145,285.462 	"/>
</g>
</svg>
