<?xml version="1.0" encoding="utf-8"?>
<!-- Generator: Adobe Illustrator 15.1.0, SVG Export Plug-In . SVG Version: 6.00 Build 0)  -->
<!DOCTYPE svg PUBLIC "-//W3C//DTD SVG 1.1//EN" "http://www.w3.org/Graphics/SVG/1.1/DTD/svg11.dtd">
<svg version="1.1" id="Layer_1" xmlns="http://www.w3.org/2000/svg" xmlns:xlink="http://www.w3.org/1999/xlink" x="0px" y="0px"
	 width="200px" height="75px" viewBox="0 0 200 75" enable-background="new 0 0 200 75" xml:space="preserve">
<g>
	<g>
		<g>
			<path fill="#231F20" d="M54.883,68.934V52.986h2.167v6.554h8.27v-6.554h2.177v15.947H65.32v-7.47h-8.27v7.47H54.883
				L54.883,68.934z M71.798,62.885v-9.896h2.166v9.919c0,1.495,0.329,2.599,0.99,3.312s1.684,1.072,3.071,1.072
				c1.37,0,2.391-0.363,3.068-1.088c0.675-0.727,1.012-1.825,1.012-3.297v-9.92h2.176v9.897c0,2.138-0.55,3.751-1.652,4.851
				c-1.101,1.097-2.719,1.645-4.855,1.645c-1.991,0-3.485-0.54-4.483-1.623C72.298,66.673,71.798,65.048,71.798,62.885
				L71.798,62.885z M88.581,68.934V52.986h6.429c1.653,0,2.896,0.326,3.725,0.978c0.821,0.651,1.237,1.62,1.237,2.913
				c0,0.83-0.193,1.536-0.575,2.117c-0.384,0.579-0.953,1.027-1.71,1.337c0.961,0.178,1.708,0.606,2.239,1.283
				c0.536,0.671,0.803,1.524,0.803,2.557c0,1.46-0.482,2.618-1.452,3.476c-0.966,0.86-2.281,1.287-3.94,1.287H88.581L88.581,68.934z
				 M90.746,59.691h3.799c1.12,0,1.944-0.203,2.468-0.606c0.529-0.405,0.793-1.037,0.793-1.896c0-0.81-0.253-1.407-0.758-1.799
				c-0.507-0.388-1.283-0.584-2.329-0.584h-3.973V59.691L90.746,59.691z M90.746,67.009h4.394c1.104,0,1.941-0.243,2.514-0.731
				c0.569-0.487,0.854-1.193,0.854-2.125c0-0.924-0.292-1.603-0.874-2.036c-0.578-0.433-1.493-0.65-2.742-0.65h-4.146V67.009
				L90.746,67.009z M104.232,68.934V52.986h2.188v13.935h7.945v2.013H104.232L104.232,68.934z M117.822,60.975
				c0,2.043,0.468,3.641,1.41,4.791c0.943,1.152,2.252,1.729,3.918,1.729c1.66,0,2.957-0.575,3.892-1.729
				c0.937-1.15,1.403-2.748,1.403-4.791c0-2.049-0.469-3.648-1.403-4.795s-2.231-1.721-3.892-1.721
				c-1.666,0-2.975,0.574-3.918,1.721C118.29,57.325,117.822,58.926,117.822,60.975L117.822,60.975z M115.582,60.975
				c0-2.632,0.669-4.693,2.007-6.176c1.341-1.482,3.19-2.224,5.562-2.224c2.363,0,4.205,0.737,5.537,2.219
				c1.334,1.479,1.998,3.541,1.998,6.181c0,2.635-0.664,4.697-1.998,6.178c-1.332,1.482-3.174,2.228-5.537,2.228
				c-2.369,0-4.221-0.744-5.562-2.228C116.251,65.672,115.582,63.607,115.582,60.975L115.582,60.975z M137.908,68.934V54.925h-5.033
				v-1.938h12.242v1.938h-5.033v14.009H137.908L137.908,68.934z"/>
			<polygon fill="#231F20" points="87.829,0.373 96.126,0.373 96.126,46.289 87.829,46.289 			"/>
			<polygon fill="#231F20" points="102.211,0.373 110.508,0.373 110.508,46.289 102.211,46.289 			"/>
			<path fill="#231F20" d="M121.689,0.15h3.476c-1.503,30.399-48.29,19.904-48.1,46.362h-3.587
				C73.649,17.532,121.407,26.694,121.689,0.15L121.689,0.15z"/>
			<path fill="#231F20" d="M121.496,0.062h3.314c0.002,11.098-6.399,16.713-14.531,20.657v25.469h-8.295V24.158
				c-2.031,0.759-4.076,1.491-6.073,2.25v19.779h-8.336v-16.12c-6.283,3.377-10.822,7.993-10.822,16.12h-3.559
				c0-10.478,6.317-15.938,14.381-19.896V0.062h8.336v22.699c2.03-0.781,4.075-1.543,6.073-2.329V0.062h8.295v16.631
				C116.771,13.149,121.496,8.363,121.496,0.062L121.496,0.062z"/>
		</g>
	</g>
</g>
</svg>
