<?xml version="1.0" encoding="utf-8"?>
<!-- Generator: Adobe Illustrator 15.1.0, SVG Export Plug-In . SVG Version: 6.00 Build 0)  -->
<!DOCTYPE svg PUBLIC "-//W3C//DTD SVG 1.1//EN" "http://www.w3.org/Graphics/SVG/1.1/DTD/svg11.dtd">
<svg version="1.1" id="Layer_1" xmlns="http://www.w3.org/2000/svg" xmlns:xlink="http://www.w3.org/1999/xlink" x="0px" y="0px"
	 width="806px" height="677.865px" viewBox="0 0 806 677.865" enable-background="new 0 0 806 677.865" xml:space="preserve">
<g>
	<path fill="#FFFFFF" d="M21.382,290.682v8.188h-2.456c-3.185,0-4.641,1.183-4.641,5.732v35.849c0,4.551,1.456,5.731,4.641,5.731
		h2.456v8.188h-3.093c-10.009,0-14.013-3.729-14.013-13.922V304.6c0-10.19,4.004-13.921,14.013-13.921h3.093V290.682z"/>
	<path fill="#FFFFFF" d="M48.288,320.435l-3.64,33.938H30.909l-7.097-63.691h9.735l5.368,50.225l4.822-50.225h9.645l5.005,50.588
		l5.187-50.588h8.734l-7.097,63.691H51.928L48.288,320.435z"/>
	<path fill="#FFFFFF" d="M75.812,290.682h10.009v63.691H75.812V290.682z"/>
	<path fill="#FFFFFF" d="M88.941,290.682h30.937v9.099h-10.464v54.593H99.405V299.78H88.941V290.682z"/>
	<path fill="#FFFFFF" d="M133.062,354.373h-10.009v-63.691h10.009v27.296h11.373v-27.296h10.191v63.691h-10.191v-27.297h-11.373
		V354.373z"/>
	<path fill="#FFFFFF" d="M207.491,354.373h-10.1l-1.729-11.556H183.38l-1.729,11.556h-9.189l10.19-63.691h14.649L207.491,354.373z
		 M184.653,334.174h9.645l-4.822-32.21L184.653,334.174z"/>
	<path fill="#FFFFFF" d="M225.327,290.682h10.009v54.592h16.469v9.1h-26.478V290.682z"/>
	<path fill="#FFFFFF" d="M254.972,290.682h10.009v63.691h-10.009V290.682z"/>
	<path fill="#FFFFFF" d="M268.1,290.682h30.937v9.099h-10.464v54.593h-10.009V299.78H268.1V290.682z"/>
	<path fill="#FFFFFF" d="M300.901,290.682h30.937v9.099h-10.464v54.593h-10.009V299.78h-10.464V290.682L300.901,290.682z"/>
	<path fill="#FFFFFF" d="M335.014,290.682h10.013v54.592h16.469v9.1h-26.479L335.014,290.682L335.014,290.682z"/>
	<path fill="#FFFFFF" d="M374.676,317.523h13.739v9.098h-13.739v18.653h17.287v9.099h-27.296v-63.691h27.296v9.099h-17.287V317.523z
		"/>
	<path fill="#FFFFFF" d="M421.354,354.373h-10.009v-63.691h10.009v27.296h11.373v-27.296h10.191v63.691h-10.191v-27.297h-11.373
		V354.373z"/>
	<path fill="#FFFFFF" d="M457.731,317.523h13.735v9.098h-13.735v18.653h17.283v9.099H447.72v-63.691h27.296v9.099h-17.283
		L457.731,317.523L457.731,317.523z"/>
	<path fill="#FFFFFF" d="M479.015,290.682h10.013v54.592h16.469v9.1h-26.479L479.015,290.682L479.015,290.682z"/>
	<path fill="#FFFFFF" d="M538.33,306.422v8.28c0,10.19-4.913,15.741-14.922,15.741h-4.731v23.93h-10.009v-63.691h14.74
		C533.417,290.682,538.33,296.231,538.33,306.422z M518.677,299.78v21.562h4.731c3.185,0,4.913-1.455,4.913-6.004v-9.555
		c0-4.549-1.729-6.005-4.913-6.005h-4.731V299.78z"/>
	<path fill="#FFFFFF" d="M566.175,318.979h12.92v9.1h-12.92v26.295h-10.009v-63.691h26.479v9.099h-16.47V318.979L566.175,318.979z"
		/>
	<path fill="#FFFFFF" d="M606.946,354.373c-0.546-1.638-0.909-2.64-0.909-7.825v-10.009c0-5.914-2.002-8.098-6.552-8.098h-3.457
		v25.932H586.02v-63.691h15.104c10.373,0,14.831,4.822,14.831,14.648v5.005c0,6.551-2.093,10.827-6.551,12.92
		c5.005,2.093,6.643,6.915,6.643,13.558v9.827c0,3.094,0.091,5.368,1.092,7.733H606.946L606.946,354.373z M596.028,299.78v19.562
		h3.912c3.729,0,6.006-1.638,6.006-6.733v-6.278c0-4.55-1.547-6.551-5.1-6.551H596.028z"/>
	<path fill="#FFFFFF" d="M619.831,305.967c0-10.189,5.368-16.014,15.195-16.014s15.191,5.824,15.191,16.014v33.12
		c0,10.189-5.367,16.016-15.191,16.016c-9.827,0-15.195-5.824-15.195-16.016V305.967z M629.84,339.726
		c0,4.549,2.002,6.276,5.188,6.276c3.185,0,5.187-1.729,5.187-6.276V305.33c0-4.549-2.002-6.277-5.187-6.277
		c-3.188,0-5.188,1.729-5.188,6.277V339.726z"/>
	<path fill="#FFFFFF" d="M675.781,335.902l6.824-45.221h13.921v63.691h-9.464v-45.676l-6.914,45.676h-9.467l-7.461-45.039v45.039
		h-8.73v-63.691h13.921L675.781,335.902z"/>
	<path fill="#FFFFFF" d="M17.105,369.324c9.736,0,14.74,5.821,14.74,16.014v2.002h-9.463v-2.639c0-4.55-1.819-6.279-5.004-6.279
		s-5.005,1.729-5.005,6.279c0,13.103,19.562,15.559,19.562,33.756c0,10.191-5.095,16.014-14.922,16.014
		c-9.826,0-14.922-5.818-14.922-16.014v-3.912h9.463v4.55c0,4.55,2.002,6.188,5.187,6.188c3.185,0,5.186-1.641,5.186-6.188
		c0-13.103-19.562-15.56-19.562-33.757C2.365,375.146,7.37,369.324,17.105,369.324z"/>
	<path fill="#FFFFFF" d="M35.723,370.051h10.009v63.692H35.723V370.051z"/>
	<path fill="#FFFFFF" d="M71.38,433.743c-0.546-1.638-0.909-2.643-0.909-7.825V415.91c0-5.915-2.002-8.099-6.552-8.099h-3.457
		v25.932H50.453v-63.692h15.104c10.373,0,14.831,4.823,14.831,14.65v5.004c0,6.551-2.093,10.828-6.551,12.92
		c5.005,2.093,6.643,6.916,6.643,13.558v9.827c0,3.097,0.091,5.367,1.092,7.733H71.38L71.38,433.743z M60.462,379.149v19.562h3.912
		c3.73,0,6.006-1.64,6.006-6.731v-6.276c0-4.552-1.547-6.554-5.096-6.554H60.462L60.462,379.149z"/>
	<path fill="#FFFFFF" d="M130.16,384.701v2.272c0,6.553-2.001,10.734-6.46,12.827c5.368,2.097,7.461,6.915,7.461,13.648v5.188
		c0,9.824-5.186,15.104-15.194,15.104h-15.741V370.05h15.104C125.702,370.051,130.16,374.874,130.16,384.701z M110.234,379.149
		v16.832h3.912c3.73,0,6.006-1.64,6.006-6.731v-3.549c0-4.55-1.547-6.552-5.096-6.552H110.234z M110.234,405.082v19.562h5.732
		c3.366,0,5.186-1.547,5.186-6.274v-5.554c0-5.914-1.91-7.73-6.46-7.73L110.234,405.082L110.234,405.082z"/>
	<path fill="#FFFFFF" d="M134.701,385.338c0-10.19,5.368-16.014,15.195-16.014s15.195,5.821,15.195,16.014v33.119
		c0,10.191-5.368,16.014-15.195,16.014s-15.195-5.818-15.195-16.014V385.338L134.701,385.338z M144.71,419.094
		c0,4.55,2.002,6.278,5.187,6.278s5.187-1.729,5.187-6.278v-34.393c0-4.55-2.002-6.279-5.187-6.279s-5.187,1.729-5.187,6.279
		V419.094z"/>
	<path fill="#FFFFFF" d="M199.331,384.701v2.272c0,6.553-2.001,10.734-6.46,12.827c5.368,2.097,7.461,6.915,7.461,13.648v5.188
		c0,9.824-5.186,15.104-15.194,15.104h-15.741V370.05H184.5C194.873,370.051,199.331,374.874,199.331,384.701z M179.405,379.149
		v16.832h3.912c3.73,0,6.006-1.64,6.006-6.731v-3.549c0-4.55-1.547-6.552-5.096-6.552H179.405z M179.405,405.082v19.562h5.732
		c3.366,0,5.186-1.547,5.186-6.274v-5.554c0-5.914-1.91-7.73-6.46-7.73L179.405,405.082L179.405,405.082z"/>
	<path fill="#FFFFFF" d="M234.18,384.701v2.272c0,6.553-2.001,10.734-6.46,12.827c5.368,2.097,7.461,6.915,7.461,13.648v5.188
		c0,9.824-5.186,15.104-15.194,15.104h-15.741V370.05h15.104C229.722,370.051,234.18,374.874,234.18,384.701z M214.254,379.149
		v16.832h3.912c3.73,0,6.006-1.64,6.006-6.731v-3.549c0-4.55-1.547-6.552-5.096-6.552H214.254z M214.254,405.082v19.562h5.732
		c3.366,0,5.186-1.547,5.186-6.274v-5.554c0-5.914-1.91-7.73-6.46-7.73L214.254,405.082L214.254,405.082z"/>
	<path fill="#FFFFFF" d="M248.221,412.634l-12.647-42.583h10.463l7.644,29.025l7.643-29.025h9.554l-12.647,42.583v21.109h-10.008
		v-21.109H248.221z"/>
	<path fill="#FFFFFF" d="M317.101,409.995v8.462c0,10.191-5.096,16.014-14.922,16.014c-9.827,0-14.923-5.818-14.923-16.014v-33.119
		c0-10.19,5.096-16.014,14.923-16.014c9.826,0,14.922,5.821,14.922,16.014v6.187h-9.463v-6.819c0-4.554-2.002-6.279-5.187-6.279
		c-3.188,0-5.187,1.729-5.187,6.279v34.396c0,4.55,2,6.188,5.187,6.188c3.185,0,5.187-1.64,5.187-6.188v-9.102L317.101,409.995
		L317.101,409.995z"/>
	<path fill="#FFFFFF" d="M331.059,433.743H321.05v-63.692h10.009v27.298h11.373v-27.298h10.191v63.692h-10.191v-27.296h-11.373
		V433.743z"/>
	<path fill="#FFFFFF" d="M390.946,433.743h-10.104l-1.729-11.556h-12.283l-1.729,11.556h-9.188l10.19-63.692h14.646L390.946,433.743
		z M368.108,413.544h9.645l-4.822-32.21L368.108,413.544z"/>
	<path fill="#FFFFFF" d="M415.169,433.743c-0.546-1.638-0.909-2.643-0.909-7.825V415.91c0-5.915-2.002-8.099-6.552-8.099h-3.457
		v25.932h-10.009v-63.692h15.104c10.373,0,14.831,4.823,14.831,14.65v5.004c0,6.551-2.093,10.828-6.551,12.92
		c5.005,2.093,6.643,6.916,6.643,13.558v9.827c0,3.097,0.095,5.367,1.096,7.733H415.169L415.169,433.743z M404.251,379.149v19.562
		h3.912c3.729,0,6.006-1.64,6.006-6.731v-6.276c0-4.552-1.547-6.554-5.096-6.554H404.251L404.251,379.149z"/>
	<path fill="#FFFFFF" d="M429.027,370.051h10.009v54.594h16.469v9.103h-26.478V370.051z"/>
	<path fill="#FFFFFF" d="M451.619,370.051h30.937v9.101h-10.464v54.596h-10.009v-54.598h-10.464V370.051L451.619,370.051z"/>
	<path fill="#FFFFFF" d="M485.112,385.338c0-10.19,5.368-16.014,15.191-16.014c9.827,0,15.195,5.821,15.195,16.014v33.119
		c0,10.191-5.368,16.014-15.195,16.014c-9.824,0-15.191-5.818-15.191-16.014V385.338L485.112,385.338z M495.121,419.094
		c0,4.55,2.002,6.278,5.187,6.278c3.188,0,5.188-1.729,5.188-6.278v-34.393c0-4.55-2.002-6.279-5.188-6.279
		c-3.185,0-5.187,1.729-5.187,6.279V419.094z"/>
	<path fill="#FFFFFF" d="M528.779,387.612v46.131h-9.008v-63.692h12.556l10.282,38.125v-38.125h8.917v63.692h-10.282
		L528.779,387.612z"/>
	<path fill="#FFFFFF" d="M558.078,370.051c10.008,0,14.012,3.73,14.012,13.923v35.853c0,10.188-4.004,13.921-14.012,13.921h-3.094
		v-8.188h2.456c3.185,0,4.641-1.184,4.641-5.729v-35.851c0-4.552-1.456-5.731-4.641-5.731h-2.456v-8.188h3.094V370.051z"/>
	<path fill="#FFFFFF" d="M586.356,424.099v9.646h-9.646v-9.646H586.356z"/>
</g>
<g>
	<rect x="274.297" y="193.682" fill="#FFFFFF" width="13.811" height="16.105"/>
	<polygon fill="#FFFFFF" points="430.427,201.574 426.115,223.138 434.739,223.138 	"/>
	<polygon fill="#FFFFFF" points="152.728,137.498 149.929,134.929 152.728,132.314 152.728,112.172 137.541,112.172 
		137.541,132.314 140.34,134.929 137.541,137.498 137.541,157.64 152.728,157.64 	"/>
	<rect x="75.529" y="193.682" fill="#FFFFFF" width="13.81" height="16.105"/>
	<path fill="#FFFFFF" d="M805.475,104.946V0.314H-0.5V82.59v22.356v59.2v23.076v81.556h607.734V164.146H339.691v-59.2H805.475z
		 M743.12,69.538h13.305v5.826h13.443V59.307h-18.169l-8.579-7.57V24.162l8.579-7.57h22.982l8.487,7.524V35.31h-13.305v-5.414
		h-13.443v16.059h18.261l8.487,7.57v27.621l-8.487,7.523h-22.982l-8.579-7.523V69.538z M704.868,50.04V16.592h34.456v13.305H718.17
		v16.06h18.215v13.352H718.17v16.058h21.427V88.67h-34.729V55.223l-2.799-2.569L704.868,50.04z M690.282,16.592l8.484,7.57v26.473
		l-9.084,8.488l11.521,29.547h-14.271L675.6,59.307h-3.942V88.67h-13.354V55.22l-2.75-2.566l2.75-2.611V16.592H690.282z
		 M623.534,16.592l9.084,26.84l8.947-26.84h14.131l-16.379,45.513V88.67h-13.489V62.014l-15.966-45.422H623.534z M567.457,16.592
		h39.777v13.304h-13.213v20.143l2.753,2.614l-2.753,2.569V88.67H580.67V55.223l-2.799-2.569l2.799-2.614V29.896h-13.213V16.592z
		 M502.18,50.039V24.162l8.487-7.57h24.775l8.576,7.57v25.876l2.753,2.615l-2.753,2.569v25.924l-8.576,7.523h-24.775l-8.487-7.523
		V55.223l-2.799-2.569L502.18,50.039z M454.78,50.04V16.592h13.305v29.363h15.095V16.592h13.31v33.446l2.799,2.614l-2.799,2.569
		l-0.003,33.449H483.18V59.307h-15.095V88.67H454.78V55.223l-2.799-2.569L454.78,50.04z M399.055,50.04V16.592h13.309l11.562,24.774
		l11.607-24.774h13.351v33.446l2.753,2.614l-2.753,2.569V88.67h-13.351V48.065L423.925,72.84l-11.562-24.775V88.67h-13.309V55.223
		l-2.799-2.569L399.055,50.04z M351.863,16.592h13.305v33.446l2.799,2.614l-2.799,2.569v20.142h14.911v-20.14l-2.799-2.569
		l2.799-2.614V16.592h13.306v33.446l2.753,2.614l-2.753,2.569V81.1l-8.718,7.57h-24.271l-8.533-7.524V55.223l-2.799-2.569
		l2.799-2.614V16.592z M251.67,141.582v29.363h-13.305v-33.447l-2.799-2.569l2.799-2.615V98.867h13.305v29.363h15.095V98.867h13.306
		v33.446l2.799,2.615l-2.799,2.569l-0.001,33.448h-13.306v-29.363H251.67z M225.277,134.929l-2.753,2.569v33.447h-13.352v-33.447
		l-2.799-2.569l2.799-2.615v-20.142H195.96V98.867h39.777v13.305h-13.213v20.142L225.277,134.929z M238.826,50.039V24.162
		l8.625-7.57h23.812l8.626,7.57v11.286h-13.306v-5.552h-14.406v20.142l2.799,2.615l-2.799,2.569v20.142h14.406V59.307h-9.084V45.955
		h22.39v4.083l2.799,2.615l-2.799,2.569l-0.001,25.924l-8.626,7.523h-23.949l-8.487-7.523V55.223l-2.753-2.569L238.826,50.039z
		 M191.1,50.04V16.592h14.269l14.59,37.806V16.592h13.214v33.446l2.798,2.614l-2.798,2.569v33.354l0.046,0.093l-14.317,0.002
		l-14.544-37.761V88.67H191.1V55.223l-2.799-2.569L191.1,50.04z M171.84,16.592h13.351v33.446l2.753,2.614l-2.753,2.569V88.67
		H171.84V55.223l-2.799-2.569l2.799-2.614V16.592z M126.794,50.039V16.591h13.305v29.363l14.314-29.363h14.819l-17.801,36.062
		l17.801,36.017h-14.819l-14.314-29.362V88.67h-13.305V55.223l-2.799-2.569L126.794,50.039z M121.438,134.928l2.799-2.615v-25.876
		l8.487-7.57h24.775l8.58,7.57v25.876l2.752,2.615l-2.752,2.569v25.923l-8.58,7.524h-24.775l-8.487-7.524v-25.923L121.438,134.928z
		 M111.148,134.929l-2.753,2.569v33.447h-13.35v-33.447l-2.799-2.569l2.799-2.615v-20.142H81.83V98.867h39.778v13.305h-13.213
		v20.142L111.148,134.929z M79.278,170.944l-14.315,0.001l-14.543-37.76v37.76H37.16v-33.447l-2.799-2.569l2.799-2.615V98.867
		h14.269l14.59,37.806V98.867h13.214v33.446l2.799,2.615l-2.799,2.569v33.355L79.278,170.944z M81.963,50.039V24.162l8.488-7.57
		h23.721l8.717,7.616v11.104h-13.307v-5.414H95.269V50.04l2.798,2.615l-2.798,2.569v20.142h14.313V69.54h13.307v11.606l-8.717,7.523
		H90.451l-8.488-7.523V55.223l-2.799-2.569L81.963,50.039z M62.948,16.592h13.351v33.446l2.754,2.614l-2.754,2.569V88.67H62.948
		V55.223l-2.798-2.569l2.798-2.614V16.592z M17.9,50.04V16.592h13.307v29.363l14.314-29.363H60.34L42.539,52.653L60.34,88.67H45.521
		L31.207,59.307V88.67H17.9V55.223l-2.798-2.569L17.9,50.04z M17.9,132.314V98.867h13.352v33.446l2.753,2.615l-2.753,2.569v33.448
		H17.9v-33.447l-2.798-2.569L17.9,132.314z M58.047,220.385l-8.626,7.662H31.207v24.454H17.9v-33.447l-2.798-2.569l2.798-2.615
		v-33.447h31.521l8.626,7.616V220.385z M90.806,252.501l-11.332-29.363h-3.945v29.363H62.178v-33.447l-2.752-2.569l2.752-2.615
		v-33.447h31.979l8.488,7.57v26.473l-9.084,8.488l11.515,29.547H90.806z M143.47,252.5h-0.001h-34.731v-33.447l-2.799-2.569
		l2.799-2.615v-33.446h34.456v13.305h-21.151v16.059h18.215v13.352h-18.215v16.058h21.427V252.5z M197.198,219.053V252.5h-13.351
		v-40.604l-11.607,24.775l-11.562-24.775V252.5h-13.305v-33.447l-2.799-2.569l2.799-2.615v-33.446h13.305l11.562,24.775
		l11.607-24.775h13.351v33.446l2.753,2.615L197.198,219.053z M216.447,219.053V252.5h-13.351v-33.447l-2.799-2.569l2.799-2.615
		v-33.446h13.351v33.446l2.753,2.615L216.447,219.053z M257.087,252.5h-34.731v-33.447l-2.799-2.569l2.799-2.615v-33.446h34.456
		v13.305H235.66v16.059h18.215v13.352H235.66v16.058h21.427V252.5z M289.575,252.501l-11.332-29.363h-3.946v29.363h-13.351v-33.447
		l-2.753-2.569l2.753-2.615v-33.447h31.979l8.487,7.57v26.473l-9.084,8.488l11.516,29.547H289.575z M320.735,170.945h-34.731
		v-33.447l-2.799-2.569l2.799-2.615V98.867h34.456v13.305h-21.151v16.059h18.219v13.352h-18.219v16.058h21.431L320.735,170.945z
		 M550.33,213.869v-33.446h34.456v13.305h-21.151v16.059h18.215v13.352h-18.215v16.058h21.428l-0.004,13.303H550.33v-33.447
		l-2.799-2.569L550.33,213.869z M503.129,213.87v-33.446h13.309v33.446l2.799,2.615l-2.799,2.569v20.142h14.907v-20.142
		l-2.799-2.569l2.799-2.615v-33.446h13.31v33.446l2.753,2.615l-2.753,2.569v25.877l-8.722,7.57h-24.271l-8.533-7.524v-25.923
		l-2.799-2.569L503.129,213.87z M456.352,213.87v-25.876l8.625-7.57h23.812l8.626,7.57v11.286h-13.306v-5.552h-14.406v20.142
		l2.799,2.615l-2.799,2.569v20.142h14.406v-16.058h-9.084v-13.352h22.39v4.083l2.799,2.615l-2.799,2.569l-0.001,25.924l-8.626,7.524
		h-23.949l-8.487-7.524v-25.923l-2.753-2.569L456.352,213.87z M421.067,180.423h18.719l14.406,72.078h-13.58l-3.212-16.059h-13.947
		l-3.212,16.059h-13.58L421.067,180.423z M369.324,213.869v-33.446h34.456v13.305h-21.151v16.059h18.215v13.352h-18.215v16.058
		h21.427l-0.003,13.303h-34.729v-33.447l-2.799-2.569L369.324,213.869z M347.08,180.423v33.446l2.799,2.615l-2.799,2.569v20.142
		h19.637l-0.004,13.305h-32.987v-33.447l-2.753-2.569l2.753-2.615v-33.446H347.08z M334.436,88.67l-14.312-29.362V88.67h-13.305
		V55.223l-2.803-2.569l2.803-2.615V16.591h13.305v29.363l14.312-29.363h14.819l-17.801,36.062l17.801,36.017H334.436z"/>
	<rect x="671.656" y="29.851" fill="#FFFFFF" width="13.811" height="16.105"/>
	<rect x="31.207" y="193.728" fill="#FFFFFF" width="13.533" height="21.014"/>
	<polygon fill="#FFFFFF" points="530.667,55.223 527.868,52.654 530.667,50.039 530.667,29.896 515.48,29.896 515.48,50.038 
		518.279,52.653 515.48,55.222 515.48,75.364 530.667,75.364 	"/>
</g>
</svg>
