<?xml version="1.0" encoding="utf-8"?>
<!-- Generator: Adobe Illustrator 15.1.0, SVG Export Plug-In . SVG Version: 6.00 Build 0)  -->
<!DOCTYPE svg PUBLIC "-//W3C//DTD SVG 1.1//EN" "http://www.w3.org/Graphics/SVG/1.1/DTD/svg11.dtd">
<svg version="1.1" id="Layer_1" xmlns="http://www.w3.org/2000/svg" xmlns:xlink="http://www.w3.org/1999/xlink" x="0px" y="0px"
	 width="806px" height="677.865px" viewBox="0 0 806 677.865" enable-background="new 0 0 806 677.865" xml:space="preserve">
<g id="PNGS" display="none">
	
		<image display="inline" overflow="visible" enable-background="new    " width="807" height="346" xlink:href="kuhmo-hall-of-fame-header-graphic.png" >
	</image>
	
		<image display="inline" overflow="visible" enable-background="new    " width="807" height="359" xlink:href="dewars-header-graphic.png"  transform="matrix(1 0 0 1 959.8086 -801.1465)">
	</image>
	
		<image display="inline" overflow="visible" enable-background="new    " width="807" height="531" xlink:href="casillero-header-graphic.png"  transform="matrix(1 0 0 1 0 -801.1465)">
	</image>
	
		<image display="inline" overflow="visible" enable-background="new    " width="807" height="430" xlink:href="dhl-header-graphic.png"  transform="matrix(1 0 0 1 1955.6094 -801.1465)">
	</image>
	
		<image display="inline" overflow="visible" enable-background="new    " width="807" height="345" xlink:href="gordons-header-graphic.png"  transform="matrix(1 0 0 1 2957.4102 -801.1465)">
	</image>
	
		<image display="inline" overflow="visible" enable-background="new    " width="807" height="357" xlink:href="hublot-header-graphic.png"  transform="matrix(1 0 0 1 3923.2148 -801.1465)">
	</image>
	
		<image display="inline" overflow="visible" enable-background="new    " width="807" height="350" xlink:href="kuhmo-fireworks-header-graphic.png"  transform="matrix(1 0 0 1 4979.0039 -801.1465)">
	</image>
	
		<image display="inline" overflow="visible" enable-background="new    " width="807" height="274" xlink:href="kuhmo-half-time-header-graphic.png"  transform="matrix(1 0 0 1 5950.8125 -801.1465)">
	</image>
	
		<image display="inline" overflow="visible" enable-background="new    " width="807" height="431" xlink:href="kuhmo-play-safer-header-graphic.png"  transform="matrix(1 0 0 1 960.3086 0)">
	</image>
	
		<image display="inline" overflow="visible" enable-background="new    " width="807" height="275" xlink:href="kuhmo-tae-kwon-do-header-graphic.png"  transform="matrix(1 0 0 1 1956.1094 0)">
	</image>
	
		<image display="inline" overflow="visible" enable-background="new    " width="807" height="271" xlink:href="muml-header-graphic.png"  transform="matrix(1 0 0 1 2957.9102 0)">
	</image>
	
		<image display="inline" overflow="visible" enable-background="new    " width="807" height="341" xlink:href="privacy-header-graphic.png"  transform="matrix(1 0 0 1 3923.7148 0)">
	</image>
	
		<image display="inline" overflow="visible" enable-background="new    " width="807" height="273" xlink:href="swissquote-header-graphic.png"  transform="matrix(1 0 0 1 4979.5039 0)">
	</image>
	
		<image display="inline" overflow="visible" enable-background="new    " width="807" height="350" xlink:href="turkish-airlines-header-graphic.png"  transform="matrix(1 0 0 1 5951.3125 0)">
	</image>
</g>
<g>
	<polygon fill="#FFFFFF" points="125.965,140.848 134.589,140.848 130.277,119.284 	"/>
	<rect x="28.515" y="58.992" fill="#FFFFFF" width="13.672" height="16.058"/>
	<rect x="74.327" y="111.393" fill="#FFFFFF" width="13.81" height="16.104"/>
	<rect x="28.515" y="29.582" fill="#FFFFFF" width="13.672" height="16.059"/>
	<rect x="28.515" y="111.438" fill="#FFFFFF" width="13.672" height="16.059"/>
	<rect x="28.515" y="139.347" fill="#FFFFFF" width="13.672" height="16.058"/>
	<polygon fill="#FFFFFF" points="193.548,54.909 190.749,52.34 193.548,49.725 193.548,29.583 178.82,29.583 178.82,49.725 
		181.573,52.34 178.82,54.909 178.82,75.05 193.548,75.05 	"/>
	<polygon fill="#FFFFFF" points="229.938,134.195 232.737,131.581 232.737,111.438 218.01,111.438 218.01,131.581 220.763,134.195 
		218.01,136.764 218.01,156.906 232.738,156.906 232.737,136.764 	"/>
	<polygon fill="#FFFFFF" points="370.724,58.992 379.348,58.992 375.036,37.428 	"/>
	<path fill="#FFFFFF" d="M0,0v81.856v22.776v81.856h265.333v-81.856H418.53V0H0z M213.201,49.724V16.277h13.351v33.446l2.753,2.615
		l-2.753,2.569v33.448h-13.351V54.908l-2.799-2.569L213.201,49.724z M165.47,49.725V16.277h32.758l8.626,7.616v25.83l2.799,2.615
		l-2.799,2.569v25.877l-8.626,7.57H165.47V54.909l-2.753-2.569L165.47,49.725z M129.205,49.724V16.277h13.351v33.446l2.799,2.615
		l-2.799,2.569v20.142h19.637l-0.001,13.306h-32.987V54.908l-2.753-2.569L129.205,49.724z M109.335,49.724V16.277h13.351v33.446
		l2.753,2.615l-2.753,2.569v33.448h-13.351V54.908l-2.799-2.569L109.335,49.724z M55.538,127.862l-5.138,6.24l5.138,6.378v22.206
		l-8.534,7.523H15.209v-33.445l-2.798-2.569l2.798-2.615V98.132h31.795l8.534,7.57V127.862z M55.538,46.007l-5.138,6.24l5.138,6.378
		v22.206l-8.534,7.524H15.209V54.908l-2.798-2.569l2.798-2.615V16.277h31.795l8.534,7.57V46.007z M89.605,170.21l-11.333-29.362
		h-3.945v29.362H60.976v-33.446l-2.752-2.569l2.752-2.615V98.132h31.979l8.487,7.57v26.474l-9.083,8.487l11.514,29.547H89.605z
		 M103.004,54.907v25.878l-8.717,7.57H70.016l-8.534-7.524V54.908l-2.798-2.569l2.798-2.615V16.277h13.306v33.446l2.798,2.615
		l-2.798,2.569v20.142h14.911V54.908L86.9,52.339l2.798-2.615V16.277h13.306v33.446l2.753,2.615L103.004,54.907z M140.462,170.21
		l-3.212-16.059h-13.947l-3.212,16.059h-13.58l14.406-72.078h18.719l14.406,72.078H140.462z M198.807,170.208l-14.316,0.002
		l-14.544-37.76v37.76h-13.259v-33.446l-2.799-2.569l2.799-2.615V98.132h14.269l14.59,37.807V98.132h13.214v33.446l2.798,2.615
		l-2.798,2.569v33.354L198.807,170.208z M246.043,136.762v25.877l-8.626,7.57h-32.758v-33.447l-2.753-2.569l2.753-2.614V98.133
		h32.758l8.626,7.616v25.83l2.799,2.614L246.043,136.762z M275.237,88.353l-14.316,0.002l-14.544-37.76v37.76h-13.259V54.908
		l-2.799-2.569l2.799-2.615V16.277h14.269l14.59,37.806V16.277h13.214v33.446l2.798,2.615l-2.798,2.569v33.354L275.237,88.353z
		 M322.563,54.908l-0.001,25.923l-8.63,7.524h-23.949l-8.487-7.524V54.908l-2.753-2.569l2.753-2.615V23.848l8.625-7.57h23.812
		l8.63,7.57v11.286h-13.311v-5.552h-14.406v20.142l2.799,2.615l-2.799,2.569V75.05h14.406V58.992h-9.084V45.641h22.395v4.083
		l2.799,2.615L322.563,54.908z M385.221,88.355l-3.212-16.059h-13.946l-3.213,16.059h-13.58l14.406-72.078h18.719l14.406,72.078
		H385.221z"/>
</g>
<g>
	<path fill="#FFFFFF" d="M26.841,233.435l-3.64,33.938H9.462l-7.097-63.691H12.1l5.368,50.225l4.822-50.225h9.645l5.005,50.589
		l5.187-50.589h8.734l-7.097,63.691H30.48L26.841,233.435z"/>
	<path fill="#FFFFFF" d="M64.384,267.373H54.375v-63.691h10.009v27.296h11.373v-27.296h10.191v63.691H75.757v-27.297H64.384V267.373
		z"/>
	<path fill="#FFFFFF" d="M100.761,230.523H114.5v9.098h-13.739v18.653h17.287v9.099H90.752v-63.691h27.296v9.099h-17.287V230.523z"
		/>
	<path fill="#FFFFFF" d="M142.971,267.373c-0.546-1.638-0.909-2.639-0.909-7.825v-10.009c0-5.914-2.002-8.098-6.552-8.098h-3.457
		v25.932h-10.009v-63.691h15.104c10.373,0,14.831,4.822,14.831,14.648v5.005c0,6.551-2.093,10.827-6.551,12.92
		c5.004,2.093,6.643,6.915,6.643,13.558v9.826c0,3.094,0.091,5.369,1.092,7.734H142.971z M132.053,212.78v19.562h3.912
		c3.73,0,6.006-1.638,6.006-6.733v-6.278c0-4.55-1.547-6.551-5.096-6.551H132.053z"/>
	<path fill="#FFFFFF" d="M166.839,230.523h13.739v9.098h-13.739v18.653h17.287v9.099H156.83v-63.691h27.296v9.099h-17.287V230.523z"
		/>
	<path fill="#FFFFFF" d="M203.508,203.682h10.009v54.593h16.469v9.099h-26.478V203.682z"/>
	<path fill="#FFFFFF" d="M243.171,230.523h13.739v9.098h-13.739v18.653h17.287v9.099h-27.296v-63.691h27.296v9.099h-17.287V230.523z
		"/>
	<path fill="#FFFFFF" d="M287.901,233.435l-3.64,33.938h-13.739l-7.097-63.691h9.735l5.368,50.225l4.822-50.225h9.645L298,254.271
		l5.188-50.589h8.733l-7.097,63.691H291.54L287.901,233.435z"/>
	<path fill="#FFFFFF" d="M315.426,203.682h10.009v63.691h-10.009V203.682z"/>
	<path fill="#FFFFFF" d="M344.178,202.953c9.736,0,14.74,5.824,14.74,16.014v2.002h-9.463v-2.639c0-4.549-1.819-6.277-5.004-6.277
		c-3.188,0-5.005,1.729-5.005,6.277c0,13.103,19.562,15.56,19.562,33.757c0,10.19-5.095,16.015-14.922,16.015
		c-9.826,0-14.922-5.824-14.922-16.015v-3.913h9.463v4.551c0,4.549,2.002,6.187,5.188,6.187c3.185,0,5.186-1.638,5.186-6.187
		c0-13.104-19.562-15.56-19.562-33.758C329.438,208.777,334.442,202.953,344.178,202.953z"/>
	<path fill="#FFFFFF" d="M387.944,267.373h-10.014v-63.691h10.014v27.296h11.373v-27.296h10.188v63.691h-10.188v-27.297h-11.373
		V267.373z"/>
	<path fill="#FFFFFF" d="M447.833,267.373h-10.1l-1.729-11.556h-12.283l-1.729,11.556h-9.189l10.19-63.691h14.646L447.833,267.373z
		 M424.995,247.174h9.645l-4.817-32.21L424.995,247.174z"/>
	<path fill="#FFFFFF" d="M472.383,248.902l6.824-45.221h13.921v63.691h-9.463v-45.676l-6.915,45.676h-9.463l-7.461-45.039v45.039
		h-8.734v-63.691h13.921L472.383,248.902z"/>
	<path fill="#FFFFFF" d="M497.952,203.682h10.009v63.691h-10.009V203.682z"/>
	<path fill="#FFFFFF" d="M512.683,203.682h10.014v54.593h16.469v9.099h-26.479L512.683,203.682L512.683,203.682z"/>
	<path fill="#FFFFFF" d="M535.274,203.682h30.937v9.099h-10.464v54.593h-10.009V212.78h-10.464V203.682L535.274,203.682z"/>
	<path fill="#FFFFFF" d="M568.768,218.967c0-10.189,5.368-16.014,15.195-16.014s15.195,5.824,15.195,16.014v33.12
		c0,10.19-5.368,16.015-15.195,16.015s-15.195-5.824-15.195-16.015V218.967z M578.776,252.725c0,4.549,2.002,6.277,5.187,6.277
		c3.188,0,5.188-1.729,5.188-6.277V218.33c0-4.549-2.002-6.277-5.188-6.277c-3.185,0-5.187,1.729-5.187,6.277V252.725z"/>
	<path fill="#FFFFFF" d="M612.435,221.242v46.131h-9.008v-63.691h12.561l10.277,38.123v-38.123h8.917v63.691H624.9L612.435,221.242z
		"/>
	<path fill="#FFFFFF" d="M4.64,283.051h10.009v54.594h16.469v9.099H4.64V283.051z"/>
	<path fill="#FFFFFF" d="M44.302,309.893h13.739v9.1H44.302v18.652h17.287v9.099H34.293v-63.692h27.296v9.1H44.302V309.893z"/>
	<path fill="#FFFFFF" d="M99.423,346.743h-10.1l-1.729-11.556H75.312l-1.729,11.556h-9.189l10.19-63.692h14.649L99.423,346.743z
		 M76.585,326.544h9.645l-4.822-32.21L76.585,326.544z"/>
	<path fill="#FFFFFF" d="M123.646,346.743c-0.546-1.639-0.909-2.639-0.909-7.825V328.91c0-5.915-2.002-8.099-6.552-8.099h-3.457
		v25.932h-10.009v-63.692h15.104c10.373,0,14.831,4.823,14.831,14.65v5.004c0,6.551-2.093,10.828-6.551,12.92
		c5.005,2.093,6.643,6.916,6.643,13.558v9.827c0,3.092,0.091,5.367,1.092,7.733H123.646L123.646,346.743z M112.728,292.15v19.562
		h3.912c3.73,0,6.006-1.639,6.006-6.733v-6.278c0-4.549-1.547-6.551-5.096-6.551H112.728z"/>
	<path fill="#FFFFFF" d="M146.467,300.612v46.131h-9.008v-63.692h12.556l10.282,38.125v-38.125h8.917v63.692h-10.282
		L146.467,300.612z"/>
	<path fill="#FFFFFF" d="M183.981,309.893h13.739v9.1h-13.739v18.652h17.287v9.099h-27.296v-63.692h27.296v9.1h-17.287V309.893z"/>
	<path fill="#FFFFFF" d="M205.265,283.051h15.832c10.009,0,14.922,5.551,14.922,15.742v32.209c0,10.19-4.913,15.741-14.922,15.741
		h-15.832V283.051z M215.273,292.15v45.494h5.641c3.185,0,5.096-1.639,5.096-6.188v-33.119c0-4.55-1.911-6.188-5.096-6.188
		L215.273,292.15L215.273,292.15z"/>
	<path fill="#FFFFFF" d="M265.591,346.743h-10.009v-63.692h10.009v27.297h11.373v-27.297h10.191v63.692h-10.191v-27.296h-11.373
		V346.743z"/>
	<path fill="#FFFFFF" d="M291.923,283.051h10.009v63.692h-10.009V283.051z"/>
	<path fill="#FFFFFF" d="M320.675,282.324c9.736,0,14.74,5.822,14.74,16.014v2.002h-9.463v-2.639c0-4.55-1.819-6.279-5.004-6.279
		c-3.188,0-5.005,1.729-5.005,6.279c0,13.102,19.562,15.559,19.562,33.756c0,10.19-5.095,16.015-14.922,16.015
		c-9.826,0-14.922-5.822-14.922-16.015v-3.912h9.463v4.549c0,4.55,2.002,6.188,5.187,6.188c3.188,0,5.188-1.638,5.188-6.188
		c0-13.102-19.562-15.559-19.562-33.756C305.935,288.146,310.939,282.324,320.675,282.324z"/>
	<path fill="#FFFFFF" d="M383.458,322.995v8.462c0,10.19-5.096,16.015-14.922,16.015c-9.827,0-14.923-5.822-14.923-16.015v-33.119
		c0-10.191,5.096-16.014,14.923-16.014c9.826,0,14.922,5.822,14.922,16.014v6.187h-9.463v-6.823c0-4.55-2.002-6.279-5.188-6.279
		c-3.185,0-5.187,1.729-5.187,6.279v34.393c0,4.55,2.002,6.188,5.187,6.188c3.188,0,5.188-1.638,5.188-6.188v-9.099L383.458,322.995
		L383.458,322.995z"/>
	<path fill="#FFFFFF" d="M408.334,346.743c-0.546-1.639-0.909-2.639-0.909-7.825V328.91c0-5.915-2.002-8.099-6.552-8.099h-3.457
		v25.932h-10.009v-63.692h15.104c10.373,0,14.831,4.823,14.831,14.65v5.004c0,6.551-2.093,10.828-6.551,12.92
		c5.004,2.093,6.643,6.916,6.643,13.558v9.827c0,3.092,0.096,5.367,1.097,7.733H408.334L408.334,346.743z M397.416,292.15v19.562
		h3.912c3.729,0,6.006-1.639,6.006-6.733v-6.278c0-4.549-1.547-6.551-5.096-6.551H397.416z"/>
	<path fill="#FFFFFF" d="M456.031,346.743H445.93l-1.729-11.556H431.92l-1.729,11.556h-9.189l10.19-63.692h14.646L456.031,346.743z
		 M433.193,326.544h9.645l-4.822-32.21L433.193,326.544z"/>
	<path fill="#FFFFFF" d="M469.335,311.349h12.92v9.099h-12.92v26.296h-10.009v-63.692h26.478v9.1h-16.469V311.349z"/>
	<path fill="#FFFFFF" d="M487.869,283.051h30.937v9.1h-10.464v54.593h-10.009V292.15h-10.464V283.051z"/>
	<path fill="#FFFFFF" d="M526.104,337.099v9.645h-9.645v-9.645H526.104z"/>
</g>
</svg>
