<?xml version="1.0" encoding="utf-8"?>
<!-- Generator: Adobe Illustrator 15.1.0, SVG Export Plug-In . SVG Version: 6.00 Build 0)  -->
<!DOCTYPE svg PUBLIC "-//W3C//DTD SVG 1.1//EN" "http://www.w3.org/Graphics/SVG/1.1/DTD/svg11.dtd">
<svg version="1.1" id="Layer_1" xmlns="http://www.w3.org/2000/svg" xmlns:xlink="http://www.w3.org/1999/xlink" x="0px" y="0px"
	 width="807px" height="599.822px" viewBox="0 0 807 599.822" enable-background="new 0 0 807 599.822" xml:space="preserve">
<g>
	<path fill="#FFFFFF" d="M10.828,29.026h12.92v9.1h-12.92v26.295H0.82V0.729h26.478v9.099h-16.47V29.026z"/>
	<path fill="#FFFFFF" d="M30.673,0.729h10.009v63.692H30.673V0.729z"/>
	<path fill="#FFFFFF" d="M66.33,64.421c-0.546-1.638-0.909-2.639-0.909-7.825V46.587c0-5.914-2.002-8.098-6.552-8.098h-3.457v25.932
		H45.404V0.729h15.104c10.373,0,14.831,4.822,14.831,14.648v5.005c0,6.551-2.093,10.827-6.551,12.92
		c5.004,2.093,6.643,6.915,6.643,13.558v9.826c0,3.094,0.091,5.369,1.092,7.734L66.33,64.421L66.33,64.421z M55.412,9.828V29.39
		h3.912c3.73,0,6.006-1.638,6.006-6.733v-6.278c0-4.55-1.547-6.551-5.096-6.551H55.412z"/>
	<path fill="#FFFFFF" d="M90.199,27.571h13.739v9.098H90.199v18.653h17.287v9.099H80.19V0.729h27.296v9.099H90.199V27.571z"/>
	<path fill="#FFFFFF" d="M134.929,30.482l-3.64,33.938H117.55l-7.097-63.691h9.735l5.368,50.225l4.822-50.225h9.645l5.005,50.589
		l5.187-50.589h8.734l-7.097,63.691h-13.284L134.929,30.482z"/>
	<path fill="#FFFFFF" d="M161.389,16.014C161.389,5.825,166.757,0,176.584,0s15.196,5.825,15.196,16.014v33.12
		c0,10.19-5.368,16.015-15.195,16.015s-15.195-5.824-15.195-16.015L161.389,16.014L161.389,16.014z M171.398,49.772
		c0,4.549,2.002,6.277,5.187,6.277s5.187-1.729,5.187-6.277V15.378c0-4.549-2.002-6.277-5.187-6.277s-5.187,1.729-5.187,6.277
		V49.772z"/>
	<path fill="#FFFFFF" d="M217.011,64.421c-0.546-1.638-0.909-2.639-0.909-7.825V46.587c0-5.914-2.002-8.098-6.552-8.098h-3.457
		v25.932h-10.009V0.729h15.104c10.373,0,14.831,4.822,14.831,14.648v5.005c0,6.551-2.093,10.827-6.551,12.92
		c5.005,2.093,6.643,6.915,6.643,13.558v9.826c0,3.094,0.091,5.369,1.092,7.734L217.011,64.421L217.011,64.421z M206.093,9.828
		V29.39h3.912c3.73,0,6.006-1.638,6.006-6.733v-6.278c0-4.55-1.547-6.551-5.096-6.551H206.093z"/>
	<path fill="#FFFFFF" d="M243.973,39.035l-3.094,5.823v19.563H230.87V0.729h10.009V28.48l13.103-27.751h10.008l-13.921,28.389
		l13.921,35.303h-10.281L243.973,39.035z"/>
	<path fill="#FFFFFF" d="M279.658,0.001c9.736,0,14.74,5.824,14.74,16.014v2.002h-9.463v-2.639c0-4.549-1.819-6.277-5.004-6.277
		s-5.005,1.729-5.005,6.277c0,13.103,19.562,15.56,19.562,33.757c0,10.19-5.095,16.015-14.922,16.015
		c-9.826,0-14.922-5.824-14.922-16.015v-3.914h9.463v4.551c0,4.549,2.002,6.187,5.188,6.187c3.185,0,5.186-1.638,5.186-6.187
		c0-13.104-19.562-15.56-19.562-33.758C264.917,5.825,269.922,0.001,279.658,0.001z"/>
	<path fill="#FFFFFF" d="M345.808,64.421h-10.1l-1.729-11.556h-12.281l-1.729,11.556h-9.188L320.968,0.73h14.648L345.808,64.421z
		 M322.97,44.221h9.646l-4.82-32.21L322.97,44.221z"/>
	<path fill="#FFFFFF" d="M343.088,0.729h30.938v9.099h-10.466v54.593h-10.009V9.828h-10.464V0.729L343.088,0.729z"/>
	<path fill="#FFFFFF" d="M0,95.385c0-10.191,5.368-16.014,15.195-16.014c9.827,0,15.195,5.822,15.195,16.014v33.119
		c0,10.191-5.368,16.014-15.195,16.014C5.368,144.518,0,138.696,0,128.505V95.385z M10.009,129.141c0,4.55,2.002,6.278,5.187,6.278
		c3.185,0,5.187-1.729,5.187-6.278V94.749c0-4.55-2.002-6.279-5.187-6.279c-3.185,0-5.187,1.729-5.187,6.279V129.141z"/>
	<path fill="#FFFFFF" d="M34.696,80.098h10.009v54.594h16.469v9.099H34.696V80.098z"/>
	<path fill="#FFFFFF" d="M64.349,80.098h15.832c10.009,0,14.922,5.551,14.922,15.742v32.209c0,10.191-4.913,15.741-14.922,15.741
		H64.349V80.098z M74.358,89.198v45.494h5.641c3.185,0,5.096-1.639,5.096-6.188V95.385c0-4.55-1.911-6.188-5.096-6.188
		L74.358,89.198L74.358,89.198z"/>
	<path fill="#FFFFFF" d="M111.754,80.098h30.937v9.1h-10.464v54.593h-10.009V89.198h-10.464V80.098z"/>
	<path fill="#FFFFFF" d="M166.793,143.791c-0.546-1.638-0.909-2.639-0.909-7.825v-10.008c0-5.915-2.002-8.099-6.552-8.099h-3.457
		v25.932h-10.009V80.098h15.104c10.373,0,14.831,4.823,14.831,14.65v5.004c0,6.551-2.093,10.828-6.551,12.92
		c5.004,2.093,6.643,6.916,6.643,13.558v9.827c0,3.093,0.091,5.367,1.092,7.733L166.793,143.791L166.793,143.791z M155.875,89.198
		v19.562h3.912c3.73,0,6.006-1.639,6.006-6.733v-6.278c0-4.549-1.547-6.551-5.096-6.551H155.875z"/>
	<path fill="#FFFFFF" d="M214.491,143.791h-10.1l-1.729-11.556h-12.283l-1.729,11.556h-9.189l10.19-63.692H204.3L214.491,143.791z
		 M191.653,123.591h9.645l-4.822-32.21L191.653,123.591z"/>
	<path fill="#FFFFFF" d="M227.794,108.396h12.92v9.099h-12.92v26.296h-10.009V80.098h26.478v9.1h-16.469V108.396z"/>
	<path fill="#FFFFFF" d="M257.649,108.396h12.92v9.099h-12.92v26.296H247.64V80.098h26.478v9.1h-16.469V108.396L257.649,108.396z"/>
	<path fill="#FFFFFF" d="M276.884,95.385c0-10.191,5.368-16.014,15.195-16.014s15.195,5.822,15.195,16.014v33.119
		c0,10.191-5.368,16.014-15.195,16.014s-15.195-5.822-15.195-16.014V95.385z M286.893,129.141c0,4.55,2.002,6.278,5.187,6.278
		s5.187-1.729,5.187-6.278V94.749c0-4.55-2.002-6.279-5.187-6.279s-5.187,1.729-5.187,6.279V129.141z"/>
	<path fill="#FFFFFF" d="M332.506,143.791c-0.546-1.638-0.909-2.639-0.909-7.825v-10.008c0-5.915-2.002-8.099-6.552-8.099h-3.457
		v25.932H311.58V80.098h15.104c10.373,0,14.831,4.823,14.831,14.65v5.004c0,6.551-2.093,10.828-6.551,12.92
		c5.004,2.093,6.645,6.916,6.645,13.558v9.827c0,3.093,0.091,5.367,1.092,7.733L332.506,143.791L332.506,143.791z M321.588,89.198
		v19.562h3.912c3.729,0,6.006-1.639,6.006-6.733v-6.278c0-4.549-1.547-6.551-5.096-6.551H321.588z"/>
	<path fill="#FFFFFF" d="M346.365,80.098h15.832c10.011,0,14.924,5.551,14.924,15.742v32.209c0,10.191-4.913,15.741-14.924,15.741
		h-15.832V80.098z M356.374,89.198v45.494h5.641c3.187,0,5.098-1.639,5.098-6.188V95.385c0-4.55-1.911-6.188-5.098-6.188
		L356.374,89.198L356.374,89.198z"/>
	<path fill="#FFFFFF" d="M395.863,95.385c0-10.191,5.368-16.014,15.194-16.014s15.195,5.822,15.195,16.014v33.119
		c0,10.191-5.369,16.014-15.195,16.014s-15.194-5.822-15.194-16.014V95.385z M405.871,129.141c0,4.55,2.002,6.278,5.188,6.278
		c3.188,0,5.188-1.729,5.188-6.278V94.749c0-4.55-2.002-6.279-5.188-6.279c-3.186,0-5.188,1.729-5.188,6.279V129.141z"/>
	<path fill="#FFFFFF" d="M439.529,97.66v46.131h-9.008V80.098h12.559l10.279,38.125V80.098h8.918v63.692h-10.281L439.529,97.66z"/>
</g>
<g>
	<polygon fill="#FFFFFF" points="428.461,292.974 431.214,295.589 428.461,298.158 428.461,318.3 443.19,318.3 443.19,298.158 
		440.388,295.589 443.19,292.974 443.19,272.832 428.461,272.832 	"/>
	<polygon fill="#FFFFFF" points="75.228,292.971 78.027,295.586 75.228,298.155 75.228,318.298 89.45,318.298 89.45,298.155 
		86.697,295.586 89.45,292.971 89.45,272.829 75.228,272.829 	"/>
	<rect x="294.273" y="272.784" fill="#FFFFFF" width="13.811" height="16.104"/>
	<polygon fill="#FFFFFF" points="226.087,210.921 228.886,213.536 226.087,216.105 226.087,236.247 241.274,236.247 
		241.274,216.105 238.475,213.536 241.274,210.921 241.274,190.779 226.087,190.779 	"/>
	<rect x="229.399" y="272.829" fill="#FFFFFF" width="13.673" height="16.059"/>
	<polygon fill="#FFFFFF" points="478.099,302.241 486.723,302.241 482.411,280.677 	"/>
	<rect x="229.399" y="302.239" fill="#FFFFFF" width="13.673" height="16.059"/>
	<path fill="#FFFFFF" d="M337,243.248v-82.051H0.5v82.051v22.581v82.051h565.821V243.248H337z M273.671,230.421h13.305v5.826h13.443
		v-16.058H282.25l-8.579-7.57v-27.574l8.579-7.57h22.986l8.483,7.524v11.194h-13.305v-5.414h-13.443v16.059h18.261l8.483,7.57
		l0.003,27.62l-8.483,7.524H282.25l-8.579-7.524V230.421z M109.664,210.921v-33.446h13.305l11.562,24.775l11.607-24.775h13.351
		v33.446l2.753,2.615l-2.753,2.569v33.447h-13.351v-40.604l-11.607,24.775l-11.562-24.775v40.604h-13.305v-33.447l-2.799-2.569
		L109.664,210.921z M62.47,177.475h13.306v33.446l2.798,2.615l-2.798,2.569v20.142h14.911v-20.142l-2.799-2.569l2.799-2.615v-33.446
		h13.306v33.446l2.752,2.615l-2.752,2.569l-0.001,25.877l-8.718,7.57H71.003l-8.533-7.524v-25.923l-2.799-2.569l2.799-2.615V177.475
		z M17.423,210.921v-33.446h13.305v29.363l14.314-29.363l14.82-0.001L42.06,213.535l17.803,36.017h-14.82l-14.314-29.363v29.363
		H17.423v-33.447l-2.799-2.569L17.423,210.921z M48.667,331.558H25.91l-8.487-7.524v-11.517h13.305v5.825h13.168V297.33H25.91
		l-8.487-7.524v-30.235h39.273v13.305H30.773v11.149h17.939l8.534,7.479l0.001,32.529L48.667,331.558z M102.756,298.156v25.922
		l-8.626,7.524H70.364l-8.442-7.524v-25.922l-2.798-2.569l2.798-2.615v-25.876l8.626-7.57H94.13l8.626,7.57v25.876l2.752,2.615
		L102.756,298.156z M131.911,298.156v33.446H118.56v-33.446l-2.799-2.569l2.799-2.615V272.83h-13.213v-13.305h39.777v13.305h-13.213
		v20.142l2.753,2.615L131.911,298.156z M189.457,298.155v33.447h-13.306V302.24h-15.095v29.362h-13.305v-33.447l-2.799-2.569
		l2.799-2.615v-33.446h13.305v29.363h15.095v-29.363h13.306v33.446l2.799,2.615L189.457,298.155z M207.093,216.105v33.447h-13.306
		v-29.363h-15.095v29.363h-13.305v-33.447l-2.799-2.569l2.799-2.615v-33.446h13.305v29.363h15.095v-29.363h13.306v33.446
		l2.799,2.615L207.093,216.105z M256.423,289.256l-5.139,6.239l5.139,6.379v22.205l-8.533,7.523h-31.795v-33.446l-2.799-2.569
		l2.799-2.615v-33.446h31.795l8.533,7.57V289.256z M254.626,216.105v25.923l-8.58,7.524h-24.775l-8.487-7.524v-25.923l-2.799-2.569
		l2.799-2.615v-25.876l8.487-7.57h24.775l8.58,7.57v25.876l2.752,2.615L254.626,216.105z M258.49,179.143h9.645v8.644l-4.367,10.1
		h-4.095l2.639-9.099h-3.822V179.143z M275.061,298.157v33.445H261.71v-33.445l-2.799-2.569l2.799-2.615v-33.446h13.351v33.446
		l2.753,2.615L275.061,298.157z M309.55,331.604l-11.332-29.362h-3.946v29.362h-13.351v-33.45l-2.751-2.567l2.751-2.613v-33.45
		H312.9l8.483,7.57v26.473l-9.084,8.491l11.521,29.547H309.55z M351.678,298.156v33.446h-13.352v-33.446l-2.799-2.569l2.799-2.615
		V272.83h-13.213v-13.305h39.773l0.004,13.305h-13.213v20.142l2.753,2.615L351.678,298.156z M409.224,298.155v33.447h-13.306V302.24
		h-15.095v29.362h-13.309v-33.447l-2.799-2.569l2.799-2.615v-33.446h13.309v29.363h15.095v-29.363h13.306v33.446l2.803,2.615
		L409.224,298.155z M456.496,324.032l-8.626,7.568h-32.758v-33.448l-2.753-2.569l2.753-2.615v-33.446l32.758,0.003l8.626,7.616
		v25.83l2.799,2.615l-2.799,2.569V324.032z M492.596,331.604l-3.212-16.062h-13.946l-3.213,16.062h-13.58l14.406-72.081h18.719
		l14.406,72.081H492.596z M531.69,305.04v26.562h-13.489v-26.654l-15.966-45.423h13.672l9.084,26.84l8.943-26.84h14.135
		L531.69,305.04z"/>
</g>
</svg>
