<?xml version="1.0" encoding="utf-8"?>
<!-- Generator: Adobe Illustrator 15.1.0, SVG Export Plug-In . SVG Version: 6.00 Build 0)  -->
<!DOCTYPE svg PUBLIC "-//W3C//DTD SVG 1.1//EN" "http://www.w3.org/Graphics/SVG/1.1/DTD/svg11.dtd">
<svg version="1.1" id="Layer_1" xmlns="http://www.w3.org/2000/svg" xmlns:xlink="http://www.w3.org/1999/xlink" x="0px" y="0px"
	 width="807px" height="599.822px" viewBox="0 0 807 599.822" enable-background="new 0 0 807 599.822" xml:space="preserve">
<g>
	<path fill="#FFFFFF" d="M10.008,64.421H0V0.729h10.009v27.296h11.373V0.729h10.191v63.692H21.381V37.124H10.008V64.421z"/>
	<path fill="#FFFFFF" d="M35.877,16.014c0-10.189,5.368-16.013,15.195-16.013c9.827,0,15.195,5.824,15.195,16.014v33.12
		c0,10.19-5.368,16.015-15.195,16.015c-9.827,0-15.195-5.824-15.195-16.015V16.014z M45.885,49.772c0,4.549,2.002,6.277,5.187,6.277
		c3.185,0,5.187-1.729,5.187-6.277V15.378c0-4.549-2.002-6.277-5.187-6.277c-3.185,0-5.187,1.729-5.187,6.277V49.772z"/>
	<path fill="#FFFFFF" d="M93.136,30.482l-3.64,33.938H75.757L68.661,0.729h9.735l5.368,50.225l4.822-50.225h9.645l5.005,50.589
		l5.187-50.589h8.734l-7.097,63.692H96.776L93.136,30.482z"/>
	<path fill="#FFFFFF" d="M148.46,39.035l-3.094,5.823v19.563h-10.009V0.729h10.009V28.48l13.103-27.751h10.008l-13.921,28.389
		l13.921,35.303h-10.281L148.46,39.035z"/>
	<path fill="#FFFFFF" d="M181.534,0.729v49.133c0,4.55,2.002,6.188,5.187,6.188c3.185,0,5.187-1.638,5.187-6.188V0.729h9.462v48.496
		c0,10.191-5.095,16.014-14.922,16.014c-9.826,0-14.922-5.822-14.922-16.014V0.729H181.534z"/>
	<path fill="#FFFFFF" d="M227.174,45.95l6.824-45.221h13.921v63.692h-9.463V18.745l-6.915,45.676h-9.463l-7.461-45.039v45.039
		h-8.734V0.729h13.921L227.174,45.95z"/>
	<path fill="#FFFFFF" d="M262.779,64.421H252.77V0.729h10.009v27.296h11.373V0.729h10.191v63.692h-10.191V37.124h-11.373V64.421z"/>
	<path fill="#FFFFFF" d="M288.646,16.014C288.646,5.825,294.014,0,303.841,0c9.825,0,15.193,5.824,15.193,16.014v33.12
		c0,10.19-5.368,16.015-15.193,16.015c-9.827,0-15.195-5.824-15.195-16.015V16.014z M298.655,49.772
		c0,4.549,2.002,6.277,5.188,6.277c3.187,0,5.188-1.729,5.188-6.277V15.378c0-4.549-2.002-6.277-5.188-6.277
		s-5.188,1.729-5.188,6.277V49.772z"/>
	<path fill="#FFFFFF" d="M351.794,39.035l-3.094,5.823v19.563h-10.009V0.729H348.7V28.48l13.104-27.751h10.01L357.89,29.118
		l13.921,35.303h-10.279L351.794,39.035z"/>
	<path fill="#FFFFFF" d="M385.078,27.571h13.739v9.098h-13.739v18.653h17.288v9.099H375.07V0.729h27.295v9.099h-17.288
		L385.078,27.571L385.078,27.571z"/>
	<path fill="#FFFFFF" d="M436.023,16.469v8.28c0,10.19-4.914,15.741-14.924,15.741h-4.73v23.93h-10.008V0.729H421.1
		C431.109,0.729,436.023,6.279,436.023,16.469z M416.369,9.828v21.563h4.73c3.186,0,4.912-1.455,4.912-6.004v-9.555
		c0-4.549-1.729-6.005-4.912-6.005L416.369,9.828L416.369,9.828z"/>
	<path fill="#FFFFFF" d="M437.707,0.729h30.938v9.099H458.18v54.593h-10.01V9.828h-10.463V0.729L437.707,0.729z"/>
	<path fill="#FFFFFF" d="M483.293,0.729h30.938v9.099h-10.465v54.593h-10.01V9.828h-10.465L483.293,0.729L483.293,0.729z"/>
	<path fill="#FFFFFF" d="M527.414,64.421h-10.008V0.729h10.008v27.296h11.373V0.729h10.189v63.692h-10.189V37.124h-11.373V64.421z"
		/>
	<path fill="#FFFFFF" d="M563.791,27.571h13.74v9.098h-13.74v18.653h17.287v9.099h-27.295V0.729h27.295v9.099h-17.287V27.571z"/>
	<path fill="#FFFFFF" d="M606.32,45.95l6.822-45.221h13.924v63.692h-9.465V18.745l-6.916,45.676h-9.463l-7.461-45.039v45.039h-8.732
		V0.729h13.922L606.32,45.95z"/>
</g>
<g>
	<rect x="564.091" y="221.169" fill="#FFFFFF" width="13.672" height="16.058"/>
	<rect x="564.091" y="191.759" fill="#FFFFFF" width="13.672" height="16.059"/>
	<polygon fill="#FFFFFF" points="531.892,129.767 534.693,132.382 531.892,134.951 531.892,155.093 547.08,155.093 547.08,134.951 
		544.281,132.382 547.08,129.767 547.08,109.625 531.892,109.625 	"/>
	<rect x="609.998" y="191.714" fill="#FFFFFF" width="13.811" height="16.104"/>
	<polygon fill="#FFFFFF" points="238.124,221.17 246.748,221.17 242.436,199.606 	"/>
	<rect x="485.652" y="109.58" fill="#FFFFFF" width="13.811" height="16.104"/>
	<rect x="206.421" y="109.58" fill="#FFFFFF" width="13.811" height="16.104"/>
	<path fill="#FFFFFF" d="M723.312,162.179V80.043H0v82.136v22.496v82.135h807V162.179H723.312z M660.01,129.767V96.321h13.31v29.363
		h15.094V96.321h13.307v33.446l2.8,2.615l-2.8,2.569l-0.002,33.447h-13.307v-29.363h-15.094v29.363H660.01v-33.447l-2.799-2.569
		L660.01,129.767z M613.234,129.767v-25.876l8.625-7.57h23.812l8.625,7.57v11.286H640.99v-5.552h-14.406v20.142l2.799,2.615
		l-2.799,2.569v20.142h14.406v-16.058h-9.084v-13.352h22.389v4.083l2.799,2.615l-2.799,2.569l-0.001,25.924l-8.627,7.524h-23.949
		l-8.483-7.524v-25.923l-2.752-2.569L613.234,129.767z M566.081,129.767V96.321h13.305v33.446l2.799,2.615l-2.799,2.569v20.142
		H594.3v-20.142l-2.799-2.569l2.799-2.615V96.321h13.306v33.446l2.756,2.615l-2.756,2.569v25.877l-8.722,7.57h-24.27l-8.533-7.524
		v-25.923l-2.799-2.569L566.081,129.767z M472.3,129.767V96.32h31.98l8.483,7.57v26.473l-9.084,8.488l11.52,29.547h-14.271
		l-11.332-29.363h-3.942v29.363H472.3v-33.447l-2.752-2.569L472.3,129.767z M382.3,96.32h39.778l0.002,13.305h-13.213v20.142
		l2.754,2.615l-2.754,2.569v33.447h-13.354v-33.447l-2.799-2.569l2.799-2.615v-20.142H382.3V96.32z M260.767,129.767V96.321h14.269
		l14.59,37.806V96.321h13.214v33.446l2.798,2.615l-2.798,2.569v33.355l0.046,0.092H288.57l-14.544-37.76v37.76h-13.259v-33.447
		l-2.799-2.569L260.767,129.767z M240.569,129.767V96.321h13.351v33.446l2.753,2.615l-2.753,2.569v33.447h-13.351v-33.447
		l-2.799-2.569L240.569,129.767z M193.07,129.767V96.32h31.979l8.487,7.57v26.473l-9.084,8.488l11.516,29.547h-14.269
		l-11.332-29.363h-3.946v29.363H193.07v-33.447l-2.753-2.569L193.07,129.767z M65.386,129.767V96.321H78.69v29.363h15.095V96.321
		h13.306v33.446l2.799,2.615l-2.799,2.569v33.447H93.785v-29.363H78.69v29.363H65.386v-33.447l-2.799-2.569L65.386,129.767z
		 M19.616,129.767v-25.876l8.487-7.57h23.72l8.718,7.616v11.103H47.235v-5.414H32.921v20.142l2.799,2.615l-2.799,2.569v20.142
		h14.314v-5.826h13.306v11.606l-8.718,7.524h-23.72l-8.487-7.524v-25.923l-2.799-2.569L19.616,129.767z M46.181,217.086v33.447
		H32.829v-33.447l-2.799-2.569l2.799-2.615V191.76H19.616v-13.305h39.777l0.001,13.305H46.181v20.142l2.752,2.615L46.181,217.086z
		 M103.727,217.086l-0.001,33.447H90.421V221.17H75.327v29.363H62.021v-33.447l-2.798-2.569l2.798-2.615v-33.446h13.307v29.363
		h15.094v-29.363h13.305v33.446l2.8,2.615L103.727,217.086z M144.392,250.533H109.66v-33.447l-2.799-2.569l2.799-2.615v-33.446
		h34.456v13.305h-21.151v16.059h18.215v13.352h-18.215v16.058h21.427V250.533z M148.696,168.398h-34.731v-33.447l-2.799-2.569
		l2.799-2.615V96.321h34.456v13.305H127.27v16.059h18.215v13.352H127.27v16.058h21.427L148.696,168.398z M150.742,132.382
		l2.799-2.615V96.321h34.456v13.305h-21.151v16.059h18.215v13.352h-18.215v16.058h21.427l-0.001,13.303h-34.731v-33.447
		L150.742,132.382z M216.024,250.533h-13.306V221.17h-15.095v29.363h-13.305v-33.447l-2.799-2.569l2.799-2.615v-33.446h13.305
		v29.363h15.095v-29.363h13.306v33.446l2.799,2.615l-2.799,2.569V250.533z M252.621,250.533l-3.212-16.059h-13.947l-3.212,16.059
		h-13.58l14.406-72.078h18.719l14.406,72.078H252.621z M301.846,250.533h-32.987v-33.447l-2.753-2.569l2.753-2.615v-33.446h13.351
		v33.446l2.799,2.615l-2.799,2.569v20.142h19.637L301.846,250.533z M335.986,207.818v13.352h-18.169v29.363h-13.354v-33.447
		l-2.753-2.569l2.753-2.615v-33.446h34.456l0.002,13.303h-21.104v16.059H335.986z M317.92,168.398l-8.487-7.524v-25.923
		l-2.753-2.569l2.753-2.615v-25.876l8.625-7.57h23.812l8.626,7.57v11.286H337.19v-5.552h-14.406v20.142l2.799,2.615l-2.799,2.569
		v20.142h14.406v-16.058h-9.084v-13.352h22.39v4.083l2.799,2.615l-2.799,2.569l-0.001,25.924l-8.626,7.524H317.92z M363.744,219.192
		h-18.792v-9.396h18.792V219.192z M392.795,214.517l-2.753,2.569v33.447H376.69v-33.447l-2.803-2.569l2.803-2.615V191.76h-13.217
		v-13.305h39.777l0.004,13.305h-13.213v20.142L392.795,214.517z M421.019,217.086v33.447h-13.352v-33.447l-2.799-2.569l2.799-2.615
		v-33.446h13.352v33.446l2.757,2.615L421.019,217.086z M421.906,132.382l2.799-2.615V96.321h13.305v29.363h15.099V96.321h13.307
		v33.446l2.799,2.615l-2.799,2.569v33.447h-0.001h-13.307v-29.363H438.01v29.363h-13.305v-33.447L421.906,132.382z M478.537,217.086
		v33.447h-13.354v-40.604l-11.604,24.775l-11.562-24.775v40.604h-13.305v-33.447l-2.799-2.569l2.799-2.615v-33.446h13.305
		l11.562,24.775l11.604-24.775h13.354v33.446l2.754,2.615L478.537,217.086z M520.953,250.533H486.22v-33.447l-2.799-2.569
		l2.799-2.615v-33.446h34.457v13.305h-21.147v16.059h18.215v13.352h-18.215v16.058h21.426L520.953,250.533z M518.592,160.874
		v-25.923l-2.799-2.569l2.799-2.615v-25.876l8.486-7.57h24.772l8.58,7.57v25.876l2.752,2.615l-2.752,2.569v25.923l-8.58,7.524
		h-24.772L518.592,160.874z M591.115,208.186l-5.144,6.239l5.144,6.378v22.206l-8.533,7.524h-31.795v-33.447l-2.799-2.569
		l2.799-2.615v-33.446h31.795l8.533,7.57V208.186z M625.274,250.533l-11.332-29.363h-3.945v29.363h-13.354v-33.451l-2.753-2.565
		l2.753-2.611v-33.451h31.979l8.488,7.57v26.473l-9.084,8.488l11.518,29.547H625.274z M678.031,250.533h-34.732v-33.447
		l-2.799-2.569l2.799-2.615v-33.446h34.457v13.305h-21.152v16.059h18.22v13.352h-18.22v16.058h21.431L678.031,250.533z
		 M714.683,250.533l-3.211-16.059h-13.944l-3.211,16.059h-13.58l14.401-72.078h18.724l14.401,72.078H714.683z M773.443,178.457
		L773.443,178.457l-17.806,36.06l17.806,36.017h-14.82l-14.314-29.363v29.363h-13.305v-33.447l-2.799-2.569l2.799-2.615v-33.446
		h13.305v29.363l14.314-29.363H773.443v-0.002V178.457z M790.502,250.46h-13.305v-13.306h13.305V250.46z"/>
	<polygon fill="#FFFFFF" points="700.188,221.17 708.81,221.17 704.499,199.606 	"/>
</g>
</svg>
