<?xml version="1.0" encoding="utf-8"?>
<!-- Generator: Adobe Illustrator 15.1.0, SVG Export Plug-In . SVG Version: 6.00 Build 0)  -->
<!DOCTYPE svg PUBLIC "-//W3C//DTD SVG 1.1//EN" "http://www.w3.org/Graphics/SVG/1.1/DTD/svg11.dtd">
<svg version="1.1" id="Layer_1" xmlns="http://www.w3.org/2000/svg" xmlns:xlink="http://www.w3.org/1999/xlink" x="0px" y="0px"
	 width="806px" height="677.865px" viewBox="0 0 806 677.865" enable-background="new 0 0 806 677.865" xml:space="preserve">
<g>
	<path fill="#FFFFFF" d="M0,0.729h30.937v9.098H20.472V64.42H10.463V9.827H0V0.729z"/>
	<path fill="#FFFFFF" d="M43.911,0.729v49.133c0,4.55,2.002,6.188,5.187,6.188s5.187-1.638,5.187-6.188V0.729h9.462v48.496
		c0,10.191-5.095,16.014-14.922,16.014c-9.826,0-14.922-5.822-14.922-16.014V0.729H43.911z"/>
	<path fill="#FFFFFF" d="M89.224,64.42c-0.546-1.638-0.909-2.639-0.909-7.825V46.586c0-5.914-2.002-8.098-6.552-8.098h-3.457V64.42
		H68.297V0.729h15.104c10.373,0,14.831,4.822,14.831,14.648v5.005c0,6.551-2.093,10.827-6.551,12.92
		c5.005,2.093,6.643,6.915,6.643,13.558v9.826c0,3.094,0.091,5.369,1.092,7.734H89.224z M78.306,9.827v19.562h3.912
		c3.73,0,6.006-1.638,6.006-6.733v-6.278c0-4.55-1.547-6.551-5.096-6.551H78.306z"/>
	<path fill="#FFFFFF" d="M112.045,18.289V64.42h-9.008V0.729h12.556l10.282,38.123V0.729h8.917V64.42H124.51L112.045,18.289z"/>
	<path fill="#FFFFFF" d="M139.524,0.729h10.009V64.42h-10.009V0.729z"/>
	<path fill="#FFFFFF" d="M163.216,18.289V64.42h-9.008V0.729h12.556l10.282,38.123V0.729h8.917V64.42h-10.282L163.216,18.289z"/>
	<path fill="#FFFFFF" d="M206.063,28.935h14.013v20.199c0,10.19-5.096,16.015-14.922,16.015c-9.827,0-14.923-5.824-14.923-16.015
		v-33.12C190.231,5.825,195.327,0,205.154,0c9.826,0,14.922,5.824,14.922,16.014v6.188h-9.463v-6.825
		c0-4.549-2.002-6.277-5.187-6.277c-3.185,0-5.187,1.729-5.187,6.277v34.395c0,4.549,2.002,6.187,5.187,6.187
		c3.185,0,5.187-1.638,5.187-6.187V38.033h-4.55V28.935z"/>
	<path fill="#FFFFFF" d="M249.74,27.57h13.739v9.098H249.74v18.653h17.287v9.099h-27.296V0.729h27.296v9.098H249.74V27.57z"/>
	<path fill="#FFFFFF" d="M279.985,18.289V64.42h-9.008V0.729h12.556l10.282,38.123V0.729h8.917V64.42H292.45L279.985,18.289z"/>
	<path fill="#FFFFFF" d="M322.832,28.935h14.015v20.199c0,10.19-5.098,16.015-14.922,16.015c-9.827,0-14.925-5.824-14.925-16.015
		v-33.12C307,5.825,312.097,0,321.924,0c9.824,0,14.922,5.824,14.922,16.014v6.188h-9.463v-6.825c0-4.549-2.002-6.277-5.188-6.277
		c-3.187,0-5.188,1.729-5.188,6.277v34.395c0,4.549,2.002,6.187,5.188,6.187s5.188-1.638,5.188-6.187V38.033h-4.552L322.832,28.935
		L322.832,28.935z"/>
	<path fill="#FFFFFF" d="M341.094,0.729h10.009v54.593h16.471v9.099h-26.479V0.729z"/>
	<path fill="#FFFFFF" d="M404.586,64.42h-10.101l-1.729-11.556h-12.283l-1.729,11.556h-9.188l10.188-63.691h14.647L404.586,64.42z
		 M381.749,44.221h9.646l-4.82-32.21L381.749,44.221z"/>
	<path fill="#FFFFFF" d="M416.854,18.289V64.42h-9.008V0.729H420.4l10.281,38.123V0.729h8.916V64.42h-10.279L416.854,18.289z"/>
	<path fill="#FFFFFF" d="M444.359,0.729h15.832c10.008,0,14.922,5.55,14.922,15.74V48.68c0,10.189-4.914,15.74-14.922,15.74h-15.832
		V0.729z M454.367,9.827v45.494h5.643c3.188,0,5.098-1.638,5.098-6.188v-33.12c0-4.549-1.91-6.187-5.098-6.187L454.367,9.827
		L454.367,9.827z"/>
	<path fill="#FFFFFF" d="M478.99,10.373V0.729h9.646v8.644l-4.367,10.1h-4.098l2.639-9.099L478.99,10.373L478.99,10.373z"/>
	<path fill="#FFFFFF" d="M506.986,0c9.734,0,14.738,5.824,14.738,16.014v2.002h-9.463v-2.639c0-4.549-1.818-6.277-5.004-6.277
		c-3.188,0-5.006,1.729-5.006,6.277c0,13.103,19.562,15.56,19.562,33.757c0,10.19-5.098,16.015-14.924,16.015
		c-9.824,0-14.922-5.824-14.922-16.015v-3.913h9.463v4.551c0,4.549,2.002,6.187,5.188,6.187c3.188,0,5.188-1.638,5.188-6.187
		c0-13.104-19.562-15.56-19.562-33.758C492.246,5.824,497.25,0,506.986,0z"/>
</g>
<g>
	<polygon fill="#FFFFFF" points="259.199,213.956 261.998,216.571 259.199,219.14 259.199,239.282 274.386,239.282 274.386,219.14 
		271.587,216.571 274.386,213.956 274.386,193.814 259.199,193.814 	"/>
	<polygon fill="#FFFFFF" points="143.493,137.268 140.694,134.699 143.493,132.084 143.493,111.942 128.765,111.942 
		128.765,132.084 131.518,134.699 128.765,137.268 128.765,157.41 143.493,157.41 	"/>
	<polygon fill="#FFFFFF" points="342.545,213.957 345.298,216.572 342.545,219.141 342.545,239.283 357.274,239.283 
		357.274,219.141 354.472,216.572 357.274,213.957 357.274,193.815 342.545,193.815 	"/>
	<polygon fill="#FFFFFF" points="178.401,141.351 187.025,141.351 182.713,119.787 	"/>
	<path fill="#FFFFFF" d="M0,82.359v81.873v22.759v81.873h413.891v-81.873h185.301V82.359H0z M331.76,132.083V98.636h13.354v33.446
		l2.753,2.615l-2.753,2.569l-0.003,33.448H331.76v-33.447l-2.799-2.569L331.76,132.083z M278.35,98.636l5.46,36.842l7.295-36.842
		h11.011l7.249,36.888l5.46-36.888h13.67l-12.066,72.078h-13.581l-6.236-31.153l-6.287,31.153h-13.58l-12.021-72.078H278.35z
		 M209.136,132.083V98.636h13.351v33.446l2.799,2.615l-2.799,2.569v20.142h19.637l-0.001,13.306h-32.987v-33.447l-2.753-2.569
		L209.136,132.083z M115.415,132.082V98.636h32.758l8.626,7.616v25.83l2.799,2.615l-2.799,2.569v25.877l-8.626,7.57h-32.758v-33.447
		l-2.753-2.569L115.415,132.082z M76.824,132.083V98.636h34.457v13.305H90.13V128h18.214v13.352H90.13v16.058h21.427v13.304H76.824
		v-33.447l-2.799-2.569L76.824,132.083z M21.1,132.083V98.636h13.307l11.561,24.775l11.607-24.775h13.351v33.446l2.753,2.615
		l-2.753,2.569v33.448H57.575V130.11l-11.608,24.775L34.406,130.11v40.604H21.1v-33.447l-2.798-2.569L21.1,132.083z M34.452,219.139
		l-0.001,33.448H21.1V219.14l-2.798-2.569l2.798-2.615v-33.447h13.352v33.446l2.753,2.615L34.452,219.139z M82.477,252.586
		l-14.315,0.001l-14.543-37.76v37.76h-13.26V219.14l-2.799-2.569l2.799-2.615v-33.447h14.269l14.59,37.806v-37.806h13.214v33.446
		l2.799,2.615l-2.799,2.569v33.355L82.477,252.586z M111.595,219.14v33.447H98.244V219.14l-2.799-2.569l2.799-2.615v-20.142H85.029
		v-13.305h39.778l0.001,13.305h-13.213v20.142l2.753,2.615L111.595,219.14z M169.278,219.14v25.922l-8.58,7.524h-24.775
		l-8.487-7.524V219.14l-2.799-2.569l2.799-2.615V188.08l8.487-7.57h24.775l8.58,7.57v25.876l2.752,2.615L169.278,219.14z
		 M189.686,154.655h-13.947l-3.212,16.059h-13.58l14.406-72.078h18.719l14.406,72.078h-13.58L189.686,154.655z M240.176,219.139
		v25.923l-8.626,7.524h-23.949l-8.487-7.524V219.14l-2.753-2.569l2.753-2.615V188.08l8.625-7.57h23.812l8.626,7.57v11.286H226.87
		v-5.552h-14.406v20.142l2.799,2.615l-2.799,2.569v20.142h14.406v-16.058h-9.084v-13.352h22.39v4.083l2.799,2.615L240.176,219.139z
		 M287.737,219.14v25.922l-8.58,7.524h-24.775l-8.487-7.524V219.14l-2.799-2.569l2.799-2.615V188.08l8.487-7.57h24.775l8.58,7.57
		v25.876l2.752,2.615L287.737,219.14z M326.577,252.587H293.59V219.14l-2.753-2.569l2.753-2.615v-33.447h13.354v33.446l2.799,2.615
		l-2.799,2.569v20.142h19.637L326.577,252.587z M370.58,219.139v25.877l-8.626,7.57h-32.758V219.14l-2.753-2.569l2.753-2.615V180.51
		l32.758-0.001l8.626,7.616v25.83l2.799,2.615L370.58,219.139z M388.663,252.648h-13.305v-13.306h13.305V252.648z M393.797,170.712
		l-14.318,0.002l-14.544-37.76v37.76h-13.259v-33.447l-2.799-2.569l2.799-2.615V98.636h14.271l14.59,37.806V98.636h13.214v33.446
		l2.798,2.615l-2.798,2.569v33.354L393.797,170.712z M442.468,170.712l-14.314,0.002l-14.544-37.76v37.76h-13.263v-33.447
		l-2.799-2.569l2.799-2.615V98.636h14.271l14.59,37.806V98.636h13.214v33.446l2.798,2.615l-2.798,2.569v33.354L442.468,170.712z
		 M483.756,170.714h-34.729v-33.447l-2.803-2.569l2.803-2.615V98.636h34.456v13.305H462.33V128h18.215v13.352H462.33v16.058h21.427
		L483.756,170.714z M516.901,170.714l-11.332-29.363h-3.946v29.363h-13.352v-33.448l-2.756-2.568l2.756-2.614V98.636h31.979
		l8.487,7.57v26.473l-9.084,8.488l11.517,29.547H516.901z M566.278,170.713H543.29l-8.579-7.524v-11.607h13.305v5.826h13.443V141.35
		H543.29l-8.579-7.57v-27.574l8.579-7.57h22.986l8.483,7.524v11.194h-13.305v-5.414h-13.443V128h18.265l8.483,7.57l0.002,27.619
		L566.278,170.713z"/>
	<polygon fill="#FFFFFF" points="140.74,213.956 143.539,216.571 140.74,219.14 140.74,239.282 155.927,239.282 155.927,219.14 
		153.128,216.571 155.927,213.956 155.927,193.814 140.74,193.814 	"/>
	<rect x="501.623" y="111.896" fill="#FFFFFF" width="13.811" height="16.104"/>
</g>
</svg>
