<?xml version="1.0" encoding="utf-8"?>
<!-- Generator: Adobe Illustrator 15.1.0, SVG Export Plug-In . SVG Version: 6.00 Build 0)  -->
<!DOCTYPE svg PUBLIC "-//W3C//DTD SVG 1.1//EN" "http://www.w3.org/Graphics/SVG/1.1/DTD/svg11.dtd">
<svg version="1.1" id="Layer_1" xmlns="http://www.w3.org/2000/svg" xmlns:xlink="http://www.w3.org/1999/xlink" x="0px" y="0px"
	 width="50px" height="50px" viewBox="0 0 50 50" enable-background="new 0 0 50 50" xml:space="preserve">
<g>
	<path fill="#FFFFFF" d="M27.375,21.156v-0.051c-0.01,0.017-0.025,0.034-0.033,0.051H27.375z"/>
	<path fill="#FFFFFF" d="M24.921,0C11.167,0,0,11.166,0,24.921c0,13.771,11.167,24.937,24.921,24.937
		c13.771,0,24.937-11.166,24.937-24.937C49.857,11.15,38.689,0,24.921,0z M19.347,34.449h-5.168V18.902h5.168V34.449z M16.763,16.78
		h-0.034c-1.733,0-2.857-1.194-2.857-2.687c0-1.525,1.156-2.686,2.925-2.686s2.856,1.161,2.89,2.686
		C19.687,15.586,18.566,16.78,16.763,16.78z M37.986,34.449h-5.17v-8.318c0-2.088-0.746-3.515-2.617-3.515
		c-1.43,0-2.279,0.961-2.652,1.89c-0.137,0.332-0.172,0.795-0.172,1.26v8.684h-5.17c0,0,0.069-14.088,0-15.547h5.17v2.203
		c0.688-1.057,1.912-2.568,4.658-2.568c3.402,0,5.953,2.222,5.953,6.996V34.449z"/>
</g>
</svg>
