<?xml version="1.0" encoding="utf-8"?>
<!-- Generator: Adobe Illustrator 15.1.0, SVG Export Plug-In . SVG Version: 6.00 Build 0)  -->
<!DOCTYPE svg PUBLIC "-//W3C//DTD SVG 1.1//EN" "http://www.w3.org/Graphics/SVG/1.1/DTD/svg11.dtd">
<svg version="1.1" id="Layer_1" xmlns="http://www.w3.org/2000/svg" xmlns:xlink="http://www.w3.org/1999/xlink" x="0px" y="0px"
	 width="200px" height="75px" viewBox="0 0 200 75" enable-background="new 0 0 200 75" xml:space="preserve">
<g>
	<g>
		<g>
			<path fill="#231F20" d="M37.955,46.473h-4.979V34.91h-0.047c-1.273,4.316-2.595,7.951-3.917,11.562h-3.137
				c-1.345-3.611-2.689-7.244-3.986-11.562h-0.048v11.562h-3.917V29.956h6.748c1.133,3.161,2.264,6.298,3.374,10.168h0.048
				c1.061-3.87,2.17-7.007,3.254-10.168h6.606L37.955,46.473L37.955,46.473z"/>
			<path fill="#231F20" d="M50.903,29.956l6.275,16.517h-5.284l-1.298-3.941h-5.12l-1.58,3.941h-3.894l6.725-16.517H50.903z
				 M49.793,39.912c-0.543-1.958-1.014-3.539-1.604-5.899h-0.048c-0.636,2.36-1.203,3.941-1.816,5.899H49.793z"/>
			<path fill="#231F20" d="M73.926,46.473h-3.328c-2.477-2.998-5.826-6.938-7.407-9.676h-0.048v9.676h-3.916V29.956h3.61
				c2.383,2.925,5.945,7.219,7.124,9.461h0.048v-9.461h3.917V46.473z"/>
			<path fill="#231F20" d="M90.767,46.021c-0.921,0.354-2.478,0.731-3.987,0.731c-5.496,0-10.003-3.303-10.003-8.706
				c0-5.001,4.104-8.375,9.721-8.375c1.084,0,3.043,0.307,4.222,0.826l-1.227,2.925c-0.802-0.236-2.264-0.307-2.736-0.307
				c-2.382,0-4.789,1.533-4.789,5.12c0,3.515,2.43,5.07,5.024,5.07c1.062,0,2.054-0.188,2.808-0.377L90.767,46.021z"/>
			<path fill="#231F20" d="M108.482,46.473h-4.979v-7.574h-5.096v7.574H93.43V29.956h4.979v5.852h5.096v-5.733h4.978V46.473
				L108.482,46.473z"/>
			<path fill="#231F20" d="M121.809,33.047h-5.05v3.255h4.931v3.091h-4.931v3.987h6.063v3.093h-11.043V29.956h10.027v3.091H121.809z
				"/>
			<path fill="#231F20" d="M134.451,33.377c-0.66-0.401-1.51-0.614-2.43-0.614c-0.967,0-1.463,0.472-1.463,1.015
				c0,0.921,1.392,1.676,2.996,3.162c2.122,1.981,2.643,3.231,2.643,4.955c0,1.461-1.202,4.859-6.158,4.859
				c-1.934,0-3.869-0.447-5.189-1.51l1.51-2.737c0.707,0.542,1.652,1.156,2.832,1.156c0.99,0,2.076-0.496,2.076-1.724
				c0-1.32-1.604-2.287-2.901-3.42c-1.724-1.512-2.737-2.384-2.737-4.412c0-2.643,2.666-4.436,5.779-4.436
				c2.101,0,3.753,0.755,4.318,1.109L134.451,33.377z"/>
			<path fill="#231F20" d="M142.518,46.473V33.047h-4.767v-3.091h14.51v3.091h-4.767v13.426H142.518z"/>
			<path fill="#231F20" d="M164.361,33.047h-5.049v3.255h4.931v3.091h-4.931v3.987h6.062v3.093h-11.041V29.956h10.026v3.091H164.361
				z"/>
			<path fill="#231F20" d="M167.922,29.956h7.357c3.896,0,5.994,1.698,5.994,4.411c0,2.524-1.25,4.011-2.783,4.766l3.654,7.078
				l-5.33,0.543l-2.619-6.535h-1.297v6.254h-4.978L167.922,29.956L167.922,29.956z M172.898,37.104h1.416
				c1.32,0,1.981-1.132,1.981-2.027c0-1.629-1.017-2.029-2.075-2.029h-1.322V37.104z"/>
			<path fill="#231F20" d="M22.833,52.549v8.637c0,2.972,0.447,4.717,2.548,4.717c1.651,0,2.596-1.65,2.596-4.787V52.55h4.292v9.979
				c0,4.931-3.349,6.818-7.124,6.818c-4.223,0-7.29-1.771-7.29-6.699v-10.1H22.833z"/>
			<path fill="#231F20" d="M50.125,69.062h-3.327c-2.477-2.996-5.827-6.936-7.408-9.672h-0.047v9.672h-3.916V52.549h3.609
				c2.383,2.926,5.945,7.219,7.125,9.461h0.047v-9.461h3.917V69.062z"/>
			<path fill="#231F20" d="M53.424,69.062V52.549h4.979v16.516h-4.979V69.062z"/>
			<path fill="#231F20" d="M65.243,69.062V55.641h-4.766v-3.092h14.51v3.092H70.22v13.424h-4.977V69.062z"/>
			<path fill="#231F20" d="M87.086,55.641h-5.049v3.256h4.931v3.09h-4.931v3.986H88.1v3.092H77.059V52.549h10.027V55.641z"/>
			<path fill="#231F20" d="M97.064,52.549c6.604,0,9.154,3.799,9.154,7.786c0,6.04-4.389,8.729-9.343,8.729h-6.229V52.549H97.064z
				 M95.625,65.973h1.274c2.854,0,4.199-2.289,4.199-5.613c0-2.996-1.864-4.719-4.034-4.719h-1.439V65.973z"/>
		</g>
	</g>
</g>
</svg>
