<?xml version="1.0" encoding="utf-8"?>
<!-- Generator: Adobe Illustrator 15.1.0, SVG Export Plug-In . SVG Version: 6.00 Build 0)  -->
<!DOCTYPE svg PUBLIC "-//W3C//DTD SVG 1.1//EN" "http://www.w3.org/Graphics/SVG/1.1/DTD/svg11.dtd">
<svg version="1.1" id="Layer_1" xmlns="http://www.w3.org/2000/svg" xmlns:xlink="http://www.w3.org/1999/xlink" x="0px" y="0px"
	 width="806px" height="677.865px" viewBox="0 0 806 677.865" enable-background="new 0 0 806 677.865" xml:space="preserve">
<g>
	<path fill="#FFFFFF" d="M10.008,64.42H0V0.729h10.009v27.296h11.373V0.729h10.191V64.42H21.381V37.123H10.008V64.42z"/>
	<path fill="#FFFFFF" d="M35.877,16.014C35.877,5.825,41.245,0,51.072,0c9.827,0,15.195,5.824,15.195,16.014v33.12
		c0,10.19-5.368,16.015-15.195,16.015c-9.827,0-15.195-5.824-15.195-16.015V16.014z M45.885,49.772c0,4.549,2.002,6.277,5.187,6.277
		c3.185,0,5.187-1.729,5.187-6.277V15.377c0-4.549-2.002-6.277-5.187-6.277c-3.185,0-5.187,1.729-5.187,6.277V49.772z"/>
	<path fill="#FFFFFF" d="M93.136,30.482l-3.64,33.938H75.757L68.661,0.729h9.735l5.368,50.225l4.822-50.225h9.645l5.005,50.589
		l5.187-50.589h8.734L110.06,64.42H96.776L93.136,30.482z"/>
	<path fill="#FFFFFF" d="M157.558,30.482l-3.64,33.938h-13.739l-7.097-63.691h9.735l5.368,50.225l4.822-50.225h9.645l5.005,50.589
		l5.187-50.589h8.734l-7.097,63.691h-13.284L157.558,30.482z"/>
	<path fill="#FFFFFF" d="M195.101,27.57h13.739v9.098h-13.739v18.653h17.287v9.099h-27.296V0.729h27.296v9.098h-17.287V27.57z"/>
	<path fill="#FFFFFF" d="M241.779,64.42H231.77V0.729h10.009v27.296h11.373V0.729h10.191V64.42h-10.191V37.123h-11.373V64.42
		L241.779,64.42z"/>
	<path fill="#FFFFFF" d="M278.157,27.57h13.739v9.098h-13.739v18.653h17.287v9.099h-27.296V0.729h27.296v9.098h-17.287V27.57z"/>
	<path fill="#FFFFFF" d="M299.44,0.729h10.009v54.593h16.469v9.099H299.44V0.729z"/>
	<path fill="#FFFFFF" d="M358.756,16.469v8.28c0,10.19-4.913,15.741-14.924,15.741h-4.729v23.93h-10.009V0.729h14.738
		C353.842,0.729,358.756,6.278,358.756,16.469z M339.102,9.827v21.562h4.729c3.187,0,4.913-1.455,4.913-6.004V15.83
		c0-4.549-1.729-6.005-4.913-6.005h-4.729V9.827z"/>
</g>
<g>
	<rect x="446.58" y="114.772" fill="#FFFFFF" width="13.811" height="16.104"/>
	<polygon fill="#FFFFFF" points="91.318,144.228 99.942,144.228 95.63,122.664 	"/>
	<polygon fill="#FFFFFF" points="86.398,219.666 89.197,217.051 89.197,196.909 74.011,196.909 74.011,217.051 76.81,219.666 
		74.011,222.235 74.011,242.377 89.198,242.377 89.198,222.235 89.197,222.235 	"/>
	<polygon fill="#FFFFFF" points="713.833,134.96 716.586,137.575 713.833,140.144 713.833,160.286 728.562,160.286 728.562,140.144 
		725.761,137.575 728.562,134.96 728.562,114.818 713.833,114.818 	"/>
	<path fill="#FFFFFF" d="M0,85.235v82.093v22.539v82.093h554.891v-82.093H764.5V85.235H0z M433.226,101.512h31.979l8.487,7.57
		v26.473l-9.084,8.488l11.519,29.547h-14.269l-11.332-29.363h-3.946v29.363h-13.354v-33.449l-2.75-2.566l2.75-2.612V101.512z
		 M393.512,134.959v-33.447h34.456v13.305H406.82v16.059h18.215v13.352H406.82v16.058h21.427l-0.004,13.304h-34.731v-33.447
		l-2.799-2.569L393.512,134.959z M349.976,101.512h39.777l0.004,13.305h-13.213v20.142l2.753,2.615l-2.753,2.569v33.447h-13.352
		v-33.447l-2.803-2.569l2.803-2.615v-20.142h-13.217V101.512z M218.025,134.959v-33.447h13.305v29.363h15.095v-29.363h13.306v33.446
		l2.799,2.615l-2.799,2.569v33.448h-13.306v-29.363H231.33v29.363h-13.305v-33.447l-2.799-2.569L218.025,134.959z M18.3,134.959
		v-33.447h13.307l11.561,24.775l11.608-24.775h13.351v33.446l2.753,2.615l-2.753,2.569l-0.001,33.448H54.775v-40.604l-11.608,24.775
		l-11.561-24.775v40.604H18.3v-33.447l-2.798-2.569L18.3,134.959z M44.865,222.236v33.447h-13.35v-33.447l-2.799-2.569l2.799-2.615
		V196.91H18.3v-13.305h39.779v13.305H44.865v20.142l2.753,2.615L44.865,222.236z M102.548,248.158l-8.579,7.524H69.193l-8.487-7.524
		v-25.923l-2.799-2.569l2.799-2.615v-25.876l8.487-7.57h24.775l8.579,7.57v25.876l2.753,2.615l-2.753,2.569L102.548,248.158z
		 M105.815,173.59l-3.213-16.059H88.655l-3.211,16.059H71.863l14.407-72.078h18.719l14.406,72.078H105.815z M120.37,137.574
		l2.799-2.615v-33.447h14.269l14.59,37.806v-37.806h13.214v33.446l2.798,2.615l-2.798,2.569v33.354l0.046,0.092l-14.316,0.002
		l-14.544-37.76v37.76h-13.259v-33.447L120.37,137.574z M172.482,202.323h-13.305v-5.414h-13.443v16.059h18.261l8.487,7.57v27.62
		l-8.487,7.524h-22.986l-8.579-7.524v-11.607h13.305v5.826h13.443v-16.058h-18.169l-8.579-7.57v-27.574l8.579-7.57h22.986
		l8.487,7.524V202.323z M212.304,255.683h-34.731v-33.447l-2.799-2.569l2.799-2.615v-33.447h34.456v13.305h-21.151v16.059h18.215
		v13.352h-18.215v16.058h21.427L212.304,255.683z M212.993,120.232h-13.306v-5.414h-14.314v20.142l2.799,2.615l-2.799,2.569v20.142
		h14.314v-5.826h13.306v11.606l-8.717,7.524h-23.721l-8.487-7.524v-25.923l-2.799-2.569l2.799-2.615v-25.876l8.487-7.57h23.721
		l8.717,7.616V120.232z M249.149,255.683h-32.987v-33.447l-2.753-2.569l2.753-2.615v-33.447h13.351v33.446l2.799,2.615l-2.799,2.569
		v20.142h19.637L249.149,255.683z M284.756,255.683h-32.987v-33.447l-2.753-2.569l2.753-2.615v-33.447h13.351v33.446l2.799,2.615
		l-2.799,2.569v20.142h19.637L284.756,255.683z M301.524,173.59h-34.731v-33.447l-2.799-2.569l2.799-2.615v-33.447h34.456v13.305
		h-21.151v16.059h18.211v13.352h-18.211v16.058h21.427L301.524,173.59z M306.171,154.459h13.305v5.826h13.443v-16.058H314.75
		l-8.579-7.57v-27.574l8.579-7.57h22.986l8.483,7.524v11.194h-13.305v-5.414h-13.443v16.059h18.265l8.483,7.57l0.004,27.62
		l-8.483,7.524h-22.99l-8.579-7.524V154.459z M328.035,222.235v33.448h-13.354v-33.447l-2.799-2.569l2.799-2.615v-33.447h13.354
		v33.446l2.753,2.615L328.035,222.235z M359.972,219.667l-2.753,2.569v33.447h-13.352v-33.447l-2.799-2.569l2.799-2.615V196.91
		h-13.213v-13.305h39.773l0.004,13.305h-13.213v20.142L359.972,219.667z M413.112,202.323h-13.309v-5.414h-13.439v16.059h18.261
		l8.487,7.57v27.62l-8.487,7.524h-22.986l-8.579-7.524v-11.607h13.309v5.826h13.439v-16.058h-18.169l-8.579-7.57v-27.574l8.579-7.57
		h22.986l8.487,7.524V202.323z M452.934,255.683h-34.729v-33.447l-2.799-2.569l2.799-2.615v-33.447h34.456v13.305H431.51v16.059
		h18.215v13.352H431.51v16.058h21.428L452.934,255.683z M489.779,255.683h-32.987v-33.447l-2.753-2.569l2.753-2.615v-33.447h13.351
		v33.446l2.803,2.615l-2.803,2.569v20.142h19.641L489.779,255.683z M505.75,255.683h-13.351v-33.447l-2.757-2.569l2.757-2.615
		v-33.448h34.452l0.002,13.305H505.75v16.059h18.169v13.352H505.75V255.683z M535.25,255.648h-13.305v-13.306h13.305V255.648z
		 M549.835,140.143l-0.003,25.878l-8.718,7.57h-24.271l-8.533-7.524v-25.923l-2.799-2.569l2.799-2.615v-33.447h13.309v33.446
		l2.799,2.615l-2.799,2.569v20.142h14.911v-20.142l-2.803-2.569l2.803-2.615v-33.446h13.306v33.446l2.753,2.615L549.835,140.143z
		 M597.625,173.588l-14.318,0.002l-14.544-37.76v37.76h-13.259v-33.447l-2.799-2.569l2.799-2.615v-33.447h14.271l14.59,37.806
		v-37.806h13.214v33.446l2.798,2.615l-2.798,2.569v33.354L597.625,173.588z M616.874,140.142l-0.004,33.448H603.52v-33.447
		l-2.799-2.569l2.799-2.615v-33.447h13.354v33.446l2.753,2.615L616.874,140.142z M646.055,140.143v33.447h-13.352v-33.447
		l-2.799-2.569l2.799-2.615v-20.142H619.49v-13.305h39.773l0.004,13.305h-13.213v20.142l2.753,2.615L646.055,140.143z
		 M696.627,173.59h-34.729v-33.447l-2.803-2.569l2.803-2.615v-33.447h34.452v13.305H675.2v16.059h18.215v13.352H675.2v16.058h21.427
		V173.59z M741.869,140.143v25.877l-8.626,7.57h-32.758v-33.447l-2.753-2.569l2.753-2.615v-33.446h32.758l8.626,7.616v25.83
		l2.799,2.615L741.869,140.143z"/>
</g>
</svg>
