<?xml version="1.0" encoding="utf-8"?>
<!-- Generator: Adobe Illustrator 15.1.0, SVG Export Plug-In . SVG Version: 6.00 Build 0)  -->
<!DOCTYPE svg PUBLIC "-//W3C//DTD SVG 1.1//EN" "http://www.w3.org/Graphics/SVG/1.1/DTD/svg11.dtd">
<svg version="1.1" id="Layer_1" xmlns="http://www.w3.org/2000/svg" xmlns:xlink="http://www.w3.org/1999/xlink" x="0px" y="0px"
	 width="806px" height="677.865px" viewBox="0 0 806 677.865" enable-background="new 0 0 806 677.865" xml:space="preserve">
<path fill="#FFFFFF" d="M5.128,9.535v26.272H0V-0.465h7.149l5.855,21.711V-0.465h5.079v36.272h-5.855L5.128,9.535z"/>
<path fill="#FFFFFF" d="M28.396,14.821h7.825v5.182h-7.825v10.622h9.845v5.182H22.696V-0.465H38.24v5.182h-9.845L28.396,14.821
	L28.396,14.821z"/>
<path fill="#FFFFFF" d="M54.927,16.479l-2.073,19.329H45.03L40.988-0.465h5.546l3.057,28.603l2.746-28.603h5.492l2.851,28.81
	l2.953-28.81h4.975l-4.042,36.272H57L54.927,16.479z"/>
<path fill="#FFFFFF" d="M93.17,16.479l-2.073,19.329h-7.825L79.231-0.465h5.546l3.056,28.603L90.58-0.465h5.492l2.851,28.81
	l2.953-28.81h4.975l-4.042,36.272h-7.565L93.17,16.479z"/>
<path fill="#FFFFFF" d="M115.92,35.807h-5.701V-0.465h5.701V15.08h6.478V-0.465h5.804v36.272h-5.804V20.261h-6.478V35.807z"/>
<path fill="#FFFFFF" d="M132.864-0.465h5.699v36.272h-5.699V-0.465z"/>
<path fill="#FFFFFF" d="M141.57-0.465h17.618v5.182h-5.96v31.09h-5.699V4.716h-5.959V-0.465z"/>
<path fill="#FFFFFF" d="M167.893,14.821h7.825v5.182h-7.825v10.622h9.846v5.182h-15.545V-0.465h15.545v5.182h-9.846V14.821z"/>
<path fill="#FFFFFF" d="M207.225,8.499v4.715c0,5.804-2.798,8.964-8.499,8.964h-2.694v13.627h-5.701V-0.465h8.394
	C204.426-0.465,207.225,2.695,207.225,8.499z M196.032,4.716v12.28h2.694c1.813,0,2.798-0.829,2.798-3.42v-5.44
	c0-2.591-0.985-3.42-2.798-3.42H196.032z"/>
<path fill="#FFFFFF" d="M228.833,35.807h-5.751l-0.985-6.582h-6.996l-0.984,6.582h-5.233l5.803-36.272h8.342L228.833,35.807z
	 M215.827,24.303h5.493l-2.746-18.344L215.827,24.303z"/>
<path fill="#FFFFFF" d="M248.887,8.499v4.715c0,5.804-2.798,8.964-8.497,8.964h-2.694v13.627h-5.7V-0.465h8.395
	C246.09-0.465,248.887,2.695,248.887,8.499z M237.695,4.716v12.28h2.694c1.813,0,2.799-0.829,2.799-3.42v-5.44
	c0-2.591-0.985-3.42-2.799-3.42H237.695z"/>
<path fill="#FFFFFF" d="M257.75,14.821h7.824v5.182h-7.824v10.622h9.845v5.182H252.05V-0.465h15.544v5.182h-9.845V14.821z"/>
<path fill="#FFFFFF" d="M283.557,35.807c-0.312-0.933-0.52-1.503-0.52-4.457v-5.698c0-3.369-1.139-4.613-3.73-4.613h-1.969v14.768
	h-5.699V-0.465h8.602c5.907,0,8.446,2.746,8.446,8.341v2.851c0,3.73-1.191,6.166-3.731,7.357c2.851,1.192,3.783,3.938,3.783,7.721
	v5.597c0,1.763,0.052,3.058,0.62,4.405H283.557z M277.337,4.716v11.14h2.229c2.124,0,3.42-0.933,3.42-3.835V8.447
	c0-2.59-0.881-3.731-2.903-3.731L277.337,4.716L277.337,4.716z"/>
<path fill="#FFFFFF" d="M319.984,35.807h-5.751l-0.985-6.582h-6.994l-0.985,6.582h-5.234l5.805-36.272h8.342L319.984,35.807z
	 M306.979,24.303h5.493l-2.747-18.344L306.979,24.303z"/>
<path fill="#FFFFFF" d="M331.749,29.123l4.352-29.587h5.234l-5.598,36.272h-8.497l-5.596-36.273h5.751L331.749,29.123z"/>
<path fill="#FFFFFF" d="M362.944,35.807h-5.751l-0.983-6.582h-6.997l-0.984,6.582h-5.233l5.803-36.272h8.343L362.944,35.807z
	 M349.937,24.303h5.493l-2.747-18.344L349.937,24.303z"/>
<path fill="#FFFFFF" d="M366.105-0.465h5.701v36.272h-5.701V-0.465z"/>
<path fill="#FFFFFF" d="M376.468-0.465h5.699v31.09h9.381v5.182h-15.08V-0.465z"/>
<path fill="#FFFFFF" d="M413.002,35.807h-5.753l-0.984-6.582h-6.995l-0.983,6.582h-5.233l5.803-36.272h8.342L413.002,35.807z
	 M399.995,24.303h5.493L402.74,5.959L399.995,24.303z"/>
<path fill="#FFFFFF" d="M433.21,7.877v1.295c0,3.732-1.14,6.113-3.678,7.305c3.057,1.192,4.249,3.938,4.249,7.773v2.953
	c0,5.597-2.953,8.603-8.652,8.603h-8.964V-0.465h8.602C430.67-0.465,433.21,2.28,433.21,7.877z M421.862,4.716v9.585h2.229
	c2.126,0,3.42-0.933,3.42-3.834V8.447c0-2.59-0.88-3.731-2.902-3.731L421.862,4.716L421.862,4.716z M421.862,19.483v11.141h3.265
	c1.917,0,2.952-0.881,2.952-3.576v-3.161c0-3.369-1.089-4.404-3.679-4.404L421.862,19.483L421.862,19.483z"/>
<path fill="#FFFFFF" d="M437.72-0.465h5.7v31.09h9.38v5.182h-15.08V-0.465z"/>
<path fill="#FFFFFF" d="M461.505,14.821h7.824v5.182h-7.824v10.622h9.844v5.182h-15.545V-0.465h15.545v5.182h-9.844V14.821
	L461.505,14.821z"/>
<path fill="#FFFFFF" d="M476.118,27.775l-0.725-13.109v-15.13h5.698v15.13l-0.723,13.109H476.118z M480.989,30.314v5.492h-5.492
	v-5.492H480.989z"/>
<g>
	<polygon fill="#FFFFFF" points="437.079,121.219 446.088,121.219 441.583,98.7 	"/>
	<polygon fill="#FFFFFF" points="291.793,218.178 300.802,218.178 296.298,195.66 	"/>
	<path fill="#FFFFFF" d="M0,58.045v95.372v19.991v95.372h530.329v-95.372h133.966V58.045H0z M389.224,76.611
		c1.949,8.817,3.522,15.932,4.719,21.345c1.198,5.416,2.851,12.77,4.959,22.065c2.076-9.296,3.713-16.658,4.911-22.09
		c1.197-5.43,2.787-12.537,4.767-21.321h14.232l-16.771,75.273h-14.277l-16.817-75.273L389.224,76.611L389.224,76.611z
		 M353.362,111.542v-34.93h13.942v34.93l2.874,2.731l-2.874,2.684v34.929h-13.942v-34.929l-2.923-2.684L353.362,111.542z
		 M306.094,76.611h41.541v13.896h-13.799v21.035l2.873,2.731l-2.873,2.684v34.929h-13.944v-34.929l-2.922-2.684l2.922-2.731V90.507
		h-13.798V76.611z M257.628,111.542V84.518l8.864-7.906h24.771l9.104,7.955v11.596h-13.895v-5.653h-14.95v21.035l2.923,2.731
		l-2.923,2.684v21.034h14.95v-6.085h13.895v12.123l-9.104,7.858h-24.771l-8.865-7.858v-27.071l-2.922-2.683L257.628,111.542z
		 M88.008,111.542v-34.93h13.895v30.665h15.764V76.611h13.895v34.93l2.923,2.731l-2.923,2.684v34.929h-13.895V121.22h-15.764v30.665
		H88.008v-34.929l-2.924-2.684L88.008,111.542z M30.519,103.407H20.116v-9.323l4.711-10.892h4.416l-2.846,9.812h4.122V103.407
		L30.519,103.407z M38.777,76.611h41.542v13.896H66.521v21.035l2.874,2.731l-2.874,2.684v34.929H52.577v-34.929l-2.923-2.684
		l2.923-2.731V90.507h-13.8V76.611z M64.034,213.914v34.929H50.091v-34.929l-2.923-2.684l2.923-2.731v-34.929h13.943v34.929
		l2.875,2.731L64.034,213.914z M123.71,213.914v34.929h-13.943v-42.404l-12.123,25.874l-12.075-25.875v42.403H71.673v-34.928
		l-2.922-2.685l2.922-2.731v-34.928h13.896l12.075,25.874l12.123-25.874h13.943v34.928l2.875,2.731L123.71,213.914z
		 M173.276,215.304l-9.009,8.002h-19.021v25.538H131.35v-34.929l-2.922-2.684l2.922-2.731v-34.93h32.917l9.009,7.954V215.304z
		 M175.521,151.884H139.25v-34.929l-2.922-2.684l2.922-2.731v-34.93h35.984v13.896h-22.088v16.77h19.021v13.942h-19.021v16.771
		h22.375V151.884z M217.236,248.844h-36.271v-34.929l-2.922-2.684l2.922-2.731v-34.93h35.984v13.896h-22.09v16.77h19.022v13.943
		h-19.022v16.771h22.375v13.894H217.236z M218.407,151.884h-14.182l15.045-75.273h19.549l15.045,75.273h-14.183l-3.354-16.77
		h-14.566L218.407,151.884z M254.775,248.844l-11.835-30.665h-4.121v30.665h-13.943v-34.929l-2.875-2.684l2.875-2.731v-34.93h33.397
		l8.864,7.905v27.647l-9.487,8.865l12.027,30.856L254.775,248.844L254.775,248.844z M306.935,248.844l-3.354-16.771h-14.565
		l-3.354,16.771h-14.182l15.046-75.274h19.548l15.045,75.274H306.935z M360.537,187.464h-13.8v21.035l2.873,2.731l-2.873,2.684
		v34.929h-13.944v-34.929l-2.924-2.684l2.924-2.731v-21.035h-13.8v-13.895h41.541v13.895H360.537z M380.204,213.914v34.929h-13.941
		v-34.929l-2.923-2.684l2.923-2.731v-34.929h13.941v34.929l2.876,2.731L380.204,213.914z M416.98,248.844h-14.277l-16.817-75.274
		h14.278c1.947,8.817,3.521,15.932,4.718,21.346c1.198,5.414,2.852,12.77,4.96,22.065c2.075-9.297,3.713-16.658,4.91-22.09
		c1.198-5.43,2.788-12.537,4.768-21.321h14.232L416.98,248.844z M430.947,151.884h-14.183l15.044-75.273h19.55l15.045,75.273
		h-14.182l-3.355-16.77h-14.564L430.947,151.884z M475.748,248.844h-36.271v-34.929l-2.923-2.684l2.923-2.731v-34.93h35.984v13.896
		h-22.089v16.77h19.022v13.943h-19.022v16.771h22.376L475.748,248.844L475.748,248.844z M494.411,189.473l-4.709,10.892h-4.417
		l2.845-9.813h-4.12v-10.402h10.402L494.411,189.473L494.411,189.473z M505.82,90.507h-13.8v21.035l2.875,2.731l-2.875,2.684v34.929
		h-13.942v-34.929l-2.923-2.684l2.923-2.731V90.507h-13.8V76.611h41.541L505.82,90.507L505.82,90.507z M527.454,116.957v34.929
		h-13.942v-34.929l-2.922-2.684l2.922-2.731v-34.93h13.942v34.93l2.873,2.731L527.454,116.957z M578.793,116.957v27.071l-8.96,7.858
		H543.96l-8.865-7.858v-27.071l-2.922-2.684l2.922-2.731V84.518l8.865-7.906h25.873l8.96,7.906v27.024l2.873,2.731L578.793,116.957z
		 M630.419,151.884h-14.951l-15.188-39.432v39.432h-13.849v-34.929l-2.921-2.684l2.921-2.731v-34.93h14.902l15.235,39.482V76.611
		h13.801v34.93l2.921,2.731l-2.921,2.684v34.833L630.419,151.884z"/>
	<rect x="238.821" y="187.417" fill="#FFFFFF" width="14.423" height="16.817"/>
	<polygon fill="#FFFFFF" points="224.54,121.219 233.549,121.219 229.044,98.7 	"/>
	<polygon fill="#FFFFFF" points="548.99,111.542 551.913,114.272 548.99,116.957 548.99,137.989 564.85,137.989 564.85,116.957 
		561.926,114.272 564.85,111.542 564.85,90.507 548.99,90.507 	"/>
	<rect x="145.246" y="187.464" fill="#FFFFFF" width="14.136" height="21.945"/>
</g>
<path fill="#FFFFFF" d="M20.52,328.604h-5.751l-0.984-6.582H6.789l-0.985,6.582H0.571l5.804-36.272h8.341L20.52,328.604z
	 M7.513,317.102h5.493l-2.746-18.344L7.513,317.102z"/>
<path fill="#FFFFFF" d="M28.76,302.332v26.272h-5.129v-36.272h7.149l5.855,21.711v-21.711h5.078v36.272h-5.855L28.76,302.332z"/>
<path fill="#FFFFFF" d="M54.876,292.332h5.699v36.272h-5.699V292.332z"/>
<path fill="#FFFFFF" d="M70.318,302.332v26.272h-5.13v-36.272h7.15l5.855,21.711v-21.711h5.077v36.272h-5.855L70.318,302.332z"/>
<path fill="#FFFFFF" d="M87.626,307.877h10.362v5.182H87.626V307.877z"/>
<path fill="#FFFFFF" d="M102.395,292.332h9.017c5.699,0,8.498,3.161,8.498,8.964v18.343c0,5.804-2.799,8.964-8.498,8.964h-9.017
	V292.332z M108.095,297.513v25.909h3.213c1.814,0,2.902-0.934,2.902-3.525v-18.861c0-2.591-1.088-3.524-2.902-3.524L108.095,297.513
	L108.095,297.513z"/>
<path fill="#FFFFFF" d="M129.755,307.618h7.824v5.182h-7.824v10.622h9.844v5.183h-15.545v-36.272h15.545v5.182h-9.844V307.618z"/>
<path fill="#FFFFFF" d="M160.535,301.296v4.715c0,5.804-2.797,8.963-8.497,8.963h-2.695v13.628h-5.699v-36.272h8.395
	C157.737,292.332,160.535,295.492,160.535,301.296z M149.343,297.513v12.28h2.694c1.813,0,2.799-0.829,2.799-3.419v-5.441
	c0-2.591-0.985-3.419-2.799-3.419H149.343L149.343,297.513z"/>
<path fill="#FFFFFF" d="M162.039,292.332h17.618v5.182h-5.958v31.091h-5.7v-31.091h-5.959V292.332z"/>
<path fill="#FFFFFF" d="M188.363,328.604h-5.7v-36.272h5.7v15.545h6.477v-15.545h5.804v36.272h-5.804v-15.545h-6.477V328.604z"/>
<path fill="#FFFFFF" d="M221.528,291.917c5.545,0,8.394,3.316,8.394,9.12v1.14h-5.39v-1.502c0-2.591-1.035-3.576-2.849-3.576
	s-2.851,0.985-2.851,3.576c0,7.462,11.14,8.86,11.14,19.224c0,5.803-2.902,9.118-8.498,9.118c-5.597,0-8.499-3.315-8.499-9.118
	v-2.229h5.389v2.592c0,2.589,1.14,3.524,2.954,3.524c1.813,0,2.954-0.935,2.954-3.524c0-7.463-11.14-8.861-11.14-19.225
	C213.133,295.233,215.982,291.917,221.528,291.917z"/>
<path fill="#FFFFFF" d="M232.098,292.332h17.618v5.182h-5.959v31.091h-5.699v-31.091h-5.959V292.332z"/>
<path fill="#FFFFFF" d="M258.163,292.332v27.98c0,2.592,1.14,3.525,2.954,3.525c1.813,0,2.953-0.933,2.953-3.525v-27.98h5.39v27.619
	c0,5.803-2.902,9.118-8.499,9.118c-5.596,0-8.499-3.316-8.499-9.118v-27.619H258.163z"/>
<path fill="#FFFFFF" d="M273.865,292.332h9.016c5.7,0,8.499,3.161,8.499,8.964v18.343c0,5.804-2.799,8.964-8.499,8.964h-9.016
	V292.332z M279.565,297.513v25.909h3.212c1.815,0,2.903-0.934,2.903-3.525v-18.861c0-2.591-1.088-3.524-2.903-3.524L279.565,297.513
	L279.565,297.513z"/>
<path fill="#FFFFFF" d="M300.862,316.582l-7.204-24.251h5.96l4.353,16.529l4.353-16.529h5.44l-7.203,24.251v12.021h-5.699
	L300.862,316.582L300.862,316.582z"/>
<path fill="#FFFFFF" d="M324.649,301.037c0-5.804,3.058-9.12,8.653-9.12c5.596,0,8.655,3.316,8.655,9.12v18.861
	c0,5.803-3.057,9.118-8.655,9.118c-5.595,0-8.653-3.315-8.653-9.118V301.037z M330.348,320.262c0,2.589,1.141,3.575,2.954,3.575
	c1.814,0,2.953-0.985,2.953-3.575v-19.587c0-2.591-1.139-3.576-2.953-3.576c-1.813,0-2.954,0.985-2.954,3.576V320.262z"/>
<path fill="#FFFFFF" d="M351.854,308.446h7.358v5.182h-7.358v14.975h-5.7v-36.272h15.078v5.181h-9.378V308.446L351.854,308.446z"/>
<path fill="#FFFFFF" d="M380.716,291.917c5.544,0,8.395,3.316,8.395,9.12v1.14h-5.389v-1.502c0-2.591-1.037-3.576-2.85-3.576
	c-1.815,0-2.851,0.985-2.851,3.576c0,7.462,11.14,8.86,11.14,19.224c0,5.803-2.902,9.118-8.499,9.118
	c-5.596,0-8.498-3.315-8.498-9.118v-2.229h5.389v2.592c0,2.589,1.14,3.524,2.955,3.524c1.814,0,2.953-0.935,2.953-3.524
	c0-7.463-11.141-8.861-11.141-19.225C372.322,295.233,375.172,291.917,380.716,291.917z"/>
<path fill="#FFFFFF" d="M409.839,301.296v4.715c0,5.804-2.798,8.963-8.498,8.963h-2.693v13.628h-5.701v-36.272h8.394
	C407.041,292.332,409.839,295.492,409.839,301.296z M398.646,297.513v12.28h2.693c1.814,0,2.798-0.829,2.798-3.419v-5.441
	c0-2.591-0.984-3.419-2.798-3.419H398.646L398.646,297.513z"/>
<path fill="#FFFFFF" d="M412.535,301.037c0-5.804,3.057-9.12,8.652-9.12s8.654,3.316,8.654,9.12v18.861
	c0,5.803-3.057,9.118-8.654,9.118c-5.597,0-8.652-3.315-8.652-9.118V301.037z M418.234,320.262c0,2.589,1.139,3.575,2.953,3.575
	c1.813,0,2.953-0.985,2.953-3.575v-19.587c0-2.591-1.14-3.576-2.953-3.576c-1.814,0-2.953,0.985-2.953,3.576V320.262z"/>
<path fill="#FFFFFF" d="M439.119,302.332v26.272h-5.13v-36.272h7.148l5.856,21.711v-21.711h5.076v36.272h-5.854L439.119,302.332z"/>
<path fill="#FFFFFF" d="M464.354,291.917c5.544,0,8.395,3.316,8.395,9.12v1.14h-5.391v-1.502c0-2.591-1.035-3.576-2.85-3.576
	c-1.813,0-2.85,0.985-2.85,3.576c0,7.462,11.141,8.86,11.141,19.224c0,5.803-2.901,9.118-8.496,9.118
	c-5.598,0-8.498-3.315-8.498-9.118v-2.229h5.389v2.592c0,2.589,1.14,3.524,2.954,3.524c1.815,0,2.952-0.935,2.952-3.524
	c0-7.463-11.141-8.861-11.141-19.225C455.959,295.233,458.809,291.917,464.354,291.917z"/>
<path fill="#FFFFFF" d="M476.118,301.037c0-5.804,3.057-9.12,8.652-9.12s8.653,3.316,8.653,9.12v18.861
	c0,5.803-3.057,9.118-8.653,9.118c-5.596,0-8.652-3.315-8.652-9.118V301.037z M481.817,320.262c0,2.589,1.14,3.575,2.953,3.575
	s2.955-0.985,2.955-3.575v-19.587c0-2.591-1.142-3.576-2.955-3.576s-2.953,0.985-2.953,3.576V320.262z"/>
<path fill="#FFFFFF" d="M509.54,328.604c-0.31-0.934-0.519-1.503-0.519-4.457v-5.701c0-3.368-1.139-4.612-3.731-4.612h-1.969v14.769
	h-5.7v-36.272h8.603c5.907,0,8.446,2.747,8.446,8.342v2.85c0,3.732-1.192,6.167-3.731,7.358c2.851,1.192,3.783,3.938,3.783,7.72
	v5.598c0,1.761,0.054,3.056,0.623,4.404H509.54L509.54,328.604L509.54,328.604z M503.322,297.513v11.14h2.229
	c2.124,0,3.42-0.933,3.42-3.834v-3.576c0-2.591-0.882-3.73-2.903-3.73L503.322,297.513L503.322,297.513z"/>
<path fill="#FFFFFF" d="M526.641,291.917c5.543,0,8.394,3.316,8.394,9.12v1.14h-5.39v-1.502c0-2.591-1.034-3.576-2.849-3.576
	s-2.851,0.985-2.851,3.576c0,7.462,11.141,8.86,11.141,19.224c0,5.803-2.903,9.118-8.499,9.118c-5.595,0-8.497-3.315-8.497-9.118
	v-2.229h5.391v2.592c0,2.589,1.138,3.524,2.952,3.524s2.954-0.935,2.954-3.524c0-7.463-11.14-8.861-11.14-19.225
	C518.247,295.233,521.098,291.917,526.641,291.917z"/>
<path fill="#FFFFFF" d="M544.57,328.604h-5.699v-36.272h5.699v15.545h6.478v-15.545h5.804v36.272h-5.804v-15.545h-6.478V328.604z"/>
<path fill="#FFFFFF" d="M561.515,292.332h5.7v36.272h-5.7V292.332L561.515,292.332z"/>
<path fill="#FFFFFF" d="M588.771,301.296v4.715c0,5.804-2.798,8.963-8.498,8.963h-2.694v13.628h-5.7v-36.272h8.395
	C585.974,292.332,588.771,295.492,588.771,301.296z M577.578,297.513v12.28h2.695c1.814,0,2.797-0.829,2.797-3.419v-5.441
	c0-2.591-0.983-3.419-2.797-3.419H577.578L577.578,297.513z"/>
<path fill="#FFFFFF" d="M20.52,381.526h-5.751l-0.984-6.58H6.789l-0.985,6.58H0.571l5.804-36.271h8.341L20.52,381.526z
	 M7.513,370.023h5.493l-2.746-18.343L7.513,370.023z"/>
<path fill="#FFFFFF" d="M40.212,368.003v4.818c0,5.803-2.902,9.118-8.499,9.118c-5.596,0-8.498-3.315-8.498-9.118v-18.862
	c0-5.804,2.902-9.119,8.498-9.119c5.597,0,8.499,3.317,8.499,9.119v3.525h-5.39v-3.886c0-2.592-1.14-3.577-2.955-3.577
	c-1.813,0-2.953,0.985-2.953,3.577v19.587c0,2.591,1.139,3.522,2.953,3.522c1.814,0,2.955-0.932,2.955-3.522v-5.181h5.39V368.003z"
	/>
<path fill="#FFFFFF" d="M42.543,345.255h17.617v5.182h-5.958v31.092h-5.699v-31.092h-5.959V345.255z"/>
<path fill="#FFFFFF" d="M63.167,345.255h5.7v36.271h-5.7V345.255z"/>
<path fill="#FFFFFF" d="M82.132,374.843l4.353-29.588h5.234l-5.597,36.271h-8.499l-5.597-36.271h5.752L82.132,374.843z"/>
<path fill="#FFFFFF" d="M113.329,381.526h-5.752l-0.985-6.58h-6.994l-0.985,6.58h-5.234l5.804-36.271h8.341L113.329,381.526z
	 M100.321,370.023h5.494l-2.747-18.343L100.321,370.023z"/>
<path fill="#FFFFFF" d="M114.831,345.255h17.618v5.182h-5.958v31.092h-5.699v-31.092h-5.959L114.831,345.255L114.831,345.255z"/>
<path fill="#FFFFFF" d="M135.455,345.255h5.699v36.271h-5.699V345.255z"/>
<path fill="#FFFFFF" d="M145.353,353.959c0-5.804,3.058-9.119,8.653-9.119c5.596,0,8.654,3.317,8.654,9.119v18.86
	c0,5.805-3.057,9.12-8.654,9.12c-5.596,0-8.653-3.318-8.653-9.12V353.959z M151.052,373.185c0,2.591,1.14,3.574,2.954,3.574
	s2.954-0.983,2.954-3.574v-19.588c0-2.592-1.14-3.576-2.954-3.576c-1.813,0-2.954,0.984-2.954,3.576V373.185z"/>
<path fill="#FFFFFF" d="M171.934,355.255v26.272h-5.128v-36.272h7.15l5.855,21.712v-21.712h5.079v36.272h-5.855L171.934,355.255z"/>
<path fill="#FFFFFF" d="M198.052,345.255h5.699v36.271h-5.699V345.255z"/>
<path fill="#FFFFFF" d="M213.495,355.255v26.272h-5.13v-36.272h7.15l5.855,21.712v-21.712h5.078v36.272h-5.855L213.495,355.255z"/>
<path fill="#FFFFFF" d="M237.954,345.255h17.617v5.182h-5.959v31.092h-5.699v-31.092h-5.959V345.255L237.954,345.255z"/>
<path fill="#FFFFFF" d="M264.276,381.526h-5.701v-36.271h5.701V360.8h6.478v-15.545h5.804v36.271h-5.804V365.98h-6.478V381.526
	L264.276,381.526z"/>
<path fill="#FFFFFF" d="M286.921,360.54h7.824v5.182h-7.824v10.622h9.846v5.183h-15.545v-36.272h15.545v5.181h-9.846V360.54
	L286.921,360.54z"/>
<path fill="#FFFFFF" d="M326.252,354.219v4.716c0,5.804-2.798,8.964-8.498,8.964h-2.695v13.629h-5.699v-36.272h8.395
	C323.454,345.255,326.252,348.415,326.252,354.219z M315.059,350.435v12.281h2.695c1.813,0,2.798-0.829,2.798-3.421v-5.44
	c0-2.592-0.985-3.42-2.798-3.42H315.059L315.059,350.435z"/>
<path fill="#FFFFFF" d="M341.333,381.526c-0.311-0.934-0.518-1.503-0.518-4.456v-5.699c0-3.37-1.14-4.612-3.732-4.612h-1.968v14.77
	h-5.702v-36.272h8.603c5.907,0,8.446,2.746,8.446,8.343v2.849c0,3.731-1.191,6.167-3.731,7.359c2.851,1.191,3.783,3.938,3.783,7.721
	v5.597c0,1.762,0.051,3.057,0.621,4.405h-5.802V381.526z M335.114,350.435v11.142h2.228c2.125,0,3.421-0.934,3.421-3.834v-3.577
	c0-2.59-0.882-3.73-2.904-3.73H335.114L335.114,350.435z"/>
<path fill="#FFFFFF" d="M356.464,360.54h7.825v5.182h-7.825v10.622h9.847v5.183h-15.546v-36.272h15.546v5.181h-9.847V360.54z"/>
<path fill="#FFFFFF" d="M382.425,371.008l3.887-25.753h7.928v36.271h-5.39v-26.013l-3.938,26.013h-5.391l-4.248-25.649v25.649
	h-4.977v-36.271h7.928L382.425,371.008z"/>
<path fill="#FFFFFF" d="M398.904,345.255h5.699v36.271h-5.699V345.255z"/>
<path fill="#FFFFFF" d="M414.968,360.54h7.824v5.182h-7.824v10.622h9.845v5.183h-15.544v-36.272h15.544v5.181h-9.845V360.54
	L414.968,360.54z"/>
<path fill="#FFFFFF" d="M440.774,381.526c-0.312-0.934-0.52-1.503-0.52-4.456v-5.699c0-3.37-1.14-4.612-3.731-4.612h-1.969v14.77
	h-5.7v-36.272h8.603c5.907,0,8.446,2.746,8.446,8.343v2.849c0,3.731-1.192,6.167-3.731,7.359c2.85,1.191,3.782,3.938,3.782,7.721
	v5.597c0,1.762,0.055,3.057,0.622,4.405h-5.802V381.526z M434.557,350.435v11.142h2.229c2.124,0,3.42-0.934,3.42-3.834v-3.577
	c0-2.59-0.881-3.73-2.902-3.73H434.557L434.557,350.435z"/>
<path fill="#FFFFFF" d="M458.757,345.255h5.698v31.09h9.381v5.182h-15.079V345.255z"/>
<path fill="#FFFFFF" d="M482.54,360.54h7.825v5.182h-7.825v10.622h9.847v5.183h-15.545v-36.272h15.545v5.181h-9.847V360.54z"/>
<path fill="#FFFFFF" d="M514.876,381.526h-5.754l-0.984-6.58h-6.993l-0.987,6.58h-5.232l5.805-36.271h8.342L514.876,381.526z
	 M501.868,370.023h5.493l-2.747-18.343L501.868,370.023z"/>
<path fill="#FFFFFF" d="M526.588,361.317h7.979v11.503c0,5.804-2.901,9.119-8.497,9.119c-5.595,0-8.498-3.315-8.498-9.119v-18.861
	c0-5.804,2.903-9.119,8.498-9.119c5.596,0,8.497,3.317,8.497,9.119v3.525h-5.388v-3.886c0-2.592-1.14-3.577-2.953-3.577
	c-1.815,0-2.955,0.985-2.955,3.577v19.587c0,2.591,1.14,3.522,2.955,3.522c1.813,0,2.953-0.932,2.953-3.522v-6.684h-2.593
	L526.588,361.317L526.588,361.317z"/>
<path fill="#FFFFFF" d="M544.207,345.255v27.982c0,2.592,1.139,3.522,2.952,3.522s2.955-0.932,2.955-3.522v-27.982h5.389v27.618
	c0,5.804-2.901,9.119-8.498,9.119s-8.496-3.317-8.496-9.119v-27.618H544.207z"/>
<path fill="#FFFFFF" d="M565.608,360.54h7.824v5.182h-7.824v10.622h9.846v5.183h-15.546v-36.272h15.546v5.181h-9.846V360.54z"/>
<path fill="#FFFFFF" d="M584.988,376.034v5.493h-5.491v-5.493H584.988z"/>
<path fill="#FFFFFF" d="M2.073,397.451h9.017c5.699,0,8.498,3.162,8.498,8.965v18.344c0,5.804-2.799,8.964-8.498,8.964H2.073
	V397.451z M7.773,402.633v25.908h3.212c1.813,0,2.902-0.934,2.902-3.523v-18.861c0-2.592-1.089-3.523-2.902-3.523H7.773
	L7.773,402.633z"/>
<path fill="#FFFFFF" d="M23.268,406.156c0-5.804,3.057-9.12,8.654-9.12c5.595,0,8.652,3.316,8.652,9.12v18.862
	c0,5.802-3.057,9.117-8.652,9.117c-5.597,0-8.654-3.316-8.654-9.117V406.156z M28.966,425.382c0,2.591,1.14,3.575,2.954,3.575
	c1.813,0,2.953-0.985,2.953-3.575v-19.588c0-2.591-1.14-3.575-2.953-3.575c-1.814,0-2.954,0.984-2.954,3.575V425.382z"/>
<path fill="#FFFFFF" d="M57.416,414.396l-2.073,19.328h-7.824l-4.042-36.272h5.543l3.058,28.604l2.747-28.604h5.493l2.851,28.812
	l2.954-28.812h4.974l-4.042,36.272h-7.565L57.416,414.396z"/>
<path fill="#FFFFFF" d="M79.543,407.453v26.271h-5.13v-36.272h7.149l5.855,21.712v-21.712h5.078v36.272H86.64L79.543,407.453z"/>
<path fill="#FFFFFF" d="M97.11,397.451h5.7v31.09h9.378v5.183H97.11V397.451z"/>
<path fill="#FFFFFF" d="M114.728,406.156c0-5.804,3.057-9.12,8.654-9.12c5.595,0,8.653,3.316,8.653,9.12v18.862
	c0,5.802-3.058,9.117-8.653,9.117c-5.597,0-8.654-3.316-8.654-9.117V406.156z M120.427,425.382c0,2.591,1.139,3.575,2.953,3.575
	s2.954-0.985,2.954-3.575v-19.588c0-2.591-1.14-3.575-2.954-3.575s-2.953,0.984-2.953,3.575V425.382z"/>
<path fill="#FFFFFF" d="M154.682,433.724h-5.752l-0.985-6.582h-6.995l-0.984,6.582h-5.234l5.803-36.272h8.341L154.682,433.724z
	 M141.673,422.219h5.493l-2.747-18.343L141.673,422.219z"/>
<path fill="#FFFFFF" d="M157.842,397.451h9.017c5.699,0,8.498,3.162,8.498,8.965v18.344c0,5.804-2.799,8.964-8.498,8.964h-9.017
	V397.451z M163.542,402.633v25.908h3.212c1.813,0,2.902-0.934,2.902-3.523v-18.861c0-2.592-1.088-3.523-2.902-3.523H163.542
	L163.542,402.633z"/>
<path fill="#FFFFFF" d="M193.131,407.453v26.271h-5.129v-36.272h7.15l5.855,21.712v-21.712h5.078v36.272h-5.855L193.131,407.453z"/>
<path fill="#FFFFFF" d="M210.231,406.156c0-5.804,3.057-9.12,8.653-9.12c5.597,0,8.654,3.316,8.654,9.12v18.862
	c0,5.802-3.057,9.117-8.654,9.117c-5.596,0-8.653-3.316-8.653-9.117V406.156z M215.932,425.382c0,2.591,1.139,3.575,2.953,3.575
	c1.813,0,2.954-0.985,2.954-3.575v-19.588c0-2.591-1.14-3.575-2.954-3.575s-2.953,0.984-2.953,3.575V425.382z"/>
<path fill="#FFFFFF" d="M244.38,414.396l-2.073,19.328h-7.824l-4.042-36.272h5.545l3.057,28.604l2.746-28.604h5.493l2.851,28.812
	l2.954-28.812h4.975l-4.042,36.272h-7.567L244.38,414.396z"/>
<path fill="#FFFFFF" d="M0,440.719v-2.591h259.356v2.591H0z"/>
</svg>
