<?xml version="1.0" encoding="utf-8"?>
<!-- Generator: Adobe Illustrator 15.1.0, SVG Export Plug-In . SVG Version: 6.00 Build 0)  -->
<!DOCTYPE svg PUBLIC "-//W3C//DTD SVG 1.1//EN" "http://www.w3.org/Graphics/SVG/1.1/DTD/svg11.dtd">
<svg version="1.1" id="_x2014_ÎÓÈ_x5F_1" xmlns="http://www.w3.org/2000/svg" xmlns:xlink="http://www.w3.org/1999/xlink"
	 x="0px" y="0px" width="60px" height="60px" viewBox="0 0 60 60" enable-background="new 0 0 60 60" xml:space="preserve">
<g>
	<path fill="#FFFFFF" d="M30,0C13.458,0,0,13.458,0,30c0,16.542,13.458,30,30,30c16.542,0,30-13.458,30-30C60,13.458,46.542,0,30,0z
		 M30,58C14.561,58,2,45.44,2,30C2,14.561,14.561,2,30,2c15.44,0,28,12.56,28,28C58,45.44,45.439,58,30,58z"/>
	<path fill="#FFFFFF" d="M47,30H31V13c0-0.553-0.447-1-1-1c-0.552,0-1,0.447-1,1v17H13c-0.553,0-1,0.447-1,1s0.447,1,1,1h16v15
		c0,0.553,0.447,1,1,1c0.553,0,1-0.447,1-1V32h16c0.552,0,1-0.447,1-1S47.553,30,47,30z"/>
</g>
</svg>
