<?xml version="1.0" encoding="utf-8"?>
<!-- Generator: Adobe Illustrator 15.1.0, SVG Export Plug-In . SVG Version: 6.00 Build 0)  -->
<!DOCTYPE svg PUBLIC "-//W3C//DTD SVG 1.1//EN" "http://www.w3.org/Graphics/SVG/1.1/DTD/svg11.dtd">
<svg version="1.1" id="Layer_1" xmlns="http://www.w3.org/2000/svg" xmlns:xlink="http://www.w3.org/1999/xlink" x="0px" y="0px"
	 width="807px" height="180px" viewBox="0 0 807 180" enable-background="new 0 0 807 180" xml:space="preserve">
<rect y="76.013" fill="#2EB135" width="232.585" height="103.987"/>
<g>
	<path fill="#FFFFFF" d="M79.867,94.02L68.182,163.82H55.03l-6.043-30.168L42.9,163.82H29.749L18.108,94.02h13.196l5.287,35.678
		l7.064-35.678h10.664l7.02,35.723l5.287-35.723H79.867z"/>
	<path fill="#FFFFFF" d="M122.213,156.533l-8.309,7.287H89.912l-8.219-7.287V131.43l-2.71-2.488l2.71-2.531v-25.059l8.219-7.332
		h23.993l8.309,7.332v25.059l2.666,2.531l-2.666,2.488L122.213,156.533L122.213,156.533z M109.283,131.43l-2.71-2.488l2.71-2.531
		v-19.506H94.577v19.506l2.71,2.531l-2.71,2.488v19.506h14.706V131.43z"/>
	<path fill="#FFFFFF" d="M127.606,131.43l-2.666-2.488l2.666-2.531V131.43z M169.149,163.82h-13.818l-10.974-28.437h-3.821v28.437
		h-12.93V94.02h30.969l8.22,7.332v25.637l-8.798,8.22L169.149,163.82z M140.536,122.455h13.373v-15.596h-13.373V122.455z"/>
	<path fill="#FFFFFF" d="M213.52,94.02l-17.238,34.922l17.238,34.879h-14.351l-13.862-28.437v28.437h-12.885V131.43l-2.711-2.488
		l2.711-2.531V94.02h12.885v28.436l13.862-28.436H213.52z"/>
</g>
<g>
	<path d="M1.82,15.607c0-10.19,5.368-16.014,15.195-16.014c9.827,0,15.195,5.823,15.195,16.014v33.12
		c0,10.191-5.368,16.014-15.195,16.014c-9.827,0-15.195-5.823-15.195-16.014V15.607z M11.829,49.364
		c0,4.549,2.002,6.278,5.187,6.278s5.187-1.729,5.187-6.278V14.971c0-4.549-2.002-6.278-5.187-6.278s-5.187,1.729-5.187,6.278
		V49.364z"/>
	<path d="M46.661,0.321v49.134c0,4.549,2.002,6.187,5.187,6.187s5.187-1.638,5.187-6.187V0.321h9.462v48.497
		c0,10.19-5.095,16.014-14.922,16.014c-9.826,0-14.922-5.823-14.922-16.014V0.321H46.661z"/>
	<path d="M92.429,64.013c-0.546-1.638-0.909-2.639-0.909-7.825V46.18c0-5.915-2.002-8.098-6.552-8.098h-3.457v25.932H71.502V0.321
		h15.104c10.373,0,14.831,4.823,14.831,14.649v5.004c0,6.551-2.093,10.828-6.551,12.92c5.005,2.093,6.643,6.916,6.643,13.558v9.827
		c0,3.093,0.091,5.368,1.092,7.734H92.429z M81.511,9.42v19.562h3.912c3.73,0,6.006-1.638,6.006-6.733v-6.278
		c0-4.549-1.547-6.551-5.096-6.551H81.511z"/>
</g>
</svg>
