<?xml version="1.0" encoding="utf-8"?>
<!-- Generator: Adobe Illustrator 15.1.0, SVG Export Plug-In . SVG Version: 6.00 Build 0)  -->
<!DOCTYPE svg PUBLIC "-//W3C//DTD SVG 1.1//EN" "http://www.w3.org/Graphics/SVG/1.1/DTD/svg11.dtd">
<svg version="1.1" id="Layer_1" xmlns="http://www.w3.org/2000/svg" xmlns:xlink="http://www.w3.org/1999/xlink" x="0px" y="0px"
	 width="50px" height="50px" viewBox="0 0 50 50" enable-background="new 0 0 50 50" xml:space="preserve">
<g>
	<path fill="#FFFFFF" d="M34.493,14.498c0.016,0.019,0.034,0.034,0.05,0.054c0.064,0.041,0.125,0.092,0.176,0.157
		c0.088,0.113,0.17,0.227,0.252,0.342c-0.172-0.262-0.354-0.514-0.547-0.76C34.445,14.361,34.471,14.427,34.493,14.498z"/>
	<path fill="#FFFFFF" d="M14.706,18.745c0.22-0.583,0.488-1.146,0.804-1.695c0.013-0.03,0.025-0.059,0.037-0.088
		c-0.047-0.006-0.094-0.017-0.137-0.035C15.116,17.511,14.882,18.118,14.706,18.745z"/>
	<path fill="#FFFFFF" d="M17.636,26.6c0.019-0.039,0.039-0.078,0.057-0.117c-0.029-0.021-0.058-0.045-0.085-0.074
		c-0.035-0.037-0.066-0.076-0.1-0.113c0.013,0.051,0.013,0.1,0.003,0.15C17.552,26.495,17.596,26.546,17.636,26.6z"/>
	<path fill="#FFFFFF" d="M25.001,0C11.306,0,0.2,11.105,0.2,24.802C0.2,38.493,11.306,49.6,25.001,49.6
		C38.693,49.6,49.8,38.493,49.8,24.802C49.8,11.105,38.693,0,25.001,0z M36.178,28.689c-0.589,0.82-1.275,1.473-2.029,1.975
		c-0.239,0.232-0.488,0.439-0.737,0.611c-1.632,1.127-3.984,1.869-5.981,1.482c-1.269-0.247-2.707-0.941-3.773-1.764
		c-0.006,0-0.011,0.003-0.016,0.003c-0.078,0.812-0.39,1.678-0.542,2.438c-0.216,1.086-0.352,2.237-0.715,3.287
		c-0.682,1.979-1.95,3.562-3.188,5.221c-0.182,0.242-0.636,0.132-0.582-0.176c-0.348-0.479-0.696-1.699-0.71-1.787
		c-0.306-1.623-0.053-3.396,0.223-5.006c0.613-3.586,1.521-7.322,2.864-10.723c-1.266-0.77-0.407-3.772,0.067-4.71
		c0.782-1.539,3.487-3.617,4.832-1.332c1.108,1.888-0.062,4.589-0.558,6.498c-0.321,1.237-0.594,2.595,0.254,3.718
		c0.751,0.994,2.058,1.133,3.188,0.786c3.433-1.052,4.584-4.535,4.718-7.84c0.106-2.635-0.062-6.123-2.259-7.991
		c-3.181-2.704-8.15-0.504-10.856,1.843c-3.062,2.656-5.197,6.949-2.055,10.4c0.212,0.011,0.416,0.153,0.396,0.408
		c-0.054,0.666-0.302,1.252-0.534,1.875c-0.107,0.288-0.354,0.438-0.66,0.376c-1.149-0.236-2.188-0.817-2.895-1.77
		c-3.464-4.661-0.552-11.508,3.569-14.591c4.837-3.617,12.11-3.932,16.42,0.758C38.408,16.811,39.555,23.965,36.178,28.689z"/>
</g>
</svg>
