<?xml version="1.0" encoding="utf-8"?>
<!-- Generator: Adobe Illustrator 15.1.0, SVG Export Plug-In . SVG Version: 6.00 Build 0)  -->
<!DOCTYPE svg PUBLIC "-//W3C//DTD SVG 1.1//EN" "http://www.w3.org/Graphics/SVG/1.1/DTD/svg11.dtd">
<svg version="1.1" id="Layer_1" xmlns="http://www.w3.org/2000/svg" xmlns:xlink="http://www.w3.org/1999/xlink" x="0px" y="0px"
	 width="806px" height="677.865px" viewBox="0 0 806 677.865" enable-background="new 0 0 806 677.865" xml:space="preserve">
<g>
	<path fill="#FFFFFF" d="M29.662,16.469v8.28c0,10.19-4.913,15.741-14.922,15.741h-4.731v23.93H0V0.729h14.74
		C24.749,0.729,29.662,6.278,29.662,16.469z M10.008,9.827v21.562h4.731c3.185,0,4.913-1.455,4.913-6.004V15.83
		c0-4.549-1.729-6.005-4.913-6.005h-4.731V9.827z"/>
	<path fill="#FFFFFF" d="M53.883,64.42c-0.546-1.638-0.909-2.639-0.909-7.825V46.586c0-5.914-2.002-8.098-6.552-8.098h-3.457V64.42
		H32.957V0.729H48.06c10.373,0,14.831,4.822,14.831,14.648v5.005c0,6.551-2.093,10.827-6.551,12.92
		c5.004,2.093,6.643,6.915,6.643,13.558v9.826c0,3.094,0.091,5.369,1.092,7.734H53.883z M42.965,9.827v19.562h3.912
		c3.73,0,6.006-1.638,6.006-6.733v-6.278c0-4.55-1.547-6.551-5.096-6.551H42.965z"/>
	<path fill="#FFFFFF" d="M67.733,0.729h10.009V64.42H67.733V0.729z"/>
	<path fill="#FFFFFF" d="M98.723,52.683l7.644-51.954h9.189L105.73,64.42H90.807L80.981,0.729h10.1L98.723,52.683z"/>
	<path fill="#FFFFFF" d="M147.885,64.42h-10.1l-1.729-11.556h-12.283l-1.729,11.556h-9.189l10.19-63.691h14.649L147.885,64.42z
		 M125.048,44.221h9.645l-4.822-32.21L125.048,44.221z"/>
	<path fill="#FFFFFF" d="M179.714,40.672v8.462c0,10.19-5.096,16.015-14.922,16.015c-9.827,0-14.923-5.824-14.923-16.015v-33.12
		C149.869,5.825,154.965,0,164.792,0c9.826,0,14.922,5.824,14.922,16.014v6.188h-9.463v-6.825c0-4.549-2.002-6.277-5.187-6.277
		s-5.187,1.729-5.187,6.277v34.395c0,4.549,2.002,6.187,5.187,6.187s5.187-1.638,5.187-6.187v-9.1H179.714z"/>
	<path fill="#FFFFFF" d="M193.235,43.311L180.588,0.729h10.463l7.644,29.025l7.643-29.025h9.554l-12.647,42.582V64.42h-10.008
		V43.311H193.235z"/>
</g>
<g>
	<polygon fill="#FFFFFF" points="75.622,128.224 78.421,130.839 75.622,133.408 75.622,153.55 90.808,153.55 90.808,133.408 
		88.009,130.839 90.808,128.224 90.808,108.082 75.622,108.082 	"/>
	<path fill="#FFFFFF" d="M0,78.5v104.632h270.671V78.5H0z M58.14,134.739l-8.626,7.662H31.3v24.454H17.993v-33.447l-2.798-2.569
		l2.798-2.615V94.777h31.521l8.626,7.616V134.739z M104.159,133.408v25.923l-8.58,7.524H70.804l-8.487-7.524v-25.923l-2.798-2.569
		l2.798-2.615v-25.876l8.487-7.57h24.775l8.58,7.57v25.876l2.752,2.615L104.159,133.408z M142.999,166.855h-32.987v-33.447
		l-2.753-2.569l2.753-2.615V94.777h13.351v33.446l2.799,2.615l-2.799,2.569v20.142H143L142.999,166.855z M158.958,133.407v33.448
		h-13.351v-33.447l-2.799-2.569l2.799-2.615V94.777h13.351v33.446l2.753,2.615L158.958,133.407z M205.547,113.497h-13.306v-5.414
		h-14.314v20.142l2.799,2.615l-2.799,2.569v20.142h14.314v-5.826h13.306v11.606l-8.717,7.524h-23.721l-8.487-7.524v-25.923
		l-2.799-2.569l2.799-2.615v-25.876l8.487-7.57h23.721l8.717,7.616V113.497z M236.427,140.291v26.564h-13.489v-26.656
		l-15.966-45.422h13.672l9.084,26.84l8.947-26.84h14.131L236.427,140.291z"/>
	<rect x="31.3" y="108.082" fill="#FFFFFF" width="13.533" height="21.014"/>
</g>
</svg>
