<?xml version="1.0" encoding="utf-8"?>
<!-- Generator: Adobe Illustrator 15.1.0, SVG Export Plug-In . SVG Version: 6.00 Build 0)  -->
<!DOCTYPE svg PUBLIC "-//W3C//DTD SVG 1.1//EN" "http://www.w3.org/Graphics/SVG/1.1/DTD/svg11.dtd">
<svg version="1.1" id="Layer_1" xmlns="http://www.w3.org/2000/svg" xmlns:xlink="http://www.w3.org/1999/xlink" x="0px" y="0px"
	 width="200px" height="75px" viewBox="0 0 200 75" enable-background="new 0 0 200 75" xml:space="preserve">
<g>
	<path fill="#231F20" d="M102.455,54.712l-1.51-0.588c-2.021-0.785-2.484-1.51-2.484-3.873c0-2.088,0.772-3.104,2.367-3.104
		c1.586,0,2.363,1.045,2.441,3.287c0,0.164,0.121,0.223,0.236,0.223c0.021,0,0.045-0.004,0.069-0.008l2.952-0.441
		c0.188-0.064,0.26-0.148,0.26-0.322c-0.229-4.053-2.221-6.025-6.071-6.025c-3.977,0-5.992,2.211-5.992,6.58
		c0,3.97,1.079,5.67,4.439,6.988l1.509,0.592c2.004,0.795,2.523,1.705,2.523,4.426c0,2.601-0.711,3.658-2.442,3.658
		c-1.78,0-2.552-1.093-2.662-3.763c-0.001-0.167-0.091-0.259-0.244-0.259c-0.021,0-0.043,0.002-0.064,0.006l-3.093,0.518
		c-0.133,0.021-0.221,0.082-0.221,0.32c0.107,4.292,2.186,6.471,6.174,6.471c4.438,0,6.332-2.225,6.332-7.429
		C106.975,57.872,105.836,56.04,102.455,54.712"/>
	<path fill="#231F20" d="M116.91,54.712l-1.51-0.588c-2.021-0.785-2.482-1.51-2.482-3.873c0-2.088,0.771-3.104,2.367-3.104
		c1.584,0,2.359,1.045,2.441,3.287c0,0.164,0.123,0.223,0.236,0.223c0.021,0,0.045-0.004,0.066-0.008l2.947-0.441
		c0.188-0.064,0.258-0.148,0.258-0.322c-0.229-4.053-2.211-6.025-6.062-6.025c-3.978,0-5.991,2.211-5.991,6.58
		c0,3.97,1.077,5.67,4.438,6.988l1.511,0.592c2.003,0.795,2.521,1.705,2.521,4.426c0,2.601-0.705,3.658-2.438,3.658
		c-1.78,0-2.551-1.093-2.662-3.763c0-0.167-0.09-0.259-0.243-0.259c-0.021,0-0.041,0.002-0.066,0.006l-3.09,0.518
		c-0.135,0.021-0.226,0.082-0.226,0.32c0.107,4.292,2.188,6.471,6.179,6.471c4.434,0,6.321-2.225,6.321-7.429
		C121.424,57.872,120.285,56.04,116.91,54.712"/>
	<path fill="#231F20" d="M136.039,65.896l-0.051-0.041l0.025-0.06c0.579-1.267,0.768-2.257,0.768-9.175
		c0-7.133-0.123-7.863-0.479-8.922c-0.812-2.48-2.873-3.846-5.812-3.846c-3,0-5.021,1.328-5.849,3.846
		c-0.354,1.059-0.475,1.789-0.475,8.922c0,7.143,0.121,7.869,0.475,8.929c0.825,2.513,2.851,3.843,5.849,3.843
		c1.489,0,2.646-0.354,3.633-1.123l0.054-0.043l0.055,0.045l1.771,1.403c0.062,0.058,0.131,0.091,0.201,0.091
		c0.071,0,0.144-0.033,0.198-0.089l1.535-1.771c0.08-0.104,0.095-0.271-0.061-0.396L136.039,65.896z M132.99,63.499
		c-0.15,2.509-2.031,2.526-2.496,2.526c-1.104,0-1.988-0.588-2.254-1.498c-0.225-0.672-0.262-0.979-0.262-7.905
		c0-6.881,0.037-7.195,0.264-7.906c0.27-0.885,1.152-1.458,2.252-1.458c1.08,0,1.947,0.573,2.22,1.458
		c0.224,0.714,0.333,1.062,0.333,7.906C133.046,56.622,133.128,61.152,132.99,63.499"/>
	<path fill="#231F20" d="M152.195,44.188h-3.205c-0.172,0-0.281,0.106-0.281,0.281v18.823c0,1.688-0.887,2.697-2.369,2.697
		c-1.484,0-2.404-1.031-2.404-2.697V44.469c0-0.175-0.108-0.281-0.283-0.281h-3.204c-0.175,0-0.283,0.106-0.283,0.281v18.305
		c0,4.271,2.19,6.619,6.177,6.619c3.96,0,6.141-2.349,6.141-6.619V44.469C152.479,44.294,152.371,44.188,152.195,44.188"/>
	<path fill="#231F20" d="M167.994,47.7c-0.814-2.479-2.877-3.845-5.812-3.845c-2.996,0-5.021,1.328-5.851,3.845
		c-0.353,1.06-0.474,1.789-0.474,8.924c0,7.142,0.121,7.867,0.474,8.928c0.828,2.513,2.854,3.843,5.851,3.843
		c2.936,0,4.998-1.365,5.812-3.843c0.354-1.061,0.477-1.786,0.477-8.928C168.469,49.489,168.348,48.759,167.994,47.7
		 M164.363,64.532c-0.271,0.887-1.125,1.457-2.182,1.457c-1.095,0-1.943-0.558-2.217-1.457c-0.224-0.712-0.263-1.021-0.263-7.908
		c0-6.883,0.039-7.196,0.264-7.907c0.271-0.9,1.121-1.458,2.216-1.458c1.057,0,1.911,0.572,2.184,1.458
		c0.223,0.711,0.26,1.024,0.26,7.907C164.623,63.51,164.587,63.82,164.363,64.532"/>
	<path fill="#231F20" d="M182.328,44.188h-12.045c-0.174,0-0.281,0.106-0.281,0.281v2.838c0,0.176,0.107,0.283,0.281,0.283h3.832
		c0.195,0,0.307,0.11,0.307,0.307v20.883c0,0.178,0.107,0.283,0.283,0.283h3.201c0.179,0,0.285-0.105,0.285-0.283V47.896
		c0-0.195,0.111-0.307,0.307-0.307h3.831c0.174,0,0.282-0.107,0.282-0.283v-2.838C182.613,44.294,182.503,44.188,182.328,44.188"/>
	<path fill="#231F20" d="M189.156,47.59h6.48c0.174,0,0.282-0.105,0.282-0.283v-2.838c0-0.175-0.108-0.281-0.282-0.281h-10.275
		c-0.174,0-0.281,0.106-0.281,0.281v24.311c0,0.178,0.107,0.283,0.281,0.283h10.275c0.174,0,0.282-0.105,0.282-0.283v-2.836
		c0-0.176-0.108-0.281-0.282-0.281h-6.48c-0.194,0-0.307-0.109-0.307-0.307v-6.854c0-0.193,0.11-0.305,0.307-0.305h5.598
		c0.174,0,0.283-0.109,0.283-0.285v-2.836c0-0.176-0.109-0.281-0.283-0.281h-5.598c-0.194,0-0.307-0.111-0.307-0.307v-6.594
		C188.85,47.7,188.961,47.59,189.156,47.59"/>
	<path fill="#231F20" d="M91.171,44.188h-3.205c-0.176,0-0.284,0.106-0.284,0.281v24.311c0,0.178,0.108,0.283,0.284,0.283h3.205
		c0.176,0,0.283-0.105,0.283-0.283V44.469C91.454,44.294,91.347,44.188,91.171,44.188"/>
	<path fill="#231F20" d="M58.518,54.712l-1.51-0.588c-2.022-0.785-2.488-1.51-2.488-3.873c0-2.088,0.775-3.104,2.369-3.104
		c1.587,0,2.364,1.045,2.443,3.287c0,0.164,0.12,0.223,0.236,0.223c0.023,0,0.045-0.004,0.069-0.008l2.948-0.441
		c0.187-0.064,0.259-0.148,0.259-0.322c-0.229-4.053-2.215-6.025-6.066-6.025c-3.976,0-5.991,2.211-5.991,6.58
		c0,3.97,1.079,5.67,4.439,6.988l1.509,0.592c2.004,0.795,2.522,1.705,2.522,4.426c0,2.601-0.708,3.658-2.441,3.658
		c-1.781,0-2.552-1.093-2.662-3.763c-0.003-0.167-0.09-0.259-0.245-0.259c-0.021,0-0.042,0.002-0.064,0.006l-3.092,0.518
		c-0.136,0.021-0.223,0.082-0.223,0.32c0.106,4.292,2.184,6.471,6.176,6.471c4.432,0,6.322-2.225,6.322-7.429
		C63.029,57.872,61.891,56.04,58.518,54.712"/>
	<path fill="#231F20" d="M74.587,52.964l2.848,15.802c0.046,0.266,0.187,0.297,0.286,0.297h3.028c0.1,0,0.24-0.031,0.285-0.297
		l3.999-24.31c0.016-0.099,0.006-0.166-0.028-0.205c-0.036-0.043-0.109-0.063-0.218-0.063h-3.113c-0.191,0-0.292,0.092-0.319,0.293
		L79.18,60.562l-3.154-16.08c-0.03-0.203-0.127-0.295-0.321-0.295h-2.238c-0.192,0-0.291,0.092-0.32,0.295l-3.155,16.08
		L67.818,44.48c-0.027-0.201-0.126-0.293-0.32-0.293h-3.111c-0.108,0-0.182,0.021-0.218,0.063c-0.036,0.039-0.045,0.106-0.03,0.205
		l4.001,24.31c0.046,0.266,0.185,0.297,0.285,0.297h3.027c0.102,0,0.24-0.031,0.286-0.297L74.587,52.964z"/>
</g>
<path d="M35.887,43.253c-3.569-3.558-8.251-5.336-12.936-5.336c-4.698,0-9.398,1.787-12.987,5.365
	c-7.168,7.145-7.18,18.711-0.028,25.84c7.15,7.127,18.758,7.114,25.924-0.029C43.026,61.95,43.039,50.383,35.887,43.253z
	 M13.206,48.152h19.406v1.72H13.206V48.152z M32.611,64.221h-3.045v-5.92c0-1.17-1.158-2.119-2.579-2.119
	c-1.426,0-2.577,0.949-2.577,2.119v5.92h-3.025v-5.92c0-1.17-1.152-2.119-2.577-2.119c-1.422,0-2.577,0.949-2.577,2.119v5.92h-3.025
	l0,0v-10.71h19.406L32.611,64.221L32.611,64.221z M11.064,52.4l0.007-1.562h23.673l0.009,1.562H11.064z"/>
</svg>
