<?xml version="1.0" encoding="utf-8"?>
<!-- Generator: Adobe Illustrator 15.1.0, SVG Export Plug-In . SVG Version: 6.00 Build 0)  -->
<!DOCTYPE svg PUBLIC "-//W3C//DTD SVG 1.1//EN" "http://www.w3.org/Graphics/SVG/1.1/DTD/svg11.dtd">
<svg version="1.1" id="Layer_1" xmlns="http://www.w3.org/2000/svg" xmlns:xlink="http://www.w3.org/1999/xlink" x="0px" y="0px"
	 width="806px" height="677.865px" viewBox="0 0 806 677.865" enable-background="new 0 0 806 677.865" xml:space="preserve">
<g>
	<path fill="#FFFFFF" d="M35.03,64.42h-10.1l-1.729-11.556H10.919L9.189,64.42H0L10.19,0.729h14.649L35.03,64.42z M12.192,44.221
		h9.645l-4.822-32.21L12.192,44.221z"/>
	<path fill="#FFFFFF" d="M61.783,18.289V64.42h-9.008V0.729h12.556l10.282,38.123V0.729h8.917V64.42H74.248L61.783,18.289z"/>
	<path fill="#FFFFFF" d="M99.298,27.57h13.739v9.098H99.298v18.653h17.287v9.099H89.289V0.729h27.296v9.098H99.298V27.57z"/>
	<path fill="#FFFFFF" d="M144.028,30.482l-3.64,33.938h-13.739l-7.097-63.691h9.735l5.368,50.225l4.822-50.225h9.645l5.005,50.589
		l5.187-50.589h8.734l-7.097,63.691h-13.284L144.028,30.482z"/>
	<path fill="#FFFFFF" d="M201.262,28.935h14.013v20.199c0,10.19-5.096,16.015-14.922,16.015c-9.827,0-14.923-5.824-14.923-16.015
		v-33.12C185.43,5.825,190.526,0,200.353,0c9.826,0,14.922,5.824,14.922,16.014v6.188h-9.463v-6.825
		c0-4.549-2.002-6.277-5.187-6.277s-5.187,1.729-5.187,6.277v34.395c0,4.549,2.002,6.187,5.187,6.187s5.187-1.638,5.187-6.187
		V38.033h-4.55V28.935z"/>
	<path fill="#FFFFFF" d="M252.289,64.42h-10.1l-1.729-11.556h-12.283l-1.729,11.556h-9.189l10.19-63.691h14.65L252.289,64.42z
		 M229.451,44.221h9.645l-4.822-32.21L229.451,44.221z"/>
	<path fill="#FFFFFF" d="M276.839,45.949l6.824-45.221h13.921v63.691h-9.463V18.744l-6.915,45.676h-9.463l-7.461-45.039V64.42
		h-8.734V0.729h13.921L276.839,45.949z"/>
	<path fill="#FFFFFF" d="M312.443,27.57h13.734v9.098h-13.734v18.653h17.287v9.099H302.43V0.729h27.301v9.098h-17.287V27.57z"/>
	<path fill="#FFFFFF" d="M359.122,29.026h12.92v9.1h-12.92v26.295h-10.009V0.729h26.478v9.098h-16.469V29.026z"/>
	<path fill="#FFFFFF" d="M378.357,16.014C378.357,5.825,383.724,0,393.551,0s15.195,5.824,15.195,16.014v33.12
		c0,10.19-5.368,16.015-15.195,16.015s-15.19-5.824-15.19-16.015L378.357,16.014L378.357,16.014z M388.366,49.772
		c0,4.549,2.002,6.277,5.187,6.277c3.188,0,5.188-1.729,5.188-6.277V15.377c0-4.549-2.002-6.277-5.188-6.277
		c-3.185,0-5.187,1.729-5.187,6.277V49.772z"/>
	<path fill="#FFFFFF" d="M433.979,64.42c-0.548-1.638-0.906-2.639-0.906-7.825V46.586c0-5.914-2.002-8.098-6.557-8.098h-3.455V64.42
		H413.05V0.729h15.104c10.373,0,14.831,4.822,14.831,14.648v5.005c0,6.551-2.098,10.827-6.555,12.92
		c5.007,2.093,6.646,6.915,6.646,13.558v9.826c0,3.094,0.091,5.369,1.092,7.734H433.979z M423.062,9.827v19.562h3.907
		c3.73,0,6.011-1.638,6.011-6.733v-6.278c0-4.55-1.552-6.551-5.101-6.551H423.062z"/>
</g>
<g>
	<polygon fill="#FFFFFF" points="167.018,219.43 175.642,219.43 171.33,197.866 	"/>
	<rect x="118.438" y="190.021" fill="#FFFFFF" width="13.673" height="16.059"/>
	<polygon fill="#FFFFFF" points="338.734,115.576 334.422,137.14 343.046,137.14 	"/>
	<polygon fill="#FFFFFF" points="44.971,115.576 40.659,137.14 49.283,137.14 	"/>
	<rect x="118.438" y="219.43" fill="#FFFFFF" width="13.673" height="16.058"/>
	<path fill="#FFFFFF" d="M0,78.148v82.29v22.342v82.29h441.995v-82.29h35.676V78.148H0z M348.093,94.425l14.406,72.078h-13.58
		l-3.212-16.059H331.76l-3.212,16.059h-13.58l14.406-72.078H348.093z M270.241,127.873V94.425h14.269l14.59,37.806V94.425h13.219
		v33.446l2.798,2.615l-2.798,2.569v33.354l0.046,0.092l-14.32,0.001L283.5,128.744v37.76h-13.259v-33.447l-2.799-2.569
		L270.241,127.873z M190.166,94.425l5.46,36.842l7.295-36.842h11.011l7.249,36.888l5.46-36.888h13.672l-12.066,72.078h-13.581
		l-6.239-31.153l-6.286,31.153h-13.58L176.54,94.425H190.166z M139.352,127.872V94.425h34.456v13.305h-21.151v16.059h18.215v13.352
		h-18.215v16.058h21.427l-0.001,13.304h-34.731v-33.447l-2.799-2.569L139.352,127.872z M35.611,94.425H54.33l14.407,72.078H55.156
		l-3.212-16.059H37.997l-3.212,16.059H21.204L35.611,94.425z M34.556,215.345v33.448H21.204v-33.447l-2.798-2.569l2.798-2.615
		v-33.447h13.352v33.446l2.753,2.615L34.556,215.345z M82.582,248.792l-14.315,0.001l-14.543-37.76v37.76h-13.26v-33.447
		l-2.799-2.569l2.799-2.615v-33.447h14.269l14.59,37.806v-37.806h13.214v33.446l2.799,2.615l-2.799,2.569V248.7L82.582,248.792z
		 M88.536,130.487l2.799-2.615V94.425h14.269l14.59,37.806V94.425h13.214v33.446l2.798,2.615l-2.798,2.569v33.354l0.046,0.092
		l-14.316,0.002l-14.543-37.76v37.76h-13.26v-33.447L88.536,130.487z M145.462,206.446l-5.139,6.239l5.139,6.378v22.206
		l-8.533,7.524h-31.795v-33.446l-2.799-2.569l2.799-2.615v-33.447h31.795l8.533,7.57V206.446z M181.515,248.793l-3.212-16.059
		h-13.947l-3.212,16.059h-13.58l14.406-72.078h18.719l14.406,72.078H181.515z M239.86,248.792l-14.316,0.001L211,211.033v37.76
		h-13.259v-33.447l-2.799-2.569l2.799-2.615v-33.447h14.269l14.59,37.806v-37.806h13.214v33.446l2.798,2.615l-2.798,2.569V248.7
		L239.86,248.792z M273.377,248.793l-14.314-29.363v29.363h-13.305v-33.447l-2.799-2.569l2.799-2.615v-33.448h13.305v29.363
		l14.314-29.363h14.819l-17.801,36.062l17.801,36.017H273.377z M304.155,215.345v33.448h-13.351v-33.447l-2.799-2.569l2.799-2.615
		v-33.447h13.351v33.446l2.753,2.615L304.155,215.345z M352.181,248.792l-14.314,0.001l-14.544-37.76v37.76H310.06v-33.447
		l-2.799-2.569l2.799-2.615v-33.447h14.271l14.59,37.806v-37.806h13.214v33.446l2.798,2.615l-2.798,2.569V248.7L352.181,248.792z
		 M398.852,215.345v25.924l-8.626,7.524H366.28l-8.487-7.524v-25.923l-2.753-2.569l2.753-2.615v-25.876l8.625-7.57h23.812
		l8.627,7.57v11.286H385.55v-5.552h-14.41v20.142l2.804,2.615l-2.804,2.569v20.142h14.406V219.43h-9.084v-13.352h22.39v4.083
		l2.804,2.615L398.852,215.345z M416.964,248.648h-13.305v-13.306h13.305V248.648z M414.971,133.055v33.448H401.62v-40.604
		l-11.607,24.775l-11.562-24.775v40.604h-13.305v-33.447l-2.804-2.569l2.804-2.615V94.425h13.305l11.562,24.775l11.607-24.775
		h13.351v33.446l2.753,2.615L414.971,133.055z M455.602,166.503H420.87v-33.447l-2.799-2.569l2.799-2.615V94.425h34.456v13.305
		h-21.151v16.059h18.215v13.352h-18.215v16.058h21.427V166.503z"/>
</g>
</svg>
