<?xml version="1.0" encoding="utf-8"?>
<!-- Generator: Adobe Illustrator 15.1.0, SVG Export Plug-In . SVG Version: 6.00 Build 0)  -->
<!DOCTYPE svg PUBLIC "-//W3C//DTD SVG 1.1//EN" "http://www.w3.org/Graphics/SVG/1.1/DTD/svg11.dtd">
<svg version="1.1" id="Layer_1" xmlns="http://www.w3.org/2000/svg" xmlns:xlink="http://www.w3.org/1999/xlink" x="0px" y="0px"
	 width="807px" height="180px" viewBox="0 0 807 180" enable-background="new 0 0 807 180" xml:space="preserve">
<rect y="76.013" fill="#2EB135" width="253" height="103.987"/>
<g>
	<path fill="#FFFFFF" d="M56.896,156.533l-8.22,7.287h-22.26l-8.308-7.287v-11.24h12.885v5.643h13.018v-15.551H26.417l-8.308-7.33
		v-26.703l8.308-7.332h22.26l8.22,7.287v10.842H44.011v-5.243H30.993v15.551h17.683l8.22,7.331V156.533z"/>
	<path fill="#FFFFFF" d="M97.688,106.904H84.893v19.506l2.666,2.531l-2.666,2.488v32.391h-12.93V131.43l-2.71-2.488l2.71-2.531
		v-19.506H59.167V94.02h38.521V106.904z"/>
	<path fill="#FFFFFF" d="M140.48,156.533l-8.309,7.287H108.18l-8.22-7.287V131.43l-2.71-2.488l2.71-2.531v-25.059l8.22-7.332h23.992
		l8.309,7.332v25.059l2.666,2.531l-2.666,2.488L140.48,156.533L140.48,156.533z M127.551,131.43l-2.71-2.488l2.71-2.531v-19.506
		h-14.706v19.506l2.71,2.531l-2.71,2.488v19.506h14.706V131.43z"/>
	<path fill="#FFFFFF" d="M145.875,131.43l-2.666-2.488l2.666-2.531V131.43z M187.418,163.82H173.6l-10.974-28.437h-3.821v28.437
		h-12.93V94.02h30.969l8.22,7.332v25.637l-8.798,8.22L187.418,163.82z M158.805,122.455h13.373v-15.596h-13.373V122.455z"/>
	<path fill="#FFFFFF" d="M215.774,138.094v25.727h-13.062v-25.814L187.25,94.02h13.24l8.797,25.992l8.664-25.992h13.685
		L215.774,138.094z"/>
</g>
<g>
	<path d="M-0.272,0.321h30.937V9.42H20.2v54.593H10.191V9.42H-0.272V0.321z"/>
	<path d="M44.304,64.013H34.295V0.321h10.009v27.296h11.373V0.321h10.191v63.692H55.677V36.717H44.304V64.013z"/>
	<path d="M81.136,27.163h13.739v9.099H81.136v18.653h17.287v9.099H71.127V0.321h27.296V9.42H81.136V27.163z"/>
</g>
</svg>
