<?xml version="1.0" encoding="utf-8"?>
<!-- Generator: Adobe Illustrator 15.1.0, SVG Export Plug-In . SVG Version: 6.00 Build 0)  -->
<!DOCTYPE svg PUBLIC "-//W3C//DTD SVG 1.1//EN" "http://www.w3.org/Graphics/SVG/1.1/DTD/svg11.dtd">
<svg version="1.1" xmlns="http://www.w3.org/2000/svg" xmlns:xlink="http://www.w3.org/1999/xlink" x="0px" y="0px" width="807px"
	 height="599.822px" viewBox="0 0 807 599.822" enable-background="new 0 0 807 599.822" xml:space="preserve">
<g id="Layer_1" display="none">
	<g display="inline">
		<path fill="#FFFFFF" d="M626.5,106.631V0H0v81.937v24.695v79.937h494.5v-79.937H626.5z"/>
	</g>
	<text transform="matrix(1 0 0 1 14.9224 86.7266)" display="inline"><tspan x="0" y="0" fill="#FFFFFF" font-family="'BebasNeue'" font-size="48.5459" letter-spacing="-3"> </tspan><tspan x="3.932" y="0" fill="#2AA331" font-family="'BebasNeue'" font-size="91.9272">‘</tspan><tspan x="21.949" y="0" fill="#2AA331" font-family="'LegendM54'" font-size="91.9272">The</tspan><tspan x="157.256" y="0" fill="#2AA331" font-family="'LegendM54'" font-size="91.9272" letter-spacing="-2"> A</tspan><tspan x="226.97" y="0" fill="#2AA331" font-family="'LegendM54'" font-size="91.9272">ct</tspan><tspan x="316.655" y="0" fill="#2AA331" font-family="'LegendM54'" font-size="91.9272">i</tspan><tspan x="336.875" y="0" fill="#2AA331" font-family="'LegendM54'" font-size="91.9272" letter-spacing="-11">v</tspan><tspan x="376.05" y="0" fill="#2AA331" font-family="'LegendM54'" font-size="91.9272" letter-spacing="-8">a</tspan><tspan x="420.563" y="0" fill="#2AA331" font-family="'LegendM54'" font-size="91.9272">tion  </tspan><tspan x="0" y="84" fill="#2AA331" font-family="'LegendM54'" font-size="91.9272" letter-spacing="-4"> </tspan><tspan x="17.847" y="84" fill="#2AA331" font-family="'LegendM54'" font-size="91.9272" letter-spacing="-6"> </tspan><tspan x="33.855" y="84" fill="#2AA331" font-family="'LegendM54'" font-size="91.9272">Impe</tspan><tspan x="197.642" y="84" fill="#2AA331" font-family="'LegendM54'" font-size="91.9272" letter-spacing="-4">r</tspan><tspan x="241.253" y="84" fill="#2AA331" font-family="'LegendM54'" font-size="91.9272" letter-spacing="-8">a</tspan><tspan x="285.766" y="84" fill="#2AA331" font-family="'LegendM54'" font-size="91.9272">tiv</tspan><tspan x="398.636" y="84" fill="#2AA331" font-family="'LegendM54'" font-size="91.9272">e</tspan><tspan x="439.818" y="84" fill="#2AA331" font-family="'BebasNeue'" font-size="91.9272">’</tspan></text>
	<text transform="matrix(1 0 0 1 0 252.9033)" display="inline"><tspan x="0" y="0" fill="#FFFFFF" font-family="'BebasNeue'" font-size="70.8535">An in-depth study of sponsorship  </tspan><tspan x="0" y="63.544" fill="#FFFFFF" font-family="'BebasNeue'" font-size="70.8535">activation in the Premier League.</tspan></text>
</g>
<g id="outlined">
	<g>
		<polygon fill="#FFFFFF" points="207.538,58 215.976,58 211.757,36.903 		"/>
		<polygon fill="#FFFFFF" points="511.484,48.932 514.223,51.491 511.484,54.004 511.484,73.709 526.342,73.709 526.342,54.004 
			523.604,51.491 526.342,48.932 526.342,29.227 511.484,29.227 		"/>
		<rect x="134.562" y="113.227" fill="#FFFFFF" width="13.241" height="20.558"/>
		<rect x="222.223" y="113.182" fill="#FFFFFF" width="13.511" height="15.755"/>
		<path fill="#FFFFFF" d="M0,0v81.937v24.695v79.937h494.5v-79.937h132V0H0z M420.022,16.21l14.095,70.517H420.83l-3.142-15.71
			h-13.646l-3.143,15.71h-13.286l14.094-70.517H420.022z M361.815,16.21c1.825,8.259,3.299,14.925,4.421,19.997
			s2.671,11.962,4.646,20.67c1.945-8.708,3.479-15.605,4.601-20.692c1.122-5.087,2.61-11.745,4.466-19.975h13.331l-15.71,70.517
			h-13.376L348.439,16.21H361.815z M328.219,48.932V16.21h13.062v32.722l2.693,2.559l-2.693,2.514v32.722h-13.062V54.004
			l-2.738-2.514L328.219,48.932z M283.938,16.21h38.917v13.017h-12.927v19.705l2.693,2.559l-2.693,2.514v32.722h-13.062V54.004
			l-2.738-2.514l2.738-2.559V29.227h-12.927V16.21z M238.534,48.932V23.616l8.304-7.406h23.207l8.528,7.451v10.863h-13.017v-5.297
			h-14.004v19.705l2.738,2.559l-2.738,2.514v19.705h14.004v-5.701h13.017v11.356l-8.528,7.361h-23.207l-8.304-7.361V54.004
			l-2.738-2.514L238.534,48.932z M79.633,48.932V16.21H92.65v28.728h14.768V16.21h13.017v32.722l2.738,2.559l-2.738,2.514v32.722
			h-13.017V58H92.65v28.727H79.633V54.004l-2.738-2.514L79.633,48.932z M25.777,41.311h-9.745v-8.734l4.413-10.205h4.137
			l-2.666,9.193h3.861V41.311z M58.481,138.004v32.722H45.419v-32.722l-2.738-2.514l2.738-2.559V100.21h13.062v32.722l2.693,2.559
			L58.481,138.004z M59.502,54.004v32.722H46.44V54.004l-2.738-2.514l2.738-2.559V29.227H33.513V16.21H72.43v13.017H59.502v19.705
			l2.693,2.559L59.502,54.004z M114.387,138.004v32.722h-13.062v-39.725l-11.356,24.239l-11.311-24.239v39.725H65.64v-32.722
			l-2.738-2.514l2.738-2.559V100.21h13.017l11.311,24.239l11.356-24.239h13.062v32.722l2.693,2.559L114.387,138.004z
			 M160.82,139.306l-8.438,7.496h-17.82v23.924h-13.017v-32.722l-2.738-2.514l2.738-2.559V100.21h30.837l8.438,7.451V139.306z
			 M161.617,86.727h-33.979V54.004l-2.738-2.514l2.738-2.559V16.21h33.709v13.017h-20.692v15.71h17.82V58h-17.82v15.71h20.962
			V86.727z M202.003,170.727h-33.979v-32.722l-2.738-2.514l2.738-2.559V100.21h33.709v13.017h-20.692v15.71h17.82V142h-17.82v15.71
			h20.962V170.727z M201.792,86.727h-13.286L202.6,16.21h18.313l14.095,70.517h-13.287l-3.142-15.71h-13.646L201.792,86.727z
			 M237.17,170.727L226.083,142h-3.86v28.727h-13.062v-32.722l-2.693-2.514l2.693-2.559V100.21h31.286l8.304,7.406v25.899
			l-8.888,8.304l11.267,28.907H237.17z M286.034,170.727l-3.142-15.71h-13.646l-3.142,15.71h-13.286l14.094-70.517h18.313
			l14.095,70.517H286.034z M336.247,113.227H323.32v19.705l2.693,2.559l-2.693,2.514v32.722h-13.062v-32.722l-2.738-2.514
			l2.738-2.559v-19.705h-12.927V100.21h38.917V113.227z M354.674,138.004v32.722h-13.062v-32.722l-2.738-2.514l2.738-2.559V100.21
			h13.062v32.722l2.693,2.559L354.674,138.004z M389.125,170.727h-13.376l-15.755-70.517h13.376
			c1.825,8.259,3.299,14.925,4.421,19.997s2.671,11.962,4.646,20.67c1.945-8.708,3.479-15.605,4.601-20.692
			c1.122-5.087,2.61-11.745,4.466-19.975h13.331L389.125,170.727z M444.18,170.727H410.2v-32.722l-2.738-2.514l2.738-2.559V100.21
			h33.71v13.017h-20.693v15.71h17.82V142h-17.82v15.71h20.963V170.727z M461.662,115.106l-4.412,10.205h-4.137l2.666-9.193h-3.861
			v-9.745h9.744V115.106z M471.044,29.227h-12.927v19.705l2.692,2.559l-2.692,2.514v32.722h-13.062V54.004l-2.738-2.514l2.738-2.559
			V29.227h-12.928V16.21h38.917V29.227z M491.309,54.004v32.722h-13.062V54.004l-2.738-2.514l2.738-2.559V16.21h13.062v32.722
			l2.693,2.559L491.309,54.004z M539.404,54.004v25.361l-8.395,7.361h-24.238l-8.304-7.361V54.004l-2.738-2.514l2.738-2.559V23.616
			l8.304-7.406h24.238l8.395,7.406v25.316l2.693,2.559L539.404,54.004z M587.768,86.727h-14.004l-14.229-36.941v36.941h-12.973
			V54.004l-2.738-2.514l2.738-2.559V16.21h13.959l14.274,36.986V16.21h12.927v32.722l2.738,2.559l-2.738,2.514v32.632
			L587.768,86.727z"/>
		<polygon fill="#FFFFFF" points="410.865,36.903 406.646,58 415.085,58 		"/>
		<polygon fill="#FFFFFF" points="271.85,142 280.288,142 276.069,120.903 		"/>
	</g>
	<g>
		<path fill="#FFFFFF" d="M28.055,252.903h-7.864l-1.346-8.998H9.281l-1.346,8.998H0.779l7.935-49.593h11.406L28.055,252.903z
			 M10.273,237.175h7.51l-3.755-25.08L10.273,237.175z"/>
		<path fill="#FFFFFF" d="M39.323,216.984v35.919h-7.014v-49.593h9.777l8.005,29.685v-29.685h6.943v49.593h-8.005L39.323,216.984z"
			/>
		<path fill="#FFFFFF" d="M75.033,203.311h7.793v49.593h-7.793V203.311z"/>
		<path fill="#FFFFFF" d="M96.145,216.984v35.919h-7.014v-49.593h9.777l8.005,29.685v-29.685h6.943v49.593h-8.005L96.145,216.984z"
			/>
		<path fill="#FFFFFF" d="M119.81,224.564h14.169v7.085H119.81V224.564z"/>
		<path fill="#FFFFFF" d="M140.002,203.311h12.327c7.793,0,11.619,4.322,11.619,12.257v25.08c0,7.935-3.826,12.256-11.619,12.256
			h-12.327V203.311z M147.795,210.396v35.423h4.393c2.479,0,3.967-1.275,3.967-4.818v-25.788c0-3.542-1.488-4.817-3.967-4.817
			H147.795z"/>
		<path fill="#FFFFFF" d="M177.412,224.21h10.698v7.084h-10.698v14.524h13.461v7.084h-21.254v-49.593h21.254v7.085h-13.461V224.21z"
			/>
		<path fill="#FFFFFF" d="M219.497,215.567v6.447c0,7.935-3.826,12.256-11.619,12.256h-3.684v18.633h-7.793v-49.593h11.477
			C215.671,203.311,219.497,207.632,219.497,215.567z M204.194,210.396v16.791h3.684c2.479,0,3.826-1.134,3.826-4.676v-7.439
			c0-3.542-1.346-4.676-3.826-4.676H204.194z"/>
		<path fill="#FFFFFF" d="M221.554,203.311h24.088v7.085h-8.147v42.508h-7.793v-42.508h-8.147V203.311z"/>
		<path fill="#FFFFFF" d="M257.546,252.903h-7.793v-49.593h7.793v21.254h8.856v-21.254h7.935v49.593h-7.935v-21.254h-8.856V252.903z
			"/>
		<path fill="#FFFFFF" d="M302.891,202.744c7.581,0,11.477,4.534,11.477,12.469v1.559H307v-2.055c0-3.542-1.417-4.888-3.896-4.888
			s-3.896,1.346-3.896,4.888c0,10.202,15.232,12.115,15.232,26.284c0,7.935-3.967,12.469-11.619,12.469
			c-7.652,0-11.619-4.534-11.619-12.469v-3.046h7.368v3.542c0,3.542,1.559,4.817,4.038,4.817c2.48,0,4.039-1.275,4.039-4.817
			c0-10.202-15.232-12.115-15.232-26.284C291.413,207.278,295.31,202.744,302.891,202.744z"/>
		<path fill="#FFFFFF" d="M317.346,203.311h24.088v7.085h-8.147v42.508h-7.793v-42.508h-8.147V203.311z"/>
		<path fill="#FFFFFF" d="M352.983,203.311v38.257c0,3.542,1.559,4.817,4.038,4.817s4.038-1.275,4.038-4.817v-38.257h7.368v37.761
			c0,7.935-3.967,12.469-11.619,12.469s-11.619-4.534-11.619-12.469v-37.761H352.983z"/>
		<path fill="#FFFFFF" d="M374.452,203.311h12.327c7.793,0,11.619,4.322,11.619,12.257v25.08c0,7.935-3.826,12.256-11.619,12.256
			h-12.327V203.311z M382.245,210.396v35.423h4.393c2.479,0,3.967-1.275,3.967-4.818v-25.788c0-3.542-1.488-4.817-3.967-4.817
			H382.245z"/>
		<path fill="#FFFFFF" d="M411.365,236.467l-9.848-33.156h8.147l5.951,22.6l5.951-22.6h7.438l-9.848,33.156v16.437h-7.793V236.467z"
			/>
		<path fill="#FFFFFF" d="M443.888,215.213c0-7.935,4.18-12.469,11.831-12.469s11.832,4.534,11.832,12.469v25.788
			c0,7.935-4.181,12.469-11.832,12.469s-11.831-4.534-11.831-12.469V215.213z M451.681,241.497c0,3.542,1.559,4.888,4.038,4.888
			s4.038-1.346,4.038-4.888v-26.78c0-3.542-1.559-4.888-4.038-4.888s-4.038,1.346-4.038,4.888V241.497z"/>
		<path fill="#FFFFFF" d="M481.084,225.344h10.061v7.084h-10.061v20.475h-7.793v-49.593h20.616v7.085h-12.823V225.344z"/>
		<path fill="#FFFFFF" d="M520.549,202.744c7.58,0,11.477,4.534,11.477,12.469v1.559h-7.367v-2.055c0-3.542-1.417-4.888-3.897-4.888
			c-2.479,0-3.896,1.346-3.896,4.888c0,10.202,15.232,12.115,15.232,26.284c0,7.935-3.968,12.469-11.619,12.469
			s-11.618-4.534-11.618-12.469v-3.046h7.367v3.542c0,3.542,1.559,4.817,4.039,4.817c2.479,0,4.038-1.275,4.038-4.817
			c0-10.202-15.232-12.115-15.232-26.284C509.071,207.278,512.968,202.744,520.549,202.744z"/>
		<path fill="#FFFFFF" d="M560.367,215.567v6.447c0,7.935-3.825,12.256-11.619,12.256h-3.684v18.633h-7.793v-49.593h11.477
			C556.542,203.311,560.367,207.632,560.367,215.567z M545.064,210.396v16.791h3.684c2.48,0,3.826-1.134,3.826-4.676v-7.439
			c0-3.542-1.346-4.676-3.826-4.676H545.064z"/>
		<path fill="#FFFFFF" d="M564.054,215.213c0-7.935,4.18-12.469,11.831-12.469s11.832,4.534,11.832,12.469v25.788
			c0,7.935-4.181,12.469-11.832,12.469s-11.831-4.534-11.831-12.469V215.213z M571.847,241.497c0,3.542,1.559,4.888,4.038,4.888
			s4.038-1.346,4.038-4.888v-26.78c0-3.542-1.559-4.888-4.038-4.888s-4.038,1.346-4.038,4.888V241.497z"/>
		<path fill="#FFFFFF" d="M600.4,216.984v35.919h-7.014v-49.593h9.777l8.006,29.685v-29.685h6.942v49.593h-8.006L600.4,216.984z"/>
		<path fill="#FFFFFF" d="M634.905,202.744c7.58,0,11.477,4.534,11.477,12.469v1.559h-7.367v-2.055c0-3.542-1.417-4.888-3.897-4.888
			c-2.479,0-3.896,1.346-3.896,4.888c0,10.202,15.232,12.115,15.232,26.284c0,7.935-3.968,12.469-11.619,12.469
			s-11.618-4.534-11.618-12.469v-3.046h7.367v3.542c0,3.542,1.559,4.817,4.039,4.817c2.479,0,4.038-1.275,4.038-4.817
			c0-10.202-15.232-12.115-15.232-26.284C623.428,207.278,627.324,202.744,634.905,202.744z"/>
		<path fill="#FFFFFF" d="M650.989,215.213c0-7.935,4.18-12.469,11.831-12.469s11.832,4.534,11.832,12.469v25.788
			c0,7.935-4.181,12.469-11.832,12.469s-11.831-4.534-11.831-12.469V215.213z M658.782,241.497c0,3.542,1.559,4.888,4.038,4.888
			s4.038-1.346,4.038-4.888v-26.78c0-3.542-1.559-4.888-4.038-4.888s-4.038,1.346-4.038,4.888V241.497z"/>
		<path fill="#FFFFFF" d="M696.688,252.903c-0.426-1.275-0.709-2.055-0.709-6.093v-7.793c0-4.605-1.559-6.306-5.101-6.306h-2.692
			v20.191h-7.793v-49.593h11.761c8.076,0,11.548,3.755,11.548,11.406v3.897c0,5.101-1.63,8.431-5.102,10.06
			c3.897,1.629,5.172,5.384,5.172,10.556v7.651c0,2.409,0.071,4.18,0.851,6.022H696.688z M688.187,210.396v15.232h3.047
			c2.904,0,4.676-1.275,4.676-5.243v-4.889c0-3.542-1.205-5.101-3.968-5.101H688.187z"/>
		<path fill="#FFFFFF" d="M720.069,202.744c7.58,0,11.477,4.534,11.477,12.469v1.559h-7.367v-2.055c0-3.542-1.417-4.888-3.897-4.888
			c-2.479,0-3.896,1.346-3.896,4.888c0,10.202,15.232,12.115,15.232,26.284c0,7.935-3.968,12.469-11.619,12.469
			s-11.618-4.534-11.618-12.469v-3.046h7.367v3.542c0,3.542,1.559,4.817,4.039,4.817c2.479,0,4.038-1.275,4.038-4.817
			c0-10.202-15.232-12.115-15.232-26.284C708.592,207.278,712.488,202.744,720.069,202.744z"/>
		<path fill="#FFFFFF" d="M744.585,252.903h-7.793v-49.593h7.793v21.254h8.855v-21.254h7.936v49.593h-7.936v-21.254h-8.855V252.903z
			"/>
		<path fill="#FFFFFF" d="M767.754,203.311h7.793v49.593h-7.793V203.311z"/>
		<path fill="#FFFFFF" d="M805.02,215.567v6.447c0,7.935-3.825,12.256-11.619,12.256h-3.684v18.633h-7.793v-49.593H793.4
			C801.194,203.311,805.02,207.632,805.02,215.567z M789.717,210.396v16.791h3.684c2.48,0,3.826-1.134,3.826-4.676v-7.439
			c0-3.542-1.346-4.676-3.826-4.676H789.717z"/>
		<path fill="#FFFFFF" d="M28.055,316.447h-7.864l-1.346-8.997H9.281l-1.346,8.997H0.779l7.935-49.593h11.406L28.055,316.447z
			 M10.273,300.72h7.51l-3.755-25.08L10.273,300.72z"/>
		<path fill="#FFFFFF" d="M54.98,297.957v6.588c0,7.935-3.968,12.469-11.619,12.469s-11.619-4.534-11.619-12.469v-25.788
			c0-7.935,3.967-12.469,11.619-12.469s11.619,4.534,11.619,12.469v4.817h-7.368v-5.313c0-3.542-1.559-4.888-4.038-4.888
			c-2.48,0-4.039,1.346-4.039,4.888v26.78c0,3.542,1.559,4.817,4.039,4.817c2.479,0,4.038-1.275,4.038-4.817v-7.084H54.98z"/>
		<path fill="#FFFFFF" d="M58.17,266.854h24.088v7.085H74.11v42.508h-7.793v-42.508H58.17V266.854z"/>
		<path fill="#FFFFFF" d="M86.368,266.854h7.793v49.593h-7.793V266.854z"/>
		<path fill="#FFFFFF" d="M112.298,307.308l5.951-40.453h7.156l-7.651,49.593h-11.619l-7.651-49.593h7.864L112.298,307.308z"/>
		<path fill="#FFFFFF" d="M154.95,316.447h-7.864l-1.346-8.997h-9.564l-1.346,8.997h-7.156l7.935-49.593h11.406L154.95,316.447z
			 M137.168,300.72h7.51l-3.755-25.08L137.168,300.72z"/>
		<path fill="#FFFFFF" d="M157.008,266.854h24.088v7.085h-8.147v42.508h-7.793v-42.508h-8.147V266.854z"/>
		<path fill="#FFFFFF" d="M185.207,266.854H193v49.593h-7.793V266.854z"/>
		<path fill="#FFFFFF" d="M198.739,278.757c0-7.935,4.18-12.469,11.832-12.469c7.651,0,11.831,4.534,11.831,12.469v25.788
			c0,7.935-4.18,12.469-11.831,12.469c-7.652,0-11.832-4.534-11.832-12.469V278.757z M206.532,305.041
			c0,3.542,1.559,4.889,4.039,4.889c2.479,0,4.038-1.347,4.038-4.889v-26.78c0-3.542-1.559-4.888-4.038-4.888
			c-2.48,0-4.039,1.346-4.039,4.888V305.041z"/>
		<path fill="#FFFFFF" d="M235.085,280.528v35.919h-7.014v-49.593h9.777l8.005,29.685v-29.685h6.943v49.593h-8.005L235.085,280.528z
			"/>
		<path fill="#FFFFFF" d="M270.795,266.854h7.793v49.593h-7.793V266.854z"/>
		<path fill="#FFFFFF" d="M291.908,280.528v35.919h-7.014v-49.593h9.777l8.005,29.685v-29.685h6.943v49.593h-8.005L291.908,280.528z
			"/>
		<path fill="#FFFFFF" d="M325.351,266.854h24.088v7.085h-8.147v42.508h-7.793v-42.508h-8.147V266.854z"/>
		<path fill="#FFFFFF" d="M361.342,316.447h-7.793v-49.593h7.793v21.254h8.856v-21.254h7.935v49.593h-7.935v-21.254h-8.856V316.447z
			"/>
		<path fill="#FFFFFF" d="M392.305,287.754h10.698v7.084h-10.698v14.523h13.461v7.085h-21.254v-49.593h21.254v7.085h-13.461V287.754
			z"/>
		<path fill="#FFFFFF" d="M446.08,279.111v6.447c0,7.935-3.825,12.256-11.619,12.256h-3.684v18.633h-7.793v-49.593h11.477
			C442.255,266.854,446.08,271.176,446.08,279.111z M430.777,273.939v16.791h3.684c2.48,0,3.826-1.134,3.826-4.676v-7.439
			c0-3.542-1.346-4.676-3.826-4.676H430.777z"/>
		<path fill="#FFFFFF" d="M466.7,316.447c-0.426-1.275-0.709-2.055-0.709-6.093v-7.793c0-4.605-1.559-6.306-5.101-6.306h-2.692
			v20.191h-7.793v-49.593h11.761c8.076,0,11.548,3.755,11.548,11.406v3.897c0,5.101-1.63,8.431-5.102,10.06
			c3.897,1.629,5.172,5.384,5.172,10.556v7.652c0,2.408,0.071,4.18,0.851,6.021H466.7z M458.198,273.939v15.232h3.047
			c2.904,0,4.676-1.275,4.676-5.243v-4.889c0-3.542-1.205-5.101-3.968-5.101H458.198z"/>
		<path fill="#FFFFFF" d="M487.389,287.754h10.698v7.084h-10.698v14.523h13.461v7.085h-21.254v-49.593h21.254v7.085h-13.461V287.754
			z"/>
		<path fill="#FFFFFF" d="M522.885,302.065l5.313-35.211h10.84v49.593h-7.368v-35.565l-5.384,35.565h-7.368l-5.81-35.069v35.069
			h-6.802v-49.593h10.84L522.885,302.065z"/>
		<path fill="#FFFFFF" d="M545.418,266.854h7.793v49.593h-7.793V266.854z"/>
		<path fill="#FFFFFF" d="M567.38,287.754h10.698v7.084H567.38v14.523h13.461v7.085h-21.254v-49.593h21.254v7.085H567.38V287.754z"
			/>
		<path fill="#FFFFFF" d="M602.665,316.447c-0.426-1.275-0.709-2.055-0.709-6.093v-7.793c0-4.605-1.559-6.306-5.101-6.306h-2.692
			v20.191h-7.793v-49.593h11.761c8.076,0,11.548,3.755,11.548,11.406v3.897c0,5.101-1.63,8.431-5.102,10.06
			c3.897,1.629,5.172,5.384,5.172,10.556v7.652c0,2.408,0.071,4.18,0.851,6.021H602.665z M594.163,273.939v15.232h3.047
			c2.904,0,4.676-1.275,4.676-5.243v-4.889c0-3.542-1.205-5.101-3.968-5.101H594.163z"/>
		<path fill="#FFFFFF" d="M627.252,266.854h7.793v42.508h12.823v7.085h-20.616V266.854z"/>
		<path fill="#FFFFFF" d="M659.771,287.754h10.698v7.084h-10.698v14.523h13.461v7.085h-21.254v-49.593h21.254v7.085h-13.461V287.754
			z"/>
		<path fill="#FFFFFF" d="M703.982,316.447h-7.864l-1.347-8.997h-9.563l-1.347,8.997h-7.155l7.935-49.593h11.406L703.982,316.447z
			 M686.199,300.72h7.51l-3.755-25.08L686.199,300.72z"/>
		<path fill="#FFFFFF" d="M719.996,288.817h10.91v15.728c0,7.935-3.967,12.469-11.618,12.469s-11.619-4.534-11.619-12.469v-25.788
			c0-7.935,3.968-12.469,11.619-12.469s11.618,4.534,11.618,12.469v4.817h-7.368v-5.313c0-3.542-1.559-4.888-4.038-4.888
			s-4.038,1.346-4.038,4.888v26.78c0,3.542,1.559,4.817,4.038,4.817s4.038-1.275,4.038-4.817v-9.139h-3.542V288.817z"/>
		<path fill="#FFFFFF" d="M744.087,266.854v38.258c0,3.542,1.559,4.817,4.038,4.817c2.48,0,4.039-1.275,4.039-4.817v-38.258h7.368
			v37.762c0,7.935-3.968,12.469-11.619,12.469s-11.619-4.534-11.619-12.469v-37.762H744.087z"/>
		<path fill="#FFFFFF" d="M773.349,287.754h10.698v7.084h-10.698v14.523h13.461v7.085h-21.254v-49.593h21.254v7.085h-13.461V287.754
			z"/>
		<path fill="#FFFFFF" d="M799.849,308.938v7.51h-7.51v-7.51H799.849z"/>
	</g>
</g>
</svg>
