<?xml version="1.0" encoding="utf-8"?>
<!-- Generator: Adobe Illustrator 15.1.0, SVG Export Plug-In . SVG Version: 6.00 Build 0)  -->
<!DOCTYPE svg PUBLIC "-//W3C//DTD SVG 1.1//EN" "http://www.w3.org/Graphics/SVG/1.1/DTD/svg11.dtd">
<svg version="1.1" id="Layer_1" xmlns="http://www.w3.org/2000/svg" xmlns:xlink="http://www.w3.org/1999/xlink" x="0px" y="0px"
	 width="200px" height="75px" viewBox="0 0 200 75" enable-background="new 0 0 200 75" xml:space="preserve">
<g>
	<g>
		<g>
			<path fill="#1A171B" d="M149.734,51.736c2.351-6.865,0.736-14.344-4.08-18.575c-6.809,3.454-11.483,10.503-11.483,18.659
				c0,3.578,0.901,6.943,2.483,9.89C142.357,60.634,147.539,58.15,149.734,51.736z"/>
			<path fill="#1A171B" d="M155.102,30.89c-2.824,0-5.517,0.567-7.976,1.582c9.812,4.111,14.854,9.672,14.854,15.006
				c-0.045,3.295-1.732,5.557-3.871,7.352h14.283c0.402,0,0.498,0.479,0,0.584l-35.049,7.45c3.695,5.928,10.256,9.886,17.758,9.886
				c11.56,0,20.93-9.369,20.93-20.93C176.031,40.261,166.661,30.89,155.102,30.89z"/>
		</g>
		<g>
			<path fill="#1A171B" d="M40.378,69.111L34.65,53.891h-4.951L23.97,69.111h4.451l0.752-2.191h6.003l0.753,2.191H40.378z
				 M34.104,63.498h-3.857l1.94-5.729L34.104,63.498z"/>
			<rect x="41.953" y="53.891" fill="#1A171B" width="3.925" height="15.221"/>
			<path fill="#1A171B" d="M62.058,69.111l-3.104-5.592c1.437-0.502,3.034-1.916,3.034-4.564c0-2.828-1.916-5.064-5.294-5.064
				h-7.622v15.221h3.926V64h2.009l2.555,5.111H62.058z M56.102,60.576h-3.104v-3.264h3.104c1.049,0,1.895,0.57,1.895,1.621
				C57.996,60.006,57.15,60.576,56.102,60.576z"/>
			<polygon fill="#1A171B" points="74.585,69.111 74.585,65.688 68.47,65.688 68.47,53.891 64.544,53.891 64.544,69.111 			"/>
			<rect x="77.05" y="53.891" fill="#1A171B" width="3.925" height="15.221"/>
			<polygon fill="#1A171B" points="98.318,69.111 98.318,53.891 94.371,53.891 94.371,62.266 88.207,53.891 84.17,53.891 
				84.17,69.111 88.095,69.111 88.095,60.301 94.53,69.111 			"/>
			<polygon fill="#1A171B" points="112.673,69.111 112.673,65.688 105.438,65.688 105.438,63.107 112.512,63.107 112.512,59.688 
				105.438,59.688 105.438,57.312 112.673,57.312 112.673,53.891 101.514,53.891 101.514,69.111 			"/>
			<path fill="#1A171B" d="M121.068,69.385c4.086,0,6.346-2.029,6.346-5.088c0-5.66-8.604-4.246-8.604-6.115
				c0-0.664,0.502-1.051,1.643-1.051c1.506,0,3.173,0.523,4.449,1.598l2.146-2.941c-1.618-1.396-3.741-2.123-6.185-2.123
				c-3.902,0-6.049,2.281-6.049,4.836c0,5.865,8.604,4.201,8.604,6.209c0,0.754-0.82,1.211-2.145,1.211
				c-2.101,0-3.791-0.916-4.887-2.012l-2.074,3.059C115.843,68.404,117.988,69.385,121.068,69.385z"/>
			<g>
				<polygon fill="#1A171B" points="33.048,49.748 33.048,37.953 37.291,37.953 37.291,34.527 24.854,34.527 24.854,37.953 
					29.122,37.953 29.122,49.748 				"/>
				<path fill="#1A171B" d="M47.051,50.023c4.884,0,7.166-2.67,7.166-6.459v-9.039h-3.972v8.924c0,1.803-1.095,3.104-3.194,3.104
					c-2.121,0-3.217-1.302-3.217-3.104v-8.924H39.84v9.061C39.84,47.332,42.168,50.023,47.051,50.023z"/>
				<path fill="#1A171B" d="M70.928,49.748l-3.103-5.59c1.439-0.502,3.035-1.916,3.035-4.562c0-2.832-1.916-5.068-5.294-5.068
					h-7.622v15.221h3.925v-5.11h2.01l2.555,5.11L70.928,49.748L70.928,49.748z M64.973,41.215h-3.104v-3.262h3.104
					c1.051,0,1.896,0.57,1.896,1.619C66.868,40.645,66.023,41.215,64.973,41.215z"/>
				<polygon fill="#1A171B" points="87.748,49.748 81.519,41.648 87.428,34.527 82.592,34.527 77.912,40.779 77.912,34.527 
					73.988,34.527 73.988,49.748 77.912,49.748 77.912,45.299 78.938,44.023 82.934,49.748 				"/>
				<rect x="89.869" y="34.527" fill="#1A171B" width="3.926" height="15.221"/>
				<path fill="#1A171B" d="M103.152,50.023c4.084,0,6.344-2.031,6.344-5.09c0-5.656-8.604-4.244-8.604-6.113
					c0-0.662,0.502-1.049,1.646-1.049c1.504,0,3.169,0.523,4.448,1.596l2.146-2.945c-1.62-1.391-3.743-2.121-6.187-2.121
					c-3.9,0-6.046,2.281-6.046,4.838c0,5.863,8.603,4.197,8.603,6.209c0,0.75-0.822,1.207-2.145,1.207
					c-2.1,0-3.79-0.914-4.884-2.008l-2.077,3.059C97.926,49.041,100.072,50.023,103.152,50.023z"/>
				<polygon fill="#1A171B" points="126.452,49.748 126.452,34.527 122.525,34.527 122.525,40.234 116.206,40.234 116.206,34.527 
					112.282,34.527 112.282,49.748 116.206,49.748 116.206,43.656 122.525,43.656 122.525,49.748 				"/>
			</g>
		</g>
	</g>
</g>
</svg>
