<?xml version="1.0" encoding="utf-8"?>
<!-- Generator: Adobe Illustrator 15.1.0, SVG Export Plug-In . SVG Version: 6.00 Build 0)  -->
<!DOCTYPE svg PUBLIC "-//W3C//DTD SVG 1.1//EN" "http://www.w3.org/Graphics/SVG/1.1/DTD/svg11.dtd">
<svg version="1.1" id="Layer_1" xmlns="http://www.w3.org/2000/svg" xmlns:xlink="http://www.w3.org/1999/xlink" x="0px" y="0px"
	 width="806px" height="677.865px" viewBox="0 0 806 677.865" enable-background="new 0 0 806 677.865" xml:space="preserve">
<g>
	<path fill="#FFFFFF" d="M13.648,64.373H3.64V0.682h10.009v27.296h11.373V0.682h10.191v63.691H25.021V37.076H13.648V64.373z"/>
	<path fill="#FFFFFF" d="M39.517,15.967c0-10.189,5.368-16.014,15.195-16.014s15.195,5.824,15.195,16.014v33.12
		c0,10.19-5.368,16.015-15.195,16.015s-15.195-5.824-15.195-16.015V15.967z M49.525,49.725c0,4.549,2.002,6.277,5.187,6.277
		s5.187-1.729,5.187-6.277V15.33c0-4.549-2.002-6.277-5.187-6.277s-5.187,1.729-5.187,6.277V49.725z"/>
	<path fill="#FFFFFF" d="M96.776,30.435l-3.64,33.938H79.397L72.301,0.682h9.735l5.368,50.225l4.822-50.225h9.645l5.005,50.589
		l5.187-50.589h8.734L113.7,64.373h-13.284L96.776,30.435z"/>
	<path fill="#FFFFFF" d="M136.085,0.682h30.937V9.78h-10.464v54.593h-10.009V9.78h-10.464V0.682L136.085,0.682z"/>
	<path fill="#FFFFFF" d="M179.996,0.682v49.133c0,4.55,2.002,6.188,5.187,6.188s5.187-1.638,5.187-6.188V0.682h9.462v48.496
		c0,10.191-5.095,16.014-14.922,16.014c-9.826,0-14.922-5.822-14.922-16.014V0.682H179.996z"/>
	<path fill="#FFFFFF" d="M225.309,64.373c-0.546-1.638-0.909-2.639-0.909-7.825V46.539c0-5.914-2.002-8.098-6.552-8.098h-3.457
		v25.932h-10.009V0.682h15.104c10.373,0,14.831,4.822,14.831,14.648v5.005c0,6.551-2.093,10.827-6.551,12.92
		c5.004,2.093,6.643,6.915,6.643,13.558v9.826c0,3.094,0.091,5.369,1.092,7.734H225.309z M214.391,9.78v19.562h3.912
		c3.73,0,6.006-1.638,6.006-6.733v-6.278c0-4.55-1.547-6.551-5.096-6.551H214.391z"/>
	<path fill="#FFFFFF" d="M252.271,38.987l-3.094,5.823v19.562h-10.009V0.682h10.009v27.751L262.28,0.682h10.008L258.366,29.07
		l13.921,35.303h-10.281L252.271,38.987z"/>
	<path fill="#FFFFFF" d="M275.536,0.682h10.009v63.691h-10.009V0.682z"/>
	<path fill="#FFFFFF" d="M304.287-0.047c9.736,0,14.74,5.824,14.74,16.014v2.002h-9.463V15.33c0-4.549-1.819-6.277-5.008-6.277
		c-3.185,0-5.005,1.729-5.005,6.277c0,13.103,19.562,15.56,19.562,33.757c0,10.19-5.099,16.015-14.922,16.015
		c-9.826,0-14.922-5.824-14.922-16.015v-3.913h9.463v4.551c0,4.549,2.002,6.187,5.187,6.187c3.188,0,5.188-1.638,5.188-6.187
		c0-13.104-19.562-15.56-19.562-33.758C289.547,5.777,294.552-0.047,304.287-0.047z"/>
	<path fill="#FFFFFF" d="M332.913,64.373h-10.009V0.682h10.009v27.296h11.373V0.682h10.188v63.691h-10.188V37.076h-11.373V64.373z"
		/>
	<path fill="#FFFFFF" d="M407.343,64.373h-10.1l-1.729-11.556h-12.279l-1.729,11.556h-9.188l10.188-63.691h14.649L407.343,64.373z
		 M384.505,44.174h9.646l-4.822-32.21L384.505,44.174z"/>
	<path fill="#FFFFFF" d="M410.638,0.682h10.013v63.691h-10.013V0.682z"/>
	<path fill="#FFFFFF" d="M446.294,64.373c-0.545-1.638-0.908-2.639-0.908-7.825V46.539c0-5.914-2.002-8.098-6.553-8.098h-3.457
		v25.932h-10.008V0.682h15.104c10.373,0,14.83,4.822,14.83,14.648v5.005c0,6.551-2.092,10.827-6.551,12.92
		c5.004,2.093,6.643,6.915,6.643,13.558v9.826c0,3.094,0.095,5.369,1.097,7.734H446.294z M435.376,9.78v19.562h3.912
		c3.729,0,6.006-1.638,6.006-6.733v-6.278c0-4.55-1.547-6.551-5.096-6.551H435.376z"/>
	<path fill="#FFFFFF" d="M460.154,0.682h10.01v54.593h16.469v9.099h-26.479V0.682z"/>
	<path fill="#FFFFFF" d="M489.798,0.682h10.008v63.691h-10.008V0.682z"/>
	<path fill="#FFFFFF" d="M513.492,18.242v46.131h-9.008V0.682h12.555l10.283,38.123V0.682h8.916v63.691h-10.281L513.492,18.242z"/>
	<path fill="#FFFFFF" d="M551.005,27.523h13.74v9.098h-13.74v18.653h17.287v9.099h-27.295V0.682h27.295V9.78h-17.287V27.523z"/>
	<path fill="#FFFFFF" d="M586.4-0.047c9.733,0,14.737,5.824,14.737,16.014v2.002h-9.463V15.33c0-4.549-1.815-6.277-5.004-6.277
		c-3.186,0-5.006,1.729-5.006,6.277c0,13.103,19.562,15.56,19.562,33.757c0,10.19-5.097,16.015-14.923,16.015
		c-9.823,0-14.922-5.824-14.922-16.015v-3.913h9.463v4.551c0,4.549,2.002,6.187,5.188,6.187c3.184,0,5.186-1.638,5.186-6.187
		c0-13.104-19.562-15.56-19.562-33.758C571.66,5.777,576.666-0.047,586.4-0.047z"/>
	<path fill="#FFFFFF" d="M0.728,80.051h30.937v9.1H21.2v54.593H11.191V89.15H0.728V80.051z"/>
	<path fill="#FFFFFF" d="M34.221,95.338c0-10.191,5.368-16.014,15.195-16.014s15.195,5.822,15.195,16.014v33.119
		c0,10.191-5.368,16.014-15.195,16.014s-15.195-5.822-15.195-16.014V95.338z M44.229,129.094c0,4.55,2.002,6.278,5.187,6.278
		s5.187-1.729,5.187-6.278V94.701c0-4.55-2.002-6.279-5.187-6.279s-5.187,1.729-5.187,6.279V129.094z"/>
	<path fill="#FFFFFF" d="M68.36,95.338c0-10.191,5.368-16.014,15.195-16.014c9.827,0,15.195,5.822,15.195,16.014v33.119
		c0,10.191-5.368,16.014-15.195,16.014c-9.827,0-15.195-5.822-15.195-16.014V95.338z M78.369,129.094
		c0,4.55,2.002,6.278,5.187,6.278s5.187-1.729,5.187-6.278V94.701c0-4.55-2.002-6.279-5.187-6.279s-5.187,1.729-5.187,6.279V129.094
		z"/>
	<path fill="#FFFFFF" d="M116.158,118.357l-3.094,5.823v19.562h-10.009V80.051h10.009v27.752l13.103-27.752h10.008l-13.921,28.389
		l13.921,35.304h-10.281L116.158,118.357z"/>
	<path fill="#FFFFFF" d="M186.311,143.743h-10.1l-1.729-11.556h-12.283l-1.729,11.556h-9.189l10.19-63.692h14.649L186.311,143.743z
		 M163.473,123.544h9.645l-4.822-32.21L163.473,123.544z"/>
	<path fill="#FFFFFF" d="M233.809,95.793v8.279c0,10.191-4.913,15.741-14.922,15.741h-4.731v23.93h-10.009V80.051h14.74
		C228.896,80.051,233.809,85.602,233.809,95.793z M214.155,89.15v21.564h4.731c3.185,0,4.913-1.456,4.913-6.006v-9.554
		c0-4.55-1.729-6.005-4.913-6.005L214.155,89.15L214.155,89.15z"/>
	<path fill="#FFFFFF" d="M237.104,80.051h10.009v63.692h-10.009V80.051z"/>
	<path fill="#FFFFFF" d="M261.843,106.893h13.739v9.1h-13.739v18.652h17.287v9.099h-27.296V80.051h27.296v9.1h-17.287V106.893z"/>
	<path fill="#FFFFFF" d="M312.396,119.995v8.462c0,10.191-5.1,16.014-14.922,16.014c-9.827,0-14.923-5.822-14.923-16.014V95.338
		c0-10.191,5.096-16.014,14.923-16.014c9.826,0,14.922,5.822,14.922,16.014v6.187h-9.467v-6.823c0-4.55-2.002-6.279-5.187-6.279
		c-3.185,0-5.187,1.729-5.187,6.279v34.393c0,4.55,2.002,6.188,5.187,6.188c3.185,0,5.187-1.638,5.187-6.188v-9.099L312.396,119.995
		L312.396,119.995z"/>
	<path fill="#FFFFFF" d="M326.354,106.893h13.739v9.1h-13.739v18.652h17.287v9.099h-27.296V80.051h27.296v9.1h-17.287V106.893z"/>
	<path fill="#FFFFFF" d="M362.205,95.338c0-10.191,5.368-16.014,15.195-16.014c9.823,0,15.191,5.822,15.191,16.014v33.119
		c0,10.191-5.368,16.014-15.191,16.014c-9.827,0-15.195-5.822-15.195-16.014V95.338z M372.214,129.094
		c0,4.55,2.002,6.278,5.188,6.278c3.185,0,5.187-1.729,5.187-6.278V94.701c0-4.55-2.002-6.279-5.187-6.279
		c-3.188,0-5.188,1.729-5.188,6.279V129.094z"/>
	<path fill="#FFFFFF" d="M406.91,108.349h12.92v9.099h-12.92v26.296H396.9V80.051h26.478v9.1H406.91V108.349z"/>
</g>
<g>
	<polygon fill="#FFFFFF" points="548.851,292.005 551.652,294.62 548.851,297.189 548.851,317.331 564.039,317.331 564.039,297.189 
		561.24,294.62 564.039,292.005 564.039,271.863 548.851,271.863 	"/>
	<rect x="229.495" y="189.654" fill="#FFFFFF" width="13.811" height="16.104"/>
	<rect x="447.089" y="189.654" fill="#FFFFFF" width="13.812" height="16.104"/>
	<polygon fill="#FFFFFF" points="38.57,301.274 47.194,301.274 42.882,279.71 	"/>
	<polygon fill="#FFFFFF" points="47.607,215.025 44.808,212.456 47.607,209.841 47.607,189.699 32.421,189.699 32.421,209.841 
		35.22,212.456 32.421,215.025 32.421,235.167 47.608,235.167 	"/>
	<polygon fill="#FFFFFF" points="281.134,219.109 289.758,219.109 285.446,197.545 	"/>
	<polygon fill="#FFFFFF" points="130.496,215.026 127.697,212.457 130.496,209.842 130.496,189.7 115.768,189.7 115.768,209.842 
		118.521,212.457 115.768,215.026 115.768,235.168 130.496,235.168 	"/>
	<polygon fill="#FFFFFF" points="271.601,292.006 274.354,294.621 271.601,297.19 271.601,317.332 286.329,317.332 286.329,297.19 
		283.53,294.621 286.329,292.006 286.329,271.864 271.601,271.864 	"/>
	<polygon fill="#FFFFFF" points="508.33,215.026 505.531,212.457 508.33,209.842 508.33,189.7 493.601,189.7 493.601,209.842 
		496.353,212.457 493.601,215.026 493.601,235.168 508.33,235.168 	"/>
	<polygon fill="#FFFFFF" points="678.71,292.006 681.464,294.621 678.71,297.19 678.71,317.332 693.439,317.332 693.439,297.19 
		690.638,294.621 693.439,292.006 693.439,271.864 678.71,271.864 	"/>
	<path fill="#FFFFFF" d="M544.671,241.108v-80.991H0v80.991v23.641v83.338h746V241.108H544.671z M480.251,209.841v-33.446h32.758
		l8.625,7.616v25.83l2.799,2.615l-2.799,2.569v25.877l-8.625,7.57h-32.758v-33.447l-2.754-2.569L480.251,209.841z M386.047,183.965
		l8.487-7.57h24.771l8.58,7.57v25.876l2.752,2.615l-2.752,2.569v25.923l-8.58,7.524h-24.771l-8.487-7.524v-25.923l-2.799-2.569
		l2.799-2.615V183.965z M348.961,176.394h34.456v13.305h-21.105v16.059h18.173v13.352h-18.173v29.363h-13.351v-33.447l-2.753-2.569
		l2.753-2.615V176.394z M248.123,176.394l8.487,7.57v26.473l-9.084,8.488l11.516,29.547h-14.269l-11.332-29.363h-3.946v29.363
		h-13.351v-33.448l-2.752-2.568l2.752-2.614v-33.448H248.123z M173.729,176.394h39.777l0.001,13.305h-13.213v20.142l2.753,2.615
		l-2.753,2.569v33.447h-13.352v-33.447l-2.799-2.569l2.799-2.615v-20.142h-13.213V176.394z M102.417,209.841v-33.446h32.759
		l8.626,7.616v25.83l2.799,2.615l-2.799,2.569v25.877l-8.626,7.57h-32.759v-33.447l-2.752-2.569L102.417,209.841z M66.812,209.841
		v-33.447h13.352v33.446l2.798,2.615l-2.798,2.569v20.142H99.8l-0.001,13.306H66.812v-33.447l-2.753-2.569L66.812,209.841z
		 M19.117,209.841v-25.876l8.487-7.57h24.775l8.579,7.57v25.876l2.754,2.615l-2.754,2.569v25.923l-8.579,7.524H27.604l-8.487-7.524
		v-25.923l-2.799-2.569L19.117,209.841z M53.067,330.637l-3.212-16.059H35.908l-3.212,16.059h-13.58l14.406-72.078h18.719
		l14.406,72.078H53.067z M97.934,330.637l-11.333-29.363h-3.945v29.363H69.304V297.19l-2.752-2.569l2.752-2.615v-33.447h31.979
		l8.488,7.57v26.473l-9.084,8.488l11.515,29.547H97.934z M157.434,297.189v25.923l-8.58,7.524h-24.775l-8.487-7.524v-25.923
		l-2.799-2.569l2.799-2.615v-25.876l8.487-7.57h24.775l8.58,7.57v25.876l2.752,2.615L157.434,297.189z M204.609,297.189
		l-0.001,25.878l-8.718,7.57h-24.27l-8.533-7.524V297.19l-2.799-2.569l2.799-2.615v-33.447h13.305v33.446l2.799,2.615l-2.799,2.569
		v20.142h14.911v-20.142l-2.799-2.569l2.799-2.615v-33.446h13.306v33.446l2.753,2.615L204.609,297.189z M252.399,330.636
		l-14.316,0.001l-14.544-37.76v37.76H210.28V297.19l-2.799-2.569l2.799-2.615v-33.447h14.269l14.59,37.806v-37.806h13.214v33.446
		l2.798,2.615l-2.798,2.569v33.355L252.399,330.636z M299.635,297.189v25.877l-8.626,7.57h-32.758v-33.447l-2.753-2.569l2.753-2.615
		v-33.446h32.758l8.626,7.616v25.83l2.799,2.615L299.635,297.189z M295.631,248.472l-3.212-16.059h-13.947l-3.212,16.059h-13.58
		l14.406-72.078h18.719l14.406,72.078H295.631z M309.115,212.457l2.753-2.615v-33.448h34.456v13.305h-21.105v16.059h18.169v13.352
		h-18.169v29.363h-13.351v-33.447L309.115,212.457z M348.798,297.19v33.447h-13.352V297.19l-2.8-2.569l2.8-2.615v-20.142h-13.213
		v-13.305h39.773l0.004,13.305h-13.213v20.142l2.753,2.615L348.798,297.19z M406.343,297.189v33.448h-13.305v-29.363h-15.095v29.363
		h-13.309V297.19l-2.799-2.569l2.799-2.615v-33.447h13.309v29.363h15.095v-29.363h13.305v33.446l2.799,2.615L406.343,297.189z
		 M447.013,330.637h-0.004H412.28V297.19l-2.799-2.569l2.799-2.615v-33.447h34.457v13.305h-21.152v16.059H443.8v13.352h-18.215
		v16.058h21.428V330.637z M451.034,219.109h-3.945v29.363h-13.352v-33.448l-2.751-2.568l2.751-2.614v-33.448h31.979l8.488,7.57
		v26.473l-9.084,8.488l11.516,29.547h-14.27L451.034,219.109z M507.736,330.637l-6.238-31.153l-6.287,31.153h-13.58l-12.02-72.078
		h13.625l5.461,36.842l7.295-36.842H507l7.25,36.888l5.459-36.888h13.671l-12.062,72.078H507.736z M577.39,297.189v25.923
		l-8.58,7.524h-24.772l-8.486-7.524v-25.923l-2.799-2.569l2.799-2.615v-25.876l8.486-7.57h24.772l8.58,7.57v25.876l2.752,2.615
		L577.39,297.189z M611.87,330.637l-11.332-29.363h-3.945v29.363h-13.352v-33.448l-2.751-2.568l2.751-2.614v-33.448h31.979
		l8.488,7.57v26.473l-9.084,8.488l11.516,29.547H611.87z M662.747,330.637h-0.005h-32.986V297.19l-2.754-2.569l2.754-2.615v-33.447
		h13.354v33.446l2.799,2.615l-2.799,2.569v20.142h19.637V330.637z M706.746,297.189v25.877l-8.627,7.57h-32.758v-33.447
		l-2.752-2.569l2.752-2.615v-33.446h32.758l8.627,7.616v25.83l2.799,2.615L706.746,297.189z M724.828,330.648h-13.305v-13.306
		h13.305V330.648z"/>
	<polygon fill="#FFFFFF" points="128.895,292.005 131.694,294.62 128.895,297.189 128.895,317.331 144.082,317.331 144.082,297.189 
		141.283,294.62 144.082,292.005 144.082,271.863 128.895,271.863 	"/>
	<polygon fill="#FFFFFF" points="414.535,215.025 411.736,212.456 414.535,209.841 414.535,189.699 399.347,189.699 
		399.347,209.841 402.149,212.456 399.347,215.025 399.347,235.167 414.535,235.167 	"/>
	<rect x="596.593" y="271.819" fill="#FFFFFF" width="13.812" height="16.104"/>
	<rect x="82.655" y="271.819" fill="#FFFFFF" width="13.811" height="16.104"/>
</g>
</svg>
