<?xml version="1.0" encoding="utf-8"?>
<!-- Generator: Adobe Illustrator 15.1.0, SVG Export Plug-In . SVG Version: 6.00 Build 0)  -->
<!DOCTYPE svg PUBLIC "-//W3C//DTD SVG 1.1//EN" "http://www.w3.org/Graphics/SVG/1.1/DTD/svg11.dtd">
<svg version="1.1" id="Layer_1" xmlns="http://www.w3.org/2000/svg" xmlns:xlink="http://www.w3.org/1999/xlink" x="0px" y="0px"
	 width="50px" height="50px" viewBox="0 0 50 50" enable-background="new 0 0 50 50" xml:space="preserve">
<g>
	<path fill="#FFFFFF" d="M24.921,0C11.167,0,0,11.166,0,24.921c0,13.771,11.167,24.937,24.921,24.937
		c13.771,0,24.937-11.166,24.937-24.937C49.857,11.15,38.689,0,24.921,0L24.921,0z M37.338,19.337l0.016,0.792
		c0,8.109-6.179,17.462-17.469,17.462c-3.468,0-6.693-1.016-9.4-2.769c0.47,0.063,0.957,0.095,1.459,0.095
		c2.876,0,5.523-0.987,7.622-2.633c-2.692-0.048-4.943-1.827-5.735-4.263c0.38,0.08,0.762,0.109,1.156,0.109
		c0.562,0,1.11-0.076,1.613-0.213c-2.8-0.566-4.915-3.042-4.915-6.01v-0.079c0.822,0.458,1.765,0.733,2.77,0.763
		c-1.643-1.095-2.723-2.983-2.723-5.099c0-1.126,0.304-2.189,0.836-3.088c3.013,3.712,7.546,6.146,12.644,6.408
		c-0.107-0.443-0.152-0.915-0.152-1.402c0-3.377,2.737-6.131,6.131-6.131c1.765,0,3.363,0.747,4.488,1.932
		c1.385-0.272,2.707-0.774,3.896-1.476c-0.457,1.434-1.431,2.632-2.708,3.393c1.246-0.152,2.436-0.487,3.529-0.974
		C39.573,17.39,38.521,18.469,37.338,19.337L37.338,19.337z"/>
</g>
</svg>
