<?xml version="1.0" encoding="utf-8"?>
<!-- Generator: Adobe Illustrator 15.1.0, SVG Export Plug-In . SVG Version: 6.00 Build 0)  -->
<!DOCTYPE svg PUBLIC "-//W3C//DTD SVG 1.1//EN" "http://www.w3.org/Graphics/SVG/1.1/DTD/svg11.dtd">
<svg version="1.1" id="Layer_1" xmlns="http://www.w3.org/2000/svg" xmlns:xlink="http://www.w3.org/1999/xlink" x="0px" y="0px"
	 width="806px" height="677.865px" viewBox="0 0 806 677.865" enable-background="new 0 0 806 677.865" xml:space="preserve">
<g>
	<path fill="#FFFFFF" d="M25.841,30.482l-3.64,33.938H8.462L1.365,0.729H11.1l5.368,50.225L21.29,0.729h9.645l5.005,50.589
		l5.187-50.589h8.734l-7.096,63.692H29.48L25.841,30.482z"/>
	<path fill="#FFFFFF" d="M63.384,27.571h13.739v9.099H63.384v18.652h17.287v9.1H53.375V0.729h27.296v9.099H63.384V27.571z"/>
	<path fill="#FFFFFF" d="M129.079,40.672v8.463c0,10.189-5.097,16.015-14.922,16.015c-9.827,0-14.923-5.824-14.923-16.015V16.014
		C99.234,5.825,104.33,0,114.157,0c9.825,0,14.922,5.824,14.922,16.014v6.188h-9.463v-6.823c0-4.55-2.003-6.277-5.187-6.277
		c-3.186,0-5.188,1.729-5.188,6.277v34.395c0,4.549,2.002,6.188,5.188,6.188c3.184,0,5.187-1.639,5.187-6.188v-9.1h9.463V40.672z"/>
	<path fill="#FFFFFF" d="M153.954,64.422c-0.546-1.639-0.909-2.64-0.909-7.826V46.588c0-5.914-2.002-8.099-6.552-8.099h-3.457
		v25.933h-10.009V0.729h15.104c10.373,0,14.831,4.821,14.831,14.647v5.006c0,6.551-2.093,10.826-6.551,12.92
		c5.005,2.093,6.644,6.914,6.644,13.558v9.826c0,3.094,0.09,5.368,1.092,7.733h-10.192L153.954,64.422L153.954,64.422z
		 M143.036,9.828V29.39h3.912c3.729,0,6.006-1.639,6.006-6.733v-6.278c0-4.55-1.547-6.551-5.097-6.551H143.036z"/>
	<path fill="#FFFFFF" d="M177.822,27.571h13.738v9.099h-13.738v18.652h17.287v9.1h-27.297V0.729h27.297v9.099h-17.287V27.571z"/>
	<path fill="#FFFFFF" d="M232.943,64.422h-10.101l-1.729-11.557h-12.282l-1.729,11.557h-9.188l10.19-63.691h14.648L232.943,64.422z
		 M210.105,44.221h9.645l-4.822-32.209L210.105,44.221z"/>
	<path fill="#FFFFFF" d="M230.225,0.729h30.937v9.099h-10.464v54.594h-10.01V9.828h-10.463V0.729L230.225,0.729z"/>
	<path fill="#FFFFFF" d="M274.346,27.571h13.738v9.099h-13.738v18.652h17.286v9.1h-27.296V0.729h27.296v9.099h-17.286V27.571z"/>
	<path fill="#FFFFFF" d="M311.015,0.729h10.013v63.692h-10.013V0.729z"/>
	<path fill="#FFFFFF" d="M325.745,0.729h15.832c10.009,0,14.922,5.55,14.922,15.739V48.68c0,10.189-4.913,15.74-14.922,15.74
		h-15.832V0.729z M335.754,9.828v45.494h5.641c3.188,0,5.1-1.638,5.1-6.188v-33.12c0-4.549-1.911-6.187-5.1-6.187L335.754,9.828
		L335.754,9.828z"/>
	<path fill="#FFFFFF" d="M370.721,27.571h13.739v9.099h-13.739v18.652h17.287v9.1h-27.296V0.729h27.296v9.099h-17.287V27.571z"/>
	<path fill="#FFFFFF" d="M425.843,64.422h-10.1l-1.73-11.557h-12.279l-1.729,11.557h-9.188l10.188-63.691h14.65L425.843,64.422z
		 M403.005,44.221h9.647l-4.822-32.209L403.005,44.221z"/>
	<path fill="#FFFFFF" d="M442.513,0.002c9.736,0,14.74,5.823,14.74,16.014v2.002h-9.463v-2.639c0-4.55-1.82-6.277-5.004-6.277
		c-3.188,0-5.006,1.729-5.006,6.277c0,13.103,19.562,15.56,19.562,33.756c0,10.19-5.096,16.016-14.922,16.016
		s-14.92-5.824-14.92-16.016v-3.914h9.463v4.552c0,4.549,2.002,6.187,5.188,6.187c3.186,0,5.186-1.638,5.186-6.187
		c0-13.104-19.561-15.56-19.561-33.759C427.773,5.825,432.777,0.002,442.513,0.002z"/>
	<path fill="#FFFFFF" d="M0.728,80.099h30.937v9.1H21.2v54.593H11.191V89.198H0.728V80.099z"/>
	<path fill="#FFFFFF" d="M44.849,143.791H34.84V80.099h10.009v27.297h11.374V80.099h10.19v63.692h-10.19v-27.297H44.849V143.791z"/>
	<path fill="#FFFFFF" d="M104.736,143.791h-10.1l-1.729-11.556H80.626l-1.729,11.556h-9.188L79.898,80.1h14.648L104.736,143.791z
		 M81.898,123.592h9.646l-4.821-32.211L81.898,123.592z"/>
	<path fill="#FFFFFF" d="M102.018,80.099h30.938v9.1H122.49v54.593h-10.01V89.198h-10.463L102.018,80.099L102.018,80.099z"/>
	<path fill="#FFFFFF" d="M179.541,120.043v8.463c0,10.19-5.096,16.014-14.922,16.014c-9.827,0-14.924-5.822-14.924-16.014V95.385
		c0-10.19,5.097-16.014,14.924-16.014c9.826,0,14.922,5.822,14.922,16.014v6.188h-9.463V94.75c0-4.551-2.002-6.279-5.188-6.279
		c-3.185,0-5.187,1.729-5.187,6.279v34.393c0,4.55,2.002,6.188,5.187,6.188c3.186,0,5.188-1.638,5.188-6.188v-9.1H179.541
		L179.541,120.043z"/>
	<path fill="#FFFFFF" d="M183.125,95.385c0-10.19,5.368-16.014,15.195-16.014c9.826,0,15.195,5.822,15.195,16.014v33.119
		c0,10.191-5.369,16.015-15.195,16.015c-9.827,0-15.195-5.822-15.195-16.015V95.385z M193.134,129.142
		c0,4.55,2.003,6.278,5.187,6.278c3.186,0,5.188-1.729,5.188-6.278V94.75c0-4.551-2.002-6.279-5.188-6.279
		c-3.184,0-5.187,1.729-5.187,6.279V129.142z"/>
	<path fill="#FFFFFF" d="M226.792,97.66v46.131h-9.008V80.099h12.556l10.282,38.125V80.099h8.917v63.692h-10.282L226.792,97.66z"/>
	<path fill="#FFFFFF" d="M263.27,97.66v46.131h-9.008V80.099h12.557l10.281,38.125V80.099h8.918v63.692h-10.283L263.27,97.66z"/>
	<path fill="#FFFFFF" d="M300.784,106.94h13.739v9.101h-13.739v18.651h17.287v9.099h-27.296V80.099h27.296v9.1h-17.287V106.94z"/>
	<path fill="#FFFFFF" d="M351.339,120.043v8.463c0,10.19-5.096,16.014-14.922,16.014c-9.827,0-14.923-5.822-14.923-16.014V95.385
		c0-10.19,5.096-16.014,14.923-16.014c9.826,0,14.922,5.822,14.922,16.014v6.188h-9.463V94.75c0-4.551-2.002-6.279-5.187-6.279
		c-3.188,0-5.188,1.729-5.188,6.279v34.393c0,4.55,2.002,6.188,5.188,6.188c3.185,0,5.187-1.638,5.187-6.188v-9.1H351.339
		L351.339,120.043z"/>
	<path fill="#FFFFFF" d="M353.731,80.099h30.937v9.1h-10.464v54.593h-10.009V89.198h-10.464V80.099L353.731,80.099z"/>
	<path fill="#FFFFFF" d="M33.574,174.118v2.275c0,6.551-2.001,10.735-6.46,12.829c5.368,2.093,7.461,6.914,7.461,13.646v5.188
		c0,9.825-5.186,15.104-15.194,15.104H3.64v-63.69h15.104C29.116,159.469,33.574,164.293,33.574,174.118z M13.648,168.568v16.833
		h3.912c3.73,0,6.006-1.64,6.006-6.733v-3.549c0-4.55-1.547-6.551-5.096-6.551H13.648z M13.648,194.5v19.562h5.732
		c3.366,0,5.186-1.547,5.186-6.278v-5.551c0-5.914-1.91-7.733-6.46-7.733H13.648z"/>
	<path fill="#FFFFFF" d="M59.416,223.161c-0.546-1.638-0.909-2.639-0.909-7.825v-10.009c0-5.914-2.002-8.098-6.552-8.098h-3.457
		v25.932H38.489v-63.69h15.104c10.373,0,14.831,4.822,14.831,14.647v5.005c0,6.551-2.093,10.827-6.551,12.92
		c5.004,2.094,6.643,6.916,6.643,13.559v9.826c0,3.094,0.092,5.369,1.092,7.733H59.416z M48.498,168.568v19.562h3.912
		c3.73,0,6.006-1.639,6.006-6.733v-6.278c0-4.55-1.547-6.551-5.096-6.551H48.498z"/>
	<path fill="#FFFFFF" d="M107.111,223.161h-10.1l-1.729-11.556H83.001l-1.729,11.556h-9.188l10.19-63.69h14.648L107.111,223.161z
		 M84.273,202.963h9.646l-4.821-32.211L84.273,202.963z"/>
	<path fill="#FFFFFF" d="M119.38,177.03v46.131h-9.008v-63.69h12.556l10.282,38.123v-38.123h8.917v63.69h-10.281L119.38,177.03z"/>
	<path fill="#FFFFFF" d="M146.887,159.469h15.831c10.009,0,14.923,5.551,14.923,15.74v32.211c0,10.189-4.914,15.74-14.923,15.74
		h-15.831V159.469z M156.895,168.568v45.494h5.642c3.185,0,5.096-1.639,5.096-6.188v-33.121c0-4.549-1.911-6.187-5.096-6.187
		L156.895,168.568L156.895,168.568z"/>
	<path fill="#FFFFFF" d="M196.027,158.741c9.736,0,14.74,5.824,14.74,16.015v2.002h-9.463v-2.64c0-4.549-1.818-6.276-5.004-6.276
		c-3.185,0-5.005,1.729-5.005,6.276c0,13.103,19.562,15.56,19.562,33.757c0,10.19-5.094,16.016-14.922,16.016
		c-9.826,0-14.922-5.824-14.922-16.016v-3.912h9.463v4.551c0,4.549,2.002,6.187,5.188,6.187s5.186-1.638,5.186-6.187
		c0-13.104-19.562-15.561-19.562-33.758C181.288,164.565,186.293,158.741,196.027,158.741z"/>
	<path fill="#FFFFFF" d="M226.875,159.469h30.938v9.1h-10.465v54.593h-10.009v-54.593h-10.464V159.469L226.875,159.469z"/>
	<path fill="#FFFFFF" d="M260.368,174.756c0-10.189,5.368-16.015,15.194-16.015c9.828,0,15.195,5.824,15.195,16.015v33.119
		c0,10.19-5.367,16.016-15.195,16.016c-9.826,0-15.194-5.824-15.194-16.016V174.756z M270.377,208.512
		c0,4.55,2.002,6.277,5.188,6.277c3.185,0,5.187-1.729,5.187-6.277v-34.395c0-4.549-2.002-6.277-5.187-6.277
		c-3.186,0-5.188,1.729-5.188,6.277V208.512z"/>
	<path fill="#FFFFFF" d="M320.422,187.767h12.92v9.1h-12.92v26.295h-10.009v-63.69h26.478v9.099h-16.469V187.767z"/>
	<path fill="#FFFFFF" d="M369.966,223.161h-10.1l-1.729-11.556h-12.283l-1.729,11.556h-9.189l10.19-63.69h14.649L369.966,223.161z
		 M347.128,202.963h9.646l-4.822-32.211L347.128,202.963z"/>
	<path fill="#FFFFFF" d="M382.232,177.03v46.131h-9.012v-63.69h12.56l10.282,38.123v-38.123h8.916v63.69h-10.281L382.232,177.03z"/>
	<path fill="#FFFFFF" d="M423.742,158.741c9.732,0,14.74,5.824,14.74,16.015v2.002h-9.467v-2.64c0-4.549-1.816-6.276-5.004-6.276
		c-3.186,0-5.006,1.729-5.006,6.276c0,13.103,19.562,15.56,19.562,33.757c0,10.19-5.098,16.016-14.922,16.016
		c-9.826,0-14.926-5.824-14.926-16.016v-3.912h9.465v4.551c0,4.549,2.004,6.187,5.188,6.187s5.188-1.638,5.188-6.187
		c0-13.104-19.562-15.561-19.562-33.758C409.001,164.565,414.005,158.741,423.742,158.741z"/>
	<path fill="#FFFFFF" d="M454.587,159.469h30.938v9.1H475.06v54.593h-10.01v-54.593h-10.463V159.469L454.587,159.469z"/>
	<path fill="#FFFFFF" d="M488.08,174.756c0-10.189,5.369-16.015,15.195-16.015c9.824,0,15.191,5.824,15.191,16.015v33.119
		c0,10.19-5.367,16.016-15.191,16.016c-9.826,0-15.195-5.824-15.195-16.016V174.756L488.08,174.756z M498.089,208.512
		c0,4.55,2.002,6.277,5.188,6.277c3.186,0,5.188-1.729,5.188-6.277v-34.395c0-4.549-2.002-6.277-5.188-6.277
		c-3.188,0-5.188,1.729-5.188,6.277V208.512z"/>
</g>
<g>
	<rect x="184.93" y="268.639" fill="#FFFFFF" width="13.811" height="16.104"/>
	<path fill="#FFFFFF" d="M0,239.103v104.63h481.031v-104.63H0z M59.012,294.008v25.926l-8.625,7.524h-23.95l-8.488-7.524v-25.923
		l-2.752-2.569l2.752-2.615v-25.876l8.625-7.57h23.812l8.625,7.57v11.286H45.706v-5.552H31.299v20.142l2.798,2.615l-2.798,2.569
		v20.142h14.406v-16.058h-9.084v-13.353h22.391v4.083l2.799,2.615L59.012,294.008z M99.46,327.458H64.729v-33.447l-2.797-2.569
		l2.797-2.615v-33.446h34.457v13.306h-21.15v16.059H96.25v13.353H78.035v16.058H99.46V327.458z M131.236,291.442l-2.754,2.569
		v33.447H115.13v-33.447l-2.799-2.569l2.799-2.615v-20.142h-13.213V255.38h39.777l0.001,13.305h-13.213v20.142L131.236,291.442z
		 M200.207,327.458l-11.332-29.363h-3.945v29.363h-13.352v-33.447l-2.753-2.569l2.753-2.615V255.38h31.979l8.487,7.57v26.473
		l-9.084,8.488l11.517,29.547H200.207z M252.868,327.458h-34.731v-33.447l-2.799-2.569l2.799-2.615v-33.446h34.456v13.306h-21.151
		v16.059h18.216v13.353h-18.216v16.058h21.428L252.868,327.458z M296.439,274.099h-13.305v-5.414h-13.443v16.059h18.262l8.486,7.57
		v27.62l-8.486,7.524h-22.986l-8.578-7.524v-11.607h13.305v5.826h13.442v-16.058h-18.169l-8.578-7.57v-27.574l8.578-7.57h22.986
		l8.486,7.524V274.099z M343.052,294.011v25.877l-8.718,7.57h-24.271l-8.533-7.524v-25.923l-2.799-2.569l2.799-2.615v-33.446h13.305
		v33.446l2.799,2.615l-2.799,2.569v20.142h14.911v-20.142l-2.799-2.569l2.799-2.615v-33.446h13.306v33.446l2.753,2.615
		L343.052,294.011z M381.91,327.458h-32.987v-33.447l-2.753-2.569l2.753-2.615v-33.446h13.354v33.446l2.799,2.615l-2.799,2.569
		v20.142h19.637L381.91,327.458z M406.6,291.442l-2.754,2.569v33.447h-13.351v-33.447l-2.799-2.569l2.799-2.615v-20.142h-13.213
		V255.38h39.773v13.305h-13.21v20.142L406.6,291.442z M459.742,274.099h-13.309v-5.414h-13.439v16.059h18.26l8.488,7.57v27.62
		l-8.488,7.524h-22.986l-8.574-7.524v-11.607h13.305v5.826h13.441v-16.058h-18.172l-8.574-7.57v-27.574l8.574-7.57h22.986
		l8.488,7.524V274.099z"/>
</g>
</svg>
