<?xml version="1.0" encoding="utf-8"?>
<!-- Generator: Adobe Illustrator 15.1.0, SVG Export Plug-In . SVG Version: 6.00 Build 0)  -->
<!DOCTYPE svg PUBLIC "-//W3C//DTD SVG 1.1//EN" "http://www.w3.org/Graphics/SVG/1.1/DTD/svg11.dtd">
<svg version="1.1" id="Layer_1" xmlns="http://www.w3.org/2000/svg" xmlns:xlink="http://www.w3.org/1999/xlink" x="0px" y="0px"
	 width="807px" height="180px" viewBox="0 74.5 807 180" enable-background="new 0 74.5 807 180" xml:space="preserve">
<path fill="#231F20" d="M26.258,103.805l-3.583,33.427H9.142L2.151,74.5h9.59l5.287,49.468l4.75-49.468h9.499l4.929,49.827
	L41.315,74.5h8.602l-6.989,62.731H29.843L26.258,103.805z"/>
<path fill="#231F20" d="M63.681,137.231h-9.858V74.5h9.858v26.885h11.202V74.5h10.037v62.731H74.882v-26.885H63.681V137.231z"/>
<path fill="#231F20" d="M123.113,137.231h-9.947l-1.703-11.381H99.365l-1.704,11.381h-9.05L98.648,74.5h14.428L123.113,137.231z
	 M100.62,117.336h9.499l-4.75-31.724L100.62,117.336z"/>
<path fill="#231F20" d="M120.881,74.5h30.469v8.961h-10.306v53.77h-9.857v-53.77H120.88L120.881,74.5L120.881,74.5z"/>
<path fill="#231F20" d="M191.408,103.805l-3.583,33.427h-13.533L167.3,74.5h9.589l5.287,49.468l4.75-49.468h9.499l4.929,49.827
	l5.108-49.827h8.603l-6.99,62.731h-13.083L191.408,103.805z"/>
<path fill="#231F20" d="M228.83,100.938h13.533v8.961H228.83v18.372h17.028v8.961h-26.885V74.5h26.885v8.961H228.83V100.938z"/>
<path fill="#231F20" d="M275.699,137.231h-9.858V74.5h9.858v26.885H286.9V74.5h10.037v62.731H286.9v-26.885h-11.202V137.231z"/>
<path fill="#231F20" d="M335.131,137.231h-9.947l-1.703-11.381h-12.098l-1.703,11.381h-9.051L310.666,74.5h14.428L335.131,137.231z
	 M312.637,117.336h9.499l-4.75-31.724L312.637,117.336z"/>
<path fill="#231F20" d="M350.392,125.671L357.92,74.5h9.052l-9.679,62.731h-14.696L332.917,74.5h9.947L350.392,125.671z"/>
<path fill="#231F20" d="M380.52,100.938h13.532v8.961H380.52v18.372h17.027v8.961h-26.885V74.5h26.885v8.961H380.52V100.938z"/>
<g>
	<g>
		<path fill="#E31E27" d="M0,152.974V254.09h274.567V152.974H0z"/>
	</g>
</g>
<path fill="#FFFFFF" d="M72.5,201.014l2.719,2.541l-2.719,2.496v19.57h14.756v-19.57l-2.72-2.496l2.72-2.541v-19.571H72.5V201.014z
	 M188.21,210.019h8.38l-4.19-20.953L188.21,210.019z M44.455,206.051v32.498H31.481v-32.498l-2.719-2.496l2.719-2.541v-19.571
	H18.643v-12.927h38.649v12.927H44.455v19.571l2.676,2.541L44.455,206.051z M100.228,206.051v25.188l-8.336,7.311H67.819
	l-8.247-7.311v-25.188l-2.72-2.496l2.72-2.541v-25.142l8.247-7.356h24.074l8.336,7.356v25.142l2.675,2.541L100.228,206.051z
	 M167.632,186.704h-12.928v-5.262h-13.062v15.604h17.743l8.248,7.355v26.837l-8.248,7.311h-22.334l-8.337-7.311v-11.279h12.928
	v5.662h13.061v-15.603h-17.652l-8.337-7.355v-26.791l8.337-7.356h22.334l8.248,7.311V186.704L167.632,186.704z M202.297,238.549
	l-3.122-15.603h-13.552l-3.121,15.603h-13.194l13.997-70.033h18.189l13.997,70.033H202.297z M240.008,212.737v25.813h-13.106
	v-25.901l-15.513-44.132h13.284l8.827,26.078l8.692-26.078h13.73L240.008,212.737z"/>
</svg>
