<?xml version="1.0" encoding="utf-8"?>
<!-- Generator: Adobe Illustrator 15.1.0, SVG Export Plug-In . SVG Version: 6.00 Build 0)  -->
<!DOCTYPE svg PUBLIC "-//W3C//DTD SVG 1.1//EN" "http://www.w3.org/Graphics/SVG/1.1/DTD/svg11.dtd">
<svg version="1.1" id="Layer_1" xmlns="http://www.w3.org/2000/svg" xmlns:xlink="http://www.w3.org/1999/xlink" x="0px" y="0px"
	 width="807px" height="180px" viewBox="0 0 807 180" enable-background="new 0 0 807 180" xml:space="preserve">
<rect y="76.013" fill="#EB7125" width="253" height="103.987"/>
<g>
	<path fill="#FFFFFF" d="M79.867,94.02L68.182,163.82H55.03l-6.043-30.168L42.9,163.82H29.749L18.108,94.02h13.196l5.287,35.678
		l7.064-35.678h10.664l7.02,35.723l5.287-35.723H79.867z"/>
	<path fill="#FFFFFF" d="M115.754,163.82H82.12V131.43l-2.71-2.488l2.71-2.531V94.02h33.367v12.885H95.005v15.551h17.639v12.93
		H95.005v15.551h20.749V163.82z"/>
	<path fill="#FFFFFF" d="M175.868,94.02l8.354,7.375v25.016l2.71,2.531l-2.71,2.488v25.06l-8.354,7.331h-31.724V131.43l-2.666-2.488
		l2.666-2.531V94.02H175.868z M171.336,131.43l-2.71-2.488l2.71-2.531v-19.506h-14.262v19.506l2.666,2.531l-2.666,2.488v19.506
		h14.262V131.43z"/>
	<path fill="#FFFFFF" d="M229.979,156.533l-8.309,7.287h-23.992l-8.22-7.287V131.43l-2.711-2.488l2.711-2.531v-25.059l8.22-7.332
		h23.992l8.309,7.332v25.059l2.666,2.531l-2.666,2.488V156.533z M217.05,131.43l-2.71-2.488l2.71-2.531v-19.506h-14.706v19.506
		l2.71,2.531l-2.71,2.488v19.506h14.706V131.43z"/>
</g>
<g>
	<path d="M24.841,30.075l-3.64,33.938H7.462L0.365,0.321H10.1l5.368,50.226L20.29,0.321h9.645L34.94,50.91l5.187-50.589h8.734
		l-7.097,63.692H28.48L24.841,30.075z"/>
	<path d="M62.839,64.013H52.83V0.321h10.009v27.296h11.373V0.321h10.191v63.692H74.212V36.717H62.839V64.013z"/>
	<path d="M123.182,64.013h-10.1l-1.729-11.556H99.07l-1.729,11.556h-9.189l10.19-63.692h14.649L123.182,64.013z M100.344,43.814
		h9.645l-4.822-32.21L100.344,43.814z"/>
	<path d="M120.917,0.321h30.937V9.42H141.39v54.593h-10.009V9.42h-10.464V0.321z"/>
</g>
</svg>
